<svg width="87" height="118" viewBox="0 0 87 118" fill="none" xmlns="http://www.w3.org/2000/svg">
<path d="M8.70037 73.2062C8.85566 73.2062 8.99154 73.2645 9.108 73.3809C9.23093 73.4909 9.2924 73.63 9.2924 73.7983V79.408C9.2924 79.5762 9.23093 79.7185 9.108 79.835C8.98507 79.945 8.84272 80 8.68096 80C8.4998 80 8.35422 79.945 8.24422 79.835C8.13423 79.7185 8.07923 79.5762 8.07923 79.408V73.7983C8.07923 73.63 8.13746 73.4909 8.25393 73.3809C8.37039 73.2645 8.51921 73.2062 8.70037 73.2062ZM12.9998 73.2062C13.181 73.2062 13.3266 73.2645 13.4366 73.3809C13.5466 73.4909 13.6016 73.63 13.6016 73.7983V79.408C13.6016 79.5762 13.5433 79.7185 13.4269 79.835C13.3169 79.945 13.1681 80 12.9804 80C12.8252 80 12.686 79.945 12.5631 79.835C12.4466 79.7185 12.3884 79.5762 12.3884 79.408V73.7983C12.3884 73.63 12.4499 73.4909 12.5728 73.3809C12.6957 73.2645 12.8381 73.2062 12.9998 73.2062ZM8.67126 76.0305H12.9998V77.1466H8.67126V76.0305ZM19.995 77.4087C19.995 77.9392 19.8753 78.4083 19.6359 78.8159C19.403 79.2171 19.0859 79.5309 18.6848 79.7574C18.2901 79.9838 17.8469 80.0971 17.3551 80.0971C16.8634 80.0971 16.4169 79.9838 16.0158 79.7574C15.6211 79.5309 15.3041 79.2171 15.0647 78.8159C14.8317 78.4083 14.7153 77.9392 14.7153 77.4087C14.7153 76.8781 14.8317 76.4123 15.0647 76.0111C15.3041 75.6035 15.6211 75.2864 16.0158 75.06C16.4169 74.827 16.8634 74.7106 17.3551 74.7106C17.8469 74.7106 18.2901 74.827 18.6848 75.06C19.0859 75.2864 19.403 75.6035 19.6359 76.0111C19.8753 76.4123 19.995 76.8781 19.995 77.4087ZM18.8303 77.4087C18.8303 77.0787 18.7624 76.794 18.6265 76.5546C18.4971 76.3087 18.3192 76.1179 18.0927 75.982C17.8727 75.8461 17.6269 75.7782 17.3551 75.7782C17.0834 75.7782 16.8343 75.8461 16.6078 75.982C16.3878 76.1179 16.2099 76.3087 16.074 76.5546C15.9446 76.794 15.8799 77.0787 15.8799 77.4087C15.8799 77.7322 15.9446 78.0169 16.074 78.2627C16.2099 78.5021 16.3878 78.6898 16.6078 78.8257C16.8343 78.9615 17.0834 79.0295 17.3551 79.0295C17.6269 79.0295 17.8727 78.9615 18.0927 78.8257C18.3192 78.6898 18.4971 78.5021 18.6265 78.2627C18.7624 78.0169 18.8303 77.7322 18.8303 77.4087ZM24.8673 74.8076C25.0355 74.8076 25.1746 74.8659 25.2846 74.9823C25.3946 75.0923 25.4496 75.2314 25.4496 75.3997V77.8648C25.4496 78.5507 25.2588 79.0942 24.877 79.4953C24.4953 79.8965 23.9453 80.0971 23.2271 80.0971C22.5089 80.0971 21.9589 79.8965 21.5772 79.4953C21.2019 79.0942 21.0143 78.5507 21.0143 77.8648V75.3997C21.0143 75.2314 21.0693 75.0923 21.1793 74.9823C21.2893 74.8659 21.4284 74.8076 21.5966 74.8076C21.7648 74.8076 21.9039 74.8659 22.0139 74.9823C22.1239 75.0923 22.1789 75.2314 22.1789 75.3997V77.8648C22.1789 78.2595 22.2663 78.5539 22.441 78.748C22.6157 78.9356 22.8777 79.0295 23.2271 79.0295C23.583 79.0295 23.8482 78.9356 24.0229 78.748C24.1976 78.5539 24.285 78.2595 24.285 77.8648V75.3997C24.285 75.2314 24.34 75.0923 24.45 74.9823C24.56 74.8659 24.6991 74.8076 24.8673 74.8076ZM26.4096 79.1945C26.3449 79.1039 26.3158 78.9874 26.3223 78.8451C26.3287 78.7027 26.4129 78.5798 26.5746 78.4763C26.6781 78.4116 26.7881 78.3857 26.9046 78.3986C27.0211 78.4051 27.1343 78.4633 27.2443 78.5733C27.4319 78.7609 27.6293 78.9065 27.8363 79.0101C28.0434 79.1136 28.3022 79.1653 28.6127 79.1653C28.7098 79.1589 28.8166 79.1459 28.933 79.1265C29.0495 79.1006 29.1498 79.0489 29.2339 78.9712C29.3245 78.8871 29.3698 78.7609 29.3698 78.5927C29.3698 78.4504 29.3212 78.3371 29.2242 78.253C29.1271 78.1689 28.9977 78.0977 28.836 78.0395C28.6807 77.9813 28.506 77.9263 28.3119 77.8745C28.1113 77.8163 27.9042 77.7516 27.6907 77.6804C27.4837 77.6092 27.2928 77.5187 27.1181 77.4087C26.9434 77.2922 26.8011 77.1402 26.6911 76.9525C26.5811 76.7649 26.5261 76.5287 26.5261 76.244C26.5261 75.9205 26.6167 75.6455 26.7978 75.4191C26.979 75.1926 27.2119 75.0179 27.4966 74.895C27.7878 74.772 28.0919 74.7106 28.4089 74.7106C28.6095 74.7106 28.8198 74.7365 29.0398 74.7882C29.2598 74.8335 29.47 74.9112 29.6706 75.0212C29.8712 75.1247 30.0394 75.2638 30.1753 75.4385C30.2465 75.5355 30.2885 75.652 30.3015 75.7879C30.3144 75.9237 30.2529 76.0467 30.1171 76.1567C30.02 76.2343 29.9068 76.2699 29.7774 76.2634C29.648 76.2505 29.5412 76.2052 29.4571 76.1276C29.3471 75.9852 29.1983 75.872 29.0107 75.7879C28.8295 75.7038 28.6192 75.6617 28.3798 75.6617C28.2828 75.6617 28.176 75.6746 28.0595 75.7005C27.9495 75.7199 27.8525 75.7685 27.7684 75.8461C27.6843 75.9173 27.6422 76.0337 27.6422 76.1955C27.6422 76.3443 27.6907 76.464 27.7878 76.5546C27.8848 76.6387 28.0142 76.7099 28.176 76.7681C28.3442 76.8199 28.5222 76.8716 28.7098 76.9234C28.9039 76.9752 29.1012 77.0366 29.3018 77.1078C29.5024 77.179 29.6868 77.2728 29.855 77.3893C30.0233 77.5057 30.1591 77.6578 30.2626 77.8454C30.3662 78.0266 30.4179 78.2595 30.4179 78.5442C30.4179 78.8742 30.3209 79.1556 30.1268 79.3886C29.9327 79.6215 29.69 79.7994 29.3989 79.9224C29.1077 80.0388 28.8101 80.0971 28.506 80.0971C28.1242 80.0971 27.7425 80.0324 27.3607 79.9029C26.979 79.7671 26.662 79.5309 26.4096 79.1945ZM33.8383 80.0971C33.2883 80.0971 32.8095 79.9838 32.4019 79.7574C32.0008 79.5244 31.6902 79.2106 31.4702 78.8159C31.2567 78.4213 31.1499 77.9748 31.1499 77.4766C31.1499 76.8943 31.2664 76.3993 31.4993 75.9917C31.7387 75.5776 32.0493 75.2605 32.431 75.0406C32.8128 74.8206 33.2172 74.7106 33.6442 74.7106C33.9742 74.7106 34.2848 74.7785 34.5759 74.9144C34.8736 75.0503 35.1356 75.2379 35.3621 75.4773C35.5885 75.7102 35.7664 75.982 35.8959 76.2926C36.0317 76.6031 36.0997 76.9331 36.0997 77.2825C36.0932 77.4378 36.0317 77.564 35.9153 77.661C35.7988 77.7581 35.6629 77.8066 35.5076 77.8066H31.8002L31.509 76.8361H35.0709L34.8574 77.0302V76.7681C34.8444 76.5805 34.7765 76.4123 34.6536 76.2634C34.5371 76.1146 34.3883 75.9982 34.2071 75.914C34.0324 75.8235 33.8448 75.7782 33.6442 75.7782C33.4501 75.7782 33.2689 75.804 33.1007 75.8558C32.9325 75.9076 32.7869 75.9949 32.664 76.1179C32.541 76.2408 32.444 76.4058 32.3728 76.6128C32.3016 76.8199 32.266 77.0819 32.266 77.399C32.266 77.7484 32.3372 78.046 32.4796 78.2919C32.6284 78.5313 32.816 78.7157 33.0425 78.8451C33.2754 78.968 33.5213 79.0295 33.7801 79.0295C34.0195 79.0295 34.2104 79.0101 34.3527 78.9712C34.495 78.9324 34.6083 78.8871 34.6924 78.8354C34.783 78.7771 34.8638 78.7286 34.935 78.6898C35.0515 78.6315 35.1615 78.6024 35.265 78.6024C35.4073 78.6024 35.5238 78.651 35.6144 78.748C35.7114 78.8451 35.76 78.9583 35.76 79.0877C35.76 79.2624 35.6694 79.4209 35.4882 79.5633C35.32 79.7056 35.0838 79.8318 34.7797 79.9418C34.4756 80.0453 34.1618 80.0971 33.8383 80.0971ZM44.6237 73.5362C44.7919 73.6203 44.889 73.753 44.9149 73.9342C44.9472 74.1153 44.9019 74.2803 44.779 74.4291C44.6949 74.5456 44.5849 74.6103 44.449 74.6232C44.3196 74.6362 44.187 74.6103 44.0511 74.5456C43.8958 74.4744 43.7308 74.4194 43.5561 74.3806C43.3879 74.3418 43.21 74.3224 43.0223 74.3224C42.6729 74.3224 42.3591 74.3774 42.0809 74.4874C41.8091 74.5974 41.5762 74.7559 41.3821 74.9629C41.188 75.1635 41.0392 75.4029 40.9357 75.6811C40.8386 75.9593 40.7901 76.2667 40.7901 76.6031C40.7901 76.9978 40.8451 77.3407 40.9551 77.6319C41.0715 77.9231 41.2301 78.1657 41.4306 78.3598C41.6312 78.5539 41.8674 78.6995 42.1391 78.7965C42.4109 78.8871 42.7053 78.9324 43.0223 78.9324C43.197 78.9324 43.3717 78.9162 43.5464 78.8839C43.7211 78.8515 43.8893 78.7933 44.0511 78.7092C44.187 78.6445 44.3196 78.6218 44.449 78.6412C44.5849 78.6607 44.6981 78.7286 44.7887 78.8451C44.9181 79.0068 44.9634 79.175 44.9246 79.3497C44.8922 79.518 44.7952 79.6409 44.6334 79.7185C44.4652 79.8027 44.2905 79.8738 44.1093 79.9321C43.9346 79.9838 43.7567 80.0226 43.5755 80.0485C43.3944 80.0809 43.21 80.0971 43.0223 80.0971C42.5565 80.0971 42.1132 80.0226 41.6927 79.8738C41.2786 79.725 40.9065 79.505 40.5766 79.2139C40.2531 78.9227 39.9975 78.5604 39.8098 78.1269C39.6222 77.6869 39.5284 77.179 39.5284 76.6031C39.5284 76.1049 39.6125 75.6455 39.7807 75.225C39.9554 74.8044 40.1981 74.4421 40.5086 74.138C40.8257 73.8274 41.1977 73.588 41.6247 73.4198C42.0518 73.2451 42.5176 73.1577 43.0223 73.1577C43.307 73.1577 43.5852 73.1901 43.857 73.2548C44.1287 73.3195 44.3843 73.4133 44.6237 73.5362ZM47.1175 79.408C47.1175 79.5762 47.0593 79.7185 46.9428 79.835C46.8328 79.945 46.6937 80 46.5255 80C46.3637 80 46.2279 79.945 46.1179 79.835C46.0079 79.7185 45.9529 79.5762 45.9529 79.408V73.4101C45.9529 73.2418 46.0079 73.1027 46.1179 72.9927C46.2343 72.8763 46.3767 72.818 46.5449 72.818C46.7131 72.818 46.849 72.8763 46.9525 72.9927C47.0625 73.1027 47.1175 73.2418 47.1175 73.4101V79.408ZM50.8227 80.0971C50.2727 80.0971 49.7939 79.9838 49.3863 79.7574C48.9851 79.5244 48.6746 79.2106 48.4546 78.8159C48.2411 78.4213 48.1343 77.9748 48.1343 77.4766C48.1343 76.8943 48.2508 76.3993 48.4837 75.9917C48.7231 75.5776 49.0337 75.2605 49.4154 75.0406C49.7972 74.8206 50.2015 74.7106 50.6286 74.7106C50.9586 74.7106 51.2691 74.7785 51.5603 74.9144C51.8579 75.0503 52.12 75.2379 52.3464 75.4773C52.5729 75.7102 52.7508 75.982 52.8802 76.2926C53.0161 76.6031 53.084 76.9331 53.084 77.2825C53.0776 77.4378 53.0161 77.564 52.8996 77.661C52.7832 77.7581 52.6473 77.8066 52.492 77.8066H48.7846L48.4934 76.8361H52.0553L51.8418 77.0302V76.7681C51.8288 76.5805 51.7609 76.4123 51.6379 76.2634C51.5215 76.1146 51.3727 75.9982 51.1915 75.914C51.0168 75.8235 50.8292 75.7782 50.6286 75.7782C50.4345 75.7782 50.2533 75.804 50.0851 75.8558C49.9169 75.9076 49.7713 75.9949 49.6483 76.1179C49.5254 76.2408 49.4284 76.4058 49.3572 76.6128C49.286 76.8199 49.2504 77.0819 49.2504 77.399C49.2504 77.7484 49.3216 78.046 49.4639 78.2919C49.6128 78.5313 49.8004 78.7157 50.0269 78.8451C50.2598 78.968 50.5057 79.0295 50.7645 79.0295C51.0039 79.0295 51.1947 79.0101 51.3371 78.9712C51.4794 78.9324 51.5927 78.8871 51.6768 78.8354C51.7673 78.7771 51.8482 78.7286 51.9194 78.6898C52.0359 78.6315 52.1459 78.6024 52.2494 78.6024C52.3917 78.6024 52.5082 78.651 52.5988 78.748C52.6958 78.8451 52.7444 78.9583 52.7444 79.0877C52.7444 79.2624 52.6538 79.4209 52.4726 79.5633C52.3044 79.7056 52.0682 79.8318 51.7641 79.9418C51.46 80.0453 51.1462 80.0971 50.8227 80.0971ZM58.3904 74.7106C58.5587 74.7106 58.6978 74.7656 58.8078 74.8756C58.9178 74.9856 58.9728 75.1279 58.9728 75.3026V79.408C58.9728 79.5762 58.9178 79.7185 58.8078 79.835C58.6978 79.945 58.5587 80 58.3904 80C58.2222 80 58.0831 79.945 57.9731 79.835C57.8631 79.7185 57.8081 79.5762 57.8081 79.408V78.9324L58.0216 79.0198C58.0216 79.1039 57.9764 79.2074 57.8858 79.3303C57.7952 79.4468 57.6723 79.5633 57.517 79.6797C57.3617 79.7962 57.1773 79.8965 56.9638 79.9806C56.7567 80.0582 56.5303 80.0971 56.2844 80.0971C55.8379 80.0971 55.4335 79.9838 55.0712 79.7574C54.7089 79.5244 54.421 79.2074 54.2074 78.8062C54.0004 78.3986 53.8969 77.9328 53.8969 77.4087C53.8969 76.8781 54.0004 76.4123 54.2074 76.0111C54.421 75.6035 54.7056 75.2864 55.0615 75.06C55.4174 74.827 55.8121 74.7106 56.2456 74.7106C56.5238 74.7106 56.7794 74.7526 57.0123 74.8367C57.2452 74.9209 57.4458 75.0276 57.614 75.157C57.7887 75.2864 57.9214 75.4191 58.0119 75.5549C58.109 75.6844 58.1575 75.7943 58.1575 75.8849L57.8081 76.0111V75.3026C57.8081 75.1344 57.8631 74.9953 57.9731 74.8853C58.0831 74.7688 58.2222 74.7106 58.3904 74.7106ZM56.43 79.0295C56.7147 79.0295 56.9638 78.9583 57.1773 78.8159C57.3908 78.6736 57.5558 78.4795 57.6723 78.2336C57.7952 77.9878 57.8567 77.7128 57.8567 77.4087C57.8567 77.0981 57.7952 76.8199 57.6723 76.574C57.5558 76.3281 57.3908 76.134 57.1773 75.9917C56.9638 75.8493 56.7147 75.7782 56.43 75.7782C56.1517 75.7782 55.9059 75.8493 55.6924 75.9917C55.4788 76.134 55.3106 76.3281 55.1877 76.574C55.0712 76.8199 55.013 77.0981 55.013 77.4087C55.013 77.7128 55.0712 77.9878 55.1877 78.2336C55.3106 78.4795 55.4788 78.6736 55.6924 78.8159C55.9059 78.9583 56.1517 79.0295 56.43 79.0295ZM63.0095 74.7106C63.4883 74.7106 63.8506 74.8109 64.0965 75.0114C64.3489 75.212 64.5203 75.4805 64.6109 75.817C64.708 76.147 64.7565 76.5158 64.7565 76.9234V79.408C64.7565 79.5762 64.7015 79.7185 64.5915 79.835C64.4815 79.945 64.3424 80 64.1742 80C64.0059 80 63.8668 79.945 63.7568 79.835C63.6468 79.7185 63.5918 79.5762 63.5918 79.408V76.9234C63.5918 76.7099 63.5627 76.519 63.5045 76.3508C63.4527 76.1761 63.3557 76.037 63.2133 75.9335C63.071 75.8299 62.8672 75.7782 62.6019 75.7782C62.3431 75.7782 62.1231 75.8299 61.9419 75.9335C61.7672 76.037 61.6314 76.1761 61.5343 76.3508C61.4437 76.519 61.3984 76.7099 61.3984 76.9234V79.408C61.3984 79.5762 61.3434 79.7185 61.2334 79.835C61.1234 79.945 60.9843 80 60.8161 80C60.6479 80 60.5088 79.945 60.3988 79.835C60.2888 79.7185 60.2338 79.5762 60.2338 79.408V75.3997C60.2338 75.2314 60.2888 75.0923 60.3988 74.9823C60.5088 74.8659 60.6479 74.8076 60.8161 74.8076C60.9843 74.8076 61.1234 74.8659 61.2334 74.9823C61.3434 75.0923 61.3984 75.2314 61.3984 75.3997V75.817L61.2528 75.7879C61.3111 75.6779 61.3952 75.5614 61.5052 75.4385C61.6152 75.3091 61.7446 75.1894 61.8934 75.0794C62.0422 74.9694 62.2104 74.882 62.3981 74.8173C62.5857 74.7462 62.7895 74.7106 63.0095 74.7106ZM67.112 79.408C67.112 79.5762 67.057 79.7185 66.947 79.835C66.837 79.945 66.6979 80 66.5297 80C66.3615 80 66.2223 79.945 66.1123 79.835C66.0024 79.7185 65.9474 79.5762 65.9474 79.408V75.3997C65.9474 75.2314 66.0024 75.0923 66.1123 74.9823C66.2223 74.8659 66.3615 74.8076 66.5297 74.8076C66.6979 74.8076 66.837 74.8659 66.947 74.9823C67.057 75.0923 67.112 75.2314 67.112 75.3997V79.408ZM66.52 74.1768C66.3 74.1768 66.1447 74.1412 66.0541 74.07C65.9635 73.9989 65.9182 73.8727 65.9182 73.6915V73.5071C65.9182 73.3195 65.9668 73.1933 66.0638 73.1286C66.1673 73.0574 66.3226 73.0218 66.5297 73.0218C66.7561 73.0218 66.9147 73.0574 67.0052 73.1286C67.0958 73.1998 67.1411 73.3259 67.1411 73.5071V73.6915C67.1411 73.8792 67.0926 74.0086 66.9955 74.0797C66.8985 74.1444 66.74 74.1768 66.52 74.1768ZM71.0847 74.7106C71.5635 74.7106 71.9258 74.8109 72.1717 75.0114C72.424 75.212 72.5955 75.4805 72.6861 75.817C72.7831 76.147 72.8316 76.5158 72.8316 76.9234V79.408C72.8316 79.5762 72.7766 79.7185 72.6666 79.835C72.5567 79.945 72.4175 80 72.2493 80C72.0811 80 71.942 79.945 71.832 79.835C71.722 79.7185 71.667 79.5762 71.667 79.408V76.9234C71.667 76.7099 71.6379 76.519 71.5796 76.3508C71.5279 76.1761 71.4308 76.037 71.2885 75.9335C71.1461 75.8299 70.9423 75.7782 70.677 75.7782C70.4182 75.7782 70.1983 75.8299 70.0171 75.9335C69.8424 76.037 69.7065 76.1761 69.6095 76.3508C69.5189 76.519 69.4736 76.7099 69.4736 76.9234V79.408C69.4736 79.5762 69.4186 79.7185 69.3086 79.835C69.1986 79.945 69.0595 80 68.8913 80C68.723 80 68.5839 79.945 68.4739 79.835C68.3639 79.7185 68.3089 79.5762 68.3089 79.408V75.3997C68.3089 75.2314 68.3639 75.0923 68.4739 74.9823C68.5839 74.8659 68.723 74.8076 68.8913 74.8076C69.0595 74.8076 69.1986 74.8659 69.3086 74.9823C69.4186 75.0923 69.4736 75.2314 69.4736 75.3997V75.817L69.328 75.7879C69.3862 75.6779 69.4703 75.5614 69.5803 75.4385C69.6903 75.3091 69.8197 75.1894 69.9686 75.0794C70.1174 74.9694 70.2856 74.882 70.4732 74.8173C70.6609 74.7462 70.8647 74.7106 71.0847 74.7106ZM76.245 74.7106C76.5168 74.7106 76.7659 74.7526 76.9924 74.8367C77.2188 74.9209 77.4129 75.0276 77.5747 75.157C77.7429 75.2864 77.8723 75.4191 77.9629 75.5549C78.06 75.6844 78.1085 75.7943 78.1085 75.8849L77.8561 76.0111V75.3026C77.8561 75.1344 77.9111 74.9953 78.0211 74.8853C78.1311 74.7688 78.2702 74.7106 78.4385 74.7106C78.6067 74.7106 78.7458 74.7656 78.8558 74.8756C78.9658 74.9856 79.0208 75.1279 79.0208 75.3026V79.6215C79.0208 80.1844 78.8978 80.6341 78.652 80.9705C78.4126 81.3135 78.0955 81.5593 77.7009 81.7081C77.3062 81.8634 76.8824 81.9411 76.4294 81.9411C76.3 81.9411 76.1318 81.9249 75.9248 81.8925C75.7177 81.8602 75.5204 81.8214 75.3327 81.7761C75.1451 81.7308 75.0028 81.6887 74.9057 81.6499C74.7116 81.5658 74.5757 81.459 74.4981 81.3296C74.4269 81.2067 74.414 81.0741 74.4593 80.9317C74.5175 80.7441 74.6113 80.6147 74.7407 80.5435C74.8701 80.4788 75.006 80.4723 75.1483 80.5241C75.213 80.5435 75.3198 80.5823 75.4686 80.6406C75.6174 80.6988 75.7792 80.7505 75.9539 80.7958C76.1351 80.8476 76.2936 80.8735 76.4294 80.8735C76.9147 80.8735 77.2738 80.7764 77.5067 80.5823C77.7397 80.3882 77.8561 80.1197 77.8561 79.7768V78.9324L77.9726 79.0198C77.9726 79.1039 77.9273 79.2074 77.8367 79.3303C77.7526 79.4468 77.6329 79.5633 77.4776 79.6797C77.3288 79.7962 77.1509 79.8965 76.9438 79.9806C76.7368 80.0582 76.5168 80.0971 76.2839 80.0971C75.8245 80.0971 75.4104 79.9838 75.0416 79.7574C74.6728 79.5244 74.3816 79.2074 74.1681 78.8062C73.9546 78.3986 73.8478 77.9328 73.8478 77.4087C73.8478 76.8781 73.9546 76.4123 74.1681 76.0111C74.3816 75.6035 74.6695 75.2864 75.0319 75.06C75.3942 74.827 75.7986 74.7106 76.245 74.7106ZM76.4294 75.7782C76.1383 75.7782 75.8827 75.8493 75.6627 75.9917C75.4427 76.134 75.2713 76.3281 75.1483 76.574C75.0254 76.8199 74.9639 77.0981 74.9639 77.4087C74.9639 77.7128 75.0254 77.9878 75.1483 78.2336C75.2713 78.4795 75.4427 78.6736 75.6627 78.8159C75.8827 78.9583 76.1383 79.0295 76.4294 79.0295C76.7271 79.0295 76.9859 78.9583 77.2059 78.8159C77.4259 78.6736 77.5973 78.4795 77.7203 78.2336C77.8432 77.9878 77.9047 77.7128 77.9047 77.4087C77.9047 77.0981 77.8432 76.8199 77.7203 76.574C77.5973 76.3281 77.4259 76.134 77.2059 75.9917C76.9859 75.8493 76.7271 75.7782 76.4294 75.7782Z" fill="#565656"/>
<path d="M16.9604 86.8076C17.1092 86.8076 17.2387 86.8659 17.3486 86.9823C17.4586 87.0923 17.5136 87.2347 17.5136 87.4094C17.5136 87.4547 17.5104 87.4967 17.5039 87.5355C17.4975 87.5679 17.4878 87.6002 17.4748 87.6326L15.9899 91.6312C15.9446 91.7606 15.8637 91.8609 15.7473 91.9321C15.6308 91.9968 15.5079 92.0194 15.3785 92C15.1585 91.9871 14.9935 91.8641 14.8835 91.6312L13.9227 88.8652L14.175 88.8749L13.2724 91.6312C13.1624 91.8641 12.9974 91.9871 12.7774 92C12.6545 92.0194 12.5316 91.9968 12.4086 91.9321C12.2922 91.8609 12.2113 91.7606 12.166 91.6312L10.6811 87.6326C10.6552 87.5614 10.6422 87.487 10.6422 87.4094C10.6422 87.2541 10.694 87.115 10.7975 86.992C10.9011 86.8691 11.0434 86.8076 11.2246 86.8076C11.3475 86.8076 11.4575 86.8367 11.5545 86.895C11.6516 86.9532 11.7195 87.047 11.7584 87.1764L12.9327 90.3598L12.6901 90.3404L13.5733 87.9432C13.6768 87.7038 13.8547 87.5841 14.1071 87.5841C14.2494 87.5841 14.3562 87.6164 14.4273 87.6811C14.505 87.7393 14.5664 87.8267 14.6117 87.9432L15.4949 90.3404L15.2038 90.3792L16.3975 87.1764C16.4752 86.9306 16.6628 86.8076 16.9604 86.8076ZM20.8773 92.0971C20.3273 92.0971 19.8485 91.9838 19.4409 91.7574C19.0398 91.5244 18.7292 91.2106 18.5092 90.8159C18.2957 90.4213 18.1889 89.9748 18.1889 89.4766C18.1889 88.8943 18.3054 88.3993 18.5383 87.9917C18.7777 87.5776 19.0883 87.2605 19.47 87.0406C19.8518 86.8206 20.2562 86.7106 20.6832 86.7106C21.0132 86.7106 21.3237 86.7785 21.6149 86.9144C21.9125 87.0503 22.1746 87.2379 22.401 87.4773C22.6275 87.7102 22.8054 87.982 22.9348 88.2926C23.0707 88.6031 23.1387 88.9331 23.1387 89.2825C23.1322 89.4378 23.0707 89.564 22.9542 89.661C22.8378 89.7581 22.7019 89.8066 22.5466 89.8066H18.8392L18.548 88.8361H22.1099L21.8964 89.0302V88.7681C21.8834 88.5805 21.8155 88.4123 21.6926 88.2634C21.5761 88.1146 21.4273 87.9982 21.2461 87.914C21.0714 87.8235 20.8838 87.7782 20.6832 87.7782C20.4891 87.7782 20.3079 87.804 20.1397 87.8558C19.9715 87.9076 19.8259 87.9949 19.703 88.1179C19.58 88.2408 19.483 88.4058 19.4118 88.6128C19.3406 88.8199 19.305 89.0819 19.305 89.399C19.305 89.7484 19.3762 90.046 19.5186 90.2919C19.6674 90.5313 19.855 90.7157 20.0815 90.8451C20.3144 90.968 20.5603 91.0295 20.8191 91.0295C21.0585 91.0295 21.2493 91.0101 21.3917 90.9712C21.534 90.9324 21.6473 90.8871 21.7314 90.8354C21.822 90.7771 21.9028 90.7286 21.974 90.6898C22.0905 90.6315 22.2005 90.6024 22.304 90.6024C22.4463 90.6024 22.5628 90.651 22.6534 90.748C22.7504 90.8451 22.799 90.9583 22.799 91.0877C22.799 91.2624 22.7084 91.4209 22.5272 91.5633C22.359 91.7056 22.1228 91.8318 21.8187 91.9418C21.5146 92.0453 21.2008 92.0971 20.8773 92.0971ZM29.6036 86.7106C30.1212 86.7106 30.5029 86.8367 30.7488 87.0891C30.9947 87.335 31.1564 87.6552 31.2341 88.0499L31.0691 87.9626L31.1467 87.8073C31.2244 87.6585 31.3441 87.4999 31.5058 87.3317C31.6676 87.157 31.8617 87.0114 32.0881 86.895C32.3211 86.772 32.5799 86.7106 32.8646 86.7106C33.3304 86.7106 33.683 86.8109 33.9224 87.0114C34.1683 87.212 34.3365 87.4805 34.4271 87.817C34.5177 88.147 34.563 88.5158 34.563 88.9234V91.408C34.563 91.5762 34.508 91.7185 34.398 91.835C34.288 91.945 34.1489 92 33.9807 92C33.8124 92 33.6733 91.945 33.5633 91.835C33.4533 91.7185 33.3984 91.5762 33.3984 91.408V88.9234C33.3984 88.7099 33.3725 88.519 33.3207 88.3508C33.2689 88.1761 33.1751 88.037 33.0393 87.9335C32.9034 87.8299 32.7093 87.7782 32.4569 87.7782C32.2111 87.7782 32.0008 87.8299 31.8261 87.9335C31.6514 88.037 31.5187 88.1761 31.4282 88.3508C31.3441 88.519 31.302 88.7099 31.302 88.9234V91.408C31.302 91.5762 31.247 91.7185 31.137 91.835C31.027 91.945 30.8879 92 30.7197 92C30.5514 92 30.4123 91.945 30.3023 91.835C30.1923 91.7185 30.1374 91.5762 30.1374 91.408V88.9234C30.1374 88.7099 30.1115 88.519 30.0597 88.3508C30.0079 88.1761 29.9141 88.037 29.7783 87.9335C29.6424 87.8299 29.4483 87.7782 29.1959 87.7782C28.9501 87.7782 28.7398 87.8299 28.5651 87.9335C28.3904 88.037 28.2577 88.1761 28.1672 88.3508C28.0831 88.519 28.041 88.7099 28.041 88.9234V91.408C28.041 91.5762 27.986 91.7185 27.876 91.835C27.766 91.945 27.6269 92 27.4587 92C27.2904 92 27.1513 91.945 27.0413 91.835C26.9313 91.7185 26.8764 91.5762 26.8764 91.408V87.3997C26.8764 87.2314 26.9313 87.0923 27.0413 86.9823C27.1513 86.8659 27.2904 86.8076 27.4587 86.8076C27.6269 86.8076 27.766 86.8659 27.876 86.9823C27.986 87.0923 28.041 87.2314 28.041 87.3997V87.817L27.8954 87.7879C27.9536 87.6779 28.0345 87.5614 28.138 87.4385C28.2416 87.3091 28.3677 87.1894 28.5166 87.0794C28.6654 86.9694 28.8304 86.882 29.0115 86.8173C29.1927 86.7462 29.39 86.7106 29.6036 86.7106ZM40.0744 86.7106C40.2426 86.7106 40.3818 86.7656 40.4918 86.8756C40.6017 86.9856 40.6567 87.1279 40.6567 87.3026V91.408C40.6567 91.5762 40.6017 91.7185 40.4918 91.835C40.3818 91.945 40.2426 92 40.0744 92C39.9062 92 39.7671 91.945 39.6571 91.835C39.5471 91.7185 39.4921 91.5762 39.4921 91.408V90.9324L39.7056 91.0198C39.7056 91.1039 39.6603 91.2074 39.5697 91.3303C39.4792 91.4468 39.3562 91.5633 39.2009 91.6797C39.0457 91.7962 38.8613 91.8965 38.6477 91.9806C38.4407 92.0582 38.2142 92.0971 37.9684 92.0971C37.5219 92.0971 37.1175 91.9838 36.7552 91.7574C36.3929 91.5244 36.1049 91.2074 35.8914 90.8062C35.6844 90.3986 35.5808 89.9328 35.5808 89.4087C35.5808 88.8781 35.6844 88.4123 35.8914 88.0111C36.1049 87.6035 36.3896 87.2864 36.7455 87.06C37.1013 86.827 37.496 86.7106 37.9295 86.7106C38.2078 86.7106 38.4633 86.7526 38.6963 86.8367C38.9292 86.9209 39.1298 87.0276 39.298 87.157C39.4727 87.2864 39.6053 87.4191 39.6959 87.5549C39.793 87.6844 39.8415 87.7943 39.8415 87.8849L39.4921 88.0111V87.3026C39.4921 87.1344 39.5471 86.9953 39.6571 86.8853C39.7671 86.7688 39.9062 86.7106 40.0744 86.7106ZM38.1139 91.0295C38.3986 91.0295 38.6477 90.9583 38.8613 90.8159C39.0748 90.6736 39.2398 90.4795 39.3562 90.2336C39.4792 89.9878 39.5406 89.7128 39.5406 89.4087C39.5406 89.0981 39.4792 88.8199 39.3562 88.574C39.2398 88.3281 39.0748 88.134 38.8613 87.9917C38.6477 87.8493 38.3986 87.7782 38.1139 87.7782C37.8357 87.7782 37.5899 87.8493 37.3763 87.9917C37.1628 88.134 36.9946 88.3281 36.8717 88.574C36.7552 88.8199 36.697 89.0981 36.697 89.4087C36.697 89.7128 36.7552 89.9878 36.8717 90.2336C36.9946 90.4795 37.1628 90.6736 37.3763 90.8159C37.5899 90.9583 37.8357 91.0295 38.1139 91.0295ZM42.5971 92C42.4289 92 42.2898 91.945 42.1798 91.835C42.0698 91.7185 42.0148 91.5762 42.0148 91.408V85.4101C42.0148 85.2418 42.0698 85.1027 42.1798 84.9927C42.2898 84.8763 42.4289 84.818 42.5971 84.818C42.7654 84.818 42.9045 84.8763 43.0145 84.9927C43.1245 85.1027 43.1795 85.2418 43.1795 85.4101V91.408C43.1795 91.5762 43.1245 91.7185 43.0145 91.835C42.9045 91.945 42.7654 92 42.5971 92ZM45.6834 86.8076C45.8323 86.8076 45.9617 86.8691 46.0717 86.992C46.1816 87.115 46.2366 87.2347 46.2366 87.3511C46.2366 87.5064 46.159 87.652 46.0037 87.7879L43.0824 90.4763L43.0339 89.1369L45.2564 86.992C45.3793 86.8691 45.5217 86.8076 45.6834 86.8076ZM45.829 91.9903C45.6608 91.9903 45.5184 91.9256 45.402 91.7962L43.6065 89.8939L44.4897 89.0787L46.2366 90.9809C46.3596 91.1103 46.421 91.2559 46.421 91.4177C46.421 91.5859 46.3531 91.725 46.2172 91.835C46.0878 91.9385 45.9584 91.9903 45.829 91.9903ZM49.6711 92.0971C49.1212 92.0971 48.6424 91.9838 48.2347 91.7574C47.8336 91.5244 47.523 91.2106 47.303 90.8159C47.0895 90.4213 46.9827 89.9748 46.9827 89.4766C46.9827 88.8943 47.0992 88.3993 47.3321 87.9917C47.5715 87.5776 47.8821 87.2605 48.2638 87.0406C48.6456 86.8206 49.05 86.7106 49.477 86.7106C49.807 86.7106 50.1176 86.7785 50.4087 86.9144C50.7064 87.0503 50.9684 87.2379 51.1949 87.4773C51.4213 87.7102 51.5993 87.982 51.7287 88.2926C51.8645 88.6031 51.9325 88.9331 51.9325 89.2825C51.926 89.4378 51.8645 89.564 51.7481 89.661C51.6316 89.7581 51.4957 89.8066 51.3404 89.8066H47.633L47.3418 88.8361H50.9037L50.6902 89.0302V88.7681C50.6772 88.5805 50.6093 88.4123 50.4864 88.2634C50.3699 88.1146 50.2211 87.9982 50.0399 87.914C49.8652 87.8235 49.6776 87.7782 49.477 87.7782C49.2829 87.7782 49.1017 87.804 48.9335 87.8558C48.7653 87.9076 48.6197 87.9949 48.4968 88.1179C48.3738 88.2408 48.2768 88.4058 48.2056 88.6128C48.1344 88.8199 48.0989 89.0819 48.0989 89.399C48.0989 89.7484 48.17 90.046 48.3124 90.2919C48.4612 90.5313 48.6488 90.7157 48.8753 90.8451C49.1082 90.968 49.3541 91.0295 49.6129 91.0295C49.8523 91.0295 50.0432 91.0101 50.1855 90.9712C50.3279 90.9324 50.4411 90.8871 50.5252 90.8354C50.6158 90.7771 50.6967 90.7286 50.7678 90.6898C50.8843 90.6315 50.9943 90.6024 51.0978 90.6024C51.2402 90.6024 51.3566 90.651 51.4472 90.748C51.5443 90.8451 51.5928 90.9583 51.5928 91.0877C51.5928 91.2624 51.5022 91.4209 51.321 91.5633C51.1528 91.7056 50.9166 91.8318 50.6125 91.9418C50.3084 92.0453 49.9946 92.0971 49.6711 92.0971ZM59.5232 86.8076C59.6914 86.8076 59.8305 86.8659 59.9405 86.9823C60.0505 87.0923 60.1055 87.2314 60.1055 87.3997V91.5244C60.1055 92.1197 59.9923 92.592 59.7658 92.9414C59.5459 93.2973 59.2482 93.5529 58.8729 93.7081C58.4977 93.8634 58.0771 93.9411 57.6112 93.9411C57.4042 93.9411 57.1842 93.9249 56.9513 93.8925C56.7184 93.8602 56.5275 93.8117 56.3787 93.747C56.1846 93.6629 56.0487 93.5561 55.971 93.4267C55.8999 93.3038 55.8869 93.1711 55.9322 93.0288C55.9905 92.8411 56.0843 92.7117 56.2137 92.6406C56.3431 92.5759 56.479 92.5694 56.6213 92.6211C56.7248 92.6535 56.8607 92.702 57.0289 92.7667C57.1972 92.8379 57.3913 92.8735 57.6112 92.8735C57.9089 92.8735 58.1547 92.8314 58.3489 92.7473C58.5494 92.6697 58.6982 92.5338 58.7953 92.3397C58.8988 92.1521 58.9506 91.8932 58.9506 91.5633V90.913L59.1544 91.1459C59.0444 91.3594 58.9053 91.5374 58.7371 91.6797C58.5753 91.8156 58.3812 91.9191 58.1547 91.9903C57.9283 92.0615 57.6695 92.0971 57.3783 92.0971C57.0354 92.0971 56.7345 92.0194 56.4757 91.8641C56.2234 91.7024 56.026 91.4824 55.8837 91.2042C55.7414 90.9195 55.6702 90.596 55.6702 90.2336V87.3997C55.6702 87.2314 55.7252 87.0923 55.8352 86.9823C55.9452 86.8659 56.0843 86.8076 56.2525 86.8076C56.4207 86.8076 56.5598 86.8659 56.6698 86.9823C56.7798 87.0923 56.8348 87.2314 56.8348 87.3997V89.8842C56.8348 90.3048 56.9254 90.6024 57.1066 90.7771C57.2942 90.9454 57.553 91.0295 57.883 91.0295C58.1095 91.0295 58.3003 90.9874 58.4556 90.9033C58.6109 90.8127 58.7306 90.6833 58.8147 90.5151C58.8988 90.3404 58.9409 90.1301 58.9409 89.8842V87.3997C58.9409 87.2314 58.9959 87.0923 59.1059 86.9823C59.2159 86.8659 59.355 86.8076 59.5232 86.8076ZM66.3561 89.4087C66.3561 89.9392 66.2364 90.4083 65.997 90.8159C65.7641 91.2171 65.447 91.5309 65.0459 91.7574C64.6512 91.9838 64.208 92.0971 63.7162 92.0971C63.2245 92.0971 62.778 91.9838 62.3769 91.7574C61.9822 91.5309 61.6652 91.2171 61.4258 90.8159C61.1928 90.4083 61.0764 89.9392 61.0764 89.4087C61.0764 88.8781 61.1928 88.4123 61.4258 88.0111C61.6652 87.6035 61.9822 87.2864 62.3769 87.06C62.778 86.827 63.2245 86.7106 63.7162 86.7106C64.208 86.7106 64.6512 86.827 65.0459 87.06C65.447 87.2864 65.7641 87.6035 65.997 88.0111C66.2364 88.4123 66.3561 88.8781 66.3561 89.4087ZM65.1914 89.4087C65.1914 89.0787 65.1235 88.794 64.9876 88.5546C64.8582 88.3087 64.6803 88.1179 64.4538 87.982C64.2338 87.8461 63.988 87.7782 63.7162 87.7782C63.4445 87.7782 63.1954 87.8461 62.9689 87.982C62.7489 88.1179 62.571 88.3087 62.4351 88.5546C62.3057 88.794 62.241 89.0787 62.241 89.4087C62.241 89.7322 62.3057 90.0169 62.4351 90.2627C62.571 90.5021 62.7489 90.6898 62.9689 90.8257C63.1954 90.9615 63.4445 91.0295 63.7162 91.0295C63.988 91.0295 64.2338 90.9615 64.4538 90.8257C64.6803 90.6898 64.8582 90.5021 64.9876 90.2627C65.1235 90.0169 65.1914 89.7322 65.1914 89.4087ZM71.2284 86.8076C71.3966 86.8076 71.5357 86.8659 71.6457 86.9823C71.7557 87.0923 71.8107 87.2314 71.8107 87.3997V89.8648C71.8107 90.5507 71.6198 91.0942 71.2381 91.4953C70.8564 91.8965 70.3064 92.0971 69.5882 92.0971C68.87 92.0971 68.32 91.8965 67.9383 91.4953C67.563 91.0942 67.3754 90.5507 67.3754 89.8648V87.3997C67.3754 87.2314 67.4304 87.0923 67.5404 86.9823C67.6504 86.8659 67.7895 86.8076 67.9577 86.8076C68.1259 86.8076 68.265 86.8659 68.375 86.9823C68.485 87.0923 68.54 87.2314 68.54 87.3997V89.8648C68.54 90.2595 68.6274 90.5539 68.8021 90.748C68.9768 90.9356 69.2388 91.0295 69.5882 91.0295C69.9441 91.0295 70.2093 90.9356 70.384 90.748C70.5587 90.5539 70.6461 90.2595 70.6461 89.8648V87.3997C70.6461 87.2314 70.7011 87.0923 70.8111 86.9823C70.9211 86.8659 71.0602 86.8076 71.2284 86.8076ZM73.6539 92C73.4857 92 73.3466 91.945 73.2366 91.835C73.1266 91.7185 73.0716 91.5762 73.0716 91.408V87.3997C73.0716 87.2314 73.1266 87.0923 73.2366 86.9823C73.3466 86.8659 73.4857 86.8076 73.6539 86.8076C73.8221 86.8076 73.9612 86.8659 74.0712 86.9823C74.1812 87.0923 74.2362 87.2314 74.2362 87.3997V88.312L74.1683 87.6617C74.2395 87.5064 74.33 87.3705 74.44 87.2541C74.5565 87.1311 74.6859 87.0309 74.8283 86.9532C74.9706 86.8691 75.1226 86.8076 75.2844 86.7688C75.4462 86.73 75.6079 86.7106 75.7697 86.7106C75.9638 86.7106 76.1255 86.7656 76.2549 86.8756C76.3908 86.9856 76.4588 87.115 76.4588 87.2638C76.4588 87.4773 76.4038 87.6326 76.2938 87.7296C76.1838 87.8202 76.0641 87.8655 75.9347 87.8655C75.8117 87.8655 75.6985 87.8429 75.595 87.7976C75.4979 87.7523 75.3847 87.7296 75.2553 87.7296C75.1388 87.7296 75.0191 87.7588 74.8962 87.817C74.7797 87.8688 74.6697 87.9529 74.5662 88.0693C74.4692 88.1858 74.3883 88.3314 74.3236 88.5061C74.2653 88.6743 74.2362 88.8749 74.2362 89.1078V91.408C74.2362 91.5762 74.1812 91.7185 74.0712 91.835C73.9612 91.945 73.8221 92 73.6539 92ZM33.6506 98.7106C34.1165 98.7106 34.4691 98.8109 34.7085 99.0114C34.9544 99.212 35.1226 99.4805 35.2132 99.817C35.3038 100.147 35.3491 100.516 35.3491 100.923V103.408C35.3491 103.576 35.2941 103.719 35.1841 103.835C35.0741 103.945 34.935 104 34.7667 104C34.5985 104 34.4594 103.945 34.3494 103.835C34.2394 103.719 34.1844 103.576 34.1844 103.408V100.923C34.1844 100.71 34.1585 100.519 34.1068 100.351C34.055 100.176 33.9612 100.037 33.8253 99.9335C33.6894 99.8299 33.4953 99.7782 33.243 99.7782C32.9971 99.7782 32.7868 99.8299 32.6121 99.9335C32.4374 100.037 32.3048 100.176 32.2142 100.351C32.1301 100.519 32.0881 100.71 32.0881 100.923V103.408C32.0881 103.576 32.0331 103.719 31.9231 103.835C31.8131 103.945 31.674 104 31.5057 104C31.3375 104 31.1984 103.945 31.0884 103.835C30.9784 103.719 30.9234 103.576 30.9234 103.408V97.4101C30.9234 97.2418 30.9784 97.1027 31.0884 96.9927C31.1984 96.8763 31.3375 96.818 31.5057 96.818C31.674 96.818 31.8131 96.8763 31.9231 96.9927C32.0331 97.1027 32.0881 97.2418 32.0881 97.4101V99.817L31.9425 99.7879C32.0007 99.6779 32.0816 99.5614 32.1851 99.4385C32.2886 99.3091 32.4148 99.1894 32.5636 99.0794C32.7124 98.9694 32.8774 98.882 33.0586 98.8173C33.2398 98.7462 33.4371 98.7106 33.6506 98.7106ZM41.6472 101.409C41.6472 101.939 41.5275 102.408 41.2881 102.816C41.0552 103.217 40.7382 103.531 40.337 103.757C39.9423 103.984 39.4991 104.097 39.0074 104.097C38.5156 104.097 38.0692 103.984 37.668 103.757C37.2733 103.531 36.9563 103.217 36.7169 102.816C36.484 102.408 36.3675 101.939 36.3675 101.409C36.3675 100.878 36.484 100.412 36.7169 100.011C36.9563 99.6035 37.2733 99.2864 37.668 99.06C38.0692 98.827 38.5156 98.7106 39.0074 98.7106C39.4991 98.7106 39.9423 98.827 40.337 99.06C40.7382 99.2864 41.0552 99.6035 41.2881 100.011C41.5275 100.412 41.6472 100.878 41.6472 101.409ZM40.4826 101.409C40.4826 101.079 40.4146 100.794 40.2788 100.555C40.1494 100.309 39.9714 100.118 39.745 99.982C39.525 99.8461 39.2791 99.7782 39.0074 99.7782C38.7356 99.7782 38.4865 99.8461 38.2601 99.982C38.0401 100.118 37.8621 100.309 37.7263 100.555C37.5969 100.794 37.5322 101.079 37.5322 101.409C37.5322 101.732 37.5969 102.017 37.7263 102.263C37.8621 102.502 38.0401 102.69 38.2601 102.826C38.4865 102.962 38.7356 103.029 39.0074 103.029C39.2791 103.029 39.525 102.962 39.745 102.826C39.9714 102.69 40.1494 102.502 40.2788 102.263C40.4146 102.017 40.4826 101.732 40.4826 101.409ZM45.3937 98.7106C45.9113 98.7106 46.2931 98.8367 46.539 99.0891C46.7848 99.335 46.9466 99.6552 47.0242 100.05L46.8592 99.9626L46.9369 99.8073C47.0145 99.6585 47.1342 99.4999 47.296 99.3317C47.4577 99.157 47.6518 99.0114 47.8783 98.895C48.1112 98.772 48.37 98.7106 48.6547 98.7106C49.1206 98.7106 49.4732 98.8109 49.7126 99.0114C49.9585 99.212 50.1267 99.4805 50.2173 99.817C50.3079 100.147 50.3532 100.516 50.3532 100.923V103.408C50.3532 103.576 50.2982 103.719 50.1882 103.835C50.0782 103.945 49.9391 104 49.7708 104C49.6026 104 49.4635 103.945 49.3535 103.835C49.2435 103.719 49.1885 103.576 49.1885 103.408V100.923C49.1885 100.71 49.1626 100.519 49.1109 100.351C49.0591 100.176 48.9653 100.037 48.8294 99.9335C48.6935 99.8299 48.4994 99.7782 48.2471 99.7782C48.0012 99.7782 47.7909 99.8299 47.6162 99.9335C47.4416 100.037 47.3089 100.176 47.2183 100.351C47.1342 100.519 47.0922 100.71 47.0922 100.923V103.408C47.0922 103.576 47.0372 103.719 46.9272 103.835C46.8172 103.945 46.6781 104 46.5098 104C46.3416 104 46.2025 103.945 46.0925 103.835C45.9825 103.719 45.9275 103.576 45.9275 103.408V100.923C45.9275 100.71 45.9016 100.519 45.8499 100.351C45.7981 100.176 45.7043 100.037 45.5684 99.9335C45.4325 99.8299 45.2384 99.7782 44.9861 99.7782C44.7402 99.7782 44.5299 99.8299 44.3552 99.9335C44.1806 100.037 44.0479 100.176 43.9573 100.351C43.8732 100.519 43.8312 100.71 43.8312 100.923V103.408C43.8312 103.576 43.7762 103.719 43.6662 103.835C43.5562 103.945 43.4171 104 43.2488 104C43.0806 104 42.9415 103.945 42.8315 103.835C42.7215 103.719 42.6665 103.576 42.6665 103.408V99.3997C42.6665 99.2314 42.7215 99.0923 42.8315 98.9823C42.9415 98.8659 43.0806 98.8076 43.2488 98.8076C43.4171 98.8076 43.5562 98.8659 43.6662 98.9823C43.7762 99.0923 43.8312 99.2314 43.8312 99.3997V99.817L43.6856 99.7879C43.7438 99.6779 43.8247 99.5614 43.9282 99.4385C44.0317 99.3091 44.1579 99.1894 44.3067 99.0794C44.4555 98.9694 44.6205 98.882 44.8017 98.8173C44.9829 98.7462 45.1802 98.7106 45.3937 98.7106ZM54.0594 104.097C53.5094 104.097 53.0306 103.984 52.623 103.757C52.2218 103.524 51.9113 103.211 51.6913 102.816C51.4778 102.421 51.371 101.975 51.371 101.477C51.371 100.894 51.4875 100.399 51.7204 99.9917C51.9598 99.5776 52.2704 99.2605 52.6521 99.0406C53.0339 98.8206 53.4382 98.7106 53.8653 98.7106C54.1953 98.7106 54.5058 98.7785 54.797 98.9144C55.0946 99.0503 55.3567 99.2379 55.5831 99.4773C55.8096 99.7102 55.9875 99.982 56.1169 100.293C56.2528 100.603 56.3207 100.933 56.3207 101.282C56.3143 101.438 56.2528 101.564 56.1363 101.661C56.0199 101.758 55.884 101.807 55.7287 101.807H52.0213L51.7301 100.836H55.292L55.0785 101.03V100.768C55.0655 100.58 54.9976 100.412 54.8746 100.263C54.7582 100.115 54.6094 99.9982 54.4282 99.914C54.2535 99.8235 54.0659 99.7782 53.8653 99.7782C53.6712 99.7782 53.49 99.804 53.3218 99.8558C53.1536 99.9076 53.008 99.9949 52.885 100.118C52.7621 100.241 52.6651 100.406 52.5939 100.613C52.5227 100.82 52.4871 101.082 52.4871 101.399C52.4871 101.748 52.5583 102.046 52.7006 102.292C52.8495 102.531 53.0371 102.716 53.2636 102.845C53.4965 102.968 53.7423 103.029 54.0012 103.029C54.2406 103.029 54.4314 103.01 54.5738 102.971C54.7161 102.932 54.8293 102.887 54.9135 102.835C55.004 102.777 55.0849 102.729 55.1561 102.69C55.2726 102.632 55.3826 102.602 55.4861 102.602C55.6284 102.602 55.7449 102.651 55.8355 102.748C55.9325 102.845 55.9811 102.958 55.9811 103.088C55.9811 103.262 55.8905 103.421 55.7093 103.563C55.5411 103.706 55.3049 103.832 55.0008 103.942C54.6967 104.045 54.3829 104.097 54.0594 104.097ZM19.2724 110.711C19.6412 110.711 19.9614 110.749 20.2332 110.827C20.5114 110.905 20.7249 111.015 20.8737 111.157C21.029 111.293 21.1067 111.458 21.1067 111.652C21.1067 111.781 21.0678 111.904 20.9902 112.021C20.9126 112.131 20.7993 112.186 20.6505 112.186C20.547 112.186 20.4596 112.173 20.3885 112.147C20.3238 112.115 20.2655 112.076 20.2138 112.031C20.162 111.985 20.1005 111.943 20.0294 111.904C19.9647 111.866 19.8644 111.836 19.7285 111.817C19.5991 111.791 19.502 111.778 19.4373 111.778C19.1074 111.778 18.8259 111.849 18.593 111.992C18.3665 112.134 18.1918 112.328 18.0689 112.574C17.946 112.813 17.8845 113.092 17.8845 113.409C17.8845 113.719 17.946 113.997 18.0689 114.243C18.1983 114.483 18.373 114.674 18.593 114.816C18.8194 114.958 19.0782 115.029 19.3694 115.029C19.5312 115.029 19.6703 115.02 19.7867 115C19.9032 114.981 20.0003 114.952 20.0779 114.913C20.1685 114.861 20.2494 114.806 20.3205 114.748C20.3917 114.69 20.4985 114.661 20.6408 114.661C20.809 114.661 20.9384 114.716 21.029 114.826C21.1196 114.929 21.1649 115.059 21.1649 115.214C21.1649 115.376 21.0743 115.524 20.8931 115.66C20.712 115.79 20.4726 115.896 20.175 115.981C19.8838 116.058 19.5668 116.097 19.2238 116.097C18.7127 116.097 18.2695 115.981 17.8942 115.748C17.5189 115.508 17.2278 115.185 17.0207 114.777C16.8201 114.369 16.7198 113.913 16.7198 113.409C16.7198 112.878 16.8266 112.412 17.0401 112.011C17.2601 111.603 17.561 111.286 17.9427 111.06C18.3309 110.827 18.7741 110.711 19.2724 110.711ZM23.2664 115.408C23.2664 115.576 23.2082 115.719 23.0917 115.835C22.9817 115.945 22.8426 116 22.6744 116C22.5126 116 22.3768 115.945 22.2668 115.835C22.1568 115.719 22.1018 115.576 22.1018 115.408V109.41C22.1018 109.242 22.1568 109.103 22.2668 108.993C22.3832 108.876 22.5256 108.818 22.6938 108.818C22.862 108.818 22.9979 108.876 23.1014 108.993C23.2114 109.103 23.2664 109.242 23.2664 109.41V115.408ZM26.9716 116.097C26.4216 116.097 25.9428 115.984 25.5352 115.757C25.134 115.524 24.8235 115.211 24.6035 114.816C24.39 114.421 24.2832 113.975 24.2832 113.477C24.2832 112.894 24.3997 112.399 24.6326 111.992C24.872 111.578 25.1826 111.261 25.5643 111.041C25.9461 110.821 26.3504 110.711 26.7775 110.711C27.1075 110.711 27.418 110.779 27.7092 110.914C28.0068 111.05 28.2689 111.238 28.4953 111.477C28.7218 111.71 28.8997 111.982 29.0291 112.293C29.165 112.603 29.2329 112.933 29.2329 113.282C29.2265 113.438 29.165 113.564 29.0485 113.661C28.9321 113.758 28.7962 113.807 28.6409 113.807H24.9335L24.6423 112.836H28.2042L27.9906 113.03V112.768C27.9777 112.58 27.9098 112.412 27.7868 112.263C27.6704 112.115 27.5216 111.998 27.3404 111.914C27.1657 111.823 26.9781 111.778 26.7775 111.778C26.5834 111.778 26.4022 111.804 26.234 111.856C26.0658 111.908 25.9202 111.995 25.7972 112.118C25.6743 112.241 25.5772 112.406 25.5061 112.613C25.4349 112.82 25.3993 113.082 25.3993 113.399C25.3993 113.748 25.4705 114.046 25.6128 114.292C25.7616 114.531 25.9493 114.716 26.1757 114.845C26.4087 114.968 26.6545 115.029 26.9134 115.029C27.1528 115.029 27.3436 115.01 27.486 114.971C27.6283 114.932 27.7415 114.887 27.8257 114.835C27.9162 114.777 27.9971 114.729 28.0683 114.69C28.1848 114.632 28.2947 114.602 28.3983 114.602C28.5406 114.602 28.6571 114.651 28.7477 114.748C28.8447 114.845 28.8932 114.958 28.8932 115.088C28.8932 115.262 28.8027 115.421 28.6215 115.563C28.4533 115.706 28.2171 115.832 27.913 115.942C27.6089 116.045 27.2951 116.097 26.9716 116.097ZM34.5393 110.711C34.7076 110.711 34.8467 110.766 34.9567 110.876C35.0667 110.986 35.1217 111.128 35.1217 111.303V115.408C35.1217 115.576 35.0667 115.719 34.9567 115.835C34.8467 115.945 34.7076 116 34.5393 116C34.3711 116 34.232 115.945 34.122 115.835C34.012 115.719 33.957 115.576 33.957 115.408V114.932L34.1705 115.02C34.1705 115.104 34.1252 115.207 34.0347 115.33C33.9441 115.447 33.8211 115.563 33.6659 115.68C33.5106 115.796 33.3262 115.896 33.1127 115.981C32.9056 116.058 32.6791 116.097 32.4333 116.097C31.9868 116.097 31.5824 115.984 31.2201 115.757C30.8578 115.524 30.5698 115.207 30.3563 114.806C30.1493 114.399 30.0458 113.933 30.0458 113.409C30.0458 112.878 30.1493 112.412 30.3563 112.011C30.5698 111.603 30.8545 111.286 31.2104 111.06C31.5663 110.827 31.9609 110.711 32.3945 110.711C32.6727 110.711 32.9282 110.753 33.1612 110.837C33.3941 110.921 33.5947 111.028 33.7629 111.157C33.9376 111.286 34.0702 111.419 34.1608 111.555C34.2579 111.684 34.3064 111.794 34.3064 111.885L33.957 112.011V111.303C33.957 111.134 34.012 110.995 34.122 110.885C34.232 110.769 34.3711 110.711 34.5393 110.711ZM32.5789 115.029C32.8635 115.029 33.1127 114.958 33.3262 114.816C33.5397 114.674 33.7047 114.479 33.8211 114.234C33.9441 113.988 34.0055 113.713 34.0055 113.409C34.0055 113.098 33.9441 112.82 33.8211 112.574C33.7047 112.328 33.5397 112.134 33.3262 111.992C33.1127 111.849 32.8635 111.778 32.5789 111.778C32.3006 111.778 32.0548 111.849 31.8412 111.992C31.6277 112.134 31.4595 112.328 31.3366 112.574C31.2201 112.82 31.1619 113.098 31.1619 113.409C31.1619 113.713 31.2201 113.988 31.3366 114.234C31.4595 114.479 31.6277 114.674 31.8412 114.816C32.0548 114.958 32.3006 115.029 32.5789 115.029ZM39.1584 110.711C39.6372 110.711 39.9995 110.811 40.2454 111.011C40.4977 111.212 40.6692 111.481 40.7598 111.817C40.8568 112.147 40.9054 112.516 40.9054 112.923V115.408C40.9054 115.576 40.8504 115.719 40.7404 115.835C40.6304 115.945 40.4913 116 40.323 116C40.1548 116 40.0157 115.945 39.9057 115.835C39.7957 115.719 39.7407 115.576 39.7407 115.408V112.923C39.7407 112.71 39.7116 112.519 39.6534 112.351C39.6016 112.176 39.5046 112.037 39.3622 111.933C39.2199 111.83 39.0161 111.778 38.7508 111.778C38.492 111.778 38.272 111.83 38.0908 111.933C37.9161 112.037 37.7802 112.176 37.6832 112.351C37.5926 112.519 37.5473 112.71 37.5473 112.923V115.408C37.5473 115.576 37.4923 115.719 37.3823 115.835C37.2723 115.945 37.1332 116 36.965 116C36.7968 116 36.6577 115.945 36.5477 115.835C36.4377 115.719 36.3827 115.576 36.3827 115.408V111.4C36.3827 111.231 36.4377 111.092 36.5477 110.982C36.6577 110.866 36.7968 110.808 36.965 110.808C37.1332 110.808 37.2723 110.866 37.3823 110.982C37.4923 111.092 37.5473 111.231 37.5473 111.4V111.817L37.4017 111.788C37.46 111.678 37.5441 111.561 37.6541 111.438C37.7641 111.309 37.8935 111.189 38.0423 111.079C38.1911 110.969 38.3593 110.882 38.547 110.817C38.7346 110.746 38.9384 110.711 39.1584 110.711ZM47.6115 110.711C48.0774 110.711 48.43 110.811 48.6694 111.011C48.9153 111.212 49.0835 111.481 49.1741 111.817C49.2647 112.147 49.31 112.516 49.31 112.923V115.408C49.31 115.576 49.255 115.719 49.145 115.835C49.035 115.945 48.8959 116 48.7277 116C48.5594 116 48.4203 115.945 48.3103 115.835C48.2003 115.719 48.1453 115.576 48.1453 115.408V112.923C48.1453 112.71 48.1195 112.519 48.0677 112.351C48.0159 112.176 47.9221 112.037 47.7862 111.933C47.6504 111.83 47.4563 111.778 47.2039 111.778C46.9581 111.778 46.7478 111.83 46.5731 111.933C46.3984 112.037 46.2657 112.176 46.1752 112.351C46.091 112.519 46.049 112.71 46.049 112.923V115.408C46.049 115.576 45.994 115.719 45.884 115.835C45.774 115.945 45.6349 116 45.4667 116C45.2984 116 45.1593 115.945 45.0493 115.835C44.9393 115.719 44.8843 115.576 44.8843 115.408V109.41C44.8843 109.242 44.9393 109.103 45.0493 108.993C45.1593 108.876 45.2984 108.818 45.4667 108.818C45.6349 108.818 45.774 108.876 45.884 108.993C45.994 109.103 46.049 109.242 46.049 109.41V111.817L45.9034 111.788C45.9616 111.678 46.0425 111.561 46.146 111.438C46.2496 111.309 46.3757 111.189 46.5245 111.079C46.6734 110.969 46.8384 110.882 47.0195 110.817C47.2007 110.746 47.398 110.711 47.6115 110.711ZM55.6082 113.409C55.6082 113.939 55.4885 114.408 55.2491 114.816C55.0161 115.217 54.6991 115.531 54.2979 115.757C53.9032 115.984 53.46 116.097 52.9683 116.097C52.4766 116.097 52.0301 115.984 51.629 115.757C51.2343 115.531 50.9172 115.217 50.6778 114.816C50.4449 114.408 50.3284 113.939 50.3284 113.409C50.3284 112.878 50.4449 112.412 50.6778 112.011C50.9172 111.603 51.2343 111.286 51.629 111.06C52.0301 110.827 52.4766 110.711 52.9683 110.711C53.46 110.711 53.9032 110.827 54.2979 111.06C54.6991 111.286 55.0161 111.603 55.2491 112.011C55.4885 112.412 55.6082 112.878 55.6082 113.409ZM54.4435 113.409C54.4435 113.079 54.3756 112.794 54.2397 112.555C54.1103 112.309 53.9324 112.118 53.7059 111.982C53.4859 111.846 53.24 111.778 52.9683 111.778C52.6965 111.778 52.4474 111.846 52.221 111.982C52.001 112.118 51.8231 112.309 51.6872 112.555C51.5578 112.794 51.4931 113.079 51.4931 113.409C51.4931 113.732 51.5578 114.017 51.6872 114.263C51.8231 114.502 52.001 114.69 52.221 114.826C52.4474 114.962 52.6965 115.029 52.9683 115.029C53.24 115.029 53.4859 114.962 53.7059 114.826C53.9324 114.69 54.1103 114.502 54.2397 114.263C54.3756 114.017 54.4435 113.732 54.4435 113.409ZM59.3547 110.711C59.8723 110.711 60.254 110.837 60.4999 111.089C60.7458 111.335 60.9075 111.655 60.9852 112.05L60.8202 111.963L60.8978 111.807C60.9754 111.658 61.0951 111.5 61.2569 111.332C61.4187 111.157 61.6128 111.011 61.8392 110.895C62.0722 110.772 62.331 110.711 62.6157 110.711C63.0815 110.711 63.4341 110.811 63.6735 111.011C63.9194 111.212 64.0876 111.481 64.1782 111.817C64.2688 112.147 64.3141 112.516 64.3141 112.923V115.408C64.3141 115.576 64.2591 115.719 64.1491 115.835C64.0391 115.945 63.9 116 63.7318 116C63.5635 116 63.4244 115.945 63.3144 115.835C63.2044 115.719 63.1494 115.576 63.1494 115.408V112.923C63.1494 112.71 63.1236 112.519 63.0718 112.351C63.02 112.176 62.9262 112.037 62.7903 111.933C62.6545 111.83 62.4604 111.778 62.208 111.778C61.9622 111.778 61.7519 111.83 61.5772 111.933C61.4025 112.037 61.2698 112.176 61.1793 112.351C61.0951 112.519 61.0531 112.71 61.0531 112.923V115.408C61.0531 115.576 60.9981 115.719 60.8881 115.835C60.7781 115.945 60.639 116 60.4708 116C60.3025 116 60.1634 115.945 60.0534 115.835C59.9434 115.719 59.8884 115.576 59.8884 115.408V112.923C59.8884 112.71 59.8626 112.519 59.8108 112.351C59.759 112.176 59.6652 112.037 59.5293 111.933C59.3935 111.83 59.1994 111.778 58.947 111.778C58.7012 111.778 58.4909 111.83 58.3162 111.933C58.1415 112.037 58.0088 112.176 57.9183 112.351C57.8341 112.519 57.7921 112.71 57.7921 112.923V115.408C57.7921 115.576 57.7371 115.719 57.6271 115.835C57.5171 115.945 57.378 116 57.2098 116C57.0415 116 56.9024 115.945 56.7924 115.835C56.6824 115.719 56.6274 115.576 56.6274 115.408V111.4C56.6274 111.231 56.6824 111.092 56.7924 110.982C56.9024 110.866 57.0415 110.808 57.2098 110.808C57.378 110.808 57.5171 110.866 57.6271 110.982C57.7371 111.092 57.7921 111.231 57.7921 111.4V111.817L57.6465 111.788C57.7047 111.678 57.7856 111.561 57.8891 111.438C57.9927 111.309 58.1188 111.189 58.2677 111.079C58.4165 110.969 58.5815 110.882 58.7626 110.817C58.9438 110.746 59.1411 110.711 59.3547 110.711ZM68.0203 116.097C67.4704 116.097 66.9916 115.984 66.5839 115.757C66.1828 115.524 65.8722 115.211 65.6522 114.816C65.4387 114.421 65.3319 113.975 65.3319 113.477C65.3319 112.894 65.4484 112.399 65.6813 111.992C65.9207 111.578 66.2313 111.261 66.613 111.041C66.9948 110.821 67.3992 110.711 67.8262 110.711C68.1562 110.711 68.4668 110.779 68.7579 110.914C69.0556 111.05 69.3176 111.238 69.5441 111.477C69.7705 111.71 69.9485 111.982 70.0779 112.293C70.2137 112.603 70.2817 112.933 70.2817 113.282C70.2752 113.438 70.2137 113.564 70.0973 113.661C69.9808 113.758 69.8449 113.807 69.6896 113.807H65.9822L65.691 112.836H69.2529L69.0394 113.03V112.768C69.0264 112.58 68.9585 112.412 68.8356 112.263C68.7191 112.115 68.5703 111.998 68.3891 111.914C68.2144 111.823 68.0268 111.778 67.8262 111.778C67.6321 111.778 67.4509 111.804 67.2827 111.856C67.1145 111.908 66.9689 111.995 66.846 112.118C66.723 112.241 66.626 112.406 66.5548 112.613C66.4836 112.82 66.4481 113.082 66.4481 113.399C66.4481 113.748 66.5192 114.046 66.6616 114.292C66.8104 114.531 66.998 114.716 67.2245 114.845C67.4574 114.968 67.7033 115.029 67.9621 115.029C68.2015 115.029 68.3924 115.01 68.5347 114.971C68.6771 114.932 68.7903 114.887 68.8744 114.835C68.965 114.777 69.0459 114.729 69.117 114.69C69.2335 114.632 69.3435 114.602 69.447 114.602C69.5894 114.602 69.7058 114.651 69.7964 114.748C69.8935 114.845 69.942 114.958 69.942 115.088C69.942 115.262 69.8514 115.421 69.6702 115.563C69.502 115.706 69.2658 115.832 68.9617 115.942C68.6576 116.045 68.3438 116.097 68.0203 116.097Z" fill="#A7A622"/>
<path d="M64.6586 21.6576L37.7579 11.1873C33.7425 9.62443 29.2205 11.6126 27.6576 15.628L17.1873 42.5287C15.6244 46.5441 17.6125 51.0661 21.6279 52.629L48.5287 63.0993C52.544 64.6622 57.0661 62.6741 58.629 58.6587L69.0993 31.7579C70.6622 27.7426 68.674 23.2205 64.6586 21.6576Z" fill="#565656"/>
<path d="M37.3354 61.1788C28.6781 60.0338 22.4793 54.2748 21.2911 46.2728C20.8771 43.4847 21.0783 39.1824 21.7467 36.5392C22.4061 33.9307 23.7489 30.9734 25.3739 28.5507C31.2583 19.7776 43.0483 14.0627 55.2528 14.0674L57.5681 14.0685L58.2879 15.1502C59.3205 16.702 61.1281 20.4486 61.7274 22.2793C63.3029 32.1521 62.9581 47.1557 55.9899 53.7993C53.022 57.8028 47.4707 60.7581 42.0132 61.2401C39.8349 61.4323 39.1915 61.4239 37.3354 61.1788Z" fill="#D5D421"/>
<path d="M31.8974 50.1106C31.8461 50.0828 31.7885 50.0305 31.7692 49.9946C31.7459 49.9509 31.7342 48.5066 31.7342 45.6475V41.3659L32.3407 41.9635L32.9472 42.5611L32.3407 41.9457L31.7342 41.3303V39.6873C31.7342 37.8596 31.7498 37.9806 31.5023 37.8944C31.4101 37.8621 31.3668 37.8696 31.2015 37.9453C30.8731 38.0957 30.8372 38.0841 30.3416 37.6684C29.5868 37.0353 29.539 36.9953 29.1286 36.6534C28.9077 36.4694 28.7185 36.2853 28.7082 36.2443C28.6647 36.0709 28.468 36.2507 31.4437 33.7629C32.3082 33.0405 33.3923 32.1352 33.8527 31.7511C34.3131 31.367 34.7442 31.0051 34.8107 30.9469C34.8771 30.8886 35.0078 30.7776 35.1011 30.7002C35.4076 30.4457 37.5606 28.6488 38.8415 27.5784C38.9261 27.5078 39.1952 27.2832 39.4395 27.0794C39.6838 26.8756 39.9913 26.6181 40.1229 26.5071C40.2544 26.3962 40.4928 26.1961 40.6525 26.0627C40.8122 25.9292 40.9633 25.8003 40.9881 25.7763C41.0526 25.7138 41.0606 25.7172 41.2321 25.878L41.3872 26.0232L41.2368 25.863L41.0865 25.7027L41.2015 25.6067C41.2646 25.5539 41.4318 25.4129 41.5729 25.2934C41.714 25.1739 41.8631 25.0633 41.9043 25.0476C41.9455 25.032 42.2304 25.0341 42.5374 25.054C43.0684 25.0858 43.1023 25.0922 43.2323 25.1838C43.3076 25.2368 43.3648 25.2987 43.3596 25.3217C43.3546 25.3445 43.3647 25.3548 43.3806 25.3444C43.3975 25.3343 43.5249 25.429 43.664 25.5554C43.9275 25.7949 45.5617 27.2646 46.2563 27.8867C47.3011 28.8226 48.6272 30.0132 48.9045 30.2644C49.1674 30.5027 49.4534 30.761 50.2029 31.4373C50.2782 31.5051 50.5549 31.7526 50.818 31.9872C51.0811 32.2217 51.6279 32.7136 52.0332 33.0802C52.4385 33.4469 53.0455 33.9929 53.382 34.2936C53.7185 34.5943 54.0947 34.9326 54.2181 35.0453C54.3414 35.158 54.6384 35.4266 54.878 35.642C55.1176 35.8574 55.3222 36.0677 55.3326 36.1093C55.3657 36.2415 55.3155 36.3151 55.028 36.5556C53.1516 38.1253 53.2676 38.0352 53.1232 38.0352C53.0401 38.0352 52.9248 37.9999 52.8246 37.9441C52.6434 37.8429 52.5481 37.8482 52.3953 37.9685L52.3044 38.0401V39.7018V41.3634L52.1933 41.4846L52.0823 41.6058L52.1933 41.5054L52.3044 41.4049V45.2977V49.1905L51.7662 48.6613L51.228 48.1321L51.7662 48.6792L52.3044 49.2263V49.5568C52.3044 49.9442 52.2753 50.0406 52.1369 50.1122C52.0454 50.1595 50.9868 50.1649 42.0126 50.1635C33.2361 50.161 31.9789 50.156 31.8973 50.1118L31.8974 50.1106ZM40.4816 50.0155C40.4816 50.0079 40.4471 49.9744 40.4048 49.9386L40.3279 49.8735L40.393 49.9504C40.4542 50.0226 40.4817 50.0428 40.4817 50.0155H40.4816ZM43.8005 49.9674C43.843 49.9134 43.8417 49.912 43.7877 49.9545C43.755 49.9803 43.7279 50.0073 43.7279 50.0144C43.7279 50.0426 43.756 50.0232 43.8006 49.9674H43.8005ZM40.2083 49.7421C40.2083 49.7345 40.1737 49.7009 40.1314 49.6652L40.0546 49.6001L40.1197 49.677C40.1808 49.7492 40.2083 49.7694 40.2083 49.7421H40.2083ZM44.0738 49.6941C44.1163 49.6399 44.1151 49.6385 44.0609 49.6811C44.0282 49.707 44.0011 49.7339 44.0011 49.741C44.0011 49.7692 44.0292 49.7498 44.0738 49.6941ZM39.9349 49.4687C39.9349 49.4611 39.9004 49.4276 39.8581 49.3918L39.7812 49.3267L39.8463 49.4035C39.9075 49.4758 39.935 49.496 39.935 49.4687H39.9349ZM44.3472 49.4206C44.3897 49.3665 44.3884 49.3651 44.3343 49.4077C44.3015 49.4335 44.2745 49.4605 44.2745 49.4676C44.2745 49.4958 44.3025 49.4764 44.3472 49.4206ZM31.9734 49.0875C32.0371 49.0217 32.0816 48.9679 32.0722 48.9679C32.0629 48.9679 32.003 49.0218 31.9392 49.0875C31.8754 49.1532 31.831 49.2071 31.8404 49.2071C31.8497 49.2071 31.9096 49.1532 31.9734 49.0875ZM39.6616 49.1952C39.6616 49.1876 39.627 49.154 39.5847 49.1183L39.5079 49.0532L39.5729 49.1301C39.6341 49.2023 39.6616 49.2225 39.6616 49.1952H39.6616ZM44.6206 49.1472C44.6631 49.093 44.6618 49.0918 44.6077 49.1343C44.5749 49.1601 44.5478 49.187 44.5478 49.1941C44.5478 49.2223 44.5759 49.2029 44.6206 49.1472ZM32.2467 48.814C32.3105 48.7482 32.355 48.6944 32.3456 48.6944C32.3362 48.6944 32.2763 48.7482 32.2126 48.814C32.1488 48.8798 32.1044 48.9335 32.1137 48.9335C32.1231 48.9335 32.183 48.8797 32.2467 48.814H32.2467ZM39.3199 48.848L39.2396 48.7625H41.259H43.2784L42.9394 48.1048C42.7529 47.743 42.4581 47.1665 42.2842 46.8236C41.9966 46.2565 41.96 46.2002 41.8792 46.2C41.6487 46.1996 41.4007 46.0521 41.301 45.8566C41.2352 45.7277 41.2334 45.6453 41.2334 42.7398C41.2334 40.3996 41.2423 39.7455 41.2761 39.7094C41.3102 39.6726 41.3102 39.6683 41.2761 39.6875C41.2515 39.7013 41.2327 39.6938 41.2318 39.6668C41.2311 39.6421 41.2316 39.3837 41.2329 39.0924C41.2355 38.5205 41.2083 38.377 41.0781 38.2916C40.9846 38.2303 40.8151 38.2216 40.7187 38.2733C40.5441 38.3668 40.5498 38.2369 40.5498 42.0969C40.5498 46.0887 40.5637 45.8523 40.3176 46.0398C40.248 46.0926 40.1288 46.1528 40.0527 46.1732C39.9144 46.2101 39.9141 46.2105 39.3386 47.246C39.0155 47.8276 38.7479 48.2726 38.7285 48.2606C38.7091 48.2479 38.7046 48.2555 38.7183 48.2785C38.7315 48.3 38.6865 48.4178 38.6181 48.5401L38.4937 48.7625H38.8495C39.1848 48.7625 39.2099 48.7688 39.2855 48.848C39.3296 48.8949 39.3735 48.9335 39.3829 48.9335C39.3922 48.9335 39.3638 48.8952 39.3197 48.848L39.3199 48.848ZM44.9066 48.8651C44.9407 48.8275 44.9609 48.7967 44.9514 48.7967C44.9425 48.7967 44.9064 48.8275 44.8725 48.8651C44.8386 48.9027 44.8182 48.9335 44.8277 48.9335C44.8366 48.9335 44.8727 48.9027 44.9066 48.8651ZM46.8241 48.6972C47.0953 48.574 47.1141 48.5268 47.533 46.9174C47.5795 46.7389 47.6957 46.2971 47.7912 45.9356C47.8867 45.5742 47.9648 45.2705 47.9648 45.2608C47.9648 45.2519 47.8111 45.2431 47.6231 45.2431C47.4352 45.2431 47.2814 45.2355 47.2814 45.2246C47.2814 45.2145 47.257 45.0876 47.227 44.9427C47.0772 44.2172 46.5664 43.6521 45.9918 43.5761C45.7244 43.5408 45.4896 43.5757 45.2571 43.6858C44.8103 43.8971 44.4157 44.4895 44.347 45.0518L44.3258 45.226L43.9736 45.2349C43.6592 45.2425 43.6234 45.2509 43.6396 45.3033C43.6625 45.377 43.7576 45.7464 44.0859 47.0362C44.4751 48.5656 44.4749 48.5649 44.7281 48.6903C44.8638 48.7574 44.9273 48.7617 45.778 48.761C46.5885 48.7605 46.6982 48.7534 46.8241 48.6964L46.8241 48.6972ZM44.6162 45.0588C44.6162 44.7039 44.8656 44.2097 45.1559 43.9894C45.567 43.6774 46.2308 43.7106 46.5778 44.0605C46.8077 44.2923 46.9399 44.5951 47.0233 45.0809L47.0454 45.209H45.8308H44.6162V45.0588ZM32.5201 48.5405C32.5839 48.4747 32.6283 48.421 32.6189 48.421C32.6096 48.421 32.5497 48.4749 32.4859 48.5405C32.4222 48.6063 32.3777 48.66 32.3871 48.66C32.3965 48.66 32.4563 48.6062 32.5201 48.5405H32.5201ZM32.7935 48.2671C32.8572 48.2014 32.9017 48.1475 32.8923 48.1475C32.8829 48.1475 32.823 48.2014 32.7593 48.2671C32.6955 48.3329 32.6511 48.3867 32.6604 48.3867C32.6698 48.3867 32.7297 48.3328 32.7934 48.2671H32.7935ZM38.6023 48.1364C38.6023 48.1288 38.56 48.088 38.5084 48.0425L38.4144 47.9595L38.4972 48.0535C38.5747 48.1412 38.6023 48.1631 38.6023 48.1364H38.6023ZM51.1619 42.5352L51.2622 42.4241L51.1511 42.5245C51.0477 42.618 51.0243 42.6462 51.0507 42.6462C51.057 42.6462 51.1066 42.5964 51.1617 42.5352H51.1619ZM38.5042 42.4839C38.5466 42.4298 38.5455 42.4284 38.4913 42.471C38.4583 42.4968 38.4315 42.5237 38.4315 42.5309C38.4315 42.559 38.4595 42.5397 38.5042 42.4839ZM51.416 42.2875C51.4797 42.2217 51.5242 42.1678 51.5149 42.1678C51.506 42.1678 51.4457 42.2217 51.3819 42.2875C51.3181 42.3533 51.2736 42.407 51.2831 42.407C51.292 42.407 51.3523 42.3531 51.4161 42.2875H51.416ZM45.4704 42.2938C45.4704 42.2862 45.4359 42.2526 45.3935 42.2169L45.3166 42.1518L45.3818 42.2287C45.443 42.3009 45.4706 42.3211 45.4706 42.2938H45.4704ZM38.7775 42.2117C38.82 42.1576 38.8189 42.1562 38.7646 42.1988C38.7317 42.2246 38.7048 42.2516 38.7048 42.2587C38.7048 42.2869 38.7329 42.2675 38.7775 42.2117ZM51.6893 42.0153C51.7531 41.9495 51.7976 41.8956 51.7883 41.8956C51.7794 41.8956 51.7191 41.9495 51.6552 42.0153C51.5915 42.081 51.547 42.1348 51.5563 42.1348C51.5652 42.1348 51.6255 42.0809 51.6893 42.0153H51.6893ZM45.1971 42.0216C45.1971 42.014 45.1626 41.9805 45.1202 41.9447L45.0433 41.8795L45.1083 41.9565C45.1695 42.0287 45.197 42.0489 45.197 42.0216H45.1971ZM39.0509 41.9395C39.0933 41.8855 39.0922 41.8841 39.038 41.9266C39.005 41.9524 38.9782 41.9793 38.9782 41.9864C38.9782 42.0146 39.0063 41.9953 39.0509 41.9395ZM51.9627 41.743C52.0264 41.6773 52.071 41.6235 52.0616 41.6235C52.0528 41.6235 51.9924 41.6774 51.9286 41.743C51.8649 41.8088 51.8203 41.8625 51.8297 41.8625C51.8386 41.8625 51.8989 41.8087 51.9627 41.743ZM44.9237 41.7494C44.9237 41.7418 44.8892 41.7082 44.8468 41.6724L44.7698 41.6073L44.8348 41.6842C44.896 41.7564 44.9236 41.7767 44.9236 41.7494H44.9237ZM39.3242 41.6671C39.3667 41.613 39.3656 41.6116 39.3113 41.6544C39.2785 41.6802 39.2515 41.7071 39.2515 41.7142C39.2515 41.7423 39.2796 41.723 39.3242 41.6673V41.6671ZM44.6504 41.476C44.6504 41.4684 44.6158 41.4348 44.5735 41.3991L44.4966 41.3339L44.5616 41.4108C44.6228 41.483 44.6502 41.5033 44.6502 41.476H44.6504ZM39.5976 41.3937C39.64 41.3396 39.6389 41.3382 39.5847 41.3808C39.5518 41.4066 39.5249 41.4336 39.5249 41.4407C39.5249 41.4689 39.553 41.4495 39.5976 41.3937ZM49.605 39.3692V37.3873H47.6231H45.6413V39.3692V41.351H47.6231H49.605V39.3692ZM44.377 41.2026C44.377 41.195 44.3425 41.1615 44.3001 41.1257L44.2232 41.0605L44.2884 41.1374C44.3496 41.2097 44.3771 41.2299 44.3771 41.2026H44.377ZM39.871 41.1205C39.9134 41.0665 39.9123 41.0651 39.8581 41.1076C39.8252 41.1334 39.7983 41.1603 39.7983 41.1674C39.7983 41.1956 39.8264 41.1763 39.871 41.1205H39.871ZM44.1036 40.9293C44.1036 40.9217 44.0691 40.8883 44.0267 40.8524L43.9499 40.7873L44.015 40.8642C44.0762 40.9364 44.1038 40.9566 44.1038 40.9292L44.1036 40.9293ZM40.1443 40.8472C40.1868 40.7931 40.1857 40.7917 40.1314 40.8343C40.0985 40.8601 40.0716 40.887 40.0716 40.8941C40.0716 40.9222 40.0997 40.903 40.1443 40.8473V40.8472ZM43.8303 40.656C43.8303 40.6484 43.7958 40.6149 43.7533 40.5791L43.6764 40.514L43.7414 40.5909C43.8026 40.6631 43.83 40.6834 43.83 40.656H43.8303ZM40.4177 40.5739C40.4601 40.5199 40.459 40.5184 40.4048 40.561C40.3719 40.5868 40.3451 40.6138 40.3451 40.6209C40.3451 40.6491 40.3731 40.6297 40.4178 40.5739H40.4177ZM43.5569 40.3828C43.5569 40.3752 43.5224 40.3417 43.48 40.3059L43.4031 40.2407L43.4683 40.3176C43.5295 40.3898 43.5569 40.4101 43.5569 40.3828ZM43.2836 40.1094C43.2836 40.1018 43.249 40.0683 43.2067 40.0325L43.1298 39.9674L43.1949 40.0443C43.2561 40.1165 43.2836 40.1367 43.2836 40.1094ZM43.0102 39.836C43.0102 39.8285 42.9757 39.7948 42.9333 39.7591L42.8564 39.694L42.9216 39.771C42.9828 39.8432 43.0102 39.8635 43.0102 39.8362V39.836ZM42.7369 39.5627C42.7369 39.5551 42.7023 39.5215 42.66 39.4858L42.5831 39.4207L42.6482 39.4976C42.7094 39.5698 42.737 39.59 42.737 39.5627H42.7369ZM34.9966 39.0606C34.9696 38.8076 34.9472 38.5661 34.9468 38.5239C34.9464 38.4632 35.039 38.3853 35.3906 38.1511C35.635 37.9883 35.8302 37.8502 35.8243 37.8444C35.8183 37.8368 35.5993 37.8558 35.3372 37.8841C35.0751 37.9118 34.8374 37.9343 34.8088 37.9344C34.7803 37.9344 34.7042 37.8384 34.6398 37.7209C34.5754 37.6034 34.4485 37.3843 34.3579 37.234L34.1931 36.9606L34.2171 37.4219C34.2303 37.6756 34.2421 37.9359 34.2434 38.0003C34.2455 38.113 34.2282 38.1294 33.7749 38.4407C33.516 38.6186 33.3092 38.7691 33.3155 38.7754C33.3251 38.7842 33.9962 38.6911 34.3174 38.6352C34.4207 38.6171 34.4306 38.6276 34.7274 39.0757C34.8947 39.3281 35.0348 39.5315 35.0386 39.5277C35.0423 39.5239 35.0236 39.3137 34.9966 39.0607L34.9966 39.0606ZM41.5111 39.4805C41.5536 39.4264 41.5523 39.425 41.4982 39.4676C41.4653 39.4934 41.4384 39.5204 41.4384 39.5274C41.4384 39.5556 41.4665 39.5363 41.5111 39.4806V39.4805ZM38.3463 38.9912C38.3187 38.72 38.2958 38.489 38.2954 38.4778C38.2951 38.4665 38.4947 38.322 38.7392 38.1563C38.9836 37.9906 39.178 37.8495 39.1713 37.8427C39.1644 37.8351 38.9394 37.8541 38.6709 37.8842C38.4025 37.9139 38.1646 37.9311 38.1421 37.9224C38.1198 37.9148 37.9819 37.6966 37.8359 37.4398C37.6899 37.183 37.5656 36.9778 37.5598 36.9838C37.5537 36.9914 37.5641 37.2407 37.5816 37.5414L37.6141 38.0881L37.532 38.1565C37.4868 38.1941 37.2714 38.3471 37.0533 38.4965C36.8352 38.6459 36.6619 38.7732 36.6682 38.7795C36.6787 38.7896 37.4845 38.6735 37.6827 38.6329C37.764 38.6164 37.7957 38.651 38.0729 39.0604C38.2388 39.3055 38.3795 39.5012 38.3855 39.4952C38.3915 39.4876 38.3737 39.2624 38.3462 38.9912L38.3463 38.9912ZM42.4635 39.2893C42.4635 39.2817 42.429 39.2483 42.3866 39.2124L42.3097 39.1473L42.3747 39.2242C42.4359 39.2964 42.4635 39.3166 42.4635 39.2893ZM41.7845 39.2071C41.827 39.153 41.8258 39.1516 41.7716 39.1942C41.7387 39.22 41.7117 39.2469 41.7117 39.254C41.7117 39.2821 41.7398 39.2629 41.7845 39.2071ZM42.1642 38.9866L42.0888 38.9113L42.1651 38.8243L42.2413 38.7373L42.1542 38.8137C42.0835 38.8756 42.0578 38.8821 42.0175 38.8478C41.9761 38.8123 41.9749 38.8138 42.0099 38.8554C42.0437 38.8951 42.0404 38.9185 41.9928 38.9751C41.9346 39.0441 41.9348 39.0444 42.0055 38.9839C42.0739 38.9265 42.0795 38.9267 42.1389 38.9915C42.173 39.0293 42.2097 39.06 42.2204 39.06C42.2305 39.06 42.2058 39.0261 42.1645 38.9847L42.1642 38.9866ZM41.9168 38.7426C41.9168 38.735 41.8822 38.7015 41.8399 38.6657L41.763 38.6005L41.8281 38.6774C41.8893 38.7496 41.9168 38.7699 41.9168 38.7426ZM42.3312 38.6605C42.3737 38.6063 42.3724 38.6049 42.3183 38.6476C42.2855 38.6734 42.2584 38.7003 42.2584 38.7075C42.2584 38.7357 42.2865 38.7164 42.3312 38.6606V38.6605ZM41.6434 38.4693C41.6434 38.4617 41.6089 38.4282 41.5665 38.3924L41.4896 38.3273L41.5548 38.4042C41.616 38.4764 41.6434 38.4966 41.6434 38.4693ZM42.6045 38.3871C42.647 38.3329 42.6458 38.3316 42.5916 38.3742C42.5589 38.4 42.5318 38.4268 42.5318 38.434C42.5318 38.4622 42.5599 38.4429 42.6045 38.3871ZM41.3701 38.1959C41.3701 38.1883 41.3356 38.1548 41.2932 38.119L41.2163 38.0539L41.2813 38.1308C41.3425 38.203 41.3701 38.2232 41.3701 38.1959ZM42.8779 38.1138C42.9204 38.0597 42.9191 38.0583 42.865 38.101C42.8322 38.1269 42.8052 38.1538 42.8052 38.1609C42.8052 38.189 42.8332 38.1697 42.8779 38.114V38.1138ZM31.8709 36.9264C32.4626 36.3344 32.9391 35.8501 32.9297 35.8501C32.9204 35.8501 32.4285 36.3344 31.8367 36.9264C31.2449 37.5184 30.7684 38.0028 30.7778 38.0028C30.7872 38.0028 31.2791 37.5184 31.8709 36.9264V36.9264ZM41.0967 37.9226C41.0967 37.9151 41.0622 37.8816 41.0197 37.8458L40.9428 37.7806L41.0078 37.8576C41.069 37.9299 41.0966 37.9501 41.0966 37.9228L41.0967 37.9226ZM53.3637 37.9231C53.3637 37.9155 53.3213 37.8746 53.2697 37.8291L53.1757 37.7461L53.2586 37.8401C53.3358 37.9279 53.3637 37.9497 53.3637 37.9231V37.9231ZM43.1513 37.8401C43.1938 37.786 43.1925 37.7847 43.1385 37.8272C43.1056 37.853 43.0787 37.8799 43.0787 37.887C43.0787 37.9152 43.1067 37.8959 43.1514 37.8401H43.1513ZM53.1586 37.7187C53.1586 37.7111 53.1011 37.6553 53.0305 37.5905L52.9024 37.4728L53.0201 37.6009C53.1297 37.7202 53.1586 37.7448 53.1586 37.7187V37.7187ZM40.8234 37.6488C40.8234 37.6413 40.7888 37.6078 40.7465 37.572L40.6696 37.5068L40.7347 37.5837C40.7959 37.6559 40.8233 37.6762 40.8233 37.6488H40.8234ZM43.4246 37.5668C43.4671 37.5126 43.466 37.5113 43.4117 37.5539C43.3789 37.5797 43.3519 37.6066 43.3519 37.6137C43.3519 37.6418 43.38 37.6225 43.4246 37.5668ZM52.8853 37.4454C52.8853 37.4378 52.8277 37.382 52.7572 37.3172L52.629 37.1995L52.7468 37.3276C52.8564 37.4469 52.8853 37.4715 52.8853 37.4454H52.8853ZM40.55 37.3758C40.55 37.3682 40.5154 37.3347 40.4731 37.2989L40.3963 37.2337L40.4614 37.3106C40.5225 37.3829 40.55 37.4031 40.55 37.3758H40.55ZM43.698 37.2937C43.7405 37.2396 43.7392 37.2382 43.6851 37.2808C43.6522 37.3066 43.6252 37.3335 43.6252 37.3408C43.6252 37.3688 43.6533 37.3496 43.698 37.2938V37.2937ZM52.6119 37.1723C52.6119 37.1647 52.5544 37.1089 52.4838 37.0441L52.3557 36.9264L52.4734 37.0545C52.5831 37.1738 52.6119 37.1984 52.6119 37.1723V37.1723ZM40.2766 37.1025C40.2766 37.0949 40.2421 37.0614 40.1998 37.0256L40.1229 36.9606L40.188 37.0374C40.2491 37.1097 40.2767 37.1299 40.2767 37.1026L40.2766 37.1025ZM43.9713 37.0203C44.0138 36.9662 44.0126 36.9648 43.9584 37.0073C43.9255 37.0331 43.8986 37.06 43.8986 37.0672C43.8986 37.0954 43.9267 37.076 43.9713 37.0203ZM52.3386 36.8988C52.3386 36.8912 52.281 36.8355 52.2104 36.7707L52.0823 36.653L52.2 36.7811C52.3096 36.9003 52.3386 36.9249 52.3386 36.8988V36.8988ZM40.0033 36.829C40.0033 36.8214 39.9687 36.7879 39.9264 36.7521L39.8496 36.6871L39.9146 36.764C39.9758 36.8362 40.0033 36.8565 40.0033 36.8291L40.0033 36.829ZM44.2447 36.7468C44.2872 36.6927 44.2859 36.6913 44.2318 36.7339C44.1989 36.7597 44.172 36.7865 44.172 36.7937C44.172 36.8218 44.2 36.8026 44.2447 36.7468ZM52.0652 36.6254C52.0652 36.6178 52.0077 36.562 51.9371 36.4972L51.8089 36.3795L51.9267 36.5076C52.0362 36.6269 52.0652 36.6515 52.0652 36.6254L52.0652 36.6254ZM39.7299 36.5556C39.7299 36.548 39.6953 36.5145 39.6531 36.4787L39.5762 36.4135L39.6413 36.4904C39.7024 36.5627 39.7299 36.5829 39.7299 36.5556H39.7299ZM44.518 36.4735C44.5605 36.4192 44.5593 36.418 44.5051 36.4606C44.4723 36.4864 44.4453 36.5133 44.4453 36.5204C44.4453 36.5485 44.4734 36.5293 44.518 36.4735ZM51.7919 36.3521C51.7919 36.3445 51.7343 36.2887 51.6637 36.2239L51.5356 36.1062L51.6533 36.2343C51.763 36.3536 51.7919 36.3782 51.7919 36.3521V36.3521ZM39.4566 36.2823C39.4566 36.2747 39.422 36.2413 39.3797 36.2053L39.3028 36.1402L39.3679 36.2171C39.4291 36.2893 39.4566 36.3096 39.4566 36.2823H39.4566ZM44.7914 36.2002C44.8339 36.146 44.8326 36.1446 44.7785 36.1873C44.7456 36.2131 44.7187 36.24 44.7187 36.2471C44.7187 36.2753 44.7468 36.2559 44.7914 36.2003V36.2002ZM51.5185 36.0787C51.5185 36.0712 51.4609 36.0154 51.3904 35.9506L51.2622 35.8328L51.38 35.961C51.4896 36.0802 51.5185 36.1048 51.5185 36.0787V36.0787ZM39.1832 36.0091C39.1832 36.0015 39.1486 35.9679 39.1064 35.9321L39.0295 35.867L39.0946 35.9439C39.1557 36.0161 39.1833 36.0364 39.1833 36.0091H39.1832ZM35.2366 35.6008C35.4809 35.4521 35.8309 35.2393 36.0143 35.128L36.3479 34.9256L36.8686 35.2663C37.8077 35.8809 37.9684 35.9827 37.9805 35.9706C37.9873 35.9631 37.7847 35.5844 37.5307 35.127C37.1136 34.3756 37.0735 34.2887 37.1149 34.2269C37.4479 33.7311 38.1298 32.6673 38.1199 32.6591C38.112 32.6515 37.7336 32.8547 37.2773 33.1068L36.4478 33.5651L36.2693 33.4359C36.1712 33.3646 36.0832 33.297 36.0737 33.2853C36.0644 33.2739 35.9947 33.2194 35.9191 33.1646C35.8435 33.11 35.6974 32.9987 35.5945 32.9174C35.2558 32.6499 34.8637 32.3674 34.85 32.3811C34.8334 32.3978 34.9301 32.6041 35.3625 33.4747C35.5491 33.8503 35.695 34.1829 35.6869 34.2139C35.6791 34.2449 35.5502 34.4604 35.401 34.6928C34.8198 35.5982 34.6045 35.9431 34.6045 35.9683C34.6045 35.9828 34.6467 35.9658 34.6984 35.9329C34.7501 35.899 34.9923 35.7496 35.2366 35.6008H35.2366ZM45.0648 35.9269C45.1073 35.8727 45.106 35.8713 45.0519 35.914C45.0191 35.9398 44.992 35.9667 44.992 35.9739C44.992 36.0021 45.0201 35.9828 45.0648 35.927V35.9269ZM51.2451 35.8055C51.2451 35.7979 51.1876 35.7421 51.117 35.6773L50.9889 35.5596L51.1066 35.6877C51.2162 35.807 51.2451 35.8315 51.2451 35.8054L51.2451 35.8055ZM38.9098 35.7356C38.9098 35.7281 38.8753 35.6945 38.833 35.6587L38.7561 35.5936L38.8212 35.6705C38.8824 35.7427 38.9099 35.763 38.9099 35.7356H38.9098ZM45.3381 35.6534C45.3806 35.5993 45.3794 35.5979 45.3252 35.6405C45.2923 35.6663 45.2654 35.6933 45.2654 35.7005C45.2654 35.7286 45.2935 35.7093 45.3381 35.6536V35.6534ZM50.9376 35.4953C50.9376 35.4877 50.9108 35.4614 50.8778 35.4354C50.8236 35.3929 50.8222 35.3941 50.8649 35.4483C50.9095 35.5053 50.9376 35.5233 50.9376 35.4952V35.4953ZM38.6365 35.4623C38.6365 35.4547 38.6019 35.4212 38.5596 35.3854L38.4828 35.3203L38.5478 35.3972C38.609 35.4694 38.6365 35.4896 38.6365 35.4623H38.6365ZM38.5169 30.2119C38.5509 30.1744 38.571 30.1435 38.5617 30.1435C38.5523 30.1435 38.5167 30.1744 38.4828 30.2119C38.4488 30.2495 38.4286 30.2804 38.438 30.2804C38.4473 30.2804 38.4829 30.2495 38.5169 30.2119ZM38.7903 29.9386C38.8242 29.901 38.8444 29.8701 38.8351 29.8701C38.8257 29.8701 38.7901 29.901 38.7561 29.9386C38.7221 29.9761 38.702 30.007 38.7113 30.007C38.7207 30.007 38.7563 29.9761 38.7903 29.9386ZM45.1971 29.8256C45.1971 29.818 45.1396 29.7623 45.069 29.6975L44.9408 29.5798L45.0586 29.7079C45.1681 29.8272 45.1971 29.8517 45.1971 29.8256H45.1971ZM39.0636 29.6652C39.0977 29.6276 39.1178 29.5967 39.1084 29.5967C39.099 29.5967 39.0634 29.6276 39.0295 29.6652C38.9955 29.7027 38.9753 29.7336 38.9847 29.7336C38.994 29.7336 39.0297 29.7027 39.0636 29.6652ZM44.9237 29.5522C44.9237 29.5446 44.8662 29.4888 44.7956 29.4241L44.6675 29.3063L44.7852 29.4345C44.8949 29.5537 44.9237 29.5783 44.9237 29.5522V29.5522ZM39.337 29.3917C39.3709 29.3542 39.3911 29.3233 39.3818 29.3233C39.3724 29.3233 39.3368 29.3542 39.3029 29.3917C39.2689 29.4293 39.2487 29.4602 39.2581 29.4602C39.2674 29.4602 39.303 29.4293 39.337 29.3917H39.337ZM44.6504 29.2788C44.6504 29.2712 44.5928 29.2154 44.5222 29.1507L44.3941 29.0329L44.5119 29.161C44.6214 29.2803 44.6504 29.3049 44.6504 29.2788V29.2788ZM39.6103 29.1183C39.6444 29.0808 39.6645 29.0499 39.6551 29.0499C39.6458 29.0499 39.6101 29.0808 39.5762 29.1183C39.5421 29.1559 39.522 29.1867 39.5314 29.1867C39.5408 29.1867 39.5764 29.1559 39.6103 29.1183H39.6103ZM44.377 29.0054C44.377 28.9978 44.3195 28.942 44.2489 28.8772L44.1207 28.7595L44.2385 28.8876C44.3482 29.0069 44.377 29.0315 44.377 29.0054L44.377 29.0054ZM39.8837 28.8449C39.9177 28.8074 39.9378 28.7765 39.9285 28.7765C39.9191 28.7765 39.8835 28.8074 39.8496 28.8449C39.8156 28.8825 39.7954 28.9133 39.8048 28.9133C39.8141 28.9133 39.8497 28.8825 39.8837 28.8449ZM44.1037 28.732C44.1037 28.7244 44.0461 28.6686 43.9755 28.6038L43.8474 28.4861L43.9651 28.6142C44.0748 28.7335 44.1036 28.7581 44.1036 28.732L44.1037 28.732ZM40.157 28.5715C40.191 28.5339 40.2112 28.5031 40.2018 28.5031C40.1925 28.5031 40.1569 28.5339 40.1229 28.5715C40.0889 28.6091 40.0688 28.6399 40.0781 28.6399C40.0875 28.6399 40.1231 28.6091 40.1571 28.5715H40.157ZM43.8303 28.4585C43.8303 28.451 43.7728 28.3952 43.7022 28.3304L43.574 28.2127L43.6918 28.3408C43.8014 28.4601 43.8303 28.4846 43.8303 28.4585V28.4585ZM40.4304 28.2981C40.4645 28.2605 40.4845 28.2297 40.4752 28.2297C40.4658 28.2297 40.4302 28.2605 40.3963 28.2981C40.3623 28.3357 40.3421 28.3665 40.3515 28.3665C40.3608 28.3665 40.3965 28.3357 40.4304 28.2981H40.4304ZM43.5569 28.1851C43.5569 28.1775 43.4994 28.1218 43.4288 28.057L43.3007 27.9393L43.4184 28.0674C43.528 28.1866 43.5569 28.2112 43.5569 28.1851H43.5569ZM40.7038 28.0247C40.7377 27.9871 40.7579 27.9562 40.7486 27.9562C40.7397 27.9562 40.7035 27.9872 40.6696 28.0247C40.6357 28.0622 40.6155 28.0931 40.6248 28.0931C40.6342 28.0931 40.6698 28.0622 40.7038 28.0247ZM43.2836 27.9117C43.2836 27.9041 43.226 27.8484 43.1555 27.7836L43.0273 27.6659L43.1451 27.794C43.2547 27.9132 43.2836 27.9378 43.2836 27.9117H43.2836ZM40.9771 27.7513C41.0111 27.7137 41.0314 27.6828 41.0219 27.6828C41.013 27.6828 40.9769 27.7137 40.943 27.7513C40.9091 27.7888 40.8887 27.8197 40.8982 27.8197C40.9071 27.8197 40.9432 27.7888 40.9771 27.7513ZM43.0102 27.6383C43.0102 27.6307 42.9527 27.5749 42.8821 27.5102L42.7539 27.3924L42.8717 27.5205C42.9814 27.6398 43.0102 27.6644 43.0102 27.6383L43.0102 27.6383ZM41.2505 27.4771C41.2844 27.4395 41.3048 27.4087 41.2953 27.4087C41.2864 27.4087 41.2502 27.4395 41.2163 27.4771C41.1823 27.5146 41.1621 27.5455 41.1716 27.5455C41.1804 27.5455 41.2166 27.5146 41.2505 27.4771ZM42.7369 27.3641C42.7369 27.3565 42.6793 27.3009 42.6087 27.236L42.4806 27.1182L42.5983 27.2464C42.708 27.3657 42.7369 27.3902 42.7369 27.3641H42.7369ZM41.5238 27.2037C41.5577 27.1661 41.578 27.1352 41.5686 27.1352C41.5598 27.1352 41.5236 27.1661 41.4897 27.2037C41.4557 27.2412 41.4354 27.2721 41.4449 27.2721C41.4538 27.2721 41.4899 27.2412 41.5238 27.2037ZM42.4635 27.0907C42.4635 27.0831 42.406 27.0273 42.3354 26.9626L42.2072 26.8448L42.325 26.973C42.4345 27.0922 42.4635 27.1168 42.4635 27.0907L42.4635 27.0907ZM41.7972 26.9303C41.8312 26.8927 41.8515 26.8618 41.842 26.8618C41.8331 26.8618 41.7969 26.8927 41.763 26.9303C41.729 26.9678 41.7088 26.9987 41.7183 26.9987C41.7271 26.9987 41.7633 26.9678 41.7972 26.9303ZM42.1283 26.7492C42.0622 26.6791 42.0597 26.6645 42.1052 26.6125C42.1518 26.5593 42.1511 26.5585 42.0976 26.6049C42.0443 26.6517 42.022 26.6402 41.8499 26.4769C41.7459 26.3782 41.7757 26.4167 41.9163 26.5623C42.0568 26.7078 42.1786 26.827 42.1871 26.827C42.1959 26.827 42.1692 26.7917 42.1286 26.7483L42.1283 26.7492ZM42.3439 26.3835C42.3779 26.346 42.398 26.3151 42.3887 26.3151C42.3798 26.3151 42.3437 26.346 42.3098 26.3835C42.2757 26.4211 42.2556 26.452 42.265 26.452C42.2738 26.452 42.31 26.4211 42.3439 26.3835ZM41.6434 26.2706C41.6434 26.263 41.5859 26.2072 41.5153 26.1424L41.3872 26.0247L41.5049 26.1528C41.6146 26.2721 41.6435 26.2967 41.6435 26.2706L41.6434 26.2706ZM42.6173 26.1101C42.6512 26.0726 42.6715 26.0417 42.662 26.0417C42.6532 26.0417 42.617 26.0726 42.5831 26.1101C42.5491 26.1477 42.5289 26.1786 42.5384 26.1786C42.5472 26.1786 42.5834 26.1477 42.6173 26.1101ZM42.8906 25.8368C42.9247 25.7992 42.9449 25.7683 42.9354 25.7683C42.9266 25.7683 42.8904 25.7992 42.8565 25.8368C42.8225 25.8743 42.8022 25.9052 42.8117 25.9052C42.8206 25.9052 42.8567 25.8743 42.8906 25.8368ZM43.164 25.5634C43.198 25.5259 43.2183 25.495 43.2088 25.495C43.1999 25.495 43.1637 25.5259 43.1298 25.5634C43.0958 25.601 43.0756 25.6319 43.0851 25.6319C43.0939 25.6319 43.1301 25.601 43.164 25.5634Z" fill="#565656"/>
<path d="M29.6775 30.6156L29.2142 29.6951L28.2617 29.2399L27.3092 28.7847L28.2732 28.2989L29.2372 27.8133L29.687 26.9041C29.9343 26.404 30.1553 26.0148 30.1779 26.0391C30.2005 26.0635 30.4241 26.4767 30.6746 26.9574L31.1302 27.8314L32.0363 28.2813C32.5347 28.5287 32.9424 28.7461 32.9424 28.7644C32.9424 28.7829 32.5335 29.0004 32.0336 29.2481L31.1248 29.6983L30.7112 30.5116C30.4838 30.959 30.2624 31.3725 30.2193 31.4306C30.15 31.524 30.0868 31.4279 29.6775 30.6156ZM35.367 28.5474L35.0813 27.9688L34.4816 27.6671L33.882 27.3654L34.4816 27.0557L35.0813 26.7461L35.3825 26.1634L35.6837 25.5806L36.0066 26.1854L36.3295 26.7901L36.8953 27.0581C37.2065 27.2055 37.4606 27.3447 37.4601 27.3675C37.4596 27.3902 37.1998 27.529 36.8829 27.6757L36.3066 27.9426L36.0097 28.5343C35.8464 28.8597 35.6993 29.1259 35.6828 29.1259C35.6663 29.1259 35.5242 28.8656 35.367 28.5474V28.5474Z" fill="#565656"/>
</svg>
