<svg width="13" height="11" viewBox="0 0 13 11" fill="none" xmlns="http://www.w3.org/2000/svg">
<path d="M4.34446 2.46439L4.11767 2.0138L3.65149 1.791L3.1853 1.5682L3.65712 1.33048L4.12893 1.09276L4.34908 0.64776C4.47017 0.403006 4.57829 0.212514 4.58937 0.224419C4.60044 0.236408 4.70986 0.438579 4.83249 0.673854L5.05546 1.10163L5.49896 1.32181C5.74289 1.44291 5.94246 1.54932 5.94246 1.5583C5.94246 1.56769 5.74229 1.67381 5.49764 1.795L5.05281 2.01536L4.8504 2.41346C4.73907 2.63242 4.63072 2.83482 4.60962 2.86324C4.57573 2.90896 4.5448 2.86231 4.34446 2.46439ZM7.12917 1.45205L6.9893 1.16888L6.69582 1.02121L6.40234 0.873541L6.69582 0.721999L6.9893 0.570429L7.13674 0.285229L7.28418 0L7.44221 0.295992L7.60025 0.591985L7.87717 0.723219C8.02947 0.795339 8.15387 0.86349 8.15361 0.874633C8.15334 0.885321 8.02622 0.953531 7.87108 1.02549L7.58902 1.15608L7.4437 1.44564C7.36377 1.60492 7.29178 1.73521 7.28371 1.73521C7.27554 1.73521 7.20611 1.60784 7.12917 1.45204V1.45205Z" fill="#565656"/>
<path d="M1.5152 10.7313C0.748271 10.4812 0.190422 9.84209 0.0328288 9.03304C-0.141352 8.13885 0.393051 7.15213 1.2689 6.75076C1.6486 6.57676 2.34481 6.51775 2.62246 6.63602L2.79557 6.70982L2.54373 7.04898C2.29959 7.3778 2.28438 7.38818 2.04503 7.38933C1.4025 7.39212 0.79421 8.02523 0.79421 8.69055C0.79421 9.15342 1.14859 9.69551 1.57898 9.89101C1.86916 10.0228 2.37938 10.0223 2.6708 9.89008C3.12152 9.68536 3.44974 9.18536 3.4556 8.69452C3.45764 8.52793 3.49492 8.47217 3.72135 8.29763C4.12719 7.98481 4.13993 7.98584 4.21294 8.33741C4.39561 9.21733 3.89665 10.1753 3.03465 10.5997C2.7328 10.7483 2.61068 10.7765 2.21203 10.7901C1.91981 10.8002 1.65794 10.7779 1.5152 10.7314V10.7313ZM10.1436 10.7313C9.03174 10.3687 8.4239 9.26393 8.69981 8.10713C8.71582 8.03994 8.7463 7.98503 8.76751 7.98503C8.78873 7.98503 8.93871 8.08382 9.1008 8.20452C9.38563 8.41665 9.39655 8.43436 9.42693 8.73361C9.5043 9.49581 10.0259 9.99051 10.7522 9.99051C11.1708 9.99051 11.4547 9.86113 11.7351 9.54264C12.1979 9.01686 12.1979 8.36413 11.7351 7.83837C11.4693 7.53639 11.1682 7.39088 10.806 7.38929C10.5371 7.38836 10.5316 7.38464 10.2768 7.05113C10.0448 6.74736 10.0288 6.7086 10.1145 6.65769C10.1667 6.62655 10.4537 6.60127 10.7522 6.60127C11.2282 6.60127 11.3332 6.61922 11.607 6.74758C12.2501 7.04894 12.728 7.67291 12.8511 8.37166C13.007 9.25651 12.468 10.2351 11.607 10.6306C11.23 10.8038 10.5164 10.8529 10.1436 10.7313V10.7313ZM1.6867 9.58684C1.29496 9.39019 1.14695 9.1444 1.14695 8.6905C1.14695 8.2867 1.28065 8.01943 1.5674 7.85005C1.73571 7.75066 2.04235 7.65039 2.04235 7.69478C2.04235 7.71012 1.96011 7.82436 1.85959 7.94876C1.60641 8.26212 1.55395 8.37879 1.55395 8.62851C1.55395 8.89535 1.74507 9.144 2.01987 9.2347C2.27324 9.31825 2.44637 9.26808 2.78619 9.01196C2.9416 8.89485 3.08466 8.79902 3.10411 8.79902C3.16144 8.79902 3.07353 9.08359 2.95859 9.27003C2.83463 9.47112 2.37158 9.72158 2.12375 9.72158C2.031 9.72158 1.83433 9.66099 1.6867 9.58684ZM10.3151 9.58684C10.0126 9.43499 9.81352 9.18031 9.76538 8.88364L9.73286 8.68321L10.0955 8.95773C10.6224 9.35651 10.8565 9.38143 11.1661 9.07176C11.2918 8.94615 11.322 8.86837 11.322 8.67078C11.322 8.46001 11.284 8.37605 11.0506 8.07165C10.9014 7.87694 10.7793 7.70188 10.7793 7.68264C10.7793 7.62205 11.0686 7.71583 11.3032 7.85231C11.7563 8.11601 11.8963 8.80377 11.5891 9.25773C11.4385 9.48043 11.0033 9.72158 10.7522 9.72158C10.6594 9.72158 10.4628 9.66099 10.3151 9.58684H10.3151ZM5.05414 9.48356C4.81584 9.3797 4.77703 9.31099 4.64932 8.76669C4.32441 7.38195 3.51466 6.43578 1.59465 5.19744C1.19083 4.93698 1.11981 4.90711 1.11981 4.99762C1.11981 5.05617 1.18086 5.19403 1.25548 5.30398C1.44243 5.57946 1.44051 5.91017 1.25065 6.1358C0.919061 6.52987 0.439188 6.1423 0.547058 5.56678C0.566937 5.46084 0.630665 5.32669 0.688697 5.26866C0.761589 5.19579 0.794203 5.0885 0.794203 4.92157C0.794203 4.69586 0.777936 4.66877 0.54693 4.50983C0.390826 4.40244 0.306057 4.30645 0.317008 4.24947C0.332436 4.16908 0.463975 4.15755 1.50971 4.1446C2.66405 4.1302 2.68758 4.13224 2.82631 4.25315C2.92017 4.33503 2.9808 4.45822 3.00699 4.62049L3.04641 4.86469L3.80607 5.12006C4.91012 5.49122 5.02343 5.47997 5.60198 4.94173C5.94253 4.62491 6.14004 4.56669 6.87209 4.56733C7.52691 4.56796 7.64039 4.60878 7.87425 4.92798C7.96477 5.05155 8.09188 5.18254 8.15674 5.21909C8.29343 5.29614 8.54548 5.24938 8.58778 5.13915C8.60361 5.09789 8.47436 4.82086 8.30056 4.52348L7.98456 3.98278L7.60505 3.94431C7.226 3.90592 7.12875 3.85351 7.18138 3.71641C7.21868 3.61925 8.01064 3.61508 8.12726 3.71176C8.17239 3.74903 8.35411 4.02381 8.53107 4.32228L8.85282 4.86494L8.86964 4.66187C8.87884 4.55018 8.8477 4.30752 8.80033 4.12262C8.72726 3.83739 8.7255 3.77513 8.78881 3.71183C8.85212 3.64854 8.91608 3.65485 9.21086 3.75374C10.2707 4.10922 10.9641 4.82526 11.225 5.83364C11.2903 6.08608 11.2877 6.10126 11.1617 6.20329C11.0767 6.27216 10.9861 6.29852 10.9048 6.2782C10.6955 6.22559 10.0672 6.35236 9.70706 6.51976C8.81975 6.93219 8.33868 7.76207 8.33761 8.88218C8.33723 9.27555 8.24861 9.4248 7.96939 9.50235C7.66252 9.58757 5.25712 9.57224 5.05413 9.48385L5.05414 9.48356ZM7.22033 8.75206C7.25987 8.68802 7.6861 6.63827 7.6861 6.51209C7.6861 6.41655 7.6145 6.41127 6.30229 6.41127C5.5412 6.41127 4.91849 6.41871 4.91849 6.42623C4.91849 6.46694 5.67295 8.69227 5.70352 8.74172C5.7466 8.81142 7.17759 8.82118 7.22033 8.75194V8.75206ZM5.81326 8.58094C5.78193 8.53029 5.13556 6.63074 5.13556 6.58936C5.13556 6.581 5.6728 6.57402 6.32943 6.57402C6.98606 6.57402 7.52271 6.58053 7.522 6.58759C7.52128 6.59502 7.4281 7.05293 7.31493 7.6051L7.10917 8.60902L6.47934 8.62435C6.07067 8.63448 5.83678 8.61971 5.81326 8.58096V8.58094ZM7.02133 7.64587C7.00669 7.60191 6.88717 7.57801 6.68216 7.57801C6.47715 7.57801 6.35764 7.60191 6.34299 7.64587C6.32641 7.69559 6.41685 7.71371 6.68216 7.71371C6.94747 7.71371 7.03791 7.69559 7.02133 7.64587ZM7.12986 7.266C7.11522 7.22204 6.9957 7.19824 6.7907 7.19824C6.58569 7.19824 6.46617 7.22213 6.45153 7.266C6.43494 7.31572 6.52539 7.33375 6.7907 7.33375C7.056 7.33375 7.14644 7.31562 7.12986 7.266ZM7.23865 6.88613C7.2153 6.81522 6.7029 6.76118 6.56309 6.81485C6.39166 6.88065 6.57291 6.95398 6.90695 6.95398C7.16594 6.95398 7.25501 6.93577 7.23865 6.88623V6.88613ZM9.36987 5.86583C9.44924 5.71752 9.41783 5.54081 9.29898 5.46715C9.22445 5.42096 9.19065 5.4259 9.15058 5.48872C9.07806 5.60247 9.0844 5.83425 9.16215 5.91201C9.25414 6.00402 9.30154 5.99341 9.36986 5.8658L9.36987 5.86583ZM10.9127 5.80077C10.8215 5.49778 10.5462 4.99636 10.3511 4.77804L10.1376 4.53907L10.0786 4.69183C9.8952 5.16654 10.0841 5.53018 10.6648 5.82061C10.9223 5.94934 10.9566 5.94659 10.9127 5.80071V5.80077ZM1.93469 8.81492C1.85758 8.71696 1.8298 8.6256 1.85117 8.54046C1.89067 8.38305 3.08215 6.81828 3.1625 6.81828C3.22828 6.81828 3.7144 7.37279 3.85031 7.60286L3.93977 7.7543L3.14687 8.35806C2.27313 9.02337 2.13855 9.07409 1.93469 8.81492H1.93469ZM9.77537 8.33748C9.32767 7.99678 8.9534 7.68002 8.94365 7.63358C8.92568 7.54789 9.58444 6.84541 9.68277 6.84541C9.75139 6.84541 11.0506 8.56133 11.0506 8.65196C11.0506 8.68979 11.0126 8.77487 10.9662 8.8412C10.8078 9.06733 10.6426 8.99746 9.77537 8.33748Z" fill="#565656"/>
</svg>
