<svg width="14" height="12" viewBox="0 0 14 12" fill="none" xmlns="http://www.w3.org/2000/svg">
<path d="M11.2401 11.2894C10.8671 11.2811 10.5394 11.2637 10.512 11.2501C10.3815 11.1858 10.3559 11.0886 10.3454 10.6186L10.3354 10.1689H6.54882H2.76222V10.5827C2.76222 11.0301 2.73342 11.1559 2.61133 11.2414C2.55098 11.2837 2.41561 11.2895 1.49163 11.2895C0.48176 11.2895 0.437626 11.2867 0.364861 11.2298C0.230815 11.1244 0.22437 11.0106 0.232971 8.90058L0.240966 6.9399L0.543223 6.37256C0.709464 6.06051 0.845416 5.79513 0.845342 5.7828C0.845254 5.77081 0.735792 5.72554 0.602065 5.68302C0.273766 5.57847 0.0836544 5.48564 0.0297425 5.40335C-0.0105836 5.34183 -0.010194 5.32064 0.0337381 5.19379C0.0605881 5.11619 0.131471 4.97309 0.191264 4.87576C0.35199 4.61417 0.429995 4.58343 1.04136 4.54072C1.31478 4.52166 1.64464 4.49816 1.77439 4.48859L2.01029 4.4711L2.11194 4.33522C2.32621 4.04873 2.81817 3.47863 3.08662 3.20574C3.54083 2.744 3.0863 2.79703 6.59041 2.79691L9.60765 2.79681L9.73281 2.88296C9.91242 3.0066 10.4216 3.54695 10.8275 4.04474L11.1768 4.47326L11.4149 4.48971C12.7638 4.5828 12.7306 4.57745 12.8689 4.72042C12.9899 4.84552 13.1716 5.19549 13.1716 5.30343C13.1716 5.34971 13.1487 5.41052 13.1207 5.43855C13.0589 5.50045 12.8446 5.59618 12.5671 5.68613C12.4536 5.72293 12.3516 5.76131 12.3404 5.77144C12.3178 5.79198 12.639 6.50301 12.775 6.73352L12.862 6.88097L12.8821 8.34064C12.904 9.93272 12.8894 10.9551 12.8427 11.1057C12.8254 11.1615 12.7798 11.2188 12.7342 11.2418C12.6339 11.2927 12.1267 11.3088 11.2401 11.2894ZM3.6126 7.81188C3.60433 7.54363 3.59246 7.47561 3.54211 7.40642C3.45707 7.28959 3.24845 7.1934 2.9784 7.14662C2.62844 7.08612 1.08648 6.93972 1.06144 6.96477C1.0493 6.97676 1.03896 7.1487 1.03831 7.34666C1.03729 7.65491 1.04566 7.721 1.09611 7.80675C1.20062 7.98416 1.28138 8.02194 1.61745 8.05059C1.96147 8.07996 2.89618 8.12299 3.33246 8.12987L3.62258 8.13358L3.6126 7.81188ZM10.5911 8.10386C11.533 8.06362 11.8515 8.03247 11.9438 7.97194C12.0796 7.883 12.146 7.69287 12.1451 7.39601C12.1439 7.02216 12.1253 6.9547 12.0231 6.9547C11.8993 6.9547 10.7858 7.06687 10.3997 7.11821C9.97424 7.17472 9.80656 7.22891 9.67658 7.35148L9.574 7.44817V7.79117V8.13418H9.72856C9.81357 8.13418 10.2017 8.12059 10.5911 8.10386ZM10.8014 5.63533C10.7758 5.44896 10.5909 5.08608 10.3476 4.7446C10.0994 4.39637 9.53965 3.81841 9.39064 3.75649C9.29448 3.71653 8.94649 3.71104 6.55817 3.71104H3.83532L3.70422 3.79478C3.22738 4.09967 2.37885 5.31032 2.37885 5.68577V5.77509H6.59968H10.8205L10.8014 5.63533ZM1.1642 2.46439L0.937407 2.0138L0.471225 1.791L0.0050422 1.5682L0.476855 1.33048L0.948667 1.09276L1.16881 0.64776C1.2899 0.403006 1.39803 0.212514 1.40911 0.224419C1.42018 0.236408 1.5296 0.438565 1.65223 0.67384L1.8752 1.10163L2.3187 1.3218C2.56262 1.4429 2.7622 1.54932 2.7622 1.5583C2.7622 1.56769 2.56203 1.67379 2.31738 1.79499L1.87255 2.01536L1.67013 2.41346C1.55881 2.63242 1.45046 2.83482 1.42936 2.86324C1.39547 2.90896 1.36454 2.86231 1.1642 2.46439ZM3.94891 1.45205L3.80904 1.16888L3.51556 1.02121L3.22208 0.873541L3.51556 0.721999L3.80904 0.570429L3.95648 0.285229L4.10392 0L4.26195 0.295992L4.41999 0.591971L4.69691 0.723219C4.84921 0.795339 4.97361 0.863489 4.97335 0.874633C4.97308 0.885321 4.84596 0.953531 4.69082 1.02549L4.40876 1.15606L4.26344 1.44563C4.18351 1.60491 4.11152 1.73521 4.10345 1.73521C4.09528 1.73521 4.02584 1.60786 3.94891 1.45205Z" fill="#565656"/>
</svg>
