<svg width="93" height="116" viewBox="0 0 93 116" fill="none" xmlns="http://www.w3.org/2000/svg">
<path d="M10.7112 75.5571C10.9354 75.5571 11.1282 75.6333 11.2896 75.7857C11.46 75.9292 11.5452 76.1131 11.5452 76.3372C11.5452 76.4538 11.5183 76.5749 11.4645 76.7004L8.14198 84.4754C8.06127 84.6547 7.94469 84.7893 7.79224 84.8789C7.64876 84.9596 7.50079 85 7.34834 85C7.20486 84.991 7.06586 84.9462 6.93135 84.8655C6.79683 84.7758 6.6937 84.6503 6.62196 84.4888L3.29945 76.687C3.27254 76.6332 3.25461 76.5794 3.24564 76.5256C3.23667 76.4628 3.23219 76.4045 3.23219 76.3507C3.23219 76.0906 3.32635 75.8933 3.51467 75.7588C3.70299 75.6153 3.88234 75.5436 4.05273 75.5436C4.3935 75.5436 4.64011 75.7185 4.79256 76.0682L7.73844 82.9957L7.26763 83.0092L9.97138 76.0682C10.1238 75.7274 10.3704 75.5571 10.7112 75.5571ZM14.3395 84.1795C14.3395 84.4126 14.2633 84.6099 14.1109 84.7713C13.9584 84.9238 13.7656 85 13.5325 85C13.2993 85 13.1065 84.9238 12.954 84.7713C12.8016 84.6099 12.7254 84.4126 12.7254 84.1795V78.624C12.7254 78.3908 12.8016 78.198 12.954 78.0456C13.1065 77.8842 13.2993 77.8035 13.5325 77.8035C13.7656 77.8035 13.9584 77.8842 14.1109 78.0456C14.2633 78.198 14.3395 78.3908 14.3395 78.624V84.1795ZM13.519 76.9291C13.2141 76.9291 12.9989 76.8798 12.8733 76.7811C12.7478 76.6825 12.685 76.5076 12.685 76.2565V76.001C12.685 75.7409 12.7523 75.566 12.8868 75.4763C13.0303 75.3777 13.2455 75.3284 13.5325 75.3284C13.8463 75.3284 14.066 75.3777 14.1916 75.4763C14.3171 75.575 14.3799 75.7499 14.3799 76.001V76.2565C14.3799 76.5166 14.3126 76.6959 14.1781 76.7946C14.0436 76.8843 13.8239 76.9291 13.519 76.9291ZM19.3883 85.1345C18.626 85.1345 17.9624 84.9776 17.3974 84.6637C16.8415 84.3409 16.411 83.9059 16.1061 83.3589C15.8102 82.8119 15.6622 82.1931 15.6622 81.5026C15.6622 80.6955 15.8236 80.0095 16.1465 79.4445C16.4783 78.8706 16.9087 78.4312 17.4378 78.1263C17.9669 77.8214 18.5274 77.6689 19.1192 77.6689C19.5766 77.6689 20.007 77.7631 20.4106 77.9514C20.8231 78.1397 21.1863 78.3998 21.5001 78.7316C21.814 79.0544 22.0606 79.4311 22.24 79.8615C22.4283 80.292 22.5225 80.7493 22.5225 81.2336C22.5135 81.4488 22.4283 81.6237 22.2669 81.7582C22.1055 81.8927 21.9171 81.96 21.7019 81.96H16.5635L16.1599 80.6148H21.0966L20.8007 80.8838V80.5207C20.7827 80.2606 20.6886 80.0274 20.5182 79.8212C20.3568 79.6149 20.1505 79.4535 19.8994 79.3369C19.6573 79.2114 19.3972 79.1486 19.1192 79.1486C18.8502 79.1486 18.5991 79.1845 18.366 79.2562C18.1328 79.328 17.931 79.449 17.7606 79.6194C17.5902 79.7898 17.4557 80.0185 17.3571 80.3054C17.2584 80.5924 17.2091 80.9556 17.2091 81.395C17.2091 81.8793 17.3078 82.2918 17.5051 82.6325C17.7113 82.9643 17.9714 83.2199 18.2852 83.3993C18.6081 83.5697 18.9488 83.6549 19.3076 83.6549C19.6394 83.6549 19.9039 83.6279 20.1012 83.5741C20.2985 83.5203 20.4554 83.4576 20.572 83.3858C20.6975 83.3051 20.8096 83.2379 20.9083 83.184C21.0697 83.1033 21.2222 83.063 21.3656 83.063C21.5629 83.063 21.7243 83.1302 21.8499 83.2648C21.9844 83.3993 22.0517 83.5562 22.0517 83.7356C22.0517 83.9777 21.9261 84.1974 21.675 84.3947C21.4419 84.592 21.1145 84.7668 20.6931 84.9193C20.2716 85.0628 19.8366 85.1345 19.3883 85.1345ZM32.2189 77.8035C32.4251 77.8035 32.6045 77.8842 32.7569 78.0456C32.9094 78.198 32.9856 78.3953 32.9856 78.6374C32.9856 78.7002 32.9811 78.7585 32.9722 78.8123C32.9632 78.8572 32.9497 78.902 32.9318 78.9468L30.8737 84.4888C30.811 84.6682 30.6989 84.8072 30.5374 84.9058C30.376 84.9955 30.2056 85.0269 30.0263 85C29.7214 84.9821 29.4927 84.8117 29.3403 84.4888L28.0086 80.6552L28.3583 80.6686L27.1073 84.4888C26.9549 84.8117 26.7262 84.9821 26.4213 85C26.2509 85.0269 26.0805 84.9955 25.9101 84.9058C25.7487 84.8072 25.6366 84.6682 25.5738 84.4888L23.5158 78.9468C23.4799 78.8482 23.462 78.7451 23.462 78.6374C23.462 78.4222 23.5337 78.2294 23.6772 78.059C23.8207 77.8886 24.018 77.8035 24.2691 77.8035C24.4394 77.8035 24.5919 77.8438 24.7264 77.9245C24.8609 78.0052 24.9551 78.1353 25.0089 78.3146L26.6365 82.7267L26.3002 82.6998L27.5243 79.3773C27.6678 79.0455 27.9144 78.8796 28.2641 78.8796C28.4614 78.8796 28.6094 78.9244 28.708 79.0141C28.8157 79.0948 28.9008 79.2159 28.9636 79.3773L30.1877 82.6998L29.7842 82.7536L31.4387 78.3146C31.5463 77.9738 31.8064 77.8035 32.2189 77.8035ZM42.3728 75.584C43.2337 75.584 43.8748 75.7857 44.2963 76.1893C44.7178 76.5928 44.9285 77.1892 44.9285 77.9783C44.9285 78.3998 44.8254 78.772 44.6192 79.0948C44.4129 79.4087 44.108 79.6553 43.7045 79.8346C43.3009 80.005 42.8032 80.0902 42.2113 80.0902L42.2651 79.4849C42.5431 79.4849 42.8615 79.5252 43.2202 79.606C43.5789 79.6777 43.9242 79.8122 44.256 80.0095C44.5967 80.1978 44.8747 80.4668 45.09 80.8166C45.3141 81.1574 45.4262 81.5968 45.4262 82.1348C45.4262 82.7267 45.3276 83.211 45.1303 83.5876C44.942 83.9642 44.6909 84.2557 44.377 84.4619C44.0632 84.6682 43.7269 84.8117 43.3682 84.8924C43.0095 84.9641 42.6642 85 42.3324 85H38.983C38.7498 85 38.5525 84.9238 38.3911 84.7713C38.2387 84.6099 38.1624 84.4126 38.1624 84.1795V76.4045C38.1624 76.1713 38.2387 75.9785 38.3911 75.8261C38.5525 75.6647 38.7498 75.584 38.983 75.584H42.3728ZM42.1306 77.1712H39.7363L39.9111 76.956V79.3907L39.7497 79.2697H42.171C42.431 79.2697 42.6642 79.1845 42.8705 79.0141C43.0767 78.8437 43.1798 78.5971 43.1798 78.2743C43.1798 77.8886 43.0812 77.6106 42.8839 77.4403C42.6956 77.2609 42.4445 77.1712 42.1306 77.1712ZM42.2382 80.8569H39.7901L39.9111 80.7493V83.5876L39.7766 83.4531H42.3324C42.7449 83.4531 43.0722 83.3455 43.3144 83.1302C43.5565 82.9061 43.6776 82.5742 43.6776 82.1348C43.6776 81.7313 43.5968 81.4398 43.4354 81.2605C43.274 81.0811 43.0812 80.969 42.857 80.9242C42.6328 80.8794 42.4266 80.8569 42.2382 80.8569ZM53.8105 81.4085C53.8105 82.1438 53.6446 82.794 53.3128 83.3589C52.99 83.9149 52.5506 84.3498 51.9946 84.6637C51.4475 84.9776 50.8333 85.1345 50.1517 85.1345C49.4702 85.1345 48.8514 84.9776 48.2954 84.6637C47.7484 84.3498 47.309 83.9149 46.9772 83.3589C46.6543 82.794 46.4929 82.1438 46.4929 81.4085C46.4929 80.6731 46.6543 80.0274 46.9772 79.4714C47.309 78.9065 47.7484 78.4671 48.2954 78.1532C48.8514 77.8304 49.4702 77.6689 50.1517 77.6689C50.8333 77.6689 51.4475 77.8304 51.9946 78.1532C52.5506 78.4671 52.99 78.9065 53.3128 79.4714C53.6446 80.0274 53.8105 80.6731 53.8105 81.4085ZM52.1963 81.4085C52.1963 80.9511 52.1022 80.5565 51.9139 80.2247C51.7345 79.884 51.4879 79.6194 51.174 79.4311C50.8691 79.2428 50.5284 79.1486 50.1517 79.1486C49.7751 79.1486 49.4298 79.2428 49.1159 79.4311C48.811 79.6194 48.5644 79.884 48.3761 80.2247C48.1968 80.5565 48.1071 80.9511 48.1071 81.4085C48.1071 81.8568 48.1968 82.2514 48.3761 82.5922C48.5644 82.924 48.811 83.184 49.1159 83.3724C49.4298 83.5607 49.7751 83.6549 50.1517 83.6549C50.5284 83.6549 50.8691 83.5607 51.174 83.3724C51.4879 83.184 51.7345 82.924 51.9139 82.5922C52.1022 82.2514 52.1963 81.8568 52.1963 81.4085ZM62.2046 81.4085C62.2046 82.1438 62.0387 82.794 61.7069 83.3589C61.384 83.9149 60.9446 84.3498 60.3886 84.6637C59.8416 84.9776 59.2273 85.1345 58.5458 85.1345C57.8642 85.1345 57.2454 84.9776 56.6894 84.6637C56.1424 84.3498 55.703 83.9149 55.3712 83.3589C55.0484 82.794 54.8869 82.1438 54.8869 81.4085C54.8869 80.6731 55.0484 80.0274 55.3712 79.4714C55.703 78.9065 56.1424 78.4671 56.6894 78.1532C57.2454 77.8304 57.8642 77.6689 58.5458 77.6689C59.2273 77.6689 59.8416 77.8304 60.3886 78.1532C60.9446 78.4671 61.384 78.9065 61.7069 79.4714C62.0387 80.0274 62.2046 80.6731 62.2046 81.4085ZM60.5904 81.4085C60.5904 80.9511 60.4962 80.5565 60.3079 80.2247C60.1285 79.884 59.8819 79.6194 59.5681 79.4311C59.2632 79.2428 58.9224 79.1486 58.5458 79.1486C58.1691 79.1486 57.8239 79.2428 57.51 79.4311C57.2051 79.6194 56.9585 79.884 56.7702 80.2247C56.5908 80.5565 56.5011 80.9511 56.5011 81.4085C56.5011 81.8568 56.5908 82.2514 56.7702 82.5922C56.9585 82.924 57.2051 83.184 57.51 83.3724C57.8239 83.5607 58.1691 83.6549 58.5458 83.6549C58.9224 83.6549 59.2632 83.5607 59.5681 83.3724C59.8819 83.184 60.1285 82.924 60.3079 82.5922C60.4962 82.2514 60.5904 81.8568 60.5904 81.4085ZM64.5589 85C64.3257 85 64.1329 84.9238 63.9805 84.7713C63.828 84.6099 63.7518 84.4126 63.7518 84.1795V75.8664C63.7518 75.6333 63.828 75.4405 63.9805 75.288C64.1329 75.1266 64.3257 75.0459 64.5589 75.0459C64.792 75.0459 64.9848 75.1266 65.1373 75.288C65.2897 75.4405 65.366 75.6333 65.366 75.8664V84.1795C65.366 84.4126 65.2897 84.6099 65.1373 84.7713C64.9848 84.9238 64.792 85 64.5589 85ZM68.8365 77.8035C69.0427 77.8035 69.2221 77.8886 69.3745 78.059C69.527 78.2294 69.6032 78.3953 69.6032 78.5567C69.6032 78.772 69.4956 78.9737 69.2804 79.1621L65.2315 82.8881L65.1642 81.0318L68.2446 78.059C68.415 77.8886 68.6123 77.8035 68.8365 77.8035ZM69.0382 84.9865C68.8051 84.9865 68.6078 84.8969 68.4464 84.7175L65.9578 82.081L67.1819 80.9511L69.6032 83.5876C69.7736 83.7669 69.8588 83.9687 69.8588 84.1929C69.8588 84.4261 69.7646 84.6189 69.5763 84.7713C69.3969 84.9148 69.2176 84.9865 69.0382 84.9865ZM72.7957 84.1795C72.7957 84.4126 72.7195 84.6099 72.567 84.7713C72.4146 84.9238 72.2218 85 71.9886 85C71.7555 85 71.5627 84.9238 71.4102 84.7713C71.2578 84.6099 71.1815 84.4126 71.1815 84.1795V78.624C71.1815 78.3908 71.2578 78.198 71.4102 78.0456C71.5627 77.8842 71.7555 77.8035 71.9886 77.8035C72.2218 77.8035 72.4146 77.8842 72.567 78.0456C72.7195 78.198 72.7957 78.3908 72.7957 78.624V84.1795ZM71.9752 76.9291C71.6703 76.9291 71.455 76.8798 71.3295 76.7811C71.2039 76.6825 71.1412 76.5076 71.1412 76.2565V76.001C71.1412 75.7409 71.2084 75.566 71.3429 75.4763C71.4864 75.3777 71.7017 75.3284 71.9886 75.3284C72.3025 75.3284 72.5222 75.3777 72.6477 75.4763C72.7733 75.575 72.8361 75.7499 72.8361 76.001V76.2565C72.8361 76.5166 72.7688 76.6959 72.6343 76.7946C72.4998 76.8843 72.2801 76.9291 71.9752 76.9291ZM78.3018 77.6689C78.9654 77.6689 79.4676 77.8079 79.8083 78.0859C80.1581 78.3639 80.3957 78.7361 80.5213 79.2024C80.6558 79.6598 80.723 80.1709 80.723 80.7359V84.1795C80.723 84.4126 80.6468 84.6099 80.4944 84.7713C80.3419 84.9238 80.1491 85 79.916 85C79.6828 85 79.49 84.9238 79.3375 84.7713C79.1851 84.6099 79.1089 84.4126 79.1089 84.1795V80.7359C79.1089 80.4399 79.0685 80.1754 78.9878 79.9422C78.9161 79.7001 78.7815 79.5073 78.5843 79.3638C78.387 79.2203 78.1045 79.1486 77.7368 79.1486C77.3781 79.1486 77.0732 79.2203 76.8221 79.3638C76.58 79.5073 76.3917 79.7001 76.2572 79.9422C76.1316 80.1754 76.0688 80.4399 76.0688 80.7359V84.1795C76.0688 84.4126 75.9926 84.6099 75.8402 84.7713C75.6877 84.9238 75.4949 85 75.2617 85C75.0286 85 74.8358 84.9238 74.6833 84.7713C74.5309 84.6099 74.4547 84.4126 74.4547 84.1795V78.624C74.4547 78.3908 74.5309 78.198 74.6833 78.0456C74.8358 77.8842 75.0286 77.8035 75.2617 77.8035C75.4949 77.8035 75.6877 77.8842 75.8402 78.0456C75.9926 78.198 76.0688 78.3908 76.0688 78.624V79.2024L75.8671 79.1621C75.9478 79.0096 76.0643 78.8482 76.2168 78.6778C76.3692 78.4984 76.5486 78.3325 76.7549 78.1801C76.9611 78.0276 77.1943 77.9066 77.4543 77.8169C77.7144 77.7183 77.9969 77.6689 78.3018 77.6689ZM85.454 77.6689C85.8306 77.6689 86.1759 77.7272 86.4897 77.8438C86.8036 77.9604 87.0726 78.1084 87.2968 78.2877C87.53 78.4671 87.7093 78.6509 87.8349 78.8392C87.9694 79.0186 88.0367 79.171 88.0367 79.2966L87.6869 79.4714V78.4895C87.6869 78.2563 87.7632 78.0635 87.9156 77.9111C88.0681 77.7496 88.2609 77.6689 88.494 77.6689C88.7272 77.6689 88.92 77.7452 89.0724 77.8976C89.2249 78.0501 89.3011 78.2474 89.3011 78.4895V84.4754C89.3011 85.2556 89.1307 85.8788 88.79 86.3451C88.4581 86.8204 88.0187 87.1612 87.4717 87.3675C86.9247 87.5827 86.3373 87.6903 85.7096 87.6903C85.5302 87.6903 85.297 87.6679 85.0101 87.623C84.7231 87.5782 84.4496 87.5244 84.1895 87.4616C83.9295 87.3988 83.7322 87.3406 83.5977 87.2868C83.3286 87.1702 83.1403 87.0222 83.0327 86.8429C82.9341 86.6725 82.9161 86.4886 82.9789 86.2913C83.0596 86.0313 83.1896 85.8519 83.369 85.7533C83.5484 85.6636 83.7367 85.6546 83.934 85.7264C84.0236 85.7533 84.1716 85.8071 84.3779 85.8878C84.5841 85.9685 84.8083 86.0402 85.0504 86.103C85.3015 86.1748 85.5212 86.2106 85.7096 86.2106C86.3821 86.2106 86.8798 86.0761 87.2027 85.8071C87.5255 85.5381 87.6869 85.1659 87.6869 84.6906V83.5203L87.8483 83.6414C87.8483 83.758 87.7856 83.9015 87.66 84.0718C87.5434 84.2333 87.3775 84.3947 87.1623 84.5561C86.9561 84.7175 86.7095 84.8565 86.4225 84.9731C86.1355 85.0807 85.8306 85.1345 85.5078 85.1345C84.8711 85.1345 84.2972 84.9776 83.786 84.6637C83.2748 84.3409 82.8713 83.9015 82.5754 83.3455C82.2794 82.7805 82.1315 82.1348 82.1315 81.4085C82.1315 80.6731 82.2794 80.0274 82.5754 79.4714C82.8713 78.9065 83.2704 78.4671 83.7725 78.1532C84.2747 77.8304 84.8352 77.6689 85.454 77.6689ZM85.7096 79.1486C85.306 79.1486 84.9518 79.2472 84.6469 79.4445C84.342 79.6418 84.1044 79.9109 83.934 80.2516C83.7636 80.5924 83.6784 80.978 83.6784 81.4085C83.6784 81.8299 83.7636 82.2111 83.934 82.5518C84.1044 82.8926 84.342 83.1616 84.6469 83.3589C84.9518 83.5562 85.306 83.6549 85.7096 83.6549C86.1221 83.6549 86.4808 83.5562 86.7857 83.3589C87.0906 83.1616 87.3282 82.8926 87.4986 82.5518C87.669 82.2111 87.7542 81.8299 87.7542 81.4085C87.7542 80.978 87.669 80.5924 87.4986 80.2516C87.3282 79.9109 87.0906 79.6418 86.7857 79.4445C86.4808 79.2472 86.1221 79.1486 85.7096 79.1486ZM29.0945 92.584C29.7402 92.584 30.3141 92.705 30.8163 92.9471C31.3185 93.1893 31.74 93.53 32.0807 93.9695C32.4305 94.3999 32.6905 94.9021 32.8609 95.476C33.0403 96.041 33.13 96.6463 33.13 97.292C33.13 98.1618 32.973 98.9555 32.6592 99.6729C32.3453 100.381 31.8879 100.946 31.2871 101.368C30.6952 101.789 29.9644 102 29.0945 102H25.8796C25.6464 102 25.4492 101.924 25.2877 101.771C25.1353 101.61 25.0591 101.413 25.0591 101.179V93.4045C25.0591 93.1713 25.1353 92.9785 25.2877 92.8261C25.4492 92.6647 25.6464 92.584 25.8796 92.584H29.0945ZM28.96 100.453C29.525 100.453 29.9868 100.31 30.3455 100.023C30.7042 99.7267 30.9643 99.3411 31.1257 98.8658C31.2961 98.3816 31.3813 97.8569 31.3813 97.292C31.3813 96.8705 31.3319 96.4714 31.2333 96.0948C31.1436 95.7092 31.0001 95.3729 30.8029 95.0859C30.6056 94.79 30.3545 94.5568 30.0496 94.3865C29.7447 94.2161 29.3815 94.1309 28.96 94.1309H26.606L26.7405 94.0098V100.601L26.6598 100.453H28.96ZM38.0351 102.135C37.2729 102.135 36.6093 101.978 36.0443 101.664C35.4883 101.341 35.0579 100.906 34.753 100.359C34.457 99.8119 34.3091 99.1931 34.3091 98.5026C34.3091 97.6955 34.4705 97.0095 34.7933 96.4445C35.1251 95.8706 35.5556 95.4312 36.0847 95.1263C36.6138 94.8214 37.1742 94.6689 37.7661 94.6689C38.2234 94.6689 38.6539 94.7631 39.0574 94.9514C39.47 95.1397 39.8331 95.3998 40.147 95.7316C40.4609 96.0544 40.7075 96.4311 40.8868 96.8615C41.0752 97.292 41.1693 97.7493 41.1693 98.2336C41.1604 98.4488 41.0752 98.6237 40.9137 98.7582C40.7523 98.8927 40.564 98.96 40.3488 98.96H35.2103L34.8068 97.6148H39.7435L39.4475 97.8838V97.5207C39.4296 97.2606 39.3354 97.0274 39.1651 96.8212C39.0036 96.6149 38.7974 96.4535 38.5463 96.3369C38.3042 96.2114 38.0441 96.1486 37.7661 96.1486C37.4971 96.1486 37.246 96.1845 37.0128 96.2562C36.7797 96.328 36.5779 96.449 36.4075 96.6194C36.2371 96.7898 36.1026 97.0185 36.004 97.3054C35.9053 97.5924 35.856 97.9556 35.856 98.395C35.856 98.8793 35.9546 99.2918 36.1519 99.6325C36.3582 99.9643 36.6182 100.22 36.9321 100.399C37.2549 100.57 37.5957 100.655 37.9544 100.655C38.2862 100.655 38.5508 100.628 38.7481 100.574C38.9453 100.52 39.1023 100.458 39.2189 100.386C39.3444 100.305 39.4565 100.238 39.5551 100.184C39.7166 100.103 39.869 100.063 40.0125 100.063C40.2098 100.063 40.3712 100.13 40.4967 100.265C40.6313 100.399 40.6985 100.556 40.6985 100.736C40.6985 100.978 40.573 101.197 40.3219 101.395C40.0887 101.592 39.7614 101.767 39.3399 101.919C38.9184 102.063 38.4835 102.135 38.0351 102.135ZM42.6603 94.938H45.8483C46.0636 94.938 46.2429 95.0097 46.3864 95.1532C46.5299 95.2967 46.6016 95.476 46.6016 95.6913C46.6016 95.8975 46.5299 96.0724 46.3864 96.2159C46.2429 96.3504 46.0636 96.4176 45.8483 96.4176H42.6603C42.4451 96.4176 42.2658 96.3459 42.1223 96.2024C41.9788 96.0589 41.9071 95.8796 41.9071 95.6643C41.9071 95.4581 41.9788 95.2877 42.1223 95.1532C42.2658 95.0097 42.4451 94.938 42.6603 94.938ZM44.0996 93.2565C44.3328 93.2565 44.5211 93.3372 44.6646 93.4987C44.8171 93.6511 44.8933 93.8439 44.8933 94.0771V100.063C44.8933 100.189 44.9157 100.292 44.9605 100.372C45.0143 100.453 45.0816 100.511 45.1623 100.547C45.252 100.583 45.3461 100.601 45.4448 100.601C45.5524 100.601 45.651 100.583 45.7407 100.547C45.8304 100.502 45.9335 100.48 46.0501 100.48C46.1757 100.48 46.2878 100.538 46.3864 100.655C46.494 100.771 46.5478 100.933 46.5478 101.139C46.5478 101.39 46.4088 101.596 46.1308 101.758C45.8618 101.919 45.5703 102 45.2565 102C45.0682 102 44.8574 101.987 44.6243 101.96C44.4001 101.924 44.1848 101.848 43.9786 101.731C43.7813 101.605 43.6154 101.417 43.4809 101.166C43.3464 100.915 43.2791 100.57 43.2791 100.13V94.0771C43.2791 93.8439 43.3553 93.6511 43.5078 93.4987C43.6692 93.3372 43.8665 93.2565 44.0996 93.2565ZM53.9755 94.6689C54.2086 94.6689 54.4014 94.7452 54.5539 94.8976C54.7063 95.0501 54.7825 95.2474 54.7825 95.4895V101.179C54.7825 101.413 54.7063 101.61 54.5539 101.771C54.4014 101.924 54.2086 102 53.9755 102C53.7423 102 53.5495 101.924 53.397 101.771C53.2446 101.61 53.1684 101.413 53.1684 101.179V100.52L53.4643 100.641C53.4643 100.758 53.4015 100.901 53.276 101.072C53.1504 101.233 52.98 101.395 52.7648 101.556C52.5496 101.718 52.294 101.857 51.9981 101.973C51.7111 102.081 51.3973 102.135 51.0565 102.135C50.4377 102.135 49.8772 101.978 49.375 101.664C48.8729 101.341 48.4738 100.901 48.1779 100.345C47.8909 99.7805 47.7474 99.1348 47.7474 98.4085C47.7474 97.6731 47.8909 97.0274 48.1779 96.4714C48.4738 95.9065 48.8684 95.4671 49.3616 95.1532C49.8548 94.8304 50.4018 94.6689 51.0027 94.6689C51.3883 94.6689 51.7425 94.7272 52.0653 94.8438C52.3882 94.9604 52.6662 95.1084 52.8993 95.2877C53.1415 95.4671 53.3253 95.6509 53.4508 95.8392C53.5854 96.0186 53.6526 96.171 53.6526 96.2966L53.1684 96.4714V95.4895C53.1684 95.2563 53.2446 95.0635 53.397 94.9111C53.5495 94.7496 53.7423 94.6689 53.9755 94.6689ZM51.2583 100.655C51.6528 100.655 51.9981 100.556 52.294 100.359C52.59 100.162 52.8186 99.8926 52.98 99.5518C53.1504 99.2111 53.2356 98.8299 53.2356 98.4085C53.2356 97.978 53.1504 97.5924 52.98 97.2516C52.8186 96.9109 52.59 96.6418 52.294 96.4445C51.9981 96.2472 51.6528 96.1486 51.2583 96.1486C50.8726 96.1486 50.5319 96.2472 50.2359 96.4445C49.94 96.6418 49.7069 96.9109 49.5365 97.2516C49.375 97.5924 49.2943 97.978 49.2943 98.4085C49.2943 98.8299 49.375 99.2111 49.5365 99.5518C49.7069 99.8926 49.94 100.162 50.2359 100.359C50.5319 100.556 50.8726 100.655 51.2583 100.655ZM58.0503 101.179C58.0503 101.413 57.9741 101.61 57.8216 101.771C57.6692 101.924 57.4764 102 57.2432 102C57.0101 102 56.8173 101.924 56.6648 101.771C56.5124 101.61 56.4361 101.413 56.4361 101.179V95.624C56.4361 95.3908 56.5124 95.198 56.6648 95.0456C56.8173 94.8842 57.0101 94.8035 57.2432 94.8035C57.4764 94.8035 57.6692 94.8842 57.8216 95.0456C57.9741 95.198 58.0503 95.3908 58.0503 95.624V101.179ZM57.2298 93.9291C56.9249 93.9291 56.7096 93.8798 56.5841 93.7811C56.4586 93.6825 56.3958 93.5076 56.3958 93.2565V93.001C56.3958 92.7409 56.463 92.566 56.5975 92.4763C56.741 92.3777 56.9563 92.3284 57.2432 92.3284C57.5571 92.3284 57.7768 92.3777 57.9023 92.4763C58.0279 92.575 58.0907 92.7499 58.0907 93.001V93.2565C58.0907 93.5166 58.0234 93.6959 57.8889 93.7946C57.7544 93.8843 57.5347 93.9291 57.2298 93.9291ZM61.4579 101.179C61.4579 101.413 61.3772 101.61 61.2158 101.771C61.0634 101.924 60.8706 102 60.6374 102C60.4132 102 60.2249 101.924 60.0724 101.771C59.92 101.61 59.8438 101.413 59.8438 101.179V92.8664C59.8438 92.6333 59.92 92.4405 60.0724 92.288C60.2339 92.1266 60.4312 92.0459 60.6643 92.0459C60.8975 92.0459 61.0858 92.1266 61.2293 92.288C61.3817 92.4405 61.4579 92.6333 61.4579 92.8664V101.179ZM62.9179 100.884C62.8282 100.758 62.7878 100.597 62.7968 100.399C62.8058 100.202 62.9223 100.032 63.1465 99.8881C63.29 99.7984 63.4425 99.7626 63.6039 99.7805C63.7653 99.7895 63.9222 99.8702 64.0747 100.023C64.3347 100.283 64.6083 100.484 64.8952 100.628C65.1822 100.771 65.5409 100.843 65.9713 100.843C66.1059 100.834 66.2538 100.816 66.4152 100.789C66.5767 100.753 66.7157 100.682 66.8322 100.574C66.9578 100.458 67.0206 100.283 67.0206 100.05C67.0206 99.8522 66.9533 99.6953 66.8188 99.5787C66.6843 99.4622 66.5049 99.3635 66.2807 99.2828C66.0655 99.2021 65.8234 99.1259 65.5543 99.0541C65.2763 98.9734 64.9894 98.8837 64.6934 98.7851C64.4065 98.6865 64.1419 98.5609 63.8998 98.4085C63.6577 98.247 63.4604 98.0363 63.3079 97.7762C63.1555 97.5162 63.0793 97.1889 63.0793 96.7943C63.0793 96.3459 63.2048 95.9648 63.4559 95.6509C63.707 95.337 64.0298 95.0949 64.4244 94.9245C64.828 94.7541 65.2494 94.6689 65.6889 94.6689C65.9669 94.6689 66.2583 94.7048 66.5632 94.7766C66.8681 94.8393 67.1596 94.9469 67.4376 95.0994C67.7156 95.2429 67.9487 95.4357 68.137 95.6778C68.2357 95.8123 68.294 95.9737 68.3119 96.1621C68.3298 96.3504 68.2446 96.5208 68.0563 96.6732C67.9218 96.7808 67.7649 96.8301 67.5855 96.8212C67.4062 96.8032 67.2582 96.7405 67.1416 96.6329C66.9892 96.4356 66.7829 96.2786 66.5229 96.1621C66.2718 96.0455 65.9803 95.9872 65.6485 95.9872C65.514 95.9872 65.366 96.0051 65.2046 96.041C65.0522 96.0679 64.9176 96.1352 64.8011 96.2428C64.6845 96.3414 64.6262 96.5028 64.6262 96.727C64.6262 96.9333 64.6934 97.0992 64.828 97.2247C64.9625 97.3413 65.1418 97.4399 65.366 97.5207C65.5992 97.5924 65.8458 97.6641 66.1059 97.7359C66.3749 97.8076 66.6484 97.8928 66.9264 97.9915C67.2044 98.0901 67.46 98.2201 67.6931 98.3815C67.9263 98.543 68.1146 98.7537 68.2581 99.0138C68.4016 99.2649 68.4733 99.5877 68.4733 99.9823C68.4733 100.44 68.3388 100.83 68.0698 101.153C67.8007 101.475 67.4645 101.722 67.0609 101.892C66.6574 102.054 66.2449 102.135 65.8234 102.135C65.2943 102.135 64.7652 102.045 64.2361 101.865C63.707 101.677 63.2676 101.35 62.9179 100.884Z" fill="#565656"/>
<path d="M8.55066 109.066C8.61997 109.066 8.68298 109.092 8.73969 109.142C8.8027 109.192 8.8342 109.262 8.8342 109.35C8.8342 109.369 8.83105 109.391 8.82475 109.416C8.81845 109.441 8.81215 109.46 8.80585 109.473L7.35032 113.82C7.32511 113.877 7.28416 113.924 7.22745 113.962C7.17704 113.994 7.12348 114.006 7.06677 114C6.95336 113.994 6.86829 113.934 6.81158 113.82L5.47892 110.683L5.64905 110.72L4.46761 113.82C4.41721 113.934 4.33214 113.994 4.21242 114C4.15572 114.006 4.09901 113.994 4.0423 113.962C3.98559 113.924 3.94778 113.877 3.92888 113.82L2.43554 109.473C2.41664 109.429 2.40719 109.388 2.40719 109.35C2.40719 109.268 2.43239 109.202 2.4828 109.151C2.53951 109.095 2.61197 109.066 2.70019 109.066C2.7569 109.066 2.8073 109.082 2.85141 109.114C2.90182 109.145 2.93647 109.192 2.95538 109.255L4.29749 113.282L4.11791 113.272L5.33715 110.201C5.38756 110.081 5.47577 110.021 5.60179 110.021C5.6648 110.021 5.71836 110.037 5.76247 110.068C5.80657 110.1 5.84123 110.144 5.86643 110.201L7.16129 113.282L6.95336 113.291L8.28602 109.255C8.32382 109.129 8.41203 109.066 8.55066 109.066ZM10.4689 113.716C10.4689 113.792 10.4405 113.858 10.3838 113.915C10.3271 113.972 10.2609 114 10.1853 114C10.1034 114 10.0341 113.972 9.97739 113.915C9.92698 113.858 9.90178 113.792 9.90178 113.716V109.369C9.90178 109.293 9.92698 109.227 9.97739 109.17C10.0341 109.114 10.1034 109.085 10.1853 109.085C10.2672 109.085 10.3334 109.114 10.3838 109.17C10.4405 109.227 10.4689 109.293 10.4689 109.369V113.716ZM10.1853 108.452C10.053 108.452 9.95218 108.424 9.88287 108.367C9.81986 108.304 9.78836 108.216 9.78836 108.102V108.008C9.78836 107.894 9.82301 107.809 9.89232 107.753C9.96794 107.69 10.0688 107.658 10.1948 107.658C10.3145 107.658 10.4059 107.69 10.4689 107.753C10.5382 107.809 10.5728 107.894 10.5728 108.008V108.102C10.5728 108.216 10.5382 108.304 10.4689 108.367C10.4059 108.424 10.3113 108.452 10.1853 108.452ZM11.6301 109.189H13.8323C13.908 109.189 13.971 109.218 14.0214 109.274C14.0718 109.325 14.097 109.388 14.097 109.463C14.097 109.533 14.0718 109.592 14.0214 109.643C13.971 109.693 13.908 109.718 13.8323 109.718H11.6301C11.5545 109.718 11.4884 109.693 11.4317 109.643C11.3813 109.586 11.356 109.523 11.356 109.454C11.356 109.378 11.3813 109.315 11.4317 109.265C11.4884 109.214 11.5545 109.189 11.6301 109.189ZM12.6036 107.857C12.6856 107.857 12.7517 107.885 12.8021 107.942C12.8588 107.998 12.8872 108.064 12.8872 108.14V112.885C12.8872 113.061 12.9092 113.193 12.9534 113.282C13.0038 113.37 13.0668 113.43 13.1424 113.461C13.218 113.486 13.2936 113.499 13.3692 113.499C13.4196 113.499 13.4637 113.493 13.5015 113.48C13.5456 113.461 13.5929 113.452 13.6433 113.452C13.7 113.452 13.7473 113.474 13.7851 113.518C13.8292 113.562 13.8512 113.619 13.8512 113.688C13.8512 113.776 13.8008 113.852 13.7 113.915C13.5992 113.972 13.4795 114 13.3409 114C13.2842 114 13.1991 113.997 13.0857 113.991C12.9723 113.978 12.8557 113.943 12.736 113.887C12.6162 113.824 12.5154 113.716 12.4335 113.565C12.3579 113.414 12.3201 113.197 12.3201 112.913V108.14C12.3201 108.064 12.3453 107.998 12.3957 107.942C12.4524 107.885 12.5217 107.857 12.6036 107.857ZM17.347 109.132C17.744 109.132 18.0653 109.218 18.3111 109.388C18.5568 109.558 18.7364 109.788 18.8498 110.078C18.9695 110.367 19.0294 110.689 19.0294 111.042V113.716C19.0294 113.792 19.001 113.858 18.9443 113.915C18.8876 113.972 18.8215 114 18.7459 114C18.6576 114 18.5883 113.972 18.5379 113.915C18.4875 113.858 18.4623 113.792 18.4623 113.716V111.042C18.4623 110.783 18.4214 110.55 18.3394 110.342C18.2638 110.134 18.1378 109.971 17.9614 109.851C17.785 109.725 17.5487 109.662 17.2525 109.662C16.9879 109.662 16.7358 109.725 16.4964 109.851C16.2633 109.971 16.0742 110.134 15.9293 110.342C15.7844 110.55 15.7119 110.783 15.7119 111.042V113.716C15.7119 113.792 15.6836 113.858 15.6269 113.915C15.5702 113.972 15.504 114 15.4284 114C15.3402 114 15.2709 113.972 15.2205 113.915C15.17 113.858 15.1448 113.792 15.1448 113.716V107.289C15.1448 107.214 15.17 107.148 15.2205 107.091C15.2772 107.034 15.3465 107.006 15.4284 107.006C15.5103 107.006 15.5765 107.034 15.6269 107.091C15.6836 107.148 15.7119 107.214 15.7119 107.289V110.352L15.4945 110.683C15.5071 110.487 15.567 110.298 15.6741 110.115C15.7875 109.926 15.9325 109.759 16.1089 109.615C16.2853 109.463 16.4807 109.347 16.6949 109.265C16.9091 109.177 17.1265 109.132 17.347 109.132ZM27.6 111.58C27.6 112.059 27.496 112.491 27.2881 112.875C27.0801 113.253 26.7966 113.553 26.4374 113.773C26.0783 113.987 25.6687 114.095 25.2088 114.095C24.7614 114.095 24.355 113.987 23.9895 113.773C23.6304 113.553 23.3437 113.253 23.1294 112.875C22.9215 112.491 22.8175 112.059 22.8175 111.58C22.8175 111.095 22.9215 110.664 23.1294 110.286C23.3437 109.908 23.6304 109.608 23.9895 109.388C24.355 109.167 24.7614 109.057 25.2088 109.057C25.6687 109.057 26.0783 109.167 26.4374 109.388C26.7966 109.608 27.0801 109.908 27.2881 110.286C27.496 110.664 27.6 111.095 27.6 111.58ZM27.0329 111.58C27.0329 111.196 26.9541 110.856 26.7966 110.56C26.6391 110.257 26.4217 110.021 26.1445 109.851C25.8735 109.674 25.5616 109.586 25.2088 109.586C24.8685 109.586 24.5598 109.674 24.2825 109.851C24.0053 110.021 23.7847 110.257 23.6209 110.56C23.4634 110.856 23.3846 111.196 23.3846 111.58C23.3846 111.965 23.4634 112.305 23.6209 112.601C23.7847 112.897 24.0053 113.134 24.2825 113.31C24.5598 113.48 24.8685 113.565 25.2088 113.565C25.5616 113.565 25.8735 113.48 26.1445 113.31C26.4217 113.134 26.6391 112.897 26.7966 112.601C26.9541 112.305 27.0329 111.965 27.0329 111.58ZM31.083 109.057C31.4989 109.057 31.8297 109.142 32.0754 109.312C32.3274 109.476 32.507 109.703 32.6141 109.993C32.7276 110.276 32.7843 110.591 32.7843 110.938V113.716C32.7843 113.792 32.7559 113.858 32.6992 113.915C32.6425 113.972 32.5763 114 32.5007 114C32.4125 114 32.3432 113.972 32.2928 113.915C32.2424 113.858 32.2172 113.792 32.2172 113.716V110.966C32.2172 110.714 32.1762 110.484 32.0943 110.276C32.0124 110.068 31.8769 109.901 31.6879 109.775C31.5052 109.649 31.2626 109.586 30.9601 109.586C30.6892 109.586 30.4308 109.649 30.1851 109.775C29.9457 109.901 29.7503 110.068 29.5991 110.276C29.4479 110.484 29.3723 110.714 29.3723 110.966V113.716C29.3723 113.792 29.3439 113.858 29.2872 113.915C29.2305 113.972 29.1643 114 29.0887 114C29.0005 114 28.9312 113.972 28.8808 113.915C28.8304 113.858 28.8052 113.792 28.8052 113.716V109.482C28.8052 109.407 28.8304 109.34 28.8808 109.284C28.9375 109.227 29.0068 109.199 29.0887 109.199C29.1707 109.199 29.2368 109.227 29.2872 109.284C29.3439 109.34 29.3723 109.407 29.3723 109.482V110.276L29.1549 110.616C29.1675 110.415 29.2305 110.223 29.3439 110.04C29.4636 109.851 29.6149 109.684 29.7976 109.539C29.9803 109.388 30.182 109.271 30.4025 109.189C30.6293 109.101 30.8562 109.057 31.083 109.057ZM36.4526 114.095C35.9675 114.095 35.539 113.991 35.1672 113.783C34.7955 113.575 34.5056 113.285 34.2977 112.913C34.0898 112.541 33.9858 112.107 33.9858 111.609C33.9858 111.073 34.0898 110.616 34.2977 110.238C34.5119 109.86 34.786 109.57 35.12 109.369C35.4602 109.161 35.8194 109.057 36.1974 109.057C36.4747 109.057 36.7425 109.107 37.0008 109.208C37.2655 109.303 37.4986 109.448 37.7002 109.643C37.9082 109.832 38.072 110.065 38.1917 110.342C38.3177 110.62 38.387 110.941 38.3996 111.306C38.3933 111.382 38.3618 111.448 38.3051 111.505C38.2484 111.555 38.1822 111.58 38.1066 111.58H34.3166L34.2032 111.07H37.9271L37.8042 111.183V110.994C37.779 110.698 37.6845 110.446 37.5206 110.238C37.3568 110.03 37.1583 109.873 36.9252 109.766C36.6921 109.659 36.4495 109.605 36.1974 109.605C36.0084 109.605 35.8131 109.643 35.6114 109.718C35.4161 109.794 35.2365 109.914 35.0727 110.078C34.9152 110.235 34.786 110.44 34.6852 110.692C34.5844 110.938 34.534 111.231 34.534 111.571C34.534 111.943 34.6096 112.28 34.7608 112.582C34.912 112.885 35.1294 113.124 35.413 113.301C35.7028 113.477 36.0462 113.565 36.4432 113.565C36.6637 113.565 36.8622 113.534 37.0386 113.471C37.215 113.408 37.3694 113.326 37.5017 113.225C37.6341 113.118 37.7443 113.008 37.8325 112.894C37.9019 112.837 37.9712 112.809 38.0405 112.809C38.1035 112.809 38.157 112.834 38.2012 112.885C38.2516 112.935 38.2768 112.992 38.2768 113.055C38.2768 113.13 38.2453 113.197 38.1823 113.253C37.9932 113.48 37.7475 113.679 37.445 113.849C37.1426 114.013 36.8118 114.095 36.4526 114.095ZM41.9238 113.234C41.8734 113.159 41.8482 113.086 41.8482 113.017C41.8545 112.941 41.8954 112.882 41.971 112.837C42.0214 112.793 42.0782 112.774 42.1412 112.781C42.2105 112.787 42.2735 112.819 42.3302 112.875C42.5003 113.096 42.7051 113.275 42.9445 113.414C43.1903 113.546 43.4801 113.612 43.8141 113.612C43.9905 113.612 44.1638 113.584 44.3339 113.527C44.5103 113.464 44.6553 113.373 44.7687 113.253C44.8821 113.127 44.9388 112.97 44.9388 112.781C44.9388 112.585 44.8821 112.428 44.7687 112.308C44.6553 112.188 44.5072 112.094 44.3245 112.025C44.148 111.955 43.959 111.895 43.7574 111.845C43.5431 111.788 43.3352 111.725 43.1336 111.656C42.9319 111.58 42.7524 111.489 42.5948 111.382C42.4436 111.269 42.3207 111.133 42.2262 110.976C42.1317 110.818 42.0845 110.626 42.0845 110.399C42.0845 110.134 42.1569 109.901 42.3018 109.7C42.4468 109.498 42.6421 109.34 42.8878 109.227C43.1399 109.114 43.4234 109.057 43.7385 109.057C43.896 109.057 44.0661 109.079 44.2488 109.123C44.4316 109.161 44.6112 109.227 44.7876 109.322C44.964 109.416 45.1215 109.545 45.2602 109.709C45.3169 109.766 45.3452 109.832 45.3452 109.908C45.3452 109.977 45.3137 110.04 45.2507 110.097C45.2003 110.134 45.1404 110.153 45.0711 110.153C45.0081 110.153 44.9546 110.128 44.9105 110.078C44.7592 109.908 44.5796 109.778 44.3717 109.69C44.1638 109.602 43.9401 109.558 43.7007 109.558C43.5179 109.558 43.3447 109.589 43.1808 109.652C43.0233 109.709 42.891 109.797 42.7839 109.917C42.6767 110.037 42.6232 110.194 42.6232 110.39C42.6358 110.572 42.6988 110.72 42.8122 110.834C42.9319 110.947 43.0863 111.042 43.2753 111.117C43.4707 111.193 43.6881 111.262 43.9275 111.325C44.1291 111.376 44.3213 111.435 44.504 111.505C44.6931 111.574 44.8569 111.662 44.9955 111.769C45.1404 111.87 45.2539 111.999 45.3358 112.157C45.424 112.314 45.4681 112.513 45.4681 112.752C45.4681 113.03 45.3893 113.269 45.2318 113.471C45.0806 113.672 44.8758 113.827 44.6175 113.934C44.3591 114.041 44.0724 114.095 43.7574 114.095C43.4171 114.095 43.0863 114.028 42.765 113.896C42.4499 113.764 42.1695 113.543 41.9238 113.234ZM47.1764 113.716C47.1764 113.792 47.1481 113.858 47.0914 113.915C47.0347 113.972 46.9685 114 46.8929 114C46.811 114 46.7417 113.972 46.685 113.915C46.6346 113.858 46.6094 113.792 46.6094 113.716V109.369C46.6094 109.293 46.6346 109.227 46.685 109.17C46.7417 109.114 46.811 109.085 46.8929 109.085C46.9748 109.085 47.041 109.114 47.0914 109.17C47.1481 109.227 47.1764 109.293 47.1764 109.369V113.716ZM46.8929 108.452C46.7606 108.452 46.6598 108.424 46.5905 108.367C46.5274 108.304 46.4959 108.216 46.4959 108.102V108.008C46.4959 107.894 46.5306 107.809 46.5999 107.753C46.6755 107.69 46.7763 107.658 46.9024 107.658C47.0221 107.658 47.1134 107.69 47.1764 107.753C47.2458 107.809 47.2804 107.894 47.2804 108.008V108.102C47.2804 108.216 47.2458 108.304 47.1764 108.367C47.1134 108.424 47.0189 108.452 46.8929 108.452ZM50.8235 109.132C51.2141 109.132 51.5481 109.236 51.8253 109.444C52.1026 109.646 52.2916 109.948 52.3924 110.352L52.2601 110.39L52.3168 110.219C52.3987 110.03 52.5342 109.854 52.7232 109.69C52.9185 109.52 53.1391 109.385 53.3848 109.284C53.6306 109.183 53.8794 109.132 54.1315 109.132C54.5284 109.132 54.8466 109.218 55.0861 109.388C55.3318 109.558 55.5083 109.788 55.6154 110.078C55.7288 110.361 55.7855 110.683 55.7855 111.042V113.716C55.7855 113.792 55.7571 113.858 55.7004 113.915C55.65 113.972 55.5839 114 55.5019 114C55.42 114 55.3507 113.972 55.294 113.915C55.2436 113.858 55.2184 113.792 55.2184 113.716V111.07C55.2184 110.812 55.1774 110.575 55.0955 110.361C55.0136 110.147 54.8845 109.977 54.708 109.851C54.5316 109.725 54.2953 109.662 53.9992 109.662C53.7408 109.662 53.4919 109.725 53.2525 109.851C53.0194 109.977 52.8272 110.147 52.676 110.361C52.531 110.575 52.4586 110.812 52.4586 111.07V113.716C52.4586 113.792 52.4302 113.858 52.3735 113.915C52.3231 113.972 52.2569 114 52.175 114C52.0931 114 52.0238 113.972 51.9671 113.915C51.9167 113.858 51.8915 113.792 51.8915 113.716V111.042C51.8915 110.783 51.8537 110.55 51.7781 110.342C51.7025 110.134 51.5796 109.971 51.4095 109.851C51.2393 109.725 51.0093 109.662 50.7195 109.662C50.4612 109.662 50.2154 109.725 49.9823 109.851C49.7554 109.971 49.5696 110.134 49.4246 110.342C49.286 110.55 49.2167 110.783 49.2167 111.042V113.716C49.2167 113.792 49.1884 113.858 49.1316 113.915C49.0749 113.972 49.0088 114 48.9332 114C48.845 114 48.7756 113.972 48.7252 113.915C48.6748 113.858 48.6496 113.792 48.6496 113.716V109.482C48.6496 109.407 48.6748 109.34 48.7252 109.284C48.7819 109.227 48.8513 109.199 48.9332 109.199C49.0151 109.199 49.0812 109.227 49.1316 109.284C49.1884 109.34 49.2167 109.407 49.2167 109.482V110.361L48.9615 110.711C48.9804 110.522 49.0403 110.333 49.1411 110.144C49.2482 109.955 49.3868 109.785 49.557 109.633C49.7271 109.482 49.9193 109.362 50.1335 109.274C50.354 109.18 50.584 109.132 50.8235 109.132ZM59.5671 109.132C59.9956 109.132 60.3736 109.24 60.7013 109.454C61.0353 109.662 61.2999 109.952 61.4952 110.323C61.6906 110.689 61.7882 111.111 61.7882 111.59C61.7882 112.069 61.6906 112.494 61.4952 112.866C61.2999 113.238 61.0353 113.531 60.7013 113.745C60.3673 113.959 59.9924 114.066 59.5766 114.066C59.356 114.066 59.145 114.035 58.9433 113.972C58.748 113.902 58.5684 113.811 58.4046 113.698C58.2408 113.584 58.0958 113.452 57.9698 113.301C57.8438 113.143 57.743 112.973 57.6674 112.79L57.8375 112.667V115.607C57.8375 115.682 57.8091 115.749 57.7524 115.805C57.702 115.862 57.6359 115.89 57.554 115.89C57.472 115.89 57.4027 115.862 57.346 115.805C57.2956 115.749 57.2704 115.682 57.2704 115.607V109.444C57.2704 109.362 57.2956 109.293 57.346 109.236C57.3964 109.18 57.4657 109.151 57.554 109.151C57.6359 109.151 57.702 109.18 57.7524 109.236C57.8091 109.293 57.8375 109.362 57.8375 109.444V110.465L57.7052 110.39C57.7682 110.194 57.8596 110.021 57.9793 109.87C58.1053 109.712 58.2502 109.58 58.414 109.473C58.5779 109.359 58.7574 109.274 58.9528 109.218C59.1481 109.161 59.3529 109.132 59.5671 109.132ZM59.5199 109.662C59.1796 109.662 58.8803 109.747 58.622 109.917C58.3636 110.081 58.1588 110.308 58.0076 110.597C57.8627 110.881 57.7902 111.212 57.7902 111.59C57.7902 111.962 57.8627 112.296 58.0076 112.592C58.1588 112.888 58.3636 113.121 58.622 113.291C58.8803 113.455 59.1796 113.537 59.5199 113.537C59.8538 113.537 60.1468 113.455 60.3989 113.291C60.6572 113.121 60.862 112.888 61.0132 112.592C61.1644 112.296 61.24 111.962 61.24 111.59C61.24 111.218 61.1644 110.887 61.0132 110.597C60.862 110.308 60.6572 110.081 60.3989 109.917C60.1468 109.747 59.8538 109.662 59.5199 109.662ZM63.626 113.716C63.626 113.792 63.5977 113.858 63.541 113.915C63.4842 113.972 63.4181 114 63.3425 114C63.2606 114 63.1913 113.972 63.1345 113.915C63.0841 113.858 63.0589 113.792 63.0589 113.716V107.289C63.0589 107.214 63.0873 107.148 63.144 107.091C63.2007 107.034 63.2669 107.006 63.3425 107.006C63.4244 107.006 63.4905 107.034 63.541 107.091C63.5977 107.148 63.626 107.214 63.626 107.289V113.716ZM67.2715 114.095C66.7863 114.095 66.3578 113.991 65.9861 113.783C65.6143 113.575 65.3245 113.285 65.1165 112.913C64.9086 112.541 64.8046 112.107 64.8046 111.609C64.8046 111.073 64.9086 110.616 65.1165 110.238C65.3308 109.86 65.6049 109.57 65.9388 109.369C66.2791 109.161 66.6382 109.057 67.0163 109.057C67.2935 109.057 67.5613 109.107 67.8197 109.208C68.0843 109.303 68.3174 109.448 68.5191 109.643C68.727 109.832 68.8908 110.065 69.0106 110.342C69.1366 110.62 69.2059 110.941 69.2185 111.306C69.2122 111.382 69.1807 111.448 69.124 111.505C69.0673 111.555 69.0011 111.58 68.9255 111.58H65.1354L65.022 111.07H68.7459L68.623 111.183V110.994C68.5978 110.698 68.5033 110.446 68.3395 110.238C68.1757 110.03 67.9772 109.873 67.7441 109.766C67.5109 109.659 67.2683 109.605 67.0163 109.605C66.8273 109.605 66.6319 109.643 66.4303 109.718C66.235 109.794 66.0554 109.914 65.8916 110.078C65.734 110.235 65.6049 110.44 65.5041 110.692C65.4032 110.938 65.3528 111.231 65.3528 111.571C65.3528 111.943 65.4284 112.28 65.5797 112.582C65.7309 112.885 65.9483 113.124 66.2318 113.301C66.5217 113.477 66.8651 113.565 67.262 113.565C67.4826 113.565 67.681 113.534 67.8575 113.471C68.0339 113.408 68.1883 113.326 68.3206 113.225C68.4529 113.118 68.5632 113.008 68.6514 112.894C68.7207 112.837 68.79 112.809 68.8593 112.809C68.9223 112.809 68.9759 112.834 69.02 112.885C69.0704 112.935 69.0956 112.992 69.0956 113.055C69.0956 113.13 69.0641 113.197 69.0011 113.253C68.8121 113.48 68.5663 113.679 68.2639 113.849C67.9614 114.013 67.6306 114.095 67.2715 114.095ZM72.7426 113.234C72.6922 113.159 72.667 113.086 72.667 113.017C72.6733 112.941 72.7143 112.882 72.7899 112.837C72.8403 112.793 72.897 112.774 72.96 112.781C73.0293 112.787 73.0923 112.819 73.1491 112.875C73.3192 113.096 73.524 113.275 73.7634 113.414C74.0091 113.546 74.299 113.612 74.6329 113.612C74.8094 113.612 74.9826 113.584 75.1528 113.527C75.3292 113.464 75.4741 113.373 75.5875 113.253C75.701 113.127 75.7577 112.97 75.7577 112.781C75.7577 112.585 75.701 112.428 75.5875 112.308C75.4741 112.188 75.326 112.094 75.1433 112.025C74.9669 111.955 74.7779 111.895 74.5762 111.845C74.362 111.788 74.1541 111.725 73.9524 111.656C73.7508 111.58 73.5712 111.489 73.4137 111.382C73.2625 111.269 73.1396 111.133 73.0451 110.976C72.9506 110.818 72.9033 110.626 72.9033 110.399C72.9033 110.134 72.9758 109.901 73.1207 109.7C73.2656 109.498 73.461 109.34 73.7067 109.227C73.9587 109.114 74.2423 109.057 74.5573 109.057C74.7149 109.057 74.885 109.079 75.0677 109.123C75.2504 109.161 75.43 109.227 75.6064 109.322C75.7829 109.416 75.9404 109.545 76.079 109.709C76.1357 109.766 76.1641 109.832 76.1641 109.908C76.1641 109.977 76.1326 110.04 76.0696 110.097C76.0192 110.134 75.9593 110.153 75.89 110.153C75.827 110.153 75.7734 110.128 75.7293 110.078C75.5781 109.908 75.3985 109.778 75.1906 109.69C74.9826 109.602 74.759 109.558 74.5195 109.558C74.3368 109.558 74.1635 109.589 73.9997 109.652C73.8422 109.709 73.7098 109.797 73.6027 109.917C73.4956 110.037 73.442 110.194 73.442 110.39C73.4547 110.572 73.5177 110.72 73.6311 110.834C73.7508 110.947 73.9052 111.042 74.0942 111.117C74.2895 111.193 74.5069 111.262 74.7464 111.325C74.948 111.376 75.1402 111.435 75.3229 111.505C75.5119 111.574 75.6758 111.662 75.8144 111.769C75.9593 111.87 76.0727 111.999 76.1546 112.157C76.2428 112.314 76.2869 112.513 76.2869 112.752C76.2869 113.03 76.2082 113.269 76.0507 113.471C75.8994 113.672 75.6947 113.827 75.4363 113.934C75.178 114.041 74.8913 114.095 74.5762 114.095C74.236 114.095 73.9052 114.028 73.5838 113.896C73.2688 113.764 72.9884 113.543 72.7426 113.234ZM77.1352 109.189H79.3374C79.413 109.189 79.476 109.218 79.5264 109.274C79.5769 109.325 79.6021 109.388 79.6021 109.463C79.6021 109.533 79.5769 109.592 79.5264 109.643C79.476 109.693 79.413 109.718 79.3374 109.718H77.1352C77.0596 109.718 76.9935 109.693 76.9367 109.643C76.8863 109.586 76.8611 109.523 76.8611 109.454C76.8611 109.378 76.8863 109.315 76.9367 109.265C76.9935 109.214 77.0596 109.189 77.1352 109.189ZM78.1087 107.857C78.1906 107.857 78.2568 107.885 78.3072 107.942C78.3639 107.998 78.3923 108.064 78.3923 108.14V112.885C78.3923 113.061 78.4143 113.193 78.4584 113.282C78.5088 113.37 78.5718 113.43 78.6475 113.461C78.7231 113.486 78.7987 113.499 78.8743 113.499C78.9247 113.499 78.9688 113.493 79.0066 113.48C79.0507 113.461 79.098 113.452 79.1484 113.452C79.2051 113.452 79.2524 113.474 79.2902 113.518C79.3343 113.562 79.3563 113.619 79.3563 113.688C79.3563 113.776 79.3059 113.852 79.2051 113.915C79.1043 113.972 78.9846 114 78.8459 114C78.7892 114 78.7042 113.997 78.5908 113.991C78.4773 113.978 78.3608 113.943 78.241 113.887C78.1213 113.824 78.0205 113.716 77.9386 113.565C77.863 113.414 77.8252 113.197 77.8252 112.913V108.14C77.8252 108.064 77.8504 107.998 77.9008 107.942C77.9575 107.885 78.0268 107.857 78.1087 107.857ZM82.7871 114.095C82.3019 114.095 81.8734 113.991 81.5017 113.783C81.1299 113.575 80.8401 113.285 80.6321 112.913C80.4242 112.541 80.3202 112.107 80.3202 111.609C80.3202 111.073 80.4242 110.616 80.6321 110.238C80.8464 109.86 81.1205 109.57 81.4544 109.369C81.7947 109.161 82.1538 109.057 82.5319 109.057C82.8091 109.057 83.0769 109.107 83.3352 109.208C83.5999 109.303 83.833 109.448 84.0347 109.643C84.2426 109.832 84.4064 110.065 84.5261 110.342C84.6522 110.62 84.7215 110.941 84.7341 111.306C84.7278 111.382 84.6963 111.448 84.6396 111.505C84.5828 111.555 84.5167 111.58 84.4411 111.58H80.651L80.5376 111.07H84.2615L84.1386 111.183V110.994C84.1134 110.698 84.0189 110.446 83.8551 110.238C83.6913 110.03 83.4928 109.873 83.2596 109.766C83.0265 109.659 82.7839 109.605 82.5319 109.605C82.3428 109.605 82.1475 109.643 81.9459 109.718C81.7505 109.794 81.571 109.914 81.4071 110.078C81.2496 110.235 81.1205 110.44 81.0196 110.692C80.9188 110.938 80.8684 111.231 80.8684 111.571C80.8684 111.943 80.944 112.28 81.0952 112.582C81.2465 112.885 81.4639 113.124 81.7474 113.301C82.0372 113.477 82.3806 113.565 82.7776 113.565C82.9981 113.565 83.1966 113.534 83.3731 113.471C83.5495 113.408 83.7039 113.326 83.8362 113.225C83.9685 113.118 84.0788 113.008 84.167 112.894C84.2363 112.837 84.3056 112.809 84.3749 112.809C84.4379 112.809 84.4915 112.834 84.5356 112.885C84.586 112.935 84.6112 112.992 84.6112 113.055C84.6112 113.13 84.5797 113.197 84.5167 113.253C84.3277 113.48 84.0819 113.679 83.7795 113.849C83.477 114.013 83.1462 114.095 82.7871 114.095ZM88.2446 109.132C88.6731 109.132 89.0512 109.24 89.3788 109.454C89.7128 109.662 89.9774 109.952 90.1727 110.323C90.3681 110.689 90.4657 111.111 90.4657 111.59C90.4657 112.069 90.3681 112.494 90.1727 112.866C89.9774 113.238 89.7128 113.531 89.3788 113.745C89.0449 113.959 88.6699 114.066 88.2541 114.066C88.0335 114.066 87.8225 114.035 87.6208 113.972C87.4255 113.902 87.2459 113.811 87.0821 113.698C86.9183 113.584 86.7733 113.452 86.6473 113.301C86.5213 113.143 86.4205 112.973 86.3449 112.79L86.515 112.667V115.607C86.515 115.682 86.4867 115.749 86.4299 115.805C86.3795 115.862 86.3134 115.89 86.2315 115.89C86.1495 115.89 86.0802 115.862 86.0235 115.805C85.9731 115.749 85.9479 115.682 85.9479 115.607V109.444C85.9479 109.362 85.9731 109.293 86.0235 109.236C86.0739 109.18 86.1432 109.151 86.2315 109.151C86.3134 109.151 86.3795 109.18 86.4299 109.236C86.4867 109.293 86.515 109.362 86.515 109.444V110.465L86.3827 110.39C86.4457 110.194 86.5371 110.021 86.6568 109.87C86.7828 109.712 86.9277 109.58 87.0915 109.473C87.2554 109.359 87.4349 109.274 87.6303 109.218C87.8256 109.161 88.0304 109.132 88.2446 109.132ZM88.1974 109.662C87.8571 109.662 87.5578 109.747 87.2995 109.917C87.0411 110.081 86.8364 110.308 86.6851 110.597C86.5402 110.881 86.4677 111.212 86.4677 111.59C86.4677 111.962 86.5402 112.296 86.6851 112.592C86.8364 112.888 87.0411 113.121 87.2995 113.291C87.5578 113.455 87.8571 113.537 88.1974 113.537C88.5313 113.537 88.8243 113.455 89.0764 113.291C89.3347 113.121 89.5395 112.888 89.6907 112.592C89.8419 112.296 89.9175 111.962 89.9175 111.59C89.9175 111.218 89.8419 110.887 89.6907 110.597C89.5395 110.308 89.3347 110.081 89.0764 109.917C88.8243 109.747 88.5313 109.662 88.1974 109.662Z" fill="#A7A622"/>
<path d="M69.222 21.8656L42.0629 11.2947C38.0089 9.71686 33.4435 11.7241 31.8656 15.778L21.2947 42.9371C19.7168 46.9911 21.7241 51.5565 25.778 53.1344L52.9371 63.7053C56.991 65.2832 61.5565 63.2759 63.1344 59.222L73.7053 32.0629C75.2831 28.009 73.2759 23.4435 69.222 21.8656Z" fill="#565656"/>
<path d="M41.6363 61.7663C32.8959 60.6103 26.6376 54.796 25.438 46.7172C25.02 43.9023 25.2231 39.5586 25.8979 36.8901C26.5637 34.2565 27.9193 31.2709 29.56 28.8248C35.5009 19.9675 47.4041 14.1977 59.7257 14.2025L62.0633 14.2036L62.79 15.2956C63.8326 16.8624 65.6575 20.645 66.2625 22.4932C67.8532 32.4608 67.5051 47.6085 60.4699 54.316C57.4735 58.3578 51.8689 61.3416 46.3591 61.8281C44.1599 62.0222 43.5102 62.0136 41.6363 61.7661L41.6363 61.7663Z" fill="#D5D421"/>
<path d="M45.5273 56.343C43.4959 56.1094 41.5297 54.9021 40.3733 53.1782C40.2528 52.9987 39.2329 51.2232 38.1068 49.2329C36.9807 47.2425 35.4974 44.6208 34.8107 43.4069C34.124 42.193 33.5622 41.1799 33.5622 41.1555C33.5622 41.0658 34.1475 40.5848 34.4176 40.4524C34.8077 40.2613 35.1202 40.1875 35.5422 40.1868C36.1884 40.1858 36.7238 40.3879 37.1932 40.8098C37.3238 40.9272 37.8083 41.5545 38.2699 42.2039L39.1091 43.3844L39.1218 35.8148L39.1347 28.2453L39.2439 27.9799C39.4687 27.4339 39.8742 27.0294 40.4132 26.8136C40.7892 26.663 41.4846 26.663 41.8606 26.8136C42.3996 27.0294 42.8051 27.4339 43.0299 27.9799L43.1391 28.2453L43.1527 31.9315L43.1662 35.6177L43.2815 35.4613C43.6662 34.9399 44.497 34.6742 45.1897 34.851C46.1119 35.0864 46.731 35.8767 46.7329 36.8211C46.7333 36.9736 46.7465 37.0985 46.7623 37.0985C46.7781 37.0985 46.8874 37.0137 47.0051 36.9101C47.8087 36.2027 49.1618 36.2729 49.8982 37.0601C50.1404 37.319 50.3483 37.7262 50.3875 38.0184C50.4015 38.1228 50.4183 38.2082 50.4249 38.2082C50.4316 38.2082 50.5643 38.1312 50.7201 38.0374C51.2816 37.6987 51.8772 37.6405 52.4769 37.8659C52.8315 37.9991 53.2685 38.3626 53.4684 38.6906C53.7949 39.2262 53.7829 38.9801 53.7649 44.8021L53.7487 50.0527L53.6393 50.5351C53.3172 51.9561 52.7051 53.108 51.739 54.1109C50.1032 55.8094 47.8688 56.6122 45.5274 56.343H45.5273Z" fill="#565656"/>
<path d="M52.2134 26.7699C52.2134 26.6175 52.2661 26.4886 52.3716 26.3831C52.4771 26.2776 52.6002 26.2249 52.7408 26.2249C53.28 26.1897 53.7606 26.0549 54.1826 25.8205C54.6045 25.586 54.9386 25.2696 55.1848 24.871C55.4309 24.4725 55.554 24.0095 55.554 23.4821C55.554 22.9311 55.4368 22.4564 55.2023 22.0579C54.9796 21.6477 54.6749 21.3312 54.2881 21.1085C53.9013 20.874 53.4617 20.7568 52.9694 20.7568C52.4888 20.7568 52.0376 20.8682 51.6156 21.0909C51.1936 21.3136 50.842 21.6066 50.5607 21.97C50.4669 22.0638 50.3555 22.1341 50.2266 22.181C50.1094 22.2161 49.9805 22.1868 49.8398 22.0931C49.6991 21.9993 49.6171 21.8821 49.5936 21.7414C49.5702 21.589 49.6112 21.4484 49.7167 21.3195C50.0918 20.8506 50.5665 20.4697 51.1409 20.1766C51.7152 19.8836 52.3247 19.7371 52.9694 19.7371C53.6493 19.7371 54.2646 19.8894 54.8155 20.1942C55.3782 20.499 55.8236 20.9326 56.1518 21.4953C56.48 22.0579 56.6441 22.7202 56.6441 23.4821C56.6441 23.9509 56.5503 24.4022 56.3628 24.8359C56.1752 25.2696 55.9173 25.6564 55.5891 25.9963C55.2609 26.3362 54.88 26.6058 54.4463 26.8051C54.0126 27.0043 53.5438 27.1157 53.0397 27.1391C53.0046 27.1391 53.0163 27.1333 53.0749 27.1215C53.1335 27.1098 53.1921 27.0747 53.2507 27.0161V28.8622C53.2507 29.0146 53.198 29.1435 53.0925 29.249C52.9987 29.3428 52.8756 29.3896 52.7233 29.3896C52.5709 29.3896 52.4419 29.3428 52.3365 29.249C52.2427 29.1435 52.2017 29.0146 52.2134 28.8622V26.7699ZM52.7408 32.6775C52.5416 32.6775 52.3833 32.6189 52.2661 32.5017C52.1606 32.3727 52.1079 32.2086 52.1079 32.0094V31.6226C52.1079 31.4116 52.1606 31.2475 52.2661 31.1303C52.3833 31.0131 52.5416 30.9544 52.7408 30.9544H52.8463C53.0573 30.9544 53.2097 31.0131 53.3035 31.1303C53.409 31.2475 53.4617 31.4116 53.4617 31.6226V32.0094C53.4617 32.2086 53.409 32.3727 53.3035 32.5017C53.2097 32.6189 53.0573 32.6775 52.8463 32.6775H52.7408Z" fill="#565656"/>
</svg>
