<svg width="250" height="250" viewBox="0 0 250 250" fill="none" xmlns="http://www.w3.org/2000/svg">
<path d="M77.8122 15.625C76.6412 15.6267 75.4856 15.8915 74.4308 16.4C73.376 16.9084 72.449 17.6475 71.7184 18.5625L24.0614 78.125H93.7499C95.822 78.125 97.8091 78.9481 99.2743 80.4132C100.739 81.8784 101.563 83.8655 101.563 85.9375C101.563 92.1535 104.032 98.1149 108.427 102.51C112.823 106.906 118.784 109.375 125 109.375C131.216 109.375 137.178 106.906 141.573 102.51C145.969 98.1149 148.438 92.1535 148.438 85.9375C148.438 83.8655 149.261 81.8784 150.726 80.4132C152.192 78.9481 154.179 78.125 156.251 78.125H225.939L178.282 18.5625C177.552 17.6475 176.625 16.9084 175.57 16.4C174.515 15.8915 173.36 15.6267 172.189 15.625H77.8122ZM59.5307 8.79688C61.7242 6.05474 64.506 3.84054 67.6703 2.31791C70.8346 0.795282 74.3006 0.00313171 77.8122 0L172.189 0C175.7 0.00313171 179.166 0.795282 182.33 2.31791C185.495 3.84054 188.277 6.05474 190.47 8.79688L248.283 81.0625C248.936 81.8767 249.418 82.8132 249.703 83.8168C249.987 84.8205 250.068 85.8709 249.94 86.9062L243.846 135.719C243.137 141.389 240.382 146.605 236.097 150.386C231.813 154.167 226.294 156.252 220.58 156.25H29.4209C23.7065 156.252 18.1883 154.167 13.9037 150.386C9.61913 146.605 6.86347 141.389 6.15489 135.719L0.0610532 86.9062C-0.0670151 85.8709 0.0135591 84.8205 0.298023 83.8168C0.582486 82.8132 1.06508 81.8767 1.71733 81.0625L59.5307 8.79688ZM1.95171 174.531C2.68383 173.698 3.58502 173.03 4.59533 172.572C5.60563 172.114 6.70189 171.876 7.81117 171.875H93.7499C95.822 171.875 97.8091 172.698 99.2743 174.163C100.739 175.628 101.563 177.615 101.563 179.688C101.563 185.904 104.032 191.865 108.427 196.26C112.823 200.656 118.784 203.125 125 203.125C131.216 203.125 137.178 200.656 141.573 196.26C145.969 191.865 148.438 185.904 148.438 179.688C148.438 177.615 149.261 175.628 150.726 174.163C152.192 172.698 154.179 171.875 156.251 171.875H242.19C243.297 171.875 244.392 172.111 245.402 172.567C246.411 173.022 247.312 173.687 248.045 174.518C248.778 175.348 249.326 176.325 249.652 177.383C249.979 178.442 250.077 179.557 249.94 180.656L243.846 229.469C243.137 235.139 240.382 240.355 236.097 244.136C231.813 247.917 226.294 250.002 220.58 250H29.4209C23.7065 250.002 18.1883 247.917 13.9037 244.136C9.61913 240.355 6.86347 235.139 6.15489 229.469L0.0610532 180.656C-0.0771632 179.557 0.0199309 178.441 0.345893 177.383C0.671855 176.324 1.21923 175.347 1.95171 174.516V174.531Z" fill="#858585"/>
</svg>
