<svg width="17" height="15" viewBox="0 0 17 15" fill="none" xmlns="http://www.w3.org/2000/svg">
<path d="M2.04568 14.7376C1.5689 14.5873 1.12775 14.298 0.772226 13.9026C0.0608557 13.1114 -0.172029 12.1185 0.127801 11.1551C0.211401 10.8866 1.31143 8.89966 3.01275 5.94427C5.99292 0.767395 6.09355 0.619927 6.92388 0.213257C7.32543 0.0165968 7.42152 0 8.15769 0C8.89387 0 8.98997 0.0165868 9.39152 0.213257C10.2237 0.620817 10.3222 0.765098 13.3024 5.93915C14.8147 8.56473 16.1035 10.85 16.1665 11.0175C16.2391 11.2105 16.2817 11.5613 16.2828 11.9752C16.2848 12.5599 16.2604 12.6796 16.0543 13.1164C15.7469 13.768 15.2564 14.2798 14.6598 14.5718L14.1816 14.8058L8.26656 14.8199C3.51874 14.8313 2.29116 14.8148 2.04568 14.7375V14.7376ZM14.0365 13.3978C14.7756 13.0548 15.1764 12.2022 14.9303 11.4962C14.8033 11.1319 9.51848 1.99517 9.29345 1.75085C8.71294 1.12055 7.60048 1.12055 7.02293 1.75085C6.77759 2.01858 1.49405 11.1691 1.37299 11.5359C1.13231 12.2652 1.63922 13.2428 2.37266 13.4639C2.48078 13.4965 5.08404 13.5252 8.15769 13.5278C13.4544 13.5318 13.7613 13.5258 14.0365 13.3978ZM7.70168 11.9708C7.26641 11.666 7.20924 11.1175 7.57151 10.7222C7.78807 10.4859 7.86198 10.4511 8.14736 10.4511C8.96394 10.4511 9.28859 11.5267 8.59895 11.9473C8.32683 12.1132 7.92019 12.1239 7.70168 11.9709V11.9708ZM7.73008 9.66724C7.5426 9.47977 7.53383 9.40533 7.38777 6.7691C7.29677 5.12598 7.31996 4.95354 7.66927 4.67877C7.91149 4.48824 8.40389 4.48824 8.64611 4.67877C9.00576 4.96167 9.01894 5.09308 8.89159 7.12909C8.8273 8.15787 8.77459 9.10722 8.77459 9.23877C8.77459 9.76253 8.10148 10.0386 7.73008 9.66724Z" fill="#C83737"/>
</svg>
