<svg width="66" height="24" viewBox="0 0 66 24" fill="none" xmlns="http://www.w3.org/2000/svg">
<path d="M51.2144 23.3918C51.2279 23.2964 51.2819 23.248 51.3878 23.2362C51.6809 23.2034 51.8104 23.1605 51.9065 23.0643C52.0485 22.9223 52.0249 22.8535 51.8339 22.8531C51.5504 22.8526 51.2082 22.7316 51.1424 22.6087C51.1081 22.5447 51.0802 22.2275 51.0802 21.9038C51.0802 21.317 51.0807 21.3152 51.2341 21.3152C51.3867 21.3152 51.3879 21.3202 51.3879 21.8668C51.3879 22.4776 51.4308 22.5458 51.8145 22.5458H52.0032V21.9305V21.3152H52.157H52.3108V22.1489C52.3108 23.1021 52.2492 23.3006 51.9088 23.4428C51.7936 23.4909 51.5859 23.5302 51.4471 23.5302C51.2206 23.5302 51.1968 23.516 51.2144 23.3918L51.2144 23.3918ZM42.3678 22.7671C42.3477 22.7149 42.3409 22.2846 42.3526 21.8108C42.3785 20.763 42.4182 20.6939 43.0176 20.6505C43.3843 20.624 43.3892 20.6258 43.3892 20.7849C43.3892 20.9338 43.369 20.9461 43.1246 20.9461C42.7921 20.9461 42.7123 21.0259 42.7123 21.3583V21.6229H42.9892C43.2435 21.6229 43.2661 21.6354 43.2661 21.7767C43.2661 21.9178 43.2434 21.9305 42.9919 21.9305H42.7177L42.6997 22.3766C42.6831 22.7862 42.6703 22.8243 42.5429 22.8424C42.4606 22.8543 42.3894 22.8235 42.3678 22.7671L42.3678 22.7671ZM43.8127 22.6146C43.6116 22.4135 43.5738 22.3351 43.5738 22.1193C43.5738 21.6128 43.849 21.3152 44.3175 21.3152C44.9466 21.3152 45.3161 21.9786 44.9717 22.4896C44.7992 22.7457 44.6005 22.8514 44.2895 22.8525C44.0945 22.8532 44.0084 22.8103 43.8127 22.6146ZM44.6768 22.3837C44.8921 22.11 44.7978 21.7371 44.4859 21.6283C44.1462 21.51 43.8814 21.7214 43.8814 22.1111C43.8814 22.5264 44.4195 22.7108 44.6768 22.3837ZM45.3581 22.2493C45.3581 21.4736 45.422 21.3712 45.9324 21.3289C46.2732 21.3006 46.281 21.3034 46.281 21.4581C46.281 21.603 46.2568 21.6177 45.9888 21.6349L45.6965 21.6537L45.6657 22.2382C45.6368 22.7867 45.6264 22.8239 45.4965 22.8424C45.3609 22.8616 45.3581 22.8494 45.3581 22.2493L45.3581 22.2493ZM47.406 22.7639C47.0272 22.5967 47.0623 22.0936 47.4633 21.9409C47.7611 21.8276 48.0037 21.8864 48.0037 22.0718C48.0037 22.1966 47.979 22.2083 47.7581 22.1872C47.5738 22.1696 47.503 22.1882 47.4744 22.2633C47.4103 22.4304 47.5666 22.5458 47.8574 22.5458H48.1268V22.1861C48.1268 21.7269 48.0264 21.6228 47.5835 21.6228C47.2815 21.6228 47.2654 21.6148 47.2654 21.4621C47.2654 21.3017 47.2664 21.3014 47.6964 21.3257C48.3338 21.3617 48.4036 21.4504 48.4036 22.2243V22.8226L48.0037 22.8369C47.7619 22.8449 47.5256 22.8167 47.4059 22.7639H47.406ZM49.0806 22.7876C48.7667 22.6945 48.7421 22.607 48.7421 21.5805V20.6385H48.896H49.0498V21.536V22.4335L49.2368 22.5041C49.3691 22.554 49.4185 22.6095 49.406 22.6939C49.3843 22.8398 49.3194 22.8585 49.0806 22.7877V22.7876ZM49.933 22.8109C49.8604 22.7967 49.7496 22.7285 49.6869 22.6592C49.5882 22.5504 49.57 22.405 49.5531 21.5859L49.5334 20.6385H49.6915H49.8497V21.4955C49.8497 22.1926 49.8677 22.3706 49.9463 22.4492C49.9995 22.5024 50.0825 22.5459 50.1308 22.5459C50.1835 22.5459 50.2187 22.6074 50.2187 22.6997C50.2187 22.8522 50.1937 22.862 49.9329 22.8109H49.933ZM52.9671 22.7542C52.5456 22.5258 52.4858 21.8204 52.8597 21.4864C53.0157 21.347 53.1087 21.3154 53.3638 21.3154C53.6376 21.3154 53.7028 21.3416 53.8859 21.5246C54.0638 21.7025 54.0951 21.7766 54.0951 22.0199C54.0951 22.1772 54.053 22.3872 54.0018 22.4865C53.8265 22.8254 53.3337 22.9529 52.9671 22.7542H52.9671ZM53.6507 22.4502C53.7558 22.3765 53.7874 22.2935 53.7874 22.0906C53.7874 21.7728 53.6321 21.6018 53.3507 21.6098C53.067 21.6178 52.926 21.7774 52.926 22.0906C52.926 22.3864 53.0769 22.546 53.3567 22.546C53.4432 22.546 53.5755 22.5029 53.6507 22.4502V22.4502ZM54.7735 22.7746C54.4792 22.6716 54.4047 22.4862 54.4036 21.8538C54.4027 21.3203 54.4041 21.3154 54.5565 21.3154C54.7078 21.3154 54.7103 21.3234 54.7103 21.8076C54.7103 22.3863 54.8101 22.546 55.1718 22.546H55.3872V21.9307V21.3154H55.5429H55.6986L55.6813 22.0691L55.664 22.8229L55.3256 22.8362C55.1394 22.8432 54.891 22.8158 54.7734 22.7747L54.7735 22.7746ZM56.0024 22.2494C56.0024 21.4738 56.0663 21.3714 56.5767 21.3291C56.9176 21.3008 56.9254 21.3036 56.9254 21.4583C56.9254 21.6032 56.901 21.6179 56.6331 21.6351L56.3408 21.6538L56.3101 22.2383C56.2812 22.7868 56.2708 22.824 56.1409 22.8425C56.0053 22.8617 56.0025 22.8495 56.0025 22.2494L56.0024 22.2494ZM57.8483 22.0888V21.3154H58.2083C58.6336 21.3154 58.9351 21.4079 59.0186 21.564C59.0517 21.6259 59.0788 21.9414 59.0788 22.2651C59.0788 22.8518 59.0781 22.8536 58.925 22.8536C58.7726 22.8536 58.7712 22.8486 58.7712 22.3122C58.7712 21.6968 58.7306 21.6231 58.3919 21.6231H58.1604L58.1428 22.2229C58.1261 22.792 58.1181 22.8239 57.9867 22.8425C57.8494 22.862 57.8483 22.8556 57.8483 22.0888H57.8483ZM59.72 22.7376C59.4721 22.5865 59.3622 22.312 59.4033 21.9471C59.4489 21.5418 59.703 21.3154 60.1121 21.3154C60.5135 21.3154 60.6786 21.4406 60.6786 21.7451C60.6786 22.0493 60.4631 22.2383 60.1165 22.2383C59.9197 22.2383 59.8787 22.217 59.8787 22.1153C59.8787 22.0215 59.9197 21.9922 60.051 21.9922C60.2461 21.9922 60.3709 21.894 60.3709 21.7404C60.3709 21.5216 60.053 21.5047 59.8451 21.7126C59.6563 21.9014 59.6494 22.165 59.8274 22.3913C59.9486 22.5453 59.9873 22.5576 60.2534 22.5261C60.6177 22.483 60.7666 22.6004 60.5448 22.7558C60.3562 22.8879 59.9517 22.879 59.72 22.7376L59.72 22.7376ZM61.2792 22.7573C60.8281 22.5125 60.8083 21.7178 61.2456 21.4115C61.3272 21.3544 61.5124 21.3155 61.703 21.3155C61.9734 21.3155 62.0425 21.34 62.1473 21.4732C62.2155 21.5599 62.2614 21.6638 62.2492 21.7039C62.237 21.744 62.2116 21.8483 62.1926 21.9356C62.1525 22.1204 61.9331 22.2384 61.6294 22.2384C61.4579 22.2384 61.4169 22.2146 61.4169 22.1153C61.4169 22.0224 61.4582 21.992 61.5861 21.9913C61.8239 21.9903 61.9233 21.9099 61.8991 21.7392C61.8843 21.634 61.8333 21.5871 61.7198 21.5739C61.3356 21.5292 61.1018 22.0559 61.3601 22.3842C61.487 22.5455 61.5238 22.5578 61.7879 22.5265C61.9663 22.5054 62.1037 22.5195 62.1468 22.5622C62.2493 22.6647 62.2344 22.7028 62.06 22.7823C61.8465 22.8795 61.4831 22.868 61.2792 22.7572L61.2792 22.7573ZM62.9946 22.7916C62.7445 22.7148 62.5953 22.5607 62.5165 22.2977C62.3716 21.8141 62.731 21.3154 63.2244 21.3154C63.5054 21.3154 63.6319 21.3969 63.6319 21.578C63.6319 21.6696 63.6038 21.6837 63.4935 21.6473C63.1143 21.5225 62.832 21.6982 62.832 22.0589C62.832 22.4094 63.0701 22.5829 63.486 22.5354L63.6627 22.5152L63.6797 21.5769L63.6967 20.6386H63.8503H64.0039L63.9872 21.7307L63.9704 22.8228L63.5705 22.8347C63.3505 22.8407 63.0914 22.8218 62.9948 22.792L62.9946 22.7916ZM64.3087 22.6997C64.3087 22.5565 64.3295 22.5459 64.6113 22.5459C65.1919 22.5459 65.2904 22.3701 64.801 22.2075C64.042 21.9554 64.1804 21.3153 64.9938 21.3153C65.3358 21.3153 65.3547 21.3233 65.3547 21.4661C65.3547 21.6065 65.3303 21.6181 65.0009 21.6353C64.5449 21.6591 64.5251 21.7892 64.9535 21.9482C65.122 22.0108 65.295 22.0912 65.338 22.1269C65.4248 22.1991 65.442 22.5333 65.3648 22.6547C65.2959 22.7633 64.9493 22.8535 64.6014 22.8535C64.3303 22.8535 64.3088 22.8427 64.3088 22.6997H64.3087ZM25.9089 22.3471C25.7977 22.3058 25.7893 22.2509 25.8055 21.6703L25.823 21.0385L26.7152 21.0022C27.7421 20.9604 28.131 20.885 28.6695 20.6234C29.2977 20.3183 29.7089 19.76 29.7747 19.1233L29.8088 18.7927L28.985 18.7917C28.1124 18.7907 27.0617 18.6744 26.5774 18.5257C25.8978 18.3171 25.4864 17.9361 25.248 17.2944C25.0008 16.6292 24.9647 16.1637 24.9631 13.6246L24.9619 11.1942L25.6482 11.1769L26.3344 11.1596L26.3614 13.5765C26.3847 15.661 26.4032 16.04 26.4963 16.3319C26.6403 16.7833 26.8329 17.024 27.1891 17.1978C27.4666 17.3331 27.5556 17.3421 28.6536 17.3445L29.8226 17.3465L29.8386 14.2591L29.8547 11.1716L30.4232 11.1519C30.7359 11.1411 31.0554 11.1419 31.1331 11.1559L31.2743 11.179L31.2538 15.2783C31.2335 19.338 31.2319 19.382 31.0932 19.8391C30.9176 20.4174 30.5894 21.0115 30.2605 21.3462C29.7373 21.8785 28.7694 22.2668 27.7923 22.3364C27.022 22.3912 26.0424 22.397 25.9093 22.3472L25.9089 22.3471ZM7.39538 19.4395C3.82811 18.9677 1.27385 16.5947 0.784259 13.2974C0.613666 12.1486 0.696569 10.3757 0.971959 9.28663C1.24369 8.21175 1.79698 6.9932 2.46659 5.99488C4.89129 2.3799 9.74945 0.0250287 14.7784 0.0269787L15.7324 0.0274365L16.029 0.473153C16.4545 1.11259 17.1993 2.65641 17.4463 3.41074C18.4808 6.57104 18.2152 9.78202 16.7332 12.0316C15.6214 13.7192 13.7241 14.9782 11.7824 15.3168C11.0885 15.4378 9.91751 15.435 9.31553 15.3108C8.37623 15.1172 7.50085 14.5901 6.98666 13.9085C6.64272 13.4526 6.52774 13.1961 6.34668 12.4807C6.09481 11.4854 6.1994 10.5764 6.67088 9.66336C7.04364 8.94149 7.83711 8.16117 8.59519 7.77095C9.58491 7.26151 9.83326 7.19623 10.7794 7.19689C11.5238 7.19734 11.6415 7.21249 11.9131 7.34214C12.0799 7.42174 12.3468 7.60896 12.5064 7.75826C13.424 8.61652 13.206 10.1714 12.0451 11.0488C11.385 11.5477 10.6037 11.8307 9.51809 11.9641C8.83705 12.0478 8.80376 12.0584 8.84872 12.1755C8.89197 12.2882 9.47058 12.4747 10.2104 12.6146C11.4818 12.8549 12.8265 12.533 13.8054 11.7539C14.7679 10.9878 15.3196 9.94913 15.3778 8.79364C15.4163 8.02962 15.3342 7.61224 15.0238 6.99189C14.2515 5.4489 12.2206 4.52764 10.1095 4.76267C8.36086 4.95734 6.5669 5.9973 5.35722 7.51755C4.9229 8.06336 4.50012 8.83436 4.31972 9.4096C4.24541 9.64648 4.15547 9.90952 4.11981 9.99412C4.01994 10.231 3.9859 11.7627 4.06796 12.3239C4.14489 12.8504 4.45777 13.8499 4.68471 14.2945C4.8091 14.5382 5.02596 14.8682 5.39075 15.369C5.46123 15.4657 5.72287 15.7093 5.97232 15.9104C7.47308 17.1204 9.60603 17.4908 12.1128 16.9767C12.6795 16.8604 14.1308 16.3499 14.6864 16.0713C15.5153 15.6558 15.5882 15.7161 15.0821 16.3988C13.8592 18.0484 11.5717 19.2662 9.32293 19.4648C8.42535 19.544 8.16021 19.5405 7.39538 19.4395L7.39538 19.4395ZM18.068 18.6618C18.0037 18.4595 18.1018 17.5118 18.2294 17.1007C18.4637 16.3464 18.7182 16.0179 20.2314 14.5165C21.474 13.2836 21.916 12.7677 21.916 12.5501C21.916 12.5318 21.0577 12.5169 20.0086 12.5169H18.1012V11.8401V11.1632H20.8392H23.5772L23.5763 11.6709C23.5754 12.21 23.4573 12.826 23.2928 13.1506C23.0538 13.6223 22.5166 14.2587 21.8022 14.9165C20.3004 16.2991 19.6394 17.026 19.6394 17.295C19.6394 17.3599 20.0386 17.3791 21.6545 17.3921L23.6695 17.4083L23.6877 17.962C23.6973 18.2666 23.6901 18.5781 23.6711 18.6542L23.6364 18.7927H20.873H18.1096L18.068 18.6618ZM39.7511 18.576C38.8504 18.2902 38.2824 17.4785 38.2824 16.4773C38.2824 15.691 38.4731 15.1635 38.9364 14.6682C39.3622 14.2129 39.7097 14.0858 40.5282 14.0858C41.1145 14.0858 41.2443 14.1052 41.4989 14.2305C41.957 14.4561 42.1217 14.7189 42.1495 15.2683C42.2034 16.3352 41.6625 16.8184 40.2974 16.9226L39.7591 16.9637V16.5974V16.231L40.3545 16.1614C41.0633 16.0785 41.211 15.9752 41.2736 15.519C41.3099 15.2543 41.2976 15.215 41.1253 15.0427C40.957 14.8744 40.8987 14.855 40.5617 14.855C40.092 14.855 39.8451 14.9561 39.5812 15.2566C39.2848 15.5943 39.1878 15.8671 39.1862 16.3679C39.1838 17.0503 39.4893 17.5522 40.0493 17.7869C40.3469 17.9115 40.9704 17.8898 41.293 17.7434L41.5655 17.6198L41.8313 17.8807C41.9775 18.0241 42.0971 18.1617 42.0971 18.1864C42.0971 18.2111 41.911 18.323 41.6835 18.4351C41.3084 18.6199 41.2125 18.6402 40.6529 18.6527C40.2451 18.6627 39.9394 18.6359 39.7511 18.5761V18.576ZM47.4331 18.2543C46.9929 17.7328 46.6466 17.0399 46.4109 16.2085C46.1659 15.3447 45.9531 14.3198 45.9956 14.209C46.0208 14.1433 46.1294 14.1207 46.4021 14.1245C46.6067 14.1265 46.7865 14.1497 46.8015 14.174C46.8165 14.1984 46.8883 14.5068 46.9609 14.8596C47.1936 15.9894 47.7411 17.4945 47.8867 17.4045C48.0813 17.2843 48.5425 16.0005 48.7441 15.0182C48.9336 14.0949 48.9147 14.1225 49.3541 14.1246C49.5583 14.1256 49.7399 14.1498 49.7576 14.1784C49.7975 14.243 49.5262 15.5409 49.3228 16.2582C49.1041 17.0295 48.6922 17.8303 48.2803 18.2851C48.0887 18.4966 47.8986 18.6696 47.8579 18.6696C47.8172 18.6696 47.626 18.4827 47.4331 18.2543ZM54.4027 18.6121C53.8641 18.4477 53.3564 18.0013 53.0685 17.4391C52.9082 17.1259 52.8953 17.0479 52.8953 16.3931C52.8953 15.5463 52.989 15.2874 53.4849 14.763C54.2205 13.9851 55.3537 13.8278 56.3056 14.3715L56.6329 14.5584L56.3447 14.8509L56.0566 15.1435L55.7988 15.0146C55.6072 14.9188 55.4282 14.8863 55.1021 14.8881C54.7299 14.8901 54.6248 14.9159 54.4104 15.0578C53.9877 15.3376 53.8309 15.6401 53.7996 16.2363C53.7682 16.8338 53.8422 17.1109 54.1164 17.4232C54.5048 17.8655 55.1683 17.9938 55.7572 17.7404L56.0578 17.6111L56.3424 17.8779L56.627 18.1446L56.4532 18.2845C56.1315 18.5434 55.6775 18.6701 55.0926 18.6643C54.7978 18.6623 54.4873 18.6379 54.4027 18.6121V18.6121ZM58.6366 18.5512C58.1845 18.3744 57.9195 18.1861 57.6589 17.8565C57.3238 17.4325 57.2135 17.013 57.2435 16.2771C57.2639 15.7746 57.2963 15.6246 57.4578 15.2802C57.6904 14.7844 58.0047 14.4598 58.4582 14.2471C58.7612 14.105 58.8791 14.0859 59.4523 14.0859C60.054 14.0859 60.1297 14.0998 60.4628 14.2705C60.9173 14.5034 61.1094 14.822 61.1089 15.3415C61.1082 15.8529 61.0089 16.1276 60.7194 16.4171C60.3961 16.7404 59.9706 16.882 59.2634 16.9016L58.7404 16.9162L58.7222 16.5736L58.704 16.2309L59.2574 16.1673C59.9219 16.091 60.0951 15.9931 60.1902 15.6397C60.3268 15.1326 60.0639 14.8393 59.4793 14.8463C59.0015 14.8523 58.6439 15.0319 58.4107 15.3839C57.8203 16.2753 58.1452 17.5104 59.0487 17.8086C59.347 17.907 59.9726 17.861 60.2671 17.7191L60.5018 17.6059L60.7778 17.8763L61.0538 18.1467L60.8999 18.2796C60.4598 18.6596 59.2767 18.8015 58.6365 18.5512L58.6366 18.5512ZM33.7293 18.1876V17.7572L34.7599 17.7361C35.6915 17.717 35.8159 17.7015 36.0544 17.5746C36.389 17.3966 36.5592 17.1228 36.5592 16.7624C36.5592 16.2308 36.2819 15.9788 35.2307 15.555C34.0651 15.0849 33.6561 14.603 33.6434 13.6845C33.6386 13.3014 33.6641 13.1687 33.7939 12.9154C33.9915 12.5295 34.4274 12.2504 34.9833 12.1536C35.4179 12.0779 37.1106 12.0611 37.1184 12.1324C37.1208 12.1577 37.1369 12.2613 37.1533 12.3625C37.1697 12.4637 37.1662 12.6367 37.1449 12.747L37.1073 12.9476L36.2025 12.9481C34.9051 12.9485 34.6675 13.0428 34.6068 13.5811C34.5472 14.1103 34.8464 14.3895 35.9747 14.8573C36.6893 15.1536 37.1743 15.4932 37.3195 15.7991C37.5727 16.3328 37.5827 17.0386 37.3442 17.5482C37.1835 17.8916 36.7563 18.2621 36.3221 18.4347C36.0167 18.5561 35.8386 18.5755 34.8517 18.5954L33.7289 18.6181V18.1878L33.7293 18.1876ZM42.9585 17.0182C42.9585 14.9361 43.0358 14.6678 43.7339 14.3262C44.0503 14.1714 44.1354 14.1586 44.886 14.1532L45.6965 14.1472V14.5472V14.9471L44.9582 14.9798C44.5521 14.9978 44.1704 15.0357 44.1099 15.0641C44.0494 15.0925 43.9533 15.2024 43.8962 15.3083C43.8088 15.4705 43.7888 15.7448 43.7693 17.0543L43.7461 18.6079H43.3523H42.9585L42.9585 17.0182ZM50.9572 16.7931V14.978L50.6341 14.971C50.4565 14.967 50.2903 14.967 50.265 14.971C50.1807 14.9843 50.2209 14.8283 50.39 14.4861L50.5572 14.1477L51.0123 14.1279C51.2626 14.1171 51.5325 14.1239 51.6122 14.1445L51.757 14.1808V16.3946V18.6085H51.3571H50.9572V16.7931ZM61.9706 18.2144V17.8207L63.0122 17.7991C63.9546 17.7796 64.0702 17.7653 64.2273 17.6484C64.3227 17.5773 64.4094 17.4496 64.4197 17.3644C64.449 17.1216 64.1678 16.9394 63.361 16.6785C62.3199 16.3419 61.9693 15.9947 61.9717 15.303C61.9727 14.8577 62.1702 14.5601 62.6135 14.3334C62.9761 14.1479 62.9799 14.1474 64.0274 14.1474H65.0778L65.096 14.5627L65.1142 14.978H64.1537C63.0494 14.978 62.8357 15.0406 62.833 15.3654C62.831 15.584 63.1133 15.7589 63.8816 16.0152C64.3026 16.1556 64.7387 16.3264 64.8507 16.3947C65.2609 16.6448 65.4254 17.431 65.1715 17.9286C64.9018 18.4572 64.4134 18.6082 62.9729 18.6082H61.9706L61.9706 18.2144ZM50.9001 13.2161C50.5455 12.7653 51.0594 12.1808 51.57 12.454C51.7386 12.5442 51.8256 12.8474 51.7473 13.0719C51.6698 13.2944 51.5316 13.3782 51.2425 13.3782C51.0836 13.3782 50.9944 13.3359 50.9001 13.2161Z" fill="#D5D421"/>
<path d="M51.2144 23.3918C51.2279 23.2964 51.2819 23.248 51.3878 23.2361C51.6809 23.2033 51.8104 23.1604 51.9065 23.0643C52.0485 22.9223 52.0249 22.8535 51.8339 22.8531C51.5504 22.8526 51.2082 22.7316 51.1424 22.6087C51.1081 22.5447 51.0802 22.2275 51.0802 21.9038C51.0802 21.317 51.0807 21.3152 51.2341 21.3152C51.3867 21.3152 51.3879 21.3202 51.3879 21.8668C51.3879 22.4775 51.4308 22.5458 51.8145 22.5458H52.0032V21.9305V21.3152H52.157H52.3108V22.1489C52.3108 23.1021 52.2492 23.3006 51.9088 23.4428C51.7936 23.4909 51.5859 23.5302 51.4471 23.5302C51.2206 23.5302 51.1968 23.516 51.2144 23.3917L51.2144 23.3918ZM42.3678 22.7671C42.3477 22.7149 42.3409 22.2845 42.3526 21.8108C42.3785 20.763 42.4182 20.6939 43.0176 20.6505C43.3843 20.624 43.3892 20.6258 43.3892 20.7848C43.3892 20.9338 43.369 20.9461 43.1246 20.9461C42.7921 20.9461 42.7123 21.0259 42.7123 21.3583V21.6229H42.9892C43.2435 21.6229 43.2661 21.6354 43.2661 21.7767C43.2661 21.9178 43.2434 21.9305 42.9919 21.9305H42.7177L42.6997 22.3766C42.6831 22.7862 42.6703 22.8243 42.5429 22.8424C42.4606 22.8543 42.3894 22.8235 42.3678 22.7671L42.3678 22.7671ZM43.8127 22.6145C43.6116 22.4135 43.5738 22.3351 43.5738 22.1193C43.5738 21.6128 43.849 21.3152 44.3175 21.3152C44.9466 21.3152 45.3161 21.9786 44.9717 22.4896C44.7992 22.7456 44.6005 22.8513 44.2895 22.8525C44.0945 22.8532 44.0084 22.8103 43.8127 22.6145ZM44.6768 22.3837C44.8921 22.11 44.7978 21.7371 44.4859 21.6283C44.1462 21.5099 43.8814 21.7214 43.8814 22.111C43.8814 22.5263 44.4195 22.7108 44.6768 22.3837ZM45.3581 22.2492C45.3581 21.4736 45.422 21.3712 45.9324 21.3289C46.2732 21.3006 46.281 21.3034 46.281 21.458C46.281 21.603 46.2568 21.6177 45.9888 21.6349L45.6965 21.6537L45.6657 22.2382C45.6368 22.7867 45.6264 22.8239 45.4965 22.8424C45.3609 22.8616 45.3581 22.8494 45.3581 22.2493L45.3581 22.2492ZM47.406 22.7639C47.0272 22.5966 47.0623 22.0935 47.4633 21.9408C47.7611 21.8276 48.0037 21.8863 48.0037 22.0717C48.0037 22.1966 47.979 22.2083 47.7581 22.1871C47.5738 22.1695 47.503 22.1881 47.4744 22.2632C47.4103 22.4304 47.5666 22.5457 47.8574 22.5457H48.1268V22.1861C48.1268 21.7269 48.0264 21.6228 47.5835 21.6228C47.2815 21.6228 47.2654 21.6148 47.2654 21.4621C47.2654 21.3017 47.2664 21.3014 47.6964 21.3257C48.3338 21.3617 48.4036 21.4504 48.4036 22.2243V22.8226L48.0037 22.8369C47.7619 22.8449 47.5256 22.8167 47.4059 22.7639H47.406ZM49.0806 22.7876C48.7667 22.6945 48.7421 22.607 48.7421 21.5804V20.6385H48.896H49.0498V21.536V22.4335L49.2368 22.5041C49.3691 22.554 49.4185 22.6095 49.406 22.6939C49.3843 22.8398 49.3194 22.8585 49.0806 22.7877V22.7876ZM49.933 22.8109C49.8604 22.7967 49.7496 22.7285 49.6869 22.6592C49.5882 22.5504 49.57 22.405 49.5531 21.5859L49.5334 20.6385H49.6915H49.8497V21.4955C49.8497 22.1925 49.8677 22.3705 49.9463 22.4492C49.9995 22.5024 50.0825 22.5459 50.1308 22.5459C50.1835 22.5459 50.2187 22.6074 50.2187 22.6997C50.2187 22.8522 50.1937 22.8619 49.9329 22.8109H49.933ZM52.9671 22.7542C52.5456 22.5258 52.4858 21.8204 52.8597 21.4863C53.0157 21.3469 53.1087 21.3154 53.3638 21.3154C53.6376 21.3154 53.7028 21.3416 53.8859 21.5246C54.0638 21.7025 54.0951 21.7766 54.0951 22.0199C54.0951 22.1772 54.053 22.3872 54.0018 22.4865C53.8265 22.8253 53.3337 22.9529 52.9671 22.7542H52.9671ZM53.6507 22.4502C53.7558 22.3765 53.7874 22.2934 53.7874 22.0905C53.7874 21.7727 53.6321 21.6017 53.3507 21.6097C53.067 21.6177 52.926 21.7773 52.926 22.0905C52.926 22.3864 53.0769 22.546 53.3567 22.546C53.4432 22.546 53.5755 22.5029 53.6507 22.4502V22.4502ZM54.7735 22.7746C54.4792 22.6716 54.4047 22.4862 54.4036 21.8538C54.4027 21.3203 54.4041 21.3154 54.5565 21.3154C54.7078 21.3154 54.7103 21.3234 54.7103 21.8076C54.7103 22.3863 54.8101 22.546 55.1718 22.546H55.3872V21.9307V21.3154H55.5429H55.6986L55.6813 22.0691L55.664 22.8228L55.3256 22.8361C55.1394 22.8431 54.891 22.8157 54.7734 22.7746L54.7735 22.7746ZM56.0024 22.2494C56.0024 21.4738 56.0663 21.3714 56.5767 21.3291C56.9176 21.3008 56.9254 21.3036 56.9254 21.4582C56.9254 21.6032 56.901 21.6179 56.6331 21.6351L56.3408 21.6538L56.3101 22.2383C56.2812 22.7867 56.2708 22.824 56.1409 22.8424C56.0053 22.8616 56.0025 22.8494 56.0025 22.2494L56.0024 22.2494ZM57.8483 22.0888V21.3154H58.2083C58.6336 21.3154 58.9351 21.4079 59.0186 21.5639C59.0517 21.6258 59.0788 21.9413 59.0788 22.265C59.0788 22.8518 59.0781 22.8536 58.925 22.8536C58.7726 22.8536 58.7712 22.8486 58.7712 22.3122C58.7712 21.6968 58.7306 21.623 58.3919 21.623H58.1604L58.1428 22.2229C58.1261 22.792 58.1181 22.8238 57.9867 22.8425C57.8494 22.862 57.8483 22.8556 57.8483 22.0888H57.8483ZM59.72 22.7376C59.4721 22.5864 59.3622 22.312 59.4033 21.947C59.4489 21.5418 59.703 21.3154 60.1121 21.3154C60.5135 21.3154 60.6786 21.4406 60.6786 21.7451C60.6786 22.0493 60.4631 22.2383 60.1165 22.2383C59.9197 22.2383 59.8787 22.217 59.8787 22.1153C59.8787 22.0215 59.9197 21.9922 60.051 21.9922C60.2461 21.9922 60.3709 21.894 60.3709 21.7404C60.3709 21.5216 60.053 21.5047 59.8451 21.7126C59.6563 21.9014 59.6494 22.1649 59.8274 22.3912C59.9486 22.5453 59.9873 22.5576 60.2534 22.526C60.6177 22.4829 60.7666 22.6004 60.5448 22.7558C60.3562 22.8879 59.9517 22.8789 59.72 22.7376L59.72 22.7376ZM61.2792 22.7573C60.8281 22.5125 60.8083 21.7178 61.2456 21.4114C61.3272 21.3543 61.5123 21.3154 61.703 21.3154C61.9734 21.3154 62.0425 21.3399 62.1473 21.4732C62.2155 21.5599 62.2614 21.6638 62.2492 21.7039C62.237 21.744 62.2116 21.8483 62.1926 21.9356C62.1525 22.1204 61.9331 22.2384 61.6294 22.2384C61.4579 22.2384 61.4169 22.2146 61.4169 22.1153C61.4169 22.0224 61.4582 21.992 61.5861 21.9913C61.8239 21.9903 61.9233 21.9099 61.8991 21.7392C61.8843 21.6339 61.8333 21.5871 61.7198 21.5739C61.3356 21.5292 61.1018 22.0559 61.3601 22.3842C61.487 22.5455 61.5238 22.5578 61.7879 22.5265C61.9663 22.5054 62.1037 22.5195 62.1468 22.5622C62.2493 22.6647 62.2344 22.7028 62.06 22.7822C61.8465 22.8794 61.4831 22.8679 61.2792 22.7572L61.2792 22.7573ZM62.9946 22.7916C62.7445 22.7148 62.5953 22.5607 62.5165 22.2977C62.3716 21.8141 62.731 21.3154 63.2244 21.3154C63.5054 21.3154 63.6319 21.3969 63.6319 21.5779C63.6319 21.6695 63.6038 21.6837 63.4935 21.6472C63.1143 21.5225 62.832 21.6981 62.832 22.0588C62.832 22.4094 63.0701 22.5829 63.486 22.5353L63.6627 22.5151L63.6797 21.5768L63.6967 20.6385H63.8503H64.0039L63.9872 21.7307L63.9704 22.8228L63.5705 22.8347C63.3505 22.8407 63.0914 22.8218 62.9948 22.792L62.9946 22.7916ZM64.3087 22.6997C64.3087 22.5565 64.3295 22.5459 64.6113 22.5459C65.1919 22.5459 65.2904 22.37 64.801 22.2075C64.042 21.9554 64.1804 21.3153 64.9938 21.3153C65.3358 21.3153 65.3547 21.3233 65.3547 21.4661C65.3547 21.6064 65.3303 21.6181 65.0009 21.6353C64.5449 21.6591 64.5251 21.7892 64.9535 21.9482C65.122 22.0108 65.295 22.0911 65.338 22.1268C65.4248 22.199 65.442 22.5333 65.3648 22.6547C65.2959 22.7633 64.9493 22.8535 64.6014 22.8535C64.3303 22.8535 64.3088 22.8427 64.3088 22.6997H64.3087ZM25.9089 22.3471C25.7977 22.3058 25.7893 22.2509 25.8055 21.6703L25.823 21.0384L26.7152 21.0021C27.7421 20.9603 28.131 20.8849 28.6695 20.6234C29.2977 20.3183 29.7089 19.76 29.7747 19.1232L29.8088 18.7927L28.985 18.7917C28.1124 18.7907 27.0617 18.6744 26.5774 18.5257C25.8978 18.3171 25.4864 17.9361 25.248 17.2944C25.0008 16.6292 24.9647 16.1637 24.9631 13.6246L24.9619 11.1942L25.6481 11.1769L26.3344 11.1596L26.3614 13.5765C26.3847 15.661 26.4032 16.04 26.4963 16.3319C26.6403 16.7833 26.8329 17.024 27.1891 17.1978C27.4666 17.3331 27.5556 17.342 28.6536 17.3445L29.8226 17.3465L29.8386 14.2591L29.8547 11.1716L30.4232 11.1519C30.7359 11.1411 31.0554 11.1419 31.133 11.1559L31.2743 11.179L31.2538 15.2783C31.2335 19.338 31.2319 19.382 31.0932 19.839C30.9176 20.4174 30.5894 21.0115 30.2605 21.3462C29.7373 21.8785 28.7694 22.2668 27.7923 22.3363C27.022 22.3911 26.0424 22.3969 25.9093 22.3471L25.9089 22.3471ZM18.068 18.6618C18.0037 18.4594 18.1018 17.5117 18.2294 17.1006C18.4637 16.3464 18.7182 16.0178 20.2314 14.5165C21.474 13.2836 21.916 12.7677 21.916 12.55C21.916 12.5317 21.0577 12.5168 20.0086 12.5168H18.1012V11.84V11.1632H20.8392H23.5772L23.5763 11.6708C23.5754 12.21 23.4573 12.8259 23.2928 13.1506C23.0538 13.6223 22.5165 14.2587 21.8021 14.9164C20.3004 16.299 19.6394 17.026 19.6394 17.295C19.6394 17.3599 20.0386 17.3791 21.6545 17.3921L23.6695 17.4083L23.6877 17.962C23.6973 18.2666 23.6901 18.5781 23.6711 18.6542L23.6364 18.7926H20.873H18.1096L18.068 18.6618ZM39.7511 18.576C38.8504 18.2902 38.2824 17.4785 38.2824 16.4772C38.2824 15.6909 38.4731 15.1635 38.9364 14.6682C39.3622 14.2129 39.7097 14.0858 40.5282 14.0858C41.1144 14.0858 41.2443 14.1052 41.4989 14.2305C41.957 14.4561 42.1217 14.7188 42.1495 15.2683C42.2034 16.3352 41.6625 16.8183 40.2974 16.9226L39.7591 16.9637V16.5973V16.231L40.3545 16.1614C41.0633 16.0785 41.211 15.9751 41.2736 15.519C41.3099 15.2543 41.2976 15.215 41.1253 15.0427C40.957 14.8743 40.8987 14.8549 40.5617 14.8549C40.092 14.8549 39.8451 14.9561 39.5812 15.2566C39.2848 15.5942 39.1878 15.8671 39.1862 16.3679C39.1838 17.0503 39.4893 17.5521 40.0493 17.7868C40.3469 17.9115 40.9704 17.8898 41.2929 17.7434L41.5655 17.6198L41.8313 17.8806C41.9775 18.0241 42.0971 18.1617 42.0971 18.1864C42.0971 18.2111 41.911 18.323 41.6835 18.4351C41.3084 18.6199 41.2125 18.6402 40.6529 18.6527C40.2451 18.6627 39.9394 18.6359 39.7511 18.5761V18.576ZM47.4331 18.2543C46.9929 17.7328 46.6466 17.0399 46.4109 16.2085C46.1659 15.3447 45.9531 14.3198 45.9956 14.209C46.0208 14.1433 46.1294 14.1207 46.4021 14.1245C46.6067 14.1265 46.7865 14.1497 46.8015 14.174C46.8165 14.1984 46.8883 14.5068 46.9609 14.8595C47.1936 15.9894 47.7411 17.4945 47.8867 17.4045C48.0813 17.2843 48.5425 16.0005 48.7441 15.0182C48.9336 14.0949 48.9147 14.1225 49.3541 14.1246C49.5583 14.1255 49.7399 14.1498 49.7576 14.1784C49.7975 14.243 49.5262 15.5408 49.3228 16.2582C49.1041 17.0295 48.6922 17.8303 48.2803 18.2851C48.0887 18.4966 47.8986 18.6696 47.8579 18.6696C47.8172 18.6696 47.626 18.4827 47.4331 18.2543ZM54.4027 18.6121C53.8641 18.4476 53.3564 18.0012 53.0685 17.4391C52.9082 17.1259 52.8953 17.0479 52.8953 16.3931C52.8953 15.5463 52.989 15.2874 53.4849 14.763C54.2205 13.9851 55.3537 13.8278 56.3056 14.3715L56.6329 14.5584L56.3447 14.8509L56.0566 15.1434L55.7988 15.0145C55.6072 14.9187 55.4282 14.8863 55.1021 14.8881C54.7299 14.8901 54.6248 14.9159 54.4104 15.0578C53.9877 15.3376 53.8309 15.64 53.7996 16.2362C53.7682 16.8338 53.8422 17.1109 54.1164 17.4232C54.5048 17.8655 55.1683 17.9938 55.7572 17.7404L56.0578 17.6111L56.3424 17.8779L56.627 18.1446L56.4532 18.2845C56.1315 18.5434 55.6775 18.6701 55.0926 18.6643C54.7978 18.6623 54.4873 18.6379 54.4027 18.6121V18.6121ZM58.6366 18.5512C58.1845 18.3744 57.9195 18.1861 57.6589 17.8564C57.3238 17.4325 57.2135 17.013 57.2435 16.277C57.2639 15.7746 57.2963 15.6246 57.4578 15.2802C57.6904 14.7843 58.0047 14.4597 58.4582 14.2471C58.7612 14.105 58.8791 14.0859 59.4523 14.0859C60.054 14.0859 60.1297 14.0998 60.4628 14.2704C60.9173 14.5034 61.1094 14.822 61.1089 15.3415C61.1082 15.8528 61.0089 16.1276 60.7194 16.4171C60.3961 16.7404 59.9706 16.882 59.2634 16.9016L58.7404 16.9162L58.7222 16.5736L58.704 16.2309L59.2574 16.1673C59.9219 16.091 60.0951 15.9931 60.1902 15.6397C60.3268 15.1326 60.0639 14.8393 59.4793 14.8462C59.0015 14.8522 58.6439 15.0319 58.4107 15.3839C57.8203 16.2753 58.1452 17.5104 59.0487 17.8086C59.347 17.907 59.9726 17.861 60.2671 17.7191L60.5018 17.6059L60.7778 17.8763L61.0538 18.1467L60.8999 18.2796C60.4598 18.6595 59.2767 18.8015 58.6365 18.5512L58.6366 18.5512ZM33.7293 18.1875V17.7571L34.7599 17.736C35.6915 17.7169 35.8159 17.7014 36.0544 17.5745C36.389 17.3966 36.5592 17.1227 36.5592 16.7623C36.5592 16.2308 36.2819 15.9788 35.2307 15.5549C34.0651 15.0849 33.6561 14.6029 33.6434 13.6845C33.6386 13.3014 33.6641 13.1687 33.7939 12.9153C33.9915 12.5295 34.4274 12.2504 34.9833 12.1536C35.4179 12.0779 37.1106 12.0611 37.1184 12.1324C37.1208 12.1577 37.1369 12.2613 37.1533 12.3625C37.1697 12.4636 37.1662 12.6367 37.1449 12.747L37.1073 12.9476L36.2025 12.9481C34.9051 12.9485 34.6675 13.0428 34.6068 13.5811C34.5472 14.1103 34.8464 14.3895 35.9747 14.8573C36.6893 15.1535 37.1743 15.4932 37.3195 15.7991C37.5727 16.3328 37.5827 17.0385 37.3442 17.5482C37.1835 17.8916 36.7563 18.2621 36.3221 18.4347C36.0167 18.556 35.8386 18.5755 34.8517 18.5954L33.7289 18.6181V18.1877L33.7293 18.1875ZM42.9585 17.0182C42.9585 14.9361 43.0358 14.6678 43.7339 14.3262C44.0503 14.1714 44.1354 14.1586 44.886 14.1532L45.6965 14.1472V14.5471V14.9471L44.9582 14.9798C44.5521 14.9978 44.1704 15.0357 44.1099 15.0641C44.0494 15.0925 43.9533 15.2024 43.8962 15.3082C43.8088 15.4705 43.7888 15.7448 43.7693 17.0543L43.7461 18.6079H43.3523H42.9585L42.9585 17.0182ZM50.9572 16.7931V14.978L50.6341 14.971C50.4565 14.967 50.2903 14.967 50.265 14.971C50.1807 14.9843 50.2209 14.8282 50.39 14.4861L50.5572 14.1477L51.0123 14.1279C51.2626 14.1171 51.5325 14.1239 51.6122 14.1445L51.757 14.1808V16.3946V18.6084H51.3571H50.9572V16.7931ZM61.9706 18.2144V17.8207L63.0122 17.7991C63.9546 17.7796 64.0702 17.7653 64.2273 17.6484C64.3227 17.5773 64.4094 17.4495 64.4197 17.3644C64.449 17.1215 64.1678 16.9394 63.361 16.6785C62.3199 16.3419 61.9693 15.9947 61.9717 15.303C61.9727 14.8577 62.1702 14.5601 62.6135 14.3333C62.9761 14.1479 62.9799 14.1474 64.0274 14.1474H65.0778L65.096 14.5627L65.1142 14.978H64.1537C63.0493 14.978 62.8357 15.0406 62.833 15.3654C62.831 15.584 63.1133 15.7589 63.8816 16.0152C64.3026 16.1556 64.7387 16.3264 64.8507 16.3946C65.2609 16.6448 65.4254 17.431 65.1715 17.9286C64.9018 18.4572 64.4134 18.6081 62.9729 18.6081H61.9706L61.9706 18.2144ZM50.9001 13.2161C50.5455 12.7653 51.0594 12.1807 51.57 12.454C51.7386 12.5442 51.8256 12.8474 51.7473 13.0719C51.6698 13.2944 51.5316 13.3782 51.2425 13.3782C51.0836 13.3782 50.9944 13.3359 50.9001 13.2161Z" fill="white"/>
</svg>
