<svg width="15" height="15" viewBox="0 0 15 15" fill="none" xmlns="http://www.w3.org/2000/svg">
<path d="M6.12824 14.1044C3.86176 13.8213 1.74393 12.2903 0.718171 10.1935C-0.433669 7.83887 -0.184192 4.97913 1.35303 2.91582C4.03101 -0.678622 9.14382 -1.00042 12.2139 2.23222C14.8897 5.04973 14.7877 9.45748 11.9841 12.1664C10.4097 13.6875 8.32206 14.3785 6.12824 14.1044ZM8.56693 13.1125C9.70131 12.8137 10.6453 12.2752 11.4564 11.4642C12.2629 10.6577 12.7919 9.73344 13.1102 8.57469C13.3023 7.87556 13.3023 6.28811 13.1102 5.58897C12.7919 4.43022 12.2629 3.50601 11.4564 2.69951C10.6499 1.89302 9.72568 1.364 8.56693 1.04564C7.86779 0.85356 6.28034 0.85356 5.58121 1.04564C4.42246 1.364 3.49822 1.89302 2.69173 2.69951C1.56761 3.82363 0.959635 5.20144 0.883195 6.79808C0.734815 9.89714 2.89281 12.6158 5.96393 13.1988C6.62724 13.3248 7.9243 13.2817 8.56693 13.1125V13.1125ZM5.74991 9.75224C5.55312 9.64516 3.57679 7.66975 3.47565 7.47905C3.42595 7.38535 3.38535 7.20666 3.38535 7.08183C3.38535 6.57664 3.75407 6.23122 4.29379 6.23082L4.60323 6.23058L5.3374 6.95574C5.7412 7.35456 6.09873 7.68083 6.13191 7.68083C6.16511 7.68083 6.90139 6.96958 7.76814 6.10027C8.63488 5.23097 9.42066 4.47904 9.51431 4.42931C9.90391 4.22247 10.467 4.39133 10.6651 4.7744C10.7793 4.99507 10.7923 5.36076 10.6931 5.55687C10.5939 5.75298 6.73063 9.62535 6.5255 9.7343C6.32542 9.84058 5.92908 9.84978 5.74994 9.75231L5.74991 9.75224Z" fill="#008000"/>
</svg>
