<svg width="86" height="97" viewBox="0 0 86 97" fill="none" xmlns="http://www.w3.org/2000/svg">
<path d="M32.2103 64.0981C32.3692 64.0981 32.5059 64.1521 32.6203 64.2601C32.741 64.3618 32.8014 64.4921 32.8014 64.651C32.8014 64.7336 32.7823 64.8194 32.7442 64.9084L30.3895 70.4187C30.3323 70.5458 30.2496 70.6412 30.1416 70.7047C30.0399 70.7619 29.935 70.7905 29.827 70.7905C29.7253 70.7842 29.6268 70.7524 29.5315 70.6952C29.4361 70.6316 29.363 70.5427 29.3122 70.4283L26.9574 64.8989C26.9384 64.8607 26.9257 64.8226 26.9193 64.7845C26.9129 64.74 26.9098 64.6987 26.9098 64.6605C26.9098 64.4762 26.9765 64.3364 27.11 64.2411C27.2434 64.1394 27.3705 64.0885 27.4913 64.0885C27.7328 64.0885 27.9076 64.2125 28.0156 64.4603L30.1035 69.37L29.7698 69.3796L31.686 64.4603C31.794 64.2188 31.9688 64.0981 32.2103 64.0981ZM35.8835 70.8859C35.3433 70.8859 34.873 70.7746 34.4726 70.5522C34.0785 70.3234 33.7735 70.0151 33.5574 69.6275C33.3476 69.2398 33.2428 68.8012 33.2428 68.3118C33.2428 67.7398 33.3572 67.2536 33.586 66.8532C33.8211 66.4465 34.1262 66.135 34.5012 65.919C34.8762 65.7029 35.2734 65.5948 35.6929 65.5948C36.017 65.5948 36.3221 65.6616 36.6081 65.795C36.9004 65.9285 37.1578 66.1128 37.3803 66.348C37.6027 66.5768 37.7775 66.8437 37.9046 67.1488C38.0381 67.4538 38.1048 67.778 38.1048 68.1212C38.0985 68.2737 38.0381 68.3976 37.9237 68.493C37.8093 68.5883 37.6758 68.636 37.5233 68.636H33.8815L33.5955 67.6826H37.0943L36.8845 67.8733V67.6159C36.8718 67.4316 36.8051 67.2663 36.6843 67.1202C36.5699 66.974 36.4238 66.8596 36.2458 66.777C36.0742 66.688 35.8899 66.6435 35.6929 66.6435C35.5022 66.6435 35.3242 66.6689 35.159 66.7198C34.9937 66.7706 34.8507 66.8564 34.73 66.9772C34.6092 67.0979 34.5139 67.26 34.444 67.4634C34.3741 67.6667 34.3391 67.9241 34.3391 68.2356C34.3391 68.5788 34.409 68.8711 34.5489 69.1126C34.695 69.3478 34.8793 69.5289 35.1018 69.6561C35.3306 69.7768 35.5721 69.8372 35.8263 69.8372C36.0615 69.8372 36.249 69.8181 36.3888 69.78C36.5286 69.7419 36.6399 69.6974 36.7225 69.6465C36.8115 69.5893 36.8909 69.5417 36.9608 69.5035C37.0752 69.4463 37.1833 69.4177 37.2849 69.4177C37.4248 69.4177 37.5392 69.4654 37.6281 69.5607C37.7235 69.6561 37.7711 69.7673 37.7711 69.8944C37.7711 70.066 37.6822 70.2217 37.5042 70.3615C37.339 70.5013 37.107 70.6253 36.8083 70.7333C36.5096 70.835 36.2013 70.8859 35.8835 70.8859ZM41.7832 65.5948C42.2408 65.5948 42.5872 65.6933 42.8224 65.8904C43.0639 66.0874 43.2291 66.3511 43.3181 66.6816C43.4071 67.0058 43.4516 67.368 43.4516 67.7684V70.209C43.4516 70.3742 43.3975 70.5141 43.2895 70.6285C43.1815 70.7365 43.0448 70.7905 42.8796 70.7905C42.7143 70.7905 42.5777 70.7365 42.4696 70.6285C42.3616 70.5141 42.3076 70.3742 42.3076 70.209V67.7684C42.3076 67.5587 42.2821 67.3712 42.2313 67.206C42.1805 67.0344 42.0883 66.8977 41.9548 66.796C41.8214 66.6943 41.6307 66.6435 41.3828 66.6435C41.1413 66.6435 40.9348 66.6943 40.7631 66.796C40.5915 66.8977 40.4613 67.0344 40.3723 67.206C40.2897 67.3712 40.2483 67.5587 40.2483 67.7684V70.209C40.2483 70.3742 40.1943 70.5141 40.0863 70.6285C39.9782 70.7365 39.8416 70.7905 39.6763 70.7905C39.5111 70.7905 39.3744 70.7365 39.2664 70.6285C39.1584 70.5141 39.1043 70.3742 39.1043 70.209V64.3173C39.1043 64.1521 39.1584 64.0155 39.2664 63.9074C39.3744 63.793 39.5111 63.7358 39.6763 63.7358C39.8416 63.7358 39.9782 63.793 40.0863 63.9074C40.1943 64.0155 40.2483 64.1521 40.2483 64.3173V66.6816L40.1053 66.653C40.1625 66.545 40.242 66.4306 40.3437 66.3098C40.4454 66.1827 40.5693 66.0651 40.7155 65.9571C40.8617 65.849 41.0237 65.7632 41.2017 65.6997C41.3796 65.6298 41.5735 65.5948 41.7832 65.5948ZM45.7676 70.209C45.7676 70.3742 45.7136 70.5141 45.6055 70.6285C45.4975 70.7365 45.3608 70.7905 45.1956 70.7905C45.0303 70.7905 44.8937 70.7365 44.7857 70.6285C44.6776 70.5141 44.6236 70.3742 44.6236 70.209V66.2717C44.6236 66.1064 44.6776 65.9698 44.7857 65.8618C44.8937 65.7474 45.0303 65.6902 45.1956 65.6902C45.3608 65.6902 45.4975 65.7474 45.6055 65.8618C45.7136 65.9698 45.7676 66.1064 45.7676 66.2717V70.209ZM45.1861 65.0705C44.97 65.0705 44.8174 65.0355 44.7285 64.9656C44.6395 64.8957 44.595 64.7718 44.595 64.5938V64.4127C44.595 64.2284 44.6427 64.1044 44.738 64.0409C44.8397 63.971 44.9922 63.936 45.1956 63.936C45.418 63.936 45.5737 63.971 45.6627 64.0409C45.7517 64.1108 45.7962 64.2347 45.7962 64.4127V64.5938C45.7962 64.7781 45.7485 64.9052 45.6532 64.9751C45.5579 65.0387 45.4021 65.0705 45.1861 65.0705ZM49.2123 65.5948C49.5746 65.5948 49.8892 65.633 50.1561 65.7092C50.4294 65.7855 50.6391 65.8935 50.7853 66.0334C50.9378 66.1668 51.0141 66.3289 51.0141 66.5196C51.0141 66.6467 50.976 66.7674 50.8997 66.8818C50.8234 66.9899 50.7122 67.0439 50.566 67.0439C50.4643 67.0439 50.3785 67.0312 50.3086 67.0058C50.2451 66.974 50.1879 66.9359 50.137 66.8914C50.0862 66.8469 50.0258 66.8056 49.9559 66.7674C49.8923 66.7293 49.7938 66.7007 49.6604 66.6816C49.5332 66.6562 49.4379 66.6435 49.3744 66.6435C49.0502 66.6435 48.7737 66.7134 48.5449 66.8532C48.3225 66.9931 48.1509 67.1837 48.0301 67.4252C47.9094 67.6604 47.849 67.9337 47.849 68.2451C47.849 68.5502 47.9094 68.8235 48.0301 69.065C48.1573 69.3001 48.3289 69.4876 48.5449 69.6275C48.7674 69.7673 49.0216 69.8372 49.3076 69.8372C49.4665 69.8372 49.6032 69.8277 49.7176 69.8086C49.832 69.7895 49.9273 69.7609 50.0036 69.7228C50.0925 69.6719 50.172 69.6179 50.2419 69.5607C50.3118 69.5035 50.4167 69.4749 50.5565 69.4749C50.7217 69.4749 50.8489 69.5289 50.9378 69.637C51.0268 69.7387 51.0713 69.8658 51.0713 70.0183C51.0713 70.1772 50.9823 70.3234 50.8044 70.4569C50.6264 70.584 50.3913 70.6888 50.0989 70.7715C49.8129 70.8477 49.5015 70.8859 49.1646 70.8859C48.6625 70.8859 48.2272 70.7715 47.8585 70.5427C47.4899 70.3075 47.2039 69.9897 47.0005 69.5893C46.8035 69.1889 46.705 68.7408 46.705 68.2451C46.705 67.7239 46.8099 67.2663 47.0196 66.8723C47.2357 66.4719 47.5312 66.1605 47.9062 65.938C48.2875 65.7092 48.7229 65.5948 49.2123 65.5948ZM53.1356 70.209C53.1356 70.3742 53.0784 70.5141 52.964 70.6285C52.8559 70.7365 52.7193 70.7905 52.554 70.7905C52.3952 70.7905 52.2617 70.7365 52.1536 70.6285C52.0456 70.5141 51.9916 70.3742 51.9916 70.209V64.3173C51.9916 64.1521 52.0456 64.0155 52.1536 63.9074C52.268 63.793 52.4079 63.7358 52.5731 63.7358C52.7384 63.7358 52.8718 63.793 52.9735 63.9074C53.0816 64.0155 53.1356 64.1521 53.1356 64.3173V70.209ZM56.7751 70.8859C56.2349 70.8859 55.7646 70.7746 55.3642 70.5522C54.9701 70.3234 54.665 70.0151 54.449 69.6275C54.2392 69.2398 54.1344 68.8012 54.1344 68.3118C54.1344 67.7398 54.2488 67.2536 54.4776 66.8532C54.7127 66.4465 55.0178 66.135 55.3928 65.919C55.7677 65.7029 56.165 65.5948 56.5844 65.5948C56.9086 65.5948 57.2136 65.6616 57.4996 65.795C57.792 65.9285 58.0494 66.1128 58.2719 66.348C58.4943 66.5768 58.6691 66.8437 58.7962 67.1488C58.9297 67.4538 58.9964 67.778 58.9964 68.1212C58.99 68.2737 58.9297 68.3976 58.8153 68.493C58.7009 68.5883 58.5674 68.636 58.4149 68.636H54.7731L54.4871 67.6826H57.9858L57.7761 67.8733V67.6159C57.7634 67.4316 57.6967 67.2663 57.5759 67.1202C57.4615 66.974 57.3153 66.8596 57.1374 66.777C56.9658 66.688 56.7815 66.6435 56.5844 66.6435C56.3938 66.6435 56.2158 66.6689 56.0506 66.7198C55.8853 66.7706 55.7423 66.8564 55.6216 66.9772C55.5008 67.0979 55.4055 67.26 55.3356 67.4634C55.2656 67.6667 55.2307 67.9241 55.2307 68.2356C55.2307 68.5788 55.3006 68.8711 55.4404 69.1126C55.5866 69.3478 55.7709 69.5289 55.9934 69.6561C56.2222 69.7768 56.4637 69.8372 56.7179 69.8372C56.9531 69.8372 57.1406 69.8181 57.2804 69.78C57.4202 69.7419 57.5314 69.6974 57.614 69.6465C57.703 69.5893 57.7825 69.5417 57.8524 69.5035C57.9668 69.4463 58.0748 69.4177 58.1765 69.4177C58.3163 69.4177 58.4307 69.4654 58.5197 69.5607C58.6151 69.6561 58.6627 69.7673 58.6627 69.8944C58.6627 70.066 58.5737 70.2217 58.3958 70.3615C58.2305 70.5013 57.9986 70.6253 57.6998 70.7333C57.4011 70.835 57.0929 70.8859 56.7751 70.8859ZM14.3829 76.0885C14.5291 76.0885 14.6689 76.1457 14.8024 76.2601C14.9358 76.3682 15.0026 76.5175 15.0026 76.7082C15.0026 76.7654 14.993 76.829 14.974 76.8989L13.0959 82.4283C13.0578 82.5427 12.9878 82.6316 12.8862 82.6952C12.7908 82.7524 12.6891 82.7842 12.5811 82.7905C12.473 82.7905 12.365 82.7587 12.2569 82.6952C12.1553 82.6316 12.0758 82.5395 12.0186 82.4187L10.6077 79.2155L10.6935 79.2727L9.30159 82.4187C9.24439 82.5395 9.16177 82.6316 9.05372 82.6952C8.95203 82.7587 8.84717 82.7905 8.73912 82.7905C8.63743 82.7842 8.53574 82.7524 8.43405 82.6952C8.33236 82.6316 8.26245 82.5427 8.22432 82.4283L6.34623 76.8989C6.32717 76.829 6.31763 76.7654 6.31763 76.7082C6.31763 76.5175 6.38437 76.3682 6.51784 76.2601C6.65766 76.1457 6.80066 76.0885 6.94684 76.0885C7.0676 76.0885 7.17882 76.1203 7.28051 76.1839C7.38855 76.2474 7.46164 76.3396 7.49978 76.4603L9.01559 81.0554L8.80585 81.0459L10.1596 77.795C10.2104 77.6806 10.2835 77.5916 10.3789 77.5281C10.4742 77.4582 10.5822 77.4264 10.703 77.4328C10.8238 77.4264 10.9318 77.4582 11.0271 77.5281C11.1225 77.5916 11.1924 77.6806 11.2369 77.795L12.4762 80.9029L12.3237 80.9982L13.8204 76.4603C13.8586 76.3396 13.9317 76.2474 14.0397 76.1839C14.1477 76.1203 14.2621 76.0885 14.3829 76.0885ZM19.87 77.5948C20.0353 77.5948 20.1719 77.6488 20.28 77.7569C20.388 77.8649 20.4421 78.0048 20.4421 78.1764V82.209C20.4421 82.3742 20.388 82.5141 20.28 82.6285C20.1719 82.7365 20.0353 82.7905 19.87 82.7905C19.7048 82.7905 19.5682 82.7365 19.4601 82.6285C19.3521 82.5141 19.298 82.3742 19.298 82.209V81.7419L19.5078 81.8277C19.5078 81.9103 19.4633 82.012 19.3743 82.1327C19.2853 82.2471 19.1646 82.3615 19.012 82.4759C18.8595 82.5903 18.6784 82.6888 18.4686 82.7715C18.2653 82.8477 18.0428 82.8859 17.8013 82.8859C17.3628 82.8859 16.9655 82.7746 16.6096 82.5522C16.2537 82.3234 15.9709 82.012 15.7611 81.6179C15.5578 81.2175 15.4561 80.7599 15.4561 80.2451C15.4561 79.7239 15.5578 79.2663 15.7611 78.8723C15.9709 78.4719 16.2505 78.1605 16.6001 77.938C16.9496 77.7092 17.3373 77.5948 17.7632 77.5948C18.0365 77.5948 18.2875 77.6361 18.5163 77.7188C18.7451 77.8014 18.9421 77.9062 19.1074 78.0334C19.279 78.1605 19.4093 78.2908 19.4982 78.4242C19.5936 78.5513 19.6412 78.6594 19.6412 78.7484L19.298 78.8723V78.1764C19.298 78.0111 19.3521 77.8745 19.4601 77.7664C19.5682 77.652 19.7048 77.5948 19.87 77.5948ZM17.9443 81.8372C18.2239 81.8372 18.4686 81.7673 18.6784 81.6275C18.8881 81.4876 19.0502 81.297 19.1646 81.0554C19.2853 80.8139 19.3457 80.5438 19.3457 80.2451C19.3457 79.94 19.2853 79.6667 19.1646 79.4252C19.0502 79.1837 18.8881 78.9931 18.6784 78.8532C18.4686 78.7134 18.2239 78.6435 17.9443 78.6435C17.671 78.6435 17.4295 78.7134 17.2198 78.8532C17.01 78.9931 16.8448 79.1837 16.724 79.4252C16.6096 79.6667 16.5524 79.94 16.5524 80.2451C16.5524 80.5438 16.6096 80.8139 16.724 81.0554C16.8448 81.297 17.01 81.4876 17.2198 81.6275C17.4295 81.7673 17.671 81.8372 17.9443 81.8372ZM21.7379 77.7855H23.9973C24.1499 77.7855 24.277 77.8363 24.3787 77.938C24.4804 78.0397 24.5312 78.1668 24.5312 78.3194C24.5312 78.4655 24.4804 78.5895 24.3787 78.6912C24.277 78.7865 24.1499 78.8342 23.9973 78.8342H21.7379C21.5854 78.8342 21.4583 78.7833 21.3566 78.6816C21.2549 78.5799 21.2041 78.4528 21.2041 78.3003C21.2041 78.1541 21.2549 78.0334 21.3566 77.938C21.4583 77.8363 21.5854 77.7855 21.7379 77.7855ZM22.758 76.5938C22.9232 76.5938 23.0567 76.651 23.1584 76.7654C23.2664 76.8735 23.3205 77.0101 23.3205 77.1753V81.4177C23.3205 81.5067 23.3364 81.5798 23.3681 81.637C23.4063 81.6942 23.4539 81.7355 23.5111 81.7609C23.5747 81.7863 23.6414 81.7991 23.7113 81.7991C23.7876 81.7991 23.8575 81.7863 23.9211 81.7609C23.9846 81.7291 24.0577 81.7133 24.1403 81.7133C24.2293 81.7133 24.3088 81.7546 24.3787 81.8372C24.4549 81.9198 24.4931 82.0342 24.4931 82.1804C24.4931 82.3583 24.3946 82.5045 24.1975 82.6189C24.0069 82.7333 23.8003 82.7905 23.5779 82.7905C23.4444 82.7905 23.2951 82.781 23.1298 82.7619C22.9709 82.7365 22.8184 82.6825 22.6722 82.5999C22.5324 82.5109 22.4148 82.3774 22.3195 82.1995C22.2241 82.0215 22.1765 81.7768 22.1765 81.4654V77.1753C22.1765 77.0101 22.2305 76.8735 22.3385 76.7654C22.4529 76.651 22.5928 76.5938 22.758 76.5938ZM27.9375 82.8859C27.3972 82.8859 26.9269 82.7746 26.5265 82.5522C26.1325 82.3234 25.8274 82.0151 25.6113 81.6275C25.4016 81.2398 25.2967 80.8012 25.2967 80.3118C25.2967 79.7398 25.4111 79.2536 25.6399 78.8532C25.8751 78.4465 26.1801 78.135 26.5551 77.919C26.9301 77.7029 27.3273 77.5948 27.7468 77.5948C28.0709 77.5948 28.376 77.6616 28.662 77.795C28.9544 77.9285 29.2118 78.1128 29.4342 78.348C29.6567 78.5768 29.8314 78.8437 29.9586 79.1488C30.092 79.4538 30.1588 79.778 30.1588 80.1212C30.1524 80.2737 30.092 80.3976 29.9776 80.493C29.8632 80.5883 29.7298 80.636 29.5772 80.636H25.9355L25.6495 79.6826H29.1482L28.9385 79.8733V79.6159C28.9258 79.4316 28.859 79.2663 28.7383 79.1202C28.6239 78.974 28.4777 78.8596 28.2997 78.777C28.1281 78.688 27.9438 78.6435 27.7468 78.6435C27.5561 78.6435 27.3782 78.6689 27.2129 78.7198C27.0477 78.7706 26.9047 78.8564 26.7839 78.9772C26.6632 79.0979 26.5678 79.26 26.4979 79.4634C26.428 79.6667 26.3931 79.9241 26.3931 80.2356C26.3931 80.5788 26.463 80.8711 26.6028 81.1126C26.749 81.3478 26.9333 81.5289 27.1557 81.6561C27.3845 81.7768 27.626 81.8372 27.8803 81.8372C28.1154 81.8372 28.3029 81.8181 28.4427 81.78C28.5826 81.7419 28.6938 81.6974 28.7764 81.6465C28.8654 81.5893 28.9448 81.5417 29.0147 81.5035C29.1291 81.4463 29.2372 81.4177 29.3389 81.4177C29.4787 81.4177 29.5931 81.4654 29.6821 81.5607C29.7774 81.6561 29.8251 81.7673 29.8251 81.8944C29.8251 82.066 29.7361 82.2217 29.5582 82.3615C29.3929 82.5013 29.1609 82.6253 28.8622 82.7333C28.5635 82.835 28.2553 82.8859 27.9375 82.8859ZM31.7303 82.7905C31.565 82.7905 31.4284 82.7365 31.3203 82.6285C31.2123 82.5141 31.1583 82.3742 31.1583 82.209V78.2717C31.1583 78.1064 31.2123 77.9698 31.3203 77.8618C31.4284 77.7474 31.565 77.6902 31.7303 77.6902C31.8955 77.6902 32.0322 77.7474 32.1402 77.8618C32.2483 77.9698 32.3023 78.1064 32.3023 78.2717V79.1678L32.2356 78.5291C32.3055 78.3766 32.3944 78.2431 32.5025 78.1287C32.6169 78.0079 32.744 77.9094 32.8838 77.8332C33.0236 77.7505 33.173 77.6902 33.3319 77.652C33.4908 77.6139 33.6497 77.5948 33.8086 77.5948C33.9992 77.5948 34.1581 77.6488 34.2852 77.7569C34.4187 77.8649 34.4854 77.992 34.4854 78.1382C34.4854 78.348 34.4314 78.5005 34.3234 78.5958C34.2153 78.6848 34.0977 78.7293 33.9706 78.7293C33.8499 78.7293 33.7387 78.707 33.637 78.6626C33.5416 78.6181 33.4304 78.5958 33.3033 78.5958C33.1889 78.5958 33.0713 78.6244 32.9506 78.6816C32.8362 78.7325 32.7281 78.8151 32.6264 78.9295C32.5311 79.0439 32.4516 79.1869 32.3881 79.3585C32.3309 79.5237 32.3023 79.7208 32.3023 79.9496V82.209C32.3023 82.3742 32.2483 82.5141 32.1402 82.6285C32.0322 82.7365 31.8955 82.7905 31.7303 82.7905ZM40.2042 82.8859C39.7593 82.8859 39.3589 82.8318 39.003 82.7238C38.6471 82.6094 38.3071 82.4124 37.9829 82.1327C37.9003 82.0628 37.8368 81.9834 37.7923 81.8944C37.7478 81.8054 37.7255 81.7164 37.7255 81.6275C37.7255 81.4813 37.7764 81.3542 37.8781 81.2461C37.9861 81.1317 38.1196 81.0745 38.2785 81.0745C38.3992 81.0745 38.5073 81.1126 38.6026 81.1889C38.8441 81.3859 39.0825 81.5353 39.3176 81.637C39.5591 81.7387 39.8547 81.7895 40.2042 81.7895C40.4394 81.7895 40.6555 81.7546 40.8525 81.6847C41.0495 81.6084 41.2084 81.5099 41.3292 81.3891C41.4499 81.262 41.5103 81.119 41.5103 80.9601C41.5103 80.7694 41.4531 80.6074 41.3387 80.4739C41.2243 80.3404 41.0495 80.2292 40.8144 80.1402C40.5792 80.0449 40.2805 79.9718 39.9182 79.921C39.575 79.8701 39.2731 79.7939 39.0125 79.6922C38.752 79.5841 38.5327 79.4507 38.3547 79.2918C38.1831 79.1265 38.0528 78.9359 37.9639 78.7198C37.8749 78.4973 37.8304 78.2494 37.8304 77.9762C37.8304 77.563 37.9353 77.2103 38.145 76.9179C38.3611 76.6256 38.6503 76.4031 39.0125 76.2506C39.3748 76.0981 39.7752 76.0218 40.2137 76.0218C40.6269 76.0218 41.0082 76.0854 41.3578 76.2125C41.7137 76.3332 42.0029 76.4889 42.2253 76.6796C42.4096 76.8258 42.5018 76.9942 42.5018 77.1849C42.5018 77.3247 42.4477 77.4518 42.3397 77.5662C42.2317 77.6806 42.1045 77.7378 41.9584 77.7378C41.863 77.7378 41.7772 77.7092 41.701 77.652C41.5993 77.563 41.4626 77.4804 41.291 77.4042C41.1194 77.3215 40.9383 77.2548 40.7476 77.2039C40.557 77.1467 40.379 77.1181 40.2137 77.1181C39.9405 77.1181 39.7085 77.1531 39.5178 77.223C39.3335 77.2929 39.1937 77.3883 39.0983 77.509C39.003 77.6298 38.9553 77.7696 38.9553 77.9285C38.9553 78.1192 39.0094 78.278 39.1174 78.4052C39.2318 78.5259 39.3939 78.6244 39.6036 78.7007C39.8133 78.7706 40.0644 78.8342 40.3568 78.8914C40.7381 78.9613 41.0718 79.0439 41.3578 79.1392C41.6501 79.2346 41.8916 79.3585 42.0823 79.511C42.273 79.6572 42.416 79.8447 42.5113 80.0735C42.6066 80.296 42.6543 80.5692 42.6543 80.8934C42.6543 81.3065 42.5399 81.6624 42.3111 81.9611C42.0823 82.2598 41.7804 82.4886 41.4054 82.6475C41.0368 82.8064 40.6364 82.8859 40.2042 82.8859ZM46.0547 82.8859C45.5144 82.8859 45.0441 82.7746 44.6437 82.5522C44.2497 82.3234 43.9446 82.0151 43.7285 81.6275C43.5188 81.2398 43.4139 80.8012 43.4139 80.3118C43.4139 79.7398 43.5283 79.2536 43.7571 78.8532C43.9923 78.4465 44.2974 78.135 44.6723 77.919C45.0473 77.7029 45.4445 77.5948 45.864 77.5948C46.1881 77.5948 46.4932 77.6616 46.7792 77.795C47.0716 77.9285 47.329 78.1128 47.5514 78.348C47.7739 78.5768 47.9486 78.8437 48.0758 79.1488C48.2092 79.4538 48.276 79.778 48.276 80.1212C48.2696 80.2737 48.2092 80.3976 48.0948 80.493C47.9804 80.5883 47.847 80.636 47.6944 80.636H44.0527L43.7667 79.6826H47.2654L47.0557 79.8733V79.6159C47.043 79.4316 46.9762 79.2663 46.8555 79.1202C46.7411 78.974 46.5949 78.8596 46.4169 78.777C46.2453 78.688 46.061 78.6435 45.864 78.6435C45.6733 78.6435 45.4954 78.6689 45.3301 78.7198C45.1649 78.7706 45.0219 78.8564 44.9011 78.9772C44.7804 79.0979 44.685 79.26 44.6151 79.4634C44.5452 79.6667 44.5103 79.9241 44.5103 80.2356C44.5103 80.5788 44.5802 80.8711 44.72 81.1126C44.8662 81.3478 45.0505 81.5289 45.2729 81.6561C45.5017 81.7768 45.7433 81.8372 45.9975 81.8372C46.2326 81.8372 46.4201 81.8181 46.5599 81.78C46.6998 81.7419 46.811 81.6974 46.8936 81.6465C46.9826 81.5893 47.062 81.5417 47.132 81.5035C47.2464 81.4463 47.3544 81.4177 47.4561 81.4177C47.5959 81.4177 47.7103 81.4654 47.7993 81.5607C47.8946 81.6561 47.9423 81.7673 47.9423 81.8944C47.9423 82.066 47.8533 82.2217 47.6754 82.3615C47.5101 82.5013 47.2781 82.6253 46.9794 82.7333C46.6807 82.835 46.3725 82.8859 46.0547 82.8859ZM49.8475 82.7905C49.6822 82.7905 49.5456 82.7365 49.4375 82.6285C49.3295 82.5141 49.2755 82.3742 49.2755 82.209V78.2717C49.2755 78.1064 49.3295 77.9698 49.4375 77.8618C49.5456 77.7474 49.6822 77.6902 49.8475 77.6902C50.0127 77.6902 50.1494 77.7474 50.2574 77.8618C50.3655 77.9698 50.4195 78.1064 50.4195 78.2717V79.1678L50.3528 78.5291C50.4227 78.3766 50.5116 78.2431 50.6197 78.1287C50.7341 78.0079 50.8612 77.9094 51.001 77.8332C51.1408 77.7505 51.2902 77.6902 51.4491 77.652C51.608 77.6139 51.7669 77.5948 51.9258 77.5948C52.1164 77.5948 52.2753 77.6488 52.4024 77.7569C52.5359 77.8649 52.6026 77.992 52.6026 78.1382C52.6026 78.348 52.5486 78.5005 52.4406 78.5958C52.3325 78.6848 52.2149 78.7293 52.0878 78.7293C51.9671 78.7293 51.8559 78.707 51.7542 78.6626C51.6588 78.6181 51.5476 78.5958 51.4205 78.5958C51.3061 78.5958 51.1885 78.6244 51.0678 78.6816C50.9534 78.7325 50.8453 78.8151 50.7436 78.9295C50.6483 79.0439 50.5688 79.1869 50.5053 79.3585C50.4481 79.5237 50.4195 79.7208 50.4195 79.9496V82.209C50.4195 82.3742 50.3655 82.5141 50.2574 82.6285C50.1494 82.7365 50.0127 82.7905 49.8475 82.7905ZM54.1127 77.6902C54.2335 77.6902 54.3447 77.7219 54.4464 77.7855C54.5481 77.8427 54.6243 77.9317 54.6752 78.0524L56.0766 81.2556L55.8669 81.351L57.2969 78.062C57.4049 77.8077 57.5733 77.687 57.8021 77.6997C57.961 77.6997 58.0881 77.7505 58.1835 77.8522C58.2852 77.9476 58.336 78.0683 58.336 78.2145C58.336 78.259 58.3265 78.3066 58.3074 78.3575C58.2947 78.4083 58.2788 78.456 58.2598 78.5005L56.477 82.4283C56.3753 82.6571 56.2132 82.7778 55.9908 82.7905C55.87 82.8096 55.7525 82.7873 55.6381 82.7238C55.53 82.6602 55.4474 82.5617 55.3902 82.4283L53.617 78.5005C53.6043 78.4687 53.5884 78.4274 53.5693 78.3766C53.5566 78.3257 53.5502 78.2653 53.5502 78.1954C53.5502 78.081 53.6011 77.9698 53.7028 77.8618C53.8045 77.7474 53.9411 77.6902 54.1127 77.6902ZM60.3144 82.209C60.3144 82.3742 60.2604 82.5141 60.1524 82.6285C60.0443 82.7365 59.9077 82.7905 59.7424 82.7905C59.5772 82.7905 59.4405 82.7365 59.3325 82.6285C59.2244 82.5141 59.1704 82.3742 59.1704 82.209V78.2717C59.1704 78.1064 59.2244 77.9698 59.3325 77.8618C59.4405 77.7474 59.5772 77.6902 59.7424 77.6902C59.9077 77.6902 60.0443 77.7474 60.1524 77.8618C60.2604 77.9698 60.3144 78.1064 60.3144 78.2717V82.209ZM59.7329 77.0705C59.5168 77.0705 59.3643 77.0355 59.2753 76.9656C59.1863 76.8957 59.1418 76.7718 59.1418 76.5938V76.4127C59.1418 76.2284 59.1895 76.1044 59.2848 76.0409C59.3865 75.971 59.539 75.936 59.7424 75.936C59.9649 75.936 60.1206 75.971 60.2096 76.0409C60.2985 76.1108 60.343 76.2347 60.343 76.4127V76.5938C60.343 76.7781 60.2954 76.9052 60.2 76.9751C60.1047 77.0387 59.949 77.0705 59.7329 77.0705ZM63.7591 77.5948C64.1214 77.5948 64.436 77.633 64.7029 77.7092C64.9762 77.7855 65.1859 77.8935 65.3321 78.0334C65.4847 78.1668 65.5609 78.3289 65.5609 78.5196C65.5609 78.6467 65.5228 78.7674 65.4465 78.8818C65.3703 78.9899 65.259 79.0439 65.1129 79.0439C65.0112 79.0439 64.9254 79.0312 64.8555 79.0058C64.7919 78.974 64.7347 78.9359 64.6839 78.8914C64.633 78.8469 64.5726 78.8056 64.5027 78.7674C64.4392 78.7293 64.3406 78.7007 64.2072 78.6816C64.0801 78.6562 63.9847 78.6435 63.9212 78.6435C63.597 78.6435 63.3206 78.7134 63.0918 78.8532C62.8693 78.9931 62.6977 79.1837 62.577 79.4252C62.4562 79.6604 62.3958 79.9337 62.3958 80.2451C62.3958 80.5502 62.4562 80.8235 62.577 81.065C62.7041 81.3001 62.8757 81.4876 63.0918 81.6275C63.3142 81.7673 63.5684 81.8372 63.8544 81.8372C64.0133 81.8372 64.15 81.8277 64.2644 81.8086C64.3788 81.7895 64.4741 81.7609 64.5504 81.7228C64.6394 81.6719 64.7188 81.6179 64.7887 81.5607C64.8586 81.5035 64.9635 81.4749 65.1033 81.4749C65.2686 81.4749 65.3957 81.5289 65.4847 81.637C65.5736 81.7387 65.6181 81.8658 65.6181 82.0183C65.6181 82.1772 65.5291 82.3234 65.3512 82.4569C65.1732 82.584 64.9381 82.6888 64.6457 82.7715C64.3597 82.8477 64.0483 82.8859 63.7114 82.8859C63.2094 82.8859 62.774 82.7715 62.4054 82.5427C62.0367 82.3075 61.7507 81.9897 61.5474 81.5893C61.3503 81.1889 61.2518 80.7408 61.2518 80.2451C61.2518 79.7239 61.3567 79.2663 61.5664 78.8723C61.7825 78.4719 62.0781 78.1605 62.453 77.938C62.8344 77.7092 63.2697 77.5948 63.7591 77.5948ZM67.5203 82.209C67.5203 82.3742 67.4663 82.5141 67.3583 82.6285C67.2502 82.7365 67.1136 82.7905 66.9483 82.7905C66.7831 82.7905 66.6464 82.7365 66.5384 82.6285C66.4304 82.5141 66.3763 82.3742 66.3763 82.209V78.2717C66.3763 78.1064 66.4304 77.9698 66.5384 77.8618C66.6464 77.7474 66.7831 77.6902 66.9483 77.6902C67.1136 77.6902 67.2502 77.7474 67.3583 77.8618C67.4663 77.9698 67.5203 78.1064 67.5203 78.2717V82.209ZM66.9388 77.0705C66.7227 77.0705 66.5702 77.0355 66.4812 76.9656C66.3922 76.8957 66.3477 76.7718 66.3477 76.5938V76.4127C66.3477 76.2284 66.3954 76.1044 66.4907 76.0409C66.5924 75.971 66.745 75.936 66.9483 75.936C67.1708 75.936 67.3265 75.971 67.4155 76.0409C67.5045 76.1108 67.5489 76.2347 67.5489 76.4127V76.5938C67.5489 76.7781 67.5013 76.9052 67.4059 76.9751C67.3106 77.0387 67.1549 77.0705 66.9388 77.0705ZM71.4226 77.5948C71.8929 77.5948 72.2489 77.6933 72.4904 77.8904C72.7382 78.0874 72.9067 78.3511 72.9956 78.6816C73.091 79.0058 73.1386 79.368 73.1386 79.7684V82.209C73.1386 82.3742 73.0846 82.5141 72.9766 82.6285C72.8685 82.7365 72.7319 82.7905 72.5666 82.7905C72.4014 82.7905 72.2647 82.7365 72.1567 82.6285C72.0487 82.5141 71.9946 82.3742 71.9946 82.209V79.7684C71.9946 79.5587 71.966 79.3712 71.9088 79.206C71.858 79.0344 71.7627 78.8977 71.6228 78.796C71.483 78.6943 71.2828 78.6435 71.0222 78.6435C70.768 78.6435 70.5519 78.6943 70.374 78.796C70.2024 78.8977 70.0689 79.0344 69.9735 79.206C69.8846 79.3712 69.8401 79.5587 69.8401 79.7684V82.209C69.8401 82.3742 69.7861 82.5141 69.678 82.6285C69.57 82.7365 69.4333 82.7905 69.2681 82.7905C69.1028 82.7905 68.9662 82.7365 68.8581 82.6285C68.7501 82.5141 68.6961 82.3742 68.6961 82.209V78.2717C68.6961 78.1064 68.7501 77.9698 68.8581 77.8618C68.9662 77.7474 69.1028 77.6902 69.2681 77.6902C69.4333 77.6902 69.57 77.7474 69.678 77.8618C69.7861 77.9698 69.8401 78.1064 69.8401 78.2717V78.6816L69.6971 78.653C69.7543 78.545 69.8369 78.4306 69.9449 78.3098C70.053 78.1827 70.1801 78.0651 70.3263 77.9571C70.4725 77.849 70.6377 77.7632 70.822 77.6997C71.0063 77.6298 71.2065 77.5948 71.4226 77.5948ZM76.4916 77.5948C76.7585 77.5948 77.0032 77.6361 77.2256 77.7188C77.4481 77.8014 77.6388 77.9062 77.7977 78.0334C77.9629 78.1605 78.09 78.2908 78.179 78.4242C78.2743 78.5513 78.322 78.6594 78.322 78.7484L78.0741 78.8723V78.1764C78.0741 78.0111 78.1281 77.8745 78.2362 77.7664C78.3442 77.652 78.4809 77.5948 78.6461 77.5948C78.8114 77.5948 78.948 77.6488 79.0561 77.7569C79.1641 77.8649 79.2181 78.0048 79.2181 78.1764V82.4187C79.2181 82.9717 79.0974 83.4134 78.8559 83.7439C78.6207 84.0807 78.3093 84.3222 77.9216 84.4684C77.5339 84.6209 77.1176 84.6972 76.6727 84.6972C76.5456 84.6972 76.3804 84.6813 76.177 84.6495C75.9736 84.6178 75.7797 84.5796 75.5954 84.5351C75.4111 84.4907 75.2713 84.4493 75.176 84.4112C74.9853 84.3286 74.8518 84.2237 74.7756 84.0966C74.7056 83.9758 74.6929 83.8456 74.7374 83.7057C74.7946 83.5214 74.8868 83.3943 75.0139 83.3244C75.141 83.2608 75.2745 83.2545 75.4143 83.3053C75.4779 83.3244 75.5827 83.3625 75.7289 83.4197C75.8751 83.4769 76.034 83.5278 76.2056 83.5723C76.3835 83.6231 76.5392 83.6485 76.6727 83.6485C77.1494 83.6485 77.5021 83.5532 77.7309 83.3625C77.9597 83.1719 78.0741 82.9081 78.0741 82.5713V81.7419L78.1885 81.8277C78.1885 81.9103 78.144 82.012 78.0551 82.1327C77.9724 82.2471 77.8549 82.3615 77.7023 82.4759C77.5561 82.5903 77.3814 82.6888 77.178 82.7715C76.9746 82.8477 76.7585 82.8859 76.5297 82.8859C76.0785 82.8859 75.6717 82.7746 75.3094 82.5522C74.9472 82.3234 74.6612 82.012 74.4514 81.6179C74.2417 81.2175 74.1368 80.7599 74.1368 80.2451C74.1368 79.7239 74.2417 79.2663 74.4514 78.8723C74.6612 78.4719 74.944 78.1605 75.2999 77.938C75.6558 77.7092 76.053 77.5948 76.4916 77.5948ZM76.6727 78.6435C76.3867 78.6435 76.1357 78.7134 75.9196 78.8532C75.7035 78.9931 75.5351 79.1837 75.4143 79.4252C75.2935 79.6667 75.2332 79.94 75.2332 80.2451C75.2332 80.5438 75.2935 80.8139 75.4143 81.0554C75.5351 81.297 75.7035 81.4876 75.9196 81.6275C76.1357 81.7673 76.3867 81.8372 76.6727 81.8372C76.9651 81.8372 77.2193 81.7673 77.4354 81.6275C77.6515 81.4876 77.8199 81.297 77.9407 81.0554C78.0614 80.8139 78.1218 80.5438 78.1218 80.2451C78.1218 79.94 78.0614 79.6667 77.9407 79.4252C77.8199 79.1837 77.6515 78.9931 77.4354 78.8532C77.2193 78.7134 76.9651 78.6435 76.6727 78.6435Z" fill="#565656"/>
<path d="M7.18987 89.5948C7.35511 89.5948 7.49176 89.6488 7.5998 89.7569C7.70785 89.8649 7.76187 90.0048 7.76187 90.1764V94.209C7.76187 94.3742 7.70785 94.5141 7.5998 94.6285C7.49176 94.7365 7.35511 94.7905 7.18987 94.7905C7.02462 94.7905 6.88798 94.7365 6.77993 94.6285C6.67189 94.5141 6.61786 94.3742 6.61786 94.209V93.7419L6.8276 93.8277C6.8276 93.9103 6.78311 94.012 6.69413 94.1327C6.60515 94.2471 6.48439 94.3615 6.33186 94.4759C6.17933 94.5903 5.99819 94.6888 5.78846 94.7715C5.58508 94.8477 5.36263 94.8859 5.12112 94.8859C4.68258 94.8859 4.28535 94.7746 3.92944 94.5522C3.57353 94.3234 3.2907 94.012 3.08097 93.6179C2.87759 93.2175 2.7759 92.7599 2.7759 92.2451C2.7759 91.7239 2.87759 91.2663 3.08097 90.8723C3.2907 90.4719 3.57035 90.1605 3.91991 89.938C4.26947 89.7092 4.65716 89.5948 5.08298 89.5948C5.35627 89.5948 5.60732 89.6361 5.83612 89.7188C6.06492 89.8014 6.26195 89.9062 6.42719 90.0334C6.5988 90.1605 6.72909 90.2908 6.81806 90.4242C6.9134 90.5513 6.96107 90.6594 6.96107 90.7484L6.61786 90.8723V90.1764C6.61786 90.0111 6.67189 89.8745 6.77993 89.7664C6.88798 89.652 7.02462 89.5948 7.18987 89.5948ZM5.26412 93.8372C5.54377 93.8372 5.78846 93.7673 5.99819 93.6275C6.20793 93.4876 6.36999 93.297 6.48439 93.0554C6.60515 92.8139 6.66553 92.5438 6.66553 92.2451C6.66553 91.94 6.60515 91.6667 6.48439 91.4252C6.36999 91.1837 6.20793 90.9931 5.99819 90.8532C5.78846 90.7134 5.54377 90.6435 5.26412 90.6435C4.99083 90.6435 4.74931 90.7134 4.53958 90.8532C4.32984 90.9931 4.1646 91.1837 4.04384 91.4252C3.92944 91.6667 3.87224 91.94 3.87224 92.2451C3.87224 92.5438 3.92944 92.8139 4.04384 93.0554C4.1646 93.297 4.32984 93.4876 4.53958 93.6275C4.74931 93.7673 4.99083 93.8372 5.26412 93.8372ZM9.05774 89.7855H11.3172C11.4697 89.7855 11.5968 89.8363 11.6985 89.938C11.8002 90.0397 11.851 90.1668 11.851 90.3194C11.851 90.4655 11.8002 90.5895 11.6985 90.6912C11.5968 90.7865 11.4697 90.8342 11.3172 90.8342H9.05774C8.90521 90.8342 8.7781 90.7833 8.67641 90.6816C8.57472 90.5799 8.52387 90.4528 8.52387 90.3003C8.52387 90.1541 8.57472 90.0334 8.67641 89.938C8.7781 89.8363 8.90521 89.7855 9.05774 89.7855ZM10.0778 88.5938C10.2431 88.5938 10.3765 88.651 10.4782 88.7654C10.5863 88.8735 10.6403 89.0101 10.6403 89.1753V93.4177C10.6403 93.5067 10.6562 93.5798 10.688 93.637C10.7261 93.6942 10.7738 93.7355 10.831 93.7609C10.8945 93.7863 10.9612 93.7991 11.0312 93.7991C11.1074 93.7991 11.1773 93.7863 11.2409 93.7609C11.3045 93.7291 11.3775 93.7133 11.4602 93.7133C11.5491 93.7133 11.6286 93.7546 11.6985 93.8372C11.7748 93.9198 11.8129 94.0342 11.8129 94.1804C11.8129 94.3583 11.7144 94.5045 11.5174 94.6189C11.3267 94.7333 11.1201 94.7905 10.8977 94.7905C10.7642 94.7905 10.6149 94.781 10.4496 94.7619C10.2907 94.7365 10.1382 94.6825 9.99202 94.5999C9.8522 94.5109 9.73462 94.3774 9.63928 94.1995C9.54395 94.0215 9.49628 93.7768 9.49628 93.4654V89.1753C9.49628 89.0101 9.5503 88.8735 9.65835 88.7654C9.77275 88.651 9.91257 88.5938 10.0778 88.5938ZM19.3581 89.6902C19.5234 89.6902 19.66 89.7474 19.7681 89.8618C19.8761 89.9698 19.9302 90.1064 19.9302 90.2717V94.3234C19.9302 94.9081 19.8189 95.3721 19.5965 95.7153C19.3804 96.0648 19.088 96.3159 18.7194 96.4684C18.3508 96.6209 17.9377 96.6972 17.4801 96.6972C17.2767 96.6972 17.0606 96.6813 16.8318 96.6495C16.603 96.6178 16.4155 96.5701 16.2693 96.5065C16.0787 96.4239 15.9452 96.3191 15.8689 96.1919C15.799 96.0712 15.7863 95.9409 15.8308 95.8011C15.888 95.6168 15.9801 95.4896 16.1073 95.4197C16.2344 95.3562 16.3678 95.3498 16.5077 95.4007C16.6093 95.4324 16.7428 95.4801 16.9081 95.5437C17.0733 95.6136 17.264 95.6485 17.4801 95.6485C17.7724 95.6485 18.0139 95.6072 18.2046 95.5246C18.4016 95.4483 18.5478 95.3149 18.6431 95.1242C18.7448 94.9399 18.7957 94.6857 18.7957 94.3615V93.7228L18.9959 93.9516C18.8878 94.1613 18.7512 94.3361 18.5859 94.4759C18.4271 94.6094 18.2364 94.7111 18.0139 94.781C17.7915 94.8509 17.5373 94.8859 17.2513 94.8859C16.9144 94.8859 16.6189 94.8096 16.3647 94.6571C16.1168 94.4982 15.9229 94.2821 15.7831 94.0088C15.6433 93.7291 15.5734 93.4114 15.5734 93.0554V90.2717C15.5734 90.1064 15.6274 89.9698 15.7355 89.8618C15.8435 89.7474 15.9801 89.6902 16.1454 89.6902C16.3106 89.6902 16.4473 89.7474 16.5553 89.8618C16.6634 89.9698 16.7174 90.1064 16.7174 90.2717V92.7122C16.7174 93.1254 16.8064 93.4177 16.9843 93.5893C17.1686 93.7546 17.4229 93.8372 17.747 93.8372C17.9694 93.8372 18.1569 93.7959 18.3095 93.7133C18.462 93.6243 18.5796 93.4972 18.6622 93.3319C18.7448 93.1603 18.7861 92.9538 18.7861 92.7122V90.2717C18.7861 90.1064 18.8402 89.9698 18.9482 89.8618C19.0563 89.7474 19.1929 89.6902 19.3581 89.6902ZM26.07 92.2451C26.07 92.7663 25.9524 93.227 25.7172 93.6275C25.4884 94.0215 25.177 94.3297 24.783 94.5522C24.3953 94.7746 23.9599 94.8859 23.4769 94.8859C22.9939 94.8859 22.5553 94.7746 22.1613 94.5522C21.7736 94.3297 21.4622 94.0215 21.227 93.6275C20.9982 93.227 20.8838 92.7663 20.8838 92.2451C20.8838 91.7239 20.9982 91.2663 21.227 90.8723C21.4622 90.4719 21.7736 90.1605 22.1613 89.938C22.5553 89.7092 22.9939 89.5948 23.4769 89.5948C23.9599 89.5948 24.3953 89.7092 24.783 89.938C25.177 90.1605 25.4884 90.4719 25.7172 90.8723C25.9524 91.2663 26.07 91.7239 26.07 92.2451ZM24.926 92.2451C24.926 91.921 24.8592 91.6413 24.7258 91.4062C24.5986 91.1647 24.4239 90.9772 24.2014 90.8437C23.9853 90.7102 23.7438 90.6435 23.4769 90.6435C23.2099 90.6435 22.9653 90.7102 22.7428 90.8437C22.5267 90.9772 22.3519 91.1647 22.2185 91.4062C22.0914 91.6413 22.0278 91.921 22.0278 92.2451C22.0278 92.5629 22.0914 92.8425 22.2185 93.084C22.3519 93.3192 22.5267 93.5035 22.7428 93.637C22.9653 93.7705 23.2099 93.8372 23.4769 93.8372C23.7438 93.8372 23.9853 93.7705 24.2014 93.637C24.4239 93.5035 24.5986 93.3192 24.7258 93.084C24.8592 92.8425 24.926 92.5629 24.926 92.2451ZM30.856 89.6902C31.0212 89.6902 31.1579 89.7474 31.2659 89.8618C31.3739 89.9698 31.428 90.1064 31.428 90.2717V92.6932C31.428 93.3669 31.2405 93.9007 30.8655 94.2948C30.4905 94.6888 29.9503 94.8859 29.2448 94.8859C28.5393 94.8859 27.9991 94.6888 27.6241 94.2948C27.2555 93.9007 27.0712 93.3669 27.0712 92.6932V90.2717C27.0712 90.1064 27.1252 89.9698 27.2333 89.8618C27.3413 89.7474 27.478 89.6902 27.6432 89.6902C27.8084 89.6902 27.9451 89.7474 28.0531 89.8618C28.1612 89.9698 28.2152 90.1064 28.2152 90.2717V92.6932C28.2152 93.0809 28.301 93.37 28.4726 93.5607C28.6442 93.745 28.9016 93.8372 29.2448 93.8372C29.5944 93.8372 29.855 93.745 30.0266 93.5607C30.1982 93.37 30.284 93.0809 30.284 92.6932V90.2717C30.284 90.1064 30.338 89.9698 30.446 89.8618C30.5541 89.7474 30.6907 89.6902 30.856 89.6902ZM33.2385 94.7905C33.0733 94.7905 32.9366 94.7365 32.8286 94.6285C32.7205 94.5141 32.6665 94.3742 32.6665 94.209V90.2717C32.6665 90.1064 32.7205 89.9698 32.8286 89.8618C32.9366 89.7474 33.0733 89.6902 33.2385 89.6902C33.4037 89.6902 33.5404 89.7474 33.6484 89.8618C33.7565 89.9698 33.8105 90.1064 33.8105 90.2717V91.1678L33.7438 90.5291C33.8137 90.3766 33.9027 90.2431 34.0107 90.1287C34.1251 90.0079 34.2522 89.9094 34.392 89.8332C34.5319 89.7505 34.6812 89.6902 34.8401 89.652C34.999 89.6139 35.1579 89.5948 35.3168 89.5948C35.5074 89.5948 35.6663 89.6488 35.7935 89.7569C35.9269 89.8649 35.9937 89.992 35.9937 90.1382C35.9937 90.348 35.9396 90.5005 35.8316 90.5958C35.7235 90.6848 35.606 90.7293 35.4788 90.7293C35.3581 90.7293 35.2469 90.707 35.1452 90.6626C35.0498 90.6181 34.9386 90.5958 34.8115 90.5958C34.6971 90.5958 34.5795 90.6244 34.4588 90.6816C34.3444 90.7325 34.2363 90.8151 34.1346 90.9295C34.0393 91.0439 33.9599 91.1869 33.8963 91.3585C33.8391 91.5237 33.8105 91.7208 33.8105 91.9496V94.209C33.8105 94.3742 33.7565 94.5141 33.6484 94.6285C33.5404 94.7365 33.4037 94.7905 33.2385 94.7905ZM43.6477 87.7358C43.813 87.7358 43.9496 87.7898 44.0577 87.8979C44.1657 88.0059 44.2197 88.1457 44.2197 88.3173V94.209C44.2197 94.3742 44.1657 94.5141 44.0577 94.6285C43.9496 94.7365 43.813 94.7905 43.6477 94.7905C43.4825 94.7905 43.3458 94.7365 43.2378 94.6285C43.1297 94.5141 43.0757 94.3742 43.0757 94.209V93.7419L43.2854 93.8277C43.2854 93.9103 43.241 94.012 43.152 94.1327C43.063 94.2471 42.9422 94.3615 42.7897 94.4759C42.6372 94.5903 42.456 94.6888 42.2463 94.7715C42.0429 94.8477 41.8205 94.8859 41.579 94.8859C41.1404 94.8859 40.7432 94.7746 40.3873 94.5522C40.0314 94.3234 39.7485 94.012 39.5388 93.6179C39.3354 93.2175 39.2337 92.7599 39.2337 92.2451C39.2337 91.7239 39.3354 91.2663 39.5388 90.8723C39.7485 90.4719 40.0282 90.1605 40.3778 89.938C40.7273 89.7092 41.115 89.5948 41.5408 89.5948C41.8141 89.5948 42.0652 89.6361 42.294 89.7188C42.5228 89.8014 42.7198 89.9062 42.885 90.0334C43.0566 90.1605 43.1869 90.2908 43.2759 90.4242C43.3712 90.5513 43.4189 90.6594 43.4189 90.7484L43.0757 90.8723V88.3173C43.0757 88.1521 43.1297 88.0155 43.2378 87.9074C43.3458 87.793 43.4825 87.7358 43.6477 87.7358ZM41.722 93.8372C42.0016 93.8372 42.2463 93.7673 42.456 93.6275C42.6658 93.4876 42.8278 93.297 42.9422 93.0554C43.063 92.8139 43.1234 92.5438 43.1234 92.2451C43.1234 91.94 43.063 91.6667 42.9422 91.4252C42.8278 91.1837 42.6658 90.9931 42.456 90.8532C42.2463 90.7134 42.0016 90.6435 41.722 90.6435C41.4487 90.6435 41.2072 90.7134 40.9974 90.8532C40.7877 90.9931 40.6224 91.1837 40.5017 91.4252C40.3873 91.6667 40.3301 91.94 40.3301 92.2451C40.3301 92.5438 40.3873 92.8139 40.5017 93.0554C40.6224 93.297 40.7877 93.4876 40.9974 93.6275C41.2072 93.7673 41.4487 93.8372 41.722 93.8372ZM50.4062 92.2451C50.4062 92.7663 50.2887 93.227 50.0535 93.6275C49.8247 94.0215 49.5133 94.3297 49.1192 94.5522C48.7315 94.7746 48.2962 94.8859 47.8131 94.8859C47.3301 94.8859 46.8916 94.7746 46.4975 94.5522C46.1098 94.3297 45.7984 94.0215 45.5633 93.6275C45.3345 93.227 45.2201 92.7663 45.2201 92.2451C45.2201 91.7239 45.3345 91.2663 45.5633 90.8723C45.7984 90.4719 46.1098 90.1605 46.4975 89.938C46.8916 89.7092 47.3301 89.5948 47.8131 89.5948C48.2962 89.5948 48.7315 89.7092 49.1192 89.938C49.5133 90.1605 49.8247 90.4719 50.0535 90.8723C50.2887 91.2663 50.4062 91.7239 50.4062 92.2451ZM49.2622 92.2451C49.2622 91.921 49.1955 91.6413 49.062 91.4062C48.9349 91.1647 48.7601 90.9772 48.5377 90.8437C48.3216 90.7102 48.0801 90.6435 47.8131 90.6435C47.5462 90.6435 47.3015 90.7102 47.0791 90.8437C46.863 90.9772 46.6882 91.1647 46.5547 91.4062C46.4276 91.6413 46.3641 91.921 46.3641 92.2451C46.3641 92.5629 46.4276 92.8425 46.5547 93.084C46.6882 93.3192 46.863 93.5035 47.0791 93.637C47.3015 93.7705 47.5462 93.8372 47.8131 93.8372C48.0801 93.8372 48.3216 93.7705 48.5377 93.637C48.7601 93.5035 48.9349 93.3192 49.062 93.084C49.1955 92.8425 49.2622 92.5629 49.2622 92.2451ZM56.3553 92.2451C56.3553 92.7663 56.2377 93.227 56.0026 93.6275C55.7738 94.0215 55.4623 94.3297 55.0683 94.5522C54.6806 94.7746 54.2452 94.8859 53.7622 94.8859C53.2792 94.8859 52.8407 94.7746 52.4466 94.5522C52.0589 94.3297 51.7475 94.0215 51.5123 93.6275C51.2835 93.227 51.1691 92.7663 51.1691 92.2451C51.1691 91.7239 51.2835 91.2663 51.5123 90.8723C51.7475 90.4719 52.0589 90.1605 52.4466 89.938C52.8407 89.7092 53.2792 89.5948 53.7622 89.5948C54.2452 89.5948 54.6806 89.7092 55.0683 89.938C55.4623 90.1605 55.7738 90.4719 56.0026 90.8723C56.2377 91.2663 56.3553 91.7239 56.3553 92.2451ZM55.2113 92.2451C55.2113 91.921 55.1446 91.6413 55.0111 91.4062C54.884 91.1647 54.7092 90.9772 54.4868 90.8437C54.2707 90.7102 54.0292 90.6435 53.7622 90.6435C53.4953 90.6435 53.2506 90.7102 53.0281 90.8437C52.8121 90.9772 52.6373 91.1647 52.5038 91.4062C52.3767 91.6413 52.3131 91.921 52.3131 92.2451C52.3131 92.5629 52.3767 92.8425 52.5038 93.084C52.6373 93.3192 52.8121 93.5035 53.0281 93.637C53.2506 93.7705 53.4953 93.8372 53.7622 93.8372C54.0292 93.8372 54.2707 93.7705 54.4868 93.637C54.7092 93.5035 54.884 93.3192 55.0111 93.084C55.1446 92.8425 55.2113 92.5629 55.2113 92.2451ZM57.9285 94.7905C57.7633 94.7905 57.6266 94.7365 57.5186 94.6285C57.4106 94.5141 57.3565 94.3742 57.3565 94.209V90.2717C57.3565 90.1064 57.4106 89.9698 57.5186 89.8618C57.6266 89.7474 57.7633 89.6902 57.9285 89.6902C58.0938 89.6902 58.2304 89.7474 58.3385 89.8618C58.4465 89.9698 58.5005 90.1064 58.5005 90.2717V91.1678L58.4338 90.5291C58.5037 90.3766 58.5927 90.2431 58.7007 90.1287C58.8151 90.0079 58.9423 89.9094 59.0821 89.8332C59.2219 89.7505 59.3713 89.6902 59.5302 89.652C59.689 89.6139 59.8479 89.5948 60.0068 89.5948C60.1975 89.5948 60.3564 89.6488 60.4835 89.7569C60.617 89.8649 60.6837 89.992 60.6837 90.1382C60.6837 90.348 60.6297 90.5005 60.5216 90.5958C60.4136 90.6848 60.296 90.7293 60.1689 90.7293C60.0481 90.7293 59.9369 90.707 59.8352 90.6626C59.7399 90.6181 59.6287 90.5958 59.5016 90.5958C59.3872 90.5958 59.2696 90.6244 59.1488 90.6816C59.0344 90.7325 58.9264 90.8151 58.8247 90.9295C58.7293 91.0439 58.6499 91.1869 58.5863 91.3585C58.5291 91.5237 58.5005 91.7208 58.5005 91.9496V94.209C58.5005 94.3742 58.4465 94.5141 58.3385 94.6285C58.2304 94.7365 58.0938 94.7905 57.9285 94.7905ZM63.8666 93.9993C63.803 93.9103 63.7744 93.7959 63.7808 93.6561C63.7871 93.5162 63.8698 93.3955 64.0287 93.2938C64.1303 93.2302 64.2384 93.2048 64.3528 93.2175C64.4672 93.2239 64.5784 93.2811 64.6865 93.3891C64.8708 93.5734 65.0646 93.7164 65.268 93.8181C65.4714 93.9198 65.7256 93.9707 66.0307 93.9707C66.126 93.9643 66.2309 93.9516 66.3453 93.9325C66.4597 93.9071 66.5582 93.8563 66.6408 93.78C66.7298 93.6974 66.7743 93.5734 66.7743 93.4082C66.7743 93.2684 66.7266 93.1571 66.6313 93.0745C66.5359 92.9919 66.4088 92.922 66.2499 92.8648C66.0974 92.8076 65.9258 92.7536 65.7351 92.7027C65.5381 92.6455 65.3347 92.582 65.125 92.512C64.9216 92.4421 64.7341 92.3532 64.5625 92.2451C64.3909 92.1307 64.2511 91.9813 64.1431 91.797C64.035 91.6127 63.981 91.3807 63.981 91.1011C63.981 90.7833 64.07 90.5132 64.2479 90.2908C64.4259 90.0683 64.6547 89.8967 64.9343 89.776C65.2203 89.6552 65.519 89.5948 65.8305 89.5948C66.0275 89.5948 66.234 89.6202 66.4501 89.6711C66.6662 89.7156 66.8728 89.7918 67.0698 89.8999C67.2668 90.0016 67.4321 90.1382 67.5655 90.3098C67.6355 90.4052 67.6768 90.5196 67.6895 90.653C67.7022 90.7865 67.6418 90.9073 67.5083 91.0153C67.413 91.0916 67.3018 91.1265 67.1747 91.1202C67.0476 91.1075 66.9427 91.063 66.8601 90.9867C66.752 90.8469 66.6059 90.7356 66.4215 90.653C66.2436 90.5704 66.037 90.5291 65.8019 90.5291C65.7065 90.5291 65.6017 90.5418 65.4873 90.5672C65.3792 90.5863 65.2839 90.634 65.2013 90.7102C65.1186 90.7801 65.0773 90.8945 65.0773 91.0534C65.0773 91.1996 65.125 91.3172 65.2203 91.4062C65.3157 91.4888 65.4428 91.5587 65.6017 91.6159C65.7669 91.6667 65.9417 91.7176 66.126 91.7684C66.3167 91.8193 66.5105 91.8797 66.7075 91.9496C66.9046 92.0195 67.0857 92.1116 67.2509 92.226C67.4162 92.3404 67.5497 92.4898 67.6513 92.6741C67.753 92.8521 67.8039 93.0809 67.8039 93.3605C67.8039 93.6847 67.7086 93.9611 67.5179 94.1899C67.3272 94.4187 67.0889 94.5935 66.8029 94.7143C66.5169 94.8287 66.2245 94.8859 65.9258 94.8859C65.5508 94.8859 65.1758 94.8223 64.8009 94.6952C64.4259 94.5617 64.1145 94.3297 63.8666 93.9993ZM68.8185 89.7855H71.0779C71.2304 89.7855 71.3575 89.8363 71.4592 89.938C71.5609 90.0397 71.6117 90.1668 71.6117 90.3194C71.6117 90.4655 71.5609 90.5895 71.4592 90.6912C71.3575 90.7865 71.2304 90.8342 71.0779 90.8342H68.8185C68.6659 90.8342 68.5388 90.7833 68.4371 90.6816C68.3354 90.5799 68.2846 90.4528 68.2846 90.3003C68.2846 90.1541 68.3354 90.0334 68.4371 89.938C68.5388 89.8363 68.6659 89.7855 68.8185 89.7855ZM69.8385 88.5938C70.0038 88.5938 70.1372 88.651 70.2389 88.7654C70.347 88.8735 70.401 89.0101 70.401 89.1753V93.4177C70.401 93.5067 70.4169 93.5798 70.4487 93.637C70.4868 93.6942 70.5345 93.7355 70.5917 93.7609C70.6552 93.7863 70.722 93.7991 70.7919 93.7991C70.8681 93.7991 70.938 93.7863 71.0016 93.7609C71.0652 93.7291 71.1382 93.7133 71.2209 93.7133C71.3098 93.7133 71.3893 93.7546 71.4592 93.8372C71.5355 93.9198 71.5736 94.0342 71.5736 94.1804C71.5736 94.3583 71.4751 94.5045 71.2781 94.6189C71.0874 94.7333 70.8808 94.7905 70.6584 94.7905C70.5249 94.7905 70.3756 94.781 70.2103 94.7619C70.0514 94.7365 69.8989 94.6825 69.7527 94.5999C69.6129 94.5109 69.4953 94.3774 69.4 94.1995C69.3047 94.0215 69.257 93.7768 69.257 93.4654V89.1753C69.257 89.0101 69.311 88.8735 69.4191 88.7654C69.5335 88.651 69.6733 88.5938 69.8385 88.5938ZM75.018 94.8859C74.4778 94.8859 74.0075 94.7746 73.607 94.5522C73.213 94.3234 72.9079 94.0151 72.6918 93.6275C72.4821 93.2398 72.3772 92.8012 72.3772 92.3118C72.3772 91.7398 72.4916 91.2536 72.7204 90.8532C72.9556 90.4465 73.2607 90.135 73.6356 89.919C74.0106 89.7029 74.4079 89.5948 74.8273 89.5948C75.1515 89.5948 75.4565 89.6616 75.7425 89.795C76.0349 89.9285 76.2923 90.1128 76.5147 90.348C76.7372 90.5768 76.912 90.8437 77.0391 91.1488C77.1725 91.4538 77.2393 91.778 77.2393 92.1212C77.2329 92.2737 77.1725 92.3976 77.0581 92.493C76.9437 92.5883 76.8103 92.636 76.6577 92.636H73.016L72.73 91.6826H76.2287L76.019 91.8733V91.6159C76.0063 91.4316 75.9396 91.2663 75.8188 91.1202C75.7044 90.974 75.5582 90.8596 75.3803 90.777C75.2087 90.688 75.0243 90.6435 74.8273 90.6435C74.6367 90.6435 74.4587 90.6689 74.2935 90.7198C74.1282 90.7706 73.9852 90.8564 73.8645 90.9772C73.7437 91.0979 73.6484 91.26 73.5784 91.4634C73.5085 91.6667 73.4736 91.9241 73.4736 92.2356C73.4736 92.5788 73.5435 92.8711 73.6833 93.1126C73.8295 93.3478 74.0138 93.5289 74.2363 93.6561C74.4651 93.7768 74.7066 93.8372 74.9608 93.8372C75.196 93.8372 75.3834 93.8181 75.5233 93.78C75.6631 93.7419 75.7743 93.6974 75.8569 93.6465C75.9459 93.5893 76.0254 93.5417 76.0953 93.5035C76.2097 93.4463 76.3177 93.4177 76.4194 93.4177C76.5592 93.4177 76.6736 93.4654 76.7626 93.5607C76.8579 93.6561 76.9056 93.7673 76.9056 93.8944C76.9056 94.066 76.8166 94.2217 76.6387 94.3615C76.4734 94.5013 76.2414 94.6253 75.9427 94.7333C75.644 94.835 75.3358 94.8859 75.018 94.8859ZM80.8796 89.5948C81.3244 89.5948 81.7217 89.7092 82.0712 89.938C82.4271 90.1605 82.7068 90.4687 82.9102 90.8628C83.1199 91.2568 83.2248 91.7144 83.2248 92.2356C83.2248 92.7567 83.1199 93.2175 82.9102 93.6179C82.7068 94.012 82.4303 94.3234 82.0808 94.5522C81.7376 94.7746 81.3499 94.8859 80.9177 94.8859C80.6635 94.8859 80.4251 94.8446 80.2027 94.7619C79.9802 94.6793 79.7832 94.5744 79.6116 94.4473C79.4464 94.3202 79.3161 94.1931 79.2207 94.066C79.1318 93.9325 79.0873 93.8213 79.0873 93.7323L79.3828 93.6084V96.1157C79.3828 96.2809 79.3288 96.4176 79.2207 96.5256C79.1127 96.64 78.976 96.6972 78.8108 96.6972C78.6456 96.6972 78.5089 96.6432 78.4009 96.5351C78.2928 96.4271 78.2388 96.2873 78.2388 96.1157V90.2717C78.2388 90.1064 78.2928 89.9698 78.4009 89.8618C78.5089 89.7474 78.6456 89.6902 78.8108 89.6902C78.976 89.6902 79.1127 89.7474 79.2207 89.8618C79.3288 89.9698 79.3828 90.1064 79.3828 90.2717V90.7388L79.2207 90.653C79.2207 90.5704 79.2652 90.4719 79.3542 90.3575C79.4432 90.2367 79.5639 90.1192 79.7165 90.0048C79.869 89.884 80.0438 89.7855 80.2408 89.7092C80.4442 89.633 80.6571 89.5948 80.8796 89.5948ZM80.7366 90.6435C80.4569 90.6435 80.2122 90.7134 80.0025 90.8532C79.7927 90.9931 79.6275 91.1837 79.5067 91.4252C79.3923 91.6604 79.3351 91.9305 79.3351 92.2356C79.3351 92.5343 79.3923 92.8076 79.5067 93.0554C79.6275 93.297 79.7927 93.4876 80.0025 93.6275C80.2122 93.7673 80.4569 93.8372 80.7366 93.8372C81.0162 93.8372 81.2577 93.7673 81.4611 93.6275C81.6708 93.4876 81.8329 93.297 81.9473 93.0554C82.0681 92.8076 82.1284 92.5343 82.1284 92.2356C82.1284 91.9305 82.0681 91.6604 81.9473 91.4252C81.8329 91.1837 81.6708 90.9931 81.4611 90.8532C81.2577 90.7134 81.0162 90.6435 80.7366 90.6435Z" fill="#A7A622"/>
<path d="M64.41 13.0645L37.9859 2.77968C34.0417 1.2445 29.5997 3.19743 28.0646 7.14166L17.7797 33.5658C16.2445 37.51 18.1974 41.952 22.1417 43.4872L48.5658 53.772C52.5101 55.3072 56.952 53.3543 58.4872 49.41L68.772 22.9859C70.3072 19.0416 68.3543 14.5997 64.41 13.0645Z" fill="#565656"/>
<path d="M37.5709 51.8854C29.067 50.7608 22.978 45.1038 21.8109 37.2436C21.4042 34.5049 21.6019 30.2787 22.2583 27.6824C22.9061 25.1201 24.2251 22.2152 25.8213 19.8354C31.6015 11.2178 43.1826 5.60413 55.1708 5.60877L57.4451 5.60981L58.1522 6.67231C59.1665 8.19665 60.9421 11.8769 61.5307 13.6751C63.0783 23.373 62.7396 38.1108 55.8949 44.6367C52.9795 48.5692 47.5266 51.4722 42.1658 51.9456C40.0262 52.1344 39.3941 52.1261 37.5709 51.8853L37.5709 51.8854Z" fill="#D5D421"/>
<path d="M51.2184 39.7194C50.4698 39.7031 49.8123 39.6676 49.7573 39.6405C49.4954 39.5113 49.4439 39.3163 49.4229 38.3731L49.4028 37.4706H41.8033H34.2039V38.301C34.2039 39.199 34.1461 39.4513 33.9011 39.6229C33.7799 39.7078 33.5083 39.7195 31.6539 39.7195C29.6272 39.7195 29.5386 39.7143 29.3926 39.5999C29.1235 39.3883 29.1106 39.1599 29.1279 34.9252L29.1439 30.9903L29.7505 29.8517C30.0841 29.2254 30.357 28.6928 30.3568 28.6681C30.3567 28.6433 30.137 28.5531 29.8686 28.4677C29.2097 28.258 28.8282 28.0716 28.72 27.9064C28.639 27.7829 28.6398 27.7405 28.7279 27.4859C28.7818 27.3301 28.9241 27.0429 29.0441 26.8476C29.3666 26.3226 29.5232 26.2609 30.7502 26.1752C31.2989 26.1368 31.9609 26.0898 32.2213 26.0705L32.6947 26.0356L32.8987 25.7628C33.3288 25.1879 34.3161 24.0438 34.8549 23.4961C35.7664 22.5694 34.8542 22.6758 41.8867 22.6756L47.9421 22.6753L48.1933 22.8482C48.5538 23.0962 49.5757 24.1808 50.3902 25.1798L51.0914 26.0398L51.5692 26.0727C54.2764 26.2594 54.2097 26.2489 54.4872 26.5357C54.73 26.7867 55.0948 27.4891 55.0948 27.7057C55.0948 27.7987 55.0488 27.9207 54.9926 27.9769C54.8685 28.101 54.4386 28.2933 53.8816 28.4738C53.6537 28.5476 53.449 28.6247 53.4265 28.6451C53.3812 28.6863 54.0259 30.1133 54.2988 30.5759L54.4734 30.8718L54.5137 33.8013C54.5577 36.9965 54.5285 39.0483 54.4347 39.3506C54.3999 39.4628 54.3085 39.5775 54.2169 39.6238C54.0156 39.7257 52.9977 39.7581 51.2184 39.7194L51.2184 39.7194ZM35.9106 32.7402C35.8939 32.2018 35.8702 32.0653 35.7691 31.9264C35.5984 31.6919 35.1797 31.4989 34.6378 31.405C33.9354 31.2834 30.8408 30.9898 30.7906 31.0401C30.7663 31.0643 30.7454 31.4092 30.7441 31.8065C30.7421 32.4252 30.7588 32.5578 30.8601 32.7298C31.0699 33.0859 31.232 33.1617 31.9064 33.2193C32.5969 33.2781 34.4728 33.3647 35.3483 33.3781L35.9306 33.3874L35.9106 32.7402ZM49.9159 33.3261C51.8062 33.2452 52.4454 33.1828 52.6308 33.0613C52.9033 32.8828 53.0366 32.5012 53.0347 31.9054C53.0323 31.1552 52.9949 31.0198 52.7899 31.0198C52.5414 31.0198 50.3068 31.2449 49.5318 31.3479C48.6779 31.4615 48.3414 31.5701 48.0806 31.8161L47.8747 32.0102V32.6986V33.387H48.1849C48.3555 33.387 49.1345 33.3596 49.9159 33.3262V33.3261ZM50.3379 28.372C50.2867 27.9979 49.9156 27.2696 49.4272 26.5843C48.9291 25.8855 47.8058 24.7255 47.5067 24.6013C47.3137 24.521 46.6153 24.5099 41.8221 24.5099H36.3576L36.0945 24.6781C35.1375 25.29 33.4345 27.7197 33.4345 28.4732V28.6526H41.9055H50.3764L50.3379 28.372ZM30.9968 22.0081L30.5416 21.1038L29.606 20.6567L28.6705 20.2095L29.6173 19.7324L30.5642 19.2553L31.0061 18.3622C31.2491 17.871 31.4661 17.4887 31.4883 17.5126C31.5106 17.5365 31.7301 17.9424 31.9762 18.4146L32.4237 19.2732L33.3138 19.715C33.8033 19.9581 34.2039 20.1716 34.2039 20.1897C34.2039 20.2077 33.8021 20.4214 33.3111 20.6647L32.4184 21.1069L32.0122 21.9059C31.7888 22.3453 31.5713 22.7515 31.529 22.8086C31.4609 22.9003 31.3989 22.8065 30.9968 22.0081V22.0081ZM36.5855 19.9764L36.3048 19.4081L35.7158 19.1117L35.1268 18.8154L35.7158 18.5112L36.3048 18.2071L36.6007 17.6347L36.8966 17.0623L37.2138 17.6563L37.5309 18.2503L38.0867 18.5136C38.3924 18.6584 38.642 18.7951 38.6415 18.8175C38.641 18.8398 38.3858 18.976 38.0745 19.1202L37.5084 19.3824L37.2168 19.9636C37.0564 20.2832 36.9119 20.5447 36.8957 20.5447C36.8795 20.5447 36.7399 20.289 36.5855 19.9764Z" fill="#565656"/>
</svg>
