<svg width="131" height="43" viewBox="0 0 131 43" fill="none" xmlns="http://www.w3.org/2000/svg">
<path d="M12.932 20.2183C13.4886 20.2183 13.9099 20.3381 14.1959 20.5778C14.4896 20.8174 14.6906 21.1382 14.7988 21.5402C14.9071 21.9344 14.9612 22.3751 14.9612 22.8621V25.8305C14.9612 26.0315 14.8955 26.2016 14.7641 26.3407C14.6326 26.4721 14.4664 26.5378 14.2654 26.5378C14.0645 26.5378 13.8983 26.4721 13.7668 26.3407C13.6354 26.2016 13.5697 26.0315 13.5697 25.8305V22.8621C13.5697 22.607 13.5388 22.3789 13.477 22.1779C13.4151 21.9692 13.303 21.803 13.1407 21.6793C12.9784 21.5557 12.7464 21.4938 12.445 21.4938C12.1512 21.4938 11.9 21.5557 11.6913 21.6793C11.4825 21.803 11.3241 21.9692 11.2159 22.1779C11.1154 22.3789 11.0651 22.607 11.0651 22.8621V25.8305C11.0651 26.0315 10.9994 26.2016 10.868 26.3407C10.7366 26.4721 10.5704 26.5378 10.3694 26.5378C10.1684 26.5378 10.0022 26.4721 9.87078 26.3407C9.73937 26.2016 9.67366 26.0315 9.67366 25.8305V18.6645C9.67366 18.4635 9.73937 18.2973 9.87078 18.1659C10.0022 18.0268 10.1684 17.9572 10.3694 17.9572C10.5704 17.9572 10.7366 18.0268 10.868 18.1659C10.9994 18.2973 11.0651 18.4635 11.0651 18.6645V21.5402L10.8912 21.5054C10.9608 21.374 11.0574 21.2349 11.1811 21.088C11.3047 20.9334 11.4555 20.7904 11.6333 20.6589C11.8111 20.5275 12.0082 20.4232 12.2247 20.3459C12.4411 20.2608 12.6769 20.2183 12.932 20.2183ZM19.3899 26.6538C18.7328 26.6538 18.1608 26.5185 17.6738 26.2479C17.1945 25.9697 16.8234 25.5947 16.5606 25.1232C16.3055 24.6516 16.178 24.1182 16.178 23.523C16.178 22.8273 16.3171 22.2359 16.5954 21.7489C16.8814 21.2542 17.2525 20.8754 17.7086 20.6126C18.1647 20.3497 18.6478 20.2183 19.158 20.2183C19.5522 20.2183 19.9233 20.2995 20.2712 20.4618C20.6267 20.6242 20.9398 20.8483 21.2104 21.1344C21.4809 21.4126 21.6935 21.7373 21.8481 22.1084C22.0105 22.4794 22.0916 22.8737 22.0916 23.2911C22.0839 23.4766 22.0105 23.6274 21.8713 23.7433C21.7322 23.8593 21.5698 23.9173 21.3843 23.9173H16.9549L16.607 22.7577H20.8625L20.6074 22.9896V22.6765C20.592 22.4524 20.5108 22.2514 20.3639 22.0736C20.2248 21.8958 20.047 21.7566 19.8305 21.6562C19.6218 21.5479 19.3976 21.4938 19.158 21.4938C18.9261 21.4938 18.7096 21.5247 18.5086 21.5866C18.3077 21.6484 18.1337 21.7528 17.9869 21.8997C17.84 22.0465 17.724 22.2437 17.639 22.491C17.554 22.7384 17.5114 23.0515 17.5114 23.4303C17.5114 23.8477 17.5965 24.2033 17.7665 24.497C17.9443 24.7831 18.1685 25.0034 18.4391 25.158C18.7174 25.3048 19.0111 25.3783 19.3203 25.3783C19.6063 25.3783 19.8344 25.3551 20.0045 25.3087C20.1745 25.2623 20.3098 25.2082 20.4103 25.1464C20.5185 25.0768 20.6152 25.0188 20.7002 24.9724C20.8393 24.9029 20.9707 24.8681 21.0944 24.8681C21.2645 24.8681 21.4036 24.9261 21.5119 25.042C21.6278 25.158 21.6858 25.2933 21.6858 25.4479C21.6858 25.6566 21.5776 25.846 21.3611 26.016C21.1601 26.1861 20.878 26.3368 20.5147 26.4683C20.1513 26.5919 19.7764 26.6538 19.3899 26.6538ZM24.8147 25.8305C24.8147 26.0315 24.7452 26.2016 24.606 26.3407C24.4746 26.4721 24.3084 26.5378 24.1074 26.5378C23.9142 26.5378 23.7518 26.4721 23.6204 26.3407C23.489 26.2016 23.4233 26.0315 23.4233 25.8305V18.6645C23.4233 18.4635 23.489 18.2973 23.6204 18.1659C23.7596 18.0268 23.9296 17.9572 24.1306 17.9572C24.3316 17.9572 24.4939 18.0268 24.6176 18.1659C24.749 18.2973 24.8147 18.4635 24.8147 18.6645V25.8305ZM29.6446 20.2183C30.1857 20.2183 30.6689 20.3575 31.094 20.6358C31.5269 20.9063 31.8671 21.2812 32.1144 21.7605C32.3695 22.2398 32.4971 22.7964 32.4971 23.4303C32.4971 24.0641 32.3695 24.6246 32.1144 25.1116C31.8671 25.5909 31.5308 25.9697 31.1056 26.2479C30.6882 26.5185 30.2166 26.6538 29.691 26.6538C29.3818 26.6538 29.0919 26.6035 28.8213 26.503C28.5508 26.4025 28.3111 26.275 28.1024 26.1204C27.9014 25.9658 27.743 25.8112 27.627 25.6566C27.5188 25.4942 27.4647 25.359 27.4647 25.2507L27.8241 25.1V28.1496C27.8241 28.3506 27.7584 28.5168 27.627 28.6482C27.4956 28.7873 27.3294 28.8569 27.1284 28.8569C26.9274 28.8569 26.7612 28.7912 26.6298 28.6598C26.4984 28.5284 26.4327 28.3583 26.4327 28.1496V21.0416C26.4327 20.8406 26.4984 20.6744 26.6298 20.543C26.7612 20.4038 26.9274 20.3343 27.1284 20.3343C27.3294 20.3343 27.4956 20.4038 27.627 20.543C27.7584 20.6744 27.8241 20.8406 27.8241 21.0416V21.6098L27.627 21.5054C27.627 21.4049 27.6811 21.2851 27.7893 21.146C27.8976 20.9991 28.0444 20.8561 28.23 20.7169C28.4155 20.57 28.6281 20.4502 28.8677 20.3575C29.1151 20.2647 29.374 20.2183 29.6446 20.2183ZM29.4707 21.4938C29.1305 21.4938 28.8329 21.5788 28.5778 21.7489C28.3227 21.919 28.1217 22.1509 27.9749 22.4446C27.8357 22.7307 27.7661 23.0592 27.7661 23.4303C27.7661 23.7936 27.8357 24.126 27.9749 24.4275C28.1217 24.7212 28.3227 24.9531 28.5778 25.1232C28.8329 25.2933 29.1305 25.3783 29.4707 25.3783C29.8108 25.3783 30.1046 25.2933 30.3519 25.1232C30.607 24.9531 30.8041 24.7212 30.9433 24.4275C31.0902 24.126 31.1636 23.7936 31.1636 23.4303C31.1636 23.0592 31.0902 22.7307 30.9433 22.4446C30.8041 22.1509 30.607 21.919 30.3519 21.7489C30.1046 21.5788 29.8108 21.4938 29.4707 21.4938ZM40.5783 25.9001C40.3232 25.9001 40.0835 25.8421 39.8594 25.7261C39.6352 25.6025 39.4651 25.4324 39.3492 25.2159C39.2332 24.9995 39.1984 24.756 39.2448 24.4854L39.3376 23.9636L39.4999 24.3347C39.3839 24.7521 39.2177 25.0768 39.0013 25.3087C38.7926 25.5329 38.5607 25.6875 38.3056 25.7725C38.0505 25.8576 37.7954 25.9001 37.5403 25.9001C37.2543 25.9001 36.976 25.8228 36.7054 25.6682C36.4426 25.5136 36.2261 25.2933 36.0561 25.0072C35.8937 24.7212 35.8126 24.3811 35.8126 23.9868C35.8126 23.6235 35.8821 23.2486 36.0213 22.8621C36.1682 22.4678 36.3653 22.1006 36.6126 21.7605C36.8677 21.4204 37.1615 21.146 37.4939 20.9372C37.834 20.7285 38.1974 20.6242 38.5839 20.6242C38.9163 20.6242 39.21 20.7401 39.4651 20.972C39.7202 21.2039 39.8632 21.5286 39.8941 21.946L39.5811 22.6997L39.8246 21.1228C39.84 21.0145 39.898 20.9102 39.9985 20.8097C40.099 20.7092 40.2536 20.6589 40.4623 20.6589C40.7329 20.6589 40.9107 20.7208 40.9957 20.8445C41.0885 20.9604 41.1155 21.1266 41.0769 21.3431L40.6131 24.2651C40.5744 24.528 40.6053 24.7173 40.7058 24.8333C40.8063 24.9493 40.93 25.0072 41.0769 25.0072C41.3088 25.0072 41.5252 24.9183 41.7262 24.7405C41.9349 24.5627 42.1127 24.327 42.2596 24.0332C42.4142 23.7395 42.534 23.4109 42.6191 23.0476C42.7118 22.6843 42.7582 22.3171 42.7582 21.946C42.7582 21.4049 42.6307 20.9295 42.3756 20.5198C42.1205 20.1101 41.7571 19.7893 41.2856 19.5574C40.8218 19.3255 40.2729 19.2095 39.639 19.2095C38.8969 19.2095 38.2051 19.3216 37.5635 19.5458C36.9296 19.7622 36.3691 20.083 35.8821 20.5082C35.4029 20.9334 35.0279 21.4513 34.7574 22.062C34.4868 22.6727 34.3515 23.3684 34.3515 24.1492C34.3515 24.5666 34.4134 24.9763 34.5371 25.3783C34.6685 25.7725 34.8695 26.132 35.14 26.4567C35.4106 26.7813 35.7623 27.0364 36.1952 27.222C36.6281 27.4152 37.1499 27.5118 37.7606 27.5118C38.1858 27.5118 38.5491 27.4809 38.8506 27.4191C39.152 27.365 39.4226 27.2838 39.6622 27.1756C39.9019 27.0751 40.1377 26.9591 40.3696 26.8277C40.501 26.7504 40.6169 26.7349 40.7174 26.7813C40.8179 26.8354 40.8914 26.9243 40.9377 27.048C41.0305 27.2799 40.8952 27.4887 40.5319 27.6742C40.1995 27.8442 39.8168 28.0104 39.3839 28.1728C38.9511 28.3351 38.4099 28.4163 37.7606 28.4163C36.9798 28.4163 36.315 28.2926 35.7662 28.0452C35.2173 27.8056 34.769 27.4809 34.4211 27.0712C34.081 26.6615 33.8297 26.2054 33.6674 25.703C33.5051 25.1928 33.4239 24.6748 33.4239 24.1492C33.4239 23.2447 33.5824 22.433 33.8993 21.7141C34.224 20.9952 34.6685 20.3807 35.2328 19.8705C35.8048 19.3603 36.4658 18.9737 37.2156 18.7109C37.9654 18.4404 38.7733 18.3051 39.639 18.3051C40.5203 18.3051 41.2624 18.4713 41.8654 18.8037C42.4683 19.1283 42.9206 19.569 43.222 20.1256C43.5312 20.6744 43.6859 21.2812 43.6859 21.946C43.6859 22.4176 43.6163 22.8891 43.4771 23.3607C43.338 23.8245 43.1331 24.2497 42.8626 24.6362C42.592 25.015 42.2635 25.3203 41.877 25.5522C41.4982 25.7841 41.0653 25.9001 40.5783 25.9001ZM37.8997 24.8565C38.1007 24.8565 38.2824 24.8101 38.4447 24.7173C38.6148 24.6169 38.7617 24.497 38.8853 24.3579C39.009 24.211 39.1134 24.0603 39.1984 23.9057C39.2835 23.7433 39.3414 23.6042 39.3724 23.4882C39.5347 23.009 39.5927 22.6379 39.5463 22.3751C39.5076 22.1122 39.4033 21.9306 39.2332 21.8301C39.0631 21.7219 38.866 21.6677 38.6418 21.6677C38.4099 21.6677 38.1974 21.7412 38.0041 21.8881C37.8186 22.0349 37.6562 22.2243 37.5171 22.4562C37.3857 22.6881 37.2852 22.9394 37.2156 23.2099C37.146 23.4728 37.1112 23.724 37.1112 23.9636C37.1112 24.2574 37.1808 24.4816 37.32 24.6362C37.4668 24.7831 37.6601 24.8565 37.8997 24.8565ZM47.8123 26.6538C47.1552 26.6538 46.5832 26.5185 46.0962 26.2479C45.6169 25.9697 45.2458 25.5947 44.983 25.1232C44.7279 24.6516 44.6003 24.1182 44.6003 23.523C44.6003 22.8273 44.7395 22.2359 45.0178 21.7489C45.3038 21.2542 45.6749 20.8754 46.1309 20.6126C46.587 20.3497 47.0702 20.2183 47.5804 20.2183C47.9746 20.2183 48.3457 20.2995 48.6935 20.4618C49.0491 20.6242 49.3622 20.8483 49.6328 21.1344C49.9033 21.4126 50.1159 21.7373 50.2705 22.1084C50.4328 22.4794 50.514 22.8737 50.514 23.2911C50.5063 23.4766 50.4328 23.6274 50.2937 23.7433C50.1546 23.8593 49.9922 23.9173 49.8067 23.9173H45.3772L45.0294 22.7577H49.2849L49.0298 22.9896V22.6765C49.0143 22.4524 48.9332 22.2514 48.7863 22.0736C48.6472 21.8958 48.4694 21.7566 48.2529 21.6562C48.0442 21.5479 47.82 21.4938 47.5804 21.4938C47.3485 21.4938 47.132 21.5247 46.931 21.5866C46.73 21.6484 46.5561 21.7528 46.4092 21.8997C46.2624 22.0465 46.1464 22.2437 46.0614 22.491C45.9763 22.7384 45.9338 23.0515 45.9338 23.4303C45.9338 23.8477 46.0189 24.2033 46.1889 24.497C46.3667 24.7831 46.5909 25.0034 46.8615 25.158C47.1397 25.3048 47.4335 25.3783 47.7427 25.3783C48.0287 25.3783 48.2568 25.3551 48.4268 25.3087C48.5969 25.2623 48.7322 25.2082 48.8327 25.1464C48.9409 25.0768 49.0375 25.0188 49.1226 24.9724C49.2617 24.9029 49.3931 24.8681 49.5168 24.8681C49.6869 24.8681 49.826 24.9261 49.9342 25.042C50.0502 25.158 50.1082 25.2933 50.1082 25.4479C50.1082 25.6566 50 25.846 49.7835 26.016C49.5825 26.1861 49.3004 26.3368 48.937 26.4683C48.5737 26.5919 48.1988 26.6538 47.8123 26.6538ZM55.6838 25.2623C55.8693 25.2623 56.0239 25.3242 56.1476 25.4479C56.2713 25.5638 56.3331 25.7146 56.3331 25.9001C56.3331 26.0779 56.2713 26.2286 56.1476 26.3523C56.0239 26.476 55.8693 26.5378 55.6838 26.5378H51.95C51.7568 26.5378 51.6022 26.4683 51.4862 26.3291C51.3703 26.19 51.3162 26.0508 51.3239 25.9117C51.3316 25.7957 51.3471 25.6952 51.3703 25.6102C51.3935 25.5174 51.4514 25.4131 51.5442 25.2971L54.4315 21.5634L54.4083 21.7257H52.0544C51.8689 21.7257 51.7143 21.6639 51.5906 21.5402C51.4669 21.4165 51.4051 21.2619 51.4051 21.0764C51.4051 20.8986 51.4669 20.7517 51.5906 20.6358C51.7143 20.5121 51.8689 20.4502 52.0544 20.4502H55.6258C55.8036 20.4502 55.9543 20.5159 56.078 20.6474C56.2017 20.7788 56.2558 20.945 56.2403 21.146C56.2326 21.2233 56.2172 21.3006 56.194 21.3779C56.1785 21.4552 56.1283 21.5479 56.0432 21.6562L53.2023 25.3319V25.2623H55.6838ZM61.9496 20.3343C62.1506 20.3343 62.3168 20.4038 62.4482 20.543C62.5797 20.6744 62.6454 20.8406 62.6454 21.0416V25.9697C62.6454 26.6808 62.5101 27.2451 62.2395 27.6626C61.9767 28.0877 61.6211 28.3931 61.1727 28.5786C60.7244 28.7641 60.2219 28.8569 59.6653 28.8569C59.418 28.8569 59.1551 28.8376 58.8769 28.7989C58.5986 28.7603 58.3705 28.7023 58.1927 28.625C57.9608 28.5245 57.7985 28.397 57.7057 28.2424C57.6207 28.0955 57.6052 27.937 57.6593 27.7669C57.7289 27.5428 57.841 27.3882 57.9956 27.3031C58.1502 27.2258 58.3125 27.2181 58.4826 27.2799C58.6063 27.3186 58.7686 27.3766 58.9696 27.4539C59.1706 27.5389 59.4025 27.5814 59.6653 27.5814C60.0209 27.5814 60.3147 27.5312 60.5466 27.4307C60.7862 27.3379 60.964 27.1756 61.08 26.9437C61.2037 26.7195 61.2655 26.4103 61.2655 26.016V25.2391L61.509 25.5174C61.3776 25.7725 61.2114 25.9851 61.0104 26.1552C60.8172 26.3175 60.5852 26.4412 60.3147 26.5262C60.0441 26.6113 59.7349 26.6538 59.3871 26.6538C58.9773 26.6538 58.6179 26.561 58.3087 26.3755C58.0072 26.1822 57.7714 25.9194 57.6014 25.587C57.4313 25.2469 57.3463 24.8604 57.3463 24.4275V21.0416C57.3463 20.8406 57.412 20.6744 57.5434 20.543C57.6748 20.4038 57.841 20.3343 58.042 20.3343C58.243 20.3343 58.4092 20.4038 58.5406 20.543C58.672 20.6744 58.7377 20.8406 58.7377 21.0416V24.01C58.7377 24.5125 58.8459 24.8681 59.0624 25.0768C59.2866 25.2778 59.5958 25.3783 59.99 25.3783C60.2606 25.3783 60.4886 25.328 60.6741 25.2275C60.8597 25.1193 61.0027 24.9647 61.1032 24.7637C61.2037 24.555 61.2539 24.3038 61.2539 24.01V21.0416C61.2539 20.8406 61.3196 20.6744 61.451 20.543C61.5825 20.4038 61.7487 20.3343 61.9496 20.3343ZM63.6791 25.5754C63.6018 25.4672 63.567 25.328 63.5747 25.158C63.5825 24.9879 63.6829 24.841 63.8762 24.7173C63.9999 24.64 64.1313 24.6091 64.2705 24.6246C64.4096 24.6323 64.5449 24.7019 64.6763 24.8333C64.9005 25.0575 65.1362 25.2314 65.3836 25.3551C65.631 25.4788 65.9402 25.5406 66.3112 25.5406C66.4272 25.5329 66.5547 25.5174 66.6939 25.4942C66.833 25.4633 66.9529 25.4015 67.0534 25.3087C67.1616 25.2082 67.2157 25.0575 67.2157 24.8565C67.2157 24.6864 67.1577 24.5511 67.0418 24.4506C66.9258 24.3502 66.7712 24.2651 66.5779 24.1956C66.3924 24.126 66.1837 24.0603 65.9518 23.9984C65.7121 23.9289 65.4648 23.8516 65.2097 23.7665C64.9623 23.6815 64.7343 23.5733 64.5256 23.4418C64.3168 23.3027 64.1468 23.121 64.0154 22.8969C63.8839 22.6727 63.8182 22.3905 63.8182 22.0504C63.8182 21.6639 63.9265 21.3353 64.1429 21.0648C64.3593 20.7942 64.6376 20.5855 64.9778 20.4386C65.3256 20.2918 65.689 20.2183 66.0677 20.2183C66.3074 20.2183 66.5586 20.2492 66.8214 20.3111C67.0843 20.3652 67.3355 20.458 67.5751 20.5894C67.8148 20.7131 68.0158 20.8793 68.1781 21.088C68.2631 21.2039 68.3134 21.3431 68.3289 21.5054C68.3443 21.6677 68.2709 21.8146 68.1085 21.946C67.9926 22.0388 67.8573 22.0813 67.7027 22.0736C67.5481 22.0581 67.4205 22.004 67.32 21.9113C67.1886 21.7412 67.0108 21.6059 66.7867 21.5054C66.5702 21.4049 66.319 21.3547 66.033 21.3547C65.917 21.3547 65.7895 21.3701 65.6503 21.4011C65.5189 21.4242 65.4029 21.4822 65.3024 21.575C65.202 21.66 65.1517 21.7992 65.1517 21.9924C65.1517 22.1702 65.2097 22.3132 65.3256 22.4215C65.4416 22.5219 65.5962 22.607 65.7895 22.6765C65.9904 22.7384 66.203 22.8002 66.4272 22.8621C66.6591 22.9239 66.8949 22.9974 67.1345 23.0824C67.3742 23.1674 67.5945 23.2795 67.7955 23.4187C67.9964 23.5578 68.1588 23.7395 68.2825 23.9636C68.4062 24.1801 68.468 24.4584 68.468 24.7985C68.468 25.1928 68.352 25.529 68.1201 25.8073C67.8882 26.0856 67.5983 26.2982 67.2505 26.4451C66.9026 26.5842 66.547 26.6538 66.1837 26.6538C65.7276 26.6538 65.2715 26.5765 64.8154 26.4219C64.3593 26.2595 63.9806 25.9774 63.6791 25.5754ZM72.5545 26.6538C71.8974 26.6538 71.3254 26.5185 70.8384 26.2479C70.3591 25.9697 69.988 25.5947 69.7252 25.1232C69.4701 24.6516 69.3425 24.1182 69.3425 23.523C69.3425 22.8273 69.4817 22.2359 69.76 21.7489C70.046 21.2542 70.4171 20.8754 70.8731 20.6126C71.3292 20.3497 71.8124 20.2183 72.3226 20.2183C72.7168 20.2183 73.0879 20.2995 73.4357 20.4618C73.7913 20.6242 74.1044 20.8483 74.375 21.1344C74.6455 21.4126 74.8581 21.7373 75.0127 22.1084C75.175 22.4794 75.2562 22.8737 75.2562 23.2911C75.2485 23.4766 75.175 23.6274 75.0359 23.7433C74.8968 23.8593 74.7344 23.9173 74.5489 23.9173H70.1194L69.7716 22.7577H74.0271L73.772 22.9896V22.6765C73.7565 22.4524 73.6754 22.2514 73.5285 22.0736C73.3893 21.8958 73.2116 21.7566 72.9951 21.6562C72.7864 21.5479 72.5622 21.4938 72.3226 21.4938C72.0907 21.4938 71.8742 21.5247 71.6732 21.5866C71.4722 21.6484 71.2983 21.7528 71.1514 21.8997C71.0046 22.0465 70.8886 22.2437 70.8036 22.491C70.7185 22.7384 70.676 23.0515 70.676 23.4303C70.676 23.8477 70.7611 24.2033 70.9311 24.497C71.1089 24.7831 71.3331 25.0034 71.6037 25.158C71.8819 25.3048 72.1757 25.3783 72.4849 25.3783C72.7709 25.3783 72.999 25.3551 73.169 25.3087C73.3391 25.2623 73.4744 25.2082 73.5749 25.1464C73.6831 25.0768 73.7797 25.0188 73.8648 24.9724C74.0039 24.9029 74.1353 24.8681 74.259 24.8681C74.4291 24.8681 74.5682 24.9261 74.6764 25.042C74.7924 25.158 74.8504 25.2933 74.8504 25.4479C74.8504 25.6566 74.7421 25.846 74.5257 26.016C74.3247 26.1861 74.0426 26.3368 73.6792 26.4683C73.3159 26.5919 72.941 26.6538 72.5545 26.6538ZM77.1676 26.5378C76.9667 26.5378 76.8005 26.4721 76.669 26.3407C76.5376 26.2016 76.4719 26.0315 76.4719 25.8305V21.0416C76.4719 20.8406 76.5376 20.6744 76.669 20.543C76.8005 20.4038 76.9667 20.3343 77.1676 20.3343C77.3686 20.3343 77.5348 20.4038 77.6662 20.543C77.7977 20.6744 77.8634 20.8406 77.8634 21.0416V22.1316L77.7822 21.3547C77.8672 21.1691 77.9755 21.0068 78.1069 20.8677C78.246 20.7208 78.4006 20.601 78.5707 20.5082C78.7408 20.4077 78.9224 20.3343 79.1157 20.2879C79.3089 20.2415 79.5022 20.2183 79.6954 20.2183C79.9274 20.2183 80.1206 20.284 80.2752 20.4154C80.4376 20.5469 80.5187 20.7015 80.5187 20.8793C80.5187 21.1344 80.453 21.3199 80.3216 21.4358C80.1902 21.5441 80.0472 21.5982 79.8926 21.5982C79.7457 21.5982 79.6104 21.5711 79.4867 21.517C79.3708 21.4629 79.2355 21.4358 79.0809 21.4358C78.9417 21.4358 78.7987 21.4706 78.6519 21.5402C78.5127 21.602 78.3813 21.7025 78.2576 21.8417C78.1417 21.9808 78.045 22.1548 77.9677 22.3635C77.8982 22.5645 77.8634 22.8041 77.8634 23.0824V25.8305C77.8634 26.0315 77.7977 26.2016 77.6662 26.3407C77.5348 26.4721 77.3686 26.5378 77.1676 26.5378ZM82.3554 20.3343C82.5023 20.3343 82.6376 20.3729 82.7613 20.4502C82.8849 20.5198 82.9777 20.628 83.0395 20.7749L84.7441 24.671L84.489 24.7869L86.2283 20.7865C86.3597 20.4773 86.5646 20.3304 86.8428 20.3459C87.0361 20.3459 87.1907 20.4077 87.3067 20.5314C87.4303 20.6474 87.4922 20.7942 87.4922 20.972C87.4922 21.0261 87.4806 21.0841 87.4574 21.146C87.4419 21.2078 87.4226 21.2658 87.3994 21.3199L85.2311 26.0972C85.1074 26.3755 84.9103 26.5224 84.6397 26.5378C84.4928 26.561 84.3498 26.534 84.2107 26.4567C84.0793 26.3794 83.9788 26.2595 83.9092 26.0972L81.7525 21.3199C81.737 21.2812 81.7177 21.231 81.6945 21.1691C81.679 21.1073 81.6713 21.0339 81.6713 20.9488C81.6713 20.8097 81.7331 20.6744 81.8568 20.543C81.9805 20.4038 82.1467 20.3343 82.3554 20.3343ZM89.8985 25.8305C89.8985 26.0315 89.8328 26.2016 89.7014 26.3407C89.57 26.4721 89.4038 26.5378 89.2028 26.5378C89.0018 26.5378 88.8356 26.4721 88.7042 26.3407C88.5728 26.2016 88.5071 26.0315 88.5071 25.8305V21.0416C88.5071 20.8406 88.5728 20.6744 88.7042 20.543C88.8356 20.4038 89.0018 20.3343 89.2028 20.3343C89.4038 20.3343 89.57 20.4038 89.7014 20.543C89.8328 20.6744 89.8985 20.8406 89.8985 21.0416V25.8305ZM89.1912 19.5806C88.9284 19.5806 88.7428 19.5381 88.6346 19.453C88.5264 19.368 88.4723 19.2172 88.4723 19.0008V18.7805C88.4723 18.5563 88.5303 18.4056 88.6462 18.3283C88.7699 18.2432 88.9554 18.2007 89.2028 18.2007C89.4734 18.2007 89.6627 18.2432 89.771 18.3283C89.8792 18.4133 89.9333 18.564 89.9333 18.7805V19.0008C89.9333 19.225 89.8753 19.3796 89.7594 19.4646C89.6434 19.5419 89.454 19.5806 89.1912 19.5806ZM94.0883 20.2183C94.5289 20.2183 94.9115 20.2647 95.2362 20.3575C95.5686 20.4502 95.8237 20.5816 96.0015 20.7517C96.187 20.914 96.2798 21.1112 96.2798 21.3431C96.2798 21.4977 96.2334 21.6446 96.1407 21.7837C96.0479 21.9151 95.9126 21.9808 95.7348 21.9808C95.6111 21.9808 95.5068 21.9654 95.4217 21.9344C95.3444 21.8958 95.2749 21.8494 95.213 21.7953C95.1512 21.7412 95.0778 21.6909 94.9927 21.6446C94.9154 21.5982 94.7956 21.5634 94.6333 21.5402C94.4787 21.5093 94.3627 21.4938 94.2854 21.4938C93.8912 21.4938 93.5549 21.5788 93.2766 21.7489C93.006 21.919 92.7973 22.1509 92.6504 22.4446C92.5036 22.7307 92.4301 23.0631 92.4301 23.4418C92.4301 23.8129 92.5036 24.1453 92.6504 24.4391C92.805 24.7251 93.0138 24.9531 93.2766 25.1232C93.5472 25.2933 93.8564 25.3783 94.2042 25.3783C94.3975 25.3783 94.5637 25.3667 94.7028 25.3435C94.842 25.3203 94.9579 25.2855 95.0507 25.2391C95.1589 25.1773 95.2555 25.1116 95.3406 25.042C95.4256 24.9724 95.5532 24.9377 95.7232 24.9377C95.9242 24.9377 96.0788 25.0034 96.187 25.1348C96.2953 25.2585 96.3494 25.4131 96.3494 25.5986C96.3494 25.7919 96.2412 25.9697 96.0247 26.132C95.8083 26.2866 95.5222 26.4141 95.1666 26.5146C94.8188 26.6074 94.44 26.6538 94.0303 26.6538C93.4196 26.6538 92.8901 26.5146 92.4417 26.2363C91.9934 25.9503 91.6455 25.5638 91.3981 25.0768C91.1585 24.5898 91.0387 24.0448 91.0387 23.4418C91.0387 22.808 91.1662 22.2514 91.4213 21.7721C91.6842 21.2851 92.0436 20.9063 92.4997 20.6358C92.9635 20.3575 93.493 20.2183 94.0883 20.2183ZM100.275 26.6538C99.6177 26.6538 99.0457 26.5185 98.5587 26.2479C98.0794 25.9697 97.7083 25.5947 97.4455 25.1232C97.1904 24.6516 97.0629 24.1182 97.0629 23.523C97.0629 22.8273 97.202 22.2359 97.4803 21.7489C97.7663 21.2542 98.1374 20.8754 98.5935 20.6126C99.0495 20.3497 99.5327 20.2183 100.043 20.2183C100.437 20.2183 100.808 20.2995 101.156 20.4618C101.512 20.6242 101.825 20.8483 102.095 21.1344C102.366 21.4126 102.578 21.7373 102.733 22.1084C102.895 22.4794 102.977 22.8737 102.977 23.2911C102.969 23.4766 102.895 23.6274 102.756 23.7433C102.617 23.8593 102.455 23.9173 102.269 23.9173H97.8398L97.4919 22.7577H101.747L101.492 22.9896V22.6765C101.477 22.4524 101.396 22.2514 101.249 22.0736C101.11 21.8958 100.932 21.7566 100.715 21.6562C100.507 21.5479 100.283 21.4938 100.043 21.4938C99.811 21.4938 99.5945 21.5247 99.3935 21.5866C99.1926 21.6484 99.0186 21.7528 98.8717 21.8997C98.7249 22.0465 98.6089 22.2437 98.5239 22.491C98.4389 22.7384 98.3963 23.0515 98.3963 23.4303C98.3963 23.8477 98.4814 24.2033 98.6514 24.497C98.8292 24.7831 99.0534 25.0034 99.324 25.158C99.6023 25.3048 99.896 25.3783 100.205 25.3783C100.491 25.3783 100.719 25.3551 100.889 25.3087C101.059 25.2623 101.195 25.2082 101.295 25.1464C101.403 25.0768 101.5 25.0188 101.585 24.9724C101.724 24.9029 101.856 24.8681 101.979 24.8681C102.149 24.8681 102.289 24.9261 102.397 25.042C102.513 25.158 102.571 25.2933 102.571 25.4479C102.571 25.6566 102.462 25.846 102.246 26.016C102.045 26.1861 101.763 26.3368 101.4 26.4683C101.036 26.5919 100.661 26.6538 100.275 26.6538ZM104.807 26.5262C104.583 26.5262 104.409 26.4683 104.285 26.3523C104.169 26.2286 104.111 26.0547 104.111 25.8305V25.6334C104.111 25.4092 104.169 25.2391 104.285 25.1232C104.409 24.9995 104.583 24.9377 104.807 24.9377H104.958C105.182 24.9377 105.352 24.9995 105.468 25.1232C105.591 25.2391 105.653 25.4092 105.653 25.6334V25.8305C105.653 26.0547 105.591 26.2286 105.468 26.3523C105.352 26.4683 105.182 26.5262 104.958 26.5262H104.807ZM109.839 20.2183C110.28 20.2183 110.663 20.2647 110.987 20.3575C111.32 20.4502 111.575 20.5816 111.753 20.7517C111.938 20.914 112.031 21.1112 112.031 21.3431C112.031 21.4977 111.985 21.6446 111.892 21.7837C111.799 21.9151 111.664 21.9808 111.486 21.9808C111.362 21.9808 111.258 21.9654 111.173 21.9344C111.096 21.8958 111.026 21.8494 110.964 21.7953C110.902 21.7412 110.829 21.6909 110.744 21.6446C110.667 21.5982 110.547 21.5634 110.384 21.5402C110.23 21.5093 110.114 21.4938 110.037 21.4938C109.642 21.4938 109.306 21.5788 109.028 21.7489C108.757 21.919 108.549 22.1509 108.402 22.4446C108.255 22.7307 108.181 23.0631 108.181 23.4418C108.181 23.8129 108.255 24.1453 108.402 24.4391C108.556 24.7251 108.765 24.9531 109.028 25.1232C109.298 25.2933 109.608 25.3783 109.955 25.3783C110.149 25.3783 110.315 25.3667 110.454 25.3435C110.593 25.3203 110.709 25.2855 110.802 25.2391C110.91 25.1773 111.007 25.1116 111.092 25.042C111.177 24.9724 111.304 24.9377 111.474 24.9377C111.675 24.9377 111.83 25.0034 111.938 25.1348C112.046 25.2585 112.101 25.4131 112.101 25.5986C112.101 25.7919 111.992 25.9697 111.776 26.132C111.559 26.2866 111.273 26.4141 110.918 26.5146C110.57 26.6074 110.191 26.6538 109.782 26.6538C109.171 26.6538 108.641 26.5146 108.193 26.2363C107.745 25.9503 107.397 25.5638 107.149 25.0768C106.91 24.5898 106.79 24.0448 106.79 23.4418C106.79 22.808 106.917 22.2514 107.173 21.7721C107.435 21.2851 107.795 20.9063 108.251 20.6358C108.715 20.3575 109.244 20.2183 109.839 20.2183ZM119.122 23.4418C119.122 24.0757 118.979 24.6362 118.693 25.1232C118.415 25.6025 118.036 25.9774 117.557 26.2479C117.085 26.5185 116.556 26.6538 115.968 26.6538C115.381 26.6538 114.847 26.5185 114.368 26.2479C113.896 25.9774 113.518 25.6025 113.232 25.1232C112.953 24.6362 112.814 24.0757 112.814 23.4418C112.814 22.808 112.953 22.2514 113.232 21.7721C113.518 21.2851 113.896 20.9063 114.368 20.6358C114.847 20.3575 115.381 20.2183 115.968 20.2183C116.556 20.2183 117.085 20.3575 117.557 20.6358C118.036 20.9063 118.415 21.2851 118.693 21.7721C118.979 22.2514 119.122 22.808 119.122 23.4418ZM117.731 23.4418C117.731 23.0476 117.649 22.7075 117.487 22.4215C117.332 22.1277 117.12 21.8997 116.849 21.7373C116.586 21.575 116.293 21.4938 115.968 21.4938C115.643 21.4938 115.346 21.575 115.075 21.7373C114.812 21.8997 114.6 22.1277 114.437 22.4215C114.283 22.7075 114.206 23.0476 114.206 23.4418C114.206 23.8284 114.283 24.1685 114.437 24.4622C114.6 24.7483 114.812 24.9724 115.075 25.1348C115.346 25.2971 115.643 25.3783 115.968 25.3783C116.293 25.3783 116.586 25.2971 116.849 25.1348C117.12 24.9724 117.332 24.7483 117.487 24.4622C117.649 24.1685 117.731 23.8284 117.731 23.4418ZM123.598 20.2183C124.216 20.2183 124.673 20.3691 124.966 20.6705C125.26 20.9643 125.453 21.3469 125.546 21.8185L125.349 21.7141L125.442 21.5286C125.535 21.3508 125.678 21.1614 125.871 20.9604C126.064 20.7517 126.296 20.5778 126.567 20.4386C126.845 20.2918 127.154 20.2183 127.494 20.2183C128.051 20.2183 128.472 20.3381 128.758 20.5778C129.052 20.8174 129.253 21.1382 129.361 21.5402C129.469 21.9344 129.523 22.3751 129.523 22.8621V25.8305C129.523 26.0315 129.458 26.2016 129.326 26.3407C129.195 26.4721 129.029 26.5378 128.828 26.5378C128.627 26.5378 128.46 26.4721 128.329 26.3407C128.198 26.2016 128.132 26.0315 128.132 25.8305V22.8621C128.132 22.607 128.101 22.3789 128.039 22.1779C127.977 21.9692 127.865 21.803 127.703 21.6793C127.541 21.5557 127.309 21.4938 127.007 21.4938C126.713 21.4938 126.462 21.5557 126.253 21.6793C126.045 21.803 125.886 21.9692 125.778 22.1779C125.678 22.3789 125.627 22.607 125.627 22.8621V25.8305C125.627 26.0315 125.562 26.2016 125.43 26.3407C125.299 26.4721 125.133 26.5378 124.932 26.5378C124.731 26.5378 124.564 26.4721 124.433 26.3407C124.302 26.2016 124.236 26.0315 124.236 25.8305V22.8621C124.236 22.607 124.205 22.3789 124.143 22.1779C124.081 21.9692 123.969 21.803 123.807 21.6793C123.644 21.5557 123.413 21.4938 123.111 21.4938C122.817 21.4938 122.566 21.5557 122.357 21.6793C122.149 21.803 121.99 21.9692 121.882 22.1779C121.781 22.3789 121.731 22.607 121.731 22.8621V25.8305C121.731 26.0315 121.666 26.2016 121.534 26.3407C121.403 26.4721 121.236 26.5378 121.035 26.5378C120.835 26.5378 120.668 26.4721 120.537 26.3407C120.405 26.2016 120.34 26.0315 120.34 25.8305V21.0416C120.34 20.8406 120.405 20.6744 120.537 20.543C120.668 20.4038 120.835 20.3343 121.035 20.3343C121.236 20.3343 121.403 20.4038 121.534 20.543C121.666 20.6744 121.731 20.8406 121.731 21.0416V21.5402L121.557 21.5054C121.627 21.374 121.723 21.2349 121.847 21.088C121.971 20.9334 122.122 20.7904 122.299 20.6589C122.477 20.5275 122.674 20.4232 122.891 20.3459C123.107 20.2608 123.343 20.2183 123.598 20.2183Z" fill="black"/>
<path d="M7.69995 13.6354L7.75363 42.7821L111.148 33.5526" stroke="#37C837" stroke-width="0.289887"/>
<path d="M111.388 16.9349L111.508 7.3887L52.3199 7.62158" stroke="#37C837" stroke-width="0.289887"/>
<path d="M18.564 3.27591C18.6134 3.27591 18.6628 3.28649 18.7122 3.30766C18.7686 3.32883 18.8145 3.3641 18.8498 3.41349L21.7708 7.79498L21.485 7.7844L24.4166 3.41349C24.4942 3.30766 24.5895 3.2618 24.7024 3.27591C24.787 3.27591 24.8576 3.30766 24.914 3.37116C24.9775 3.4276 25.0093 3.50169 25.0093 3.59341V10.3667C25.0093 10.4514 24.9775 10.5255 24.914 10.589C24.8505 10.6525 24.7729 10.6842 24.6812 10.6842C24.5824 10.6842 24.5013 10.6525 24.4378 10.589C24.3743 10.5255 24.3425 10.4514 24.3425 10.3667V4.23899L24.533 4.26016L21.8554 8.31356C21.8343 8.35589 21.8025 8.39117 21.7602 8.41939C21.7179 8.44056 21.6685 8.44762 21.612 8.44056C21.5626 8.44762 21.5133 8.44056 21.4639 8.41939C21.4215 8.39117 21.3863 8.35589 21.358 8.31356L18.6699 4.21782L18.871 4.08024V10.3667C18.871 10.4514 18.8392 10.5255 18.7757 10.589C18.7193 10.6525 18.6452 10.6842 18.5535 10.6842C18.4617 10.6842 18.3876 10.6525 18.3312 10.589C18.2748 10.5255 18.2465 10.4514 18.2465 10.3667V3.59341C18.2465 3.50874 18.2748 3.43466 18.3312 3.37116C18.3947 3.30766 18.4723 3.27591 18.564 3.27591ZM31.2762 5.27615C31.3679 5.27615 31.442 5.3079 31.4984 5.3714C31.5619 5.4349 31.5937 5.51251 31.5937 5.60424V10.3667C31.5937 10.4514 31.5619 10.5255 31.4984 10.589C31.4349 10.6525 31.3608 10.6842 31.2762 10.6842C31.1844 10.6842 31.1068 10.6525 31.0433 10.589C30.9869 10.5255 30.9587 10.4514 30.9587 10.3667V9.10731L31.1386 9.02264C31.1386 9.2202 31.0821 9.42128 30.9692 9.62589C30.8634 9.8305 30.7152 10.021 30.5247 10.1974C30.3342 10.3738 30.1085 10.5184 29.8474 10.6313C29.5934 10.7371 29.3182 10.7901 29.0219 10.7901C28.5421 10.7901 28.1117 10.6666 27.7307 10.4196C27.3568 10.1727 27.0605 9.83403 26.8417 9.40364C26.6301 8.97325 26.5243 8.48995 26.5243 7.95373C26.5243 7.4034 26.6336 6.92009 26.8523 6.50382C27.0711 6.08048 27.3674 5.74887 27.7413 5.50899C28.1153 5.2691 28.5386 5.14915 29.0113 5.14915C29.3147 5.14915 29.5969 5.20207 29.858 5.3079C30.1261 5.41374 30.3589 5.55837 30.5565 5.74182C30.754 5.92526 30.9057 6.13693 31.0116 6.37682C31.1245 6.60965 31.1809 6.85306 31.1809 7.10706L30.9587 6.94831V5.60424C30.9587 5.51251 30.9869 5.4349 31.0433 5.3714C31.1068 5.3079 31.1844 5.27615 31.2762 5.27615ZM29.0748 10.1974C29.4488 10.1974 29.7804 10.1021 30.0697 9.91164C30.3589 9.71408 30.5847 9.44597 30.747 9.10731C30.9163 8.76159 31.001 8.37706 31.001 7.95373C31.001 7.53745 30.9163 7.16351 30.747 6.8319C30.5847 6.50029 30.3589 6.23571 30.0697 6.03815C29.7804 5.8406 29.4488 5.74182 29.0748 5.74182C28.7079 5.74182 28.3763 5.83707 28.08 6.02757C27.7907 6.21807 27.5614 6.47912 27.3921 6.81073C27.2298 7.14234 27.1487 7.52334 27.1487 7.95373C27.1487 8.37706 27.2298 8.76159 27.3921 9.10731C27.5614 9.44597 27.7907 9.71408 28.08 9.91164C28.3693 10.1021 28.7009 10.1974 29.0748 10.1974ZM33.8738 10.3667C33.8738 10.4514 33.842 10.5255 33.7785 10.589C33.715 10.6525 33.6409 10.6842 33.5563 10.6842C33.4646 10.6842 33.3869 10.6525 33.3234 10.589C33.267 10.5255 33.2388 10.4514 33.2388 10.3667V5.4984C33.2388 5.41374 33.267 5.33965 33.3234 5.27615C33.3869 5.21265 33.4646 5.1809 33.5563 5.1809C33.648 5.1809 33.7221 5.21265 33.7785 5.27615C33.842 5.33965 33.8738 5.41374 33.8738 5.4984V10.3667ZM33.5563 4.47182C33.4081 4.47182 33.2952 4.44007 33.2176 4.37657C33.1471 4.30602 33.1118 4.20724 33.1118 4.08024V3.97441C33.1118 3.84741 33.1506 3.75216 33.2282 3.68866C33.3129 3.6181 33.4257 3.58283 33.5669 3.58283C33.7009 3.58283 33.8032 3.6181 33.8738 3.68866C33.9514 3.75216 33.9902 3.84741 33.9902 3.97441V4.08024C33.9902 4.20724 33.9514 4.30602 33.8738 4.37657C33.8032 4.44007 33.6974 4.47182 33.5563 4.47182ZM36.2219 10.3667C36.2219 10.4514 36.1901 10.5255 36.1266 10.589C36.0631 10.6525 35.989 10.6842 35.9044 10.6842C35.8126 10.6842 35.735 10.6525 35.6715 10.589C35.6151 10.5255 35.5869 10.4514 35.5869 10.3667V3.17008C35.5869 3.08541 35.6186 3.01133 35.6821 2.94783C35.7456 2.88433 35.8197 2.85258 35.9044 2.85258C35.9961 2.85258 36.0702 2.88433 36.1266 2.94783C36.1901 3.01133 36.2219 3.08541 36.2219 3.17008V10.3667ZM46.2538 3.27591C46.3526 3.27591 46.4302 3.30766 46.4867 3.37116C46.5431 3.4276 46.5713 3.50169 46.5713 3.59341V7.97489C46.5713 8.497 46.4479 8.96972 46.2009 9.39306C45.954 9.81639 45.6224 10.1551 45.2061 10.4091C44.7898 10.656 44.3206 10.7795 43.7985 10.7795C43.2764 10.7795 42.8037 10.656 42.3803 10.4091C41.9641 10.1551 41.6325 9.81639 41.3855 9.39306C41.1386 8.96972 41.0151 8.497 41.0151 7.97489V3.59341C41.0151 3.50169 41.0433 3.4276 41.0998 3.37116C41.1633 3.30766 41.2479 3.27591 41.3538 3.27591C41.4384 3.27591 41.5125 3.30766 41.576 3.37116C41.6395 3.4276 41.6713 3.50169 41.6713 3.59341V7.97489C41.6713 8.38412 41.7665 8.751 41.957 9.07556C42.1546 9.40011 42.4156 9.66117 42.7402 9.85872C43.0647 10.0492 43.4175 10.1445 43.7985 10.1445C44.1936 10.1445 44.5535 10.0492 44.878 9.85872C45.2026 9.66117 45.4601 9.40011 45.6506 9.07556C45.8481 8.751 45.9469 8.38412 45.9469 7.97489V3.59341C45.9469 3.50169 45.9751 3.4276 46.0316 3.37116C46.088 3.30766 46.1621 3.27591 46.2538 3.27591ZM48.0942 9.82697C48.0377 9.74231 48.0095 9.66117 48.0095 9.58356C48.0166 9.49889 48.0624 9.43186 48.1471 9.38247C48.2035 9.33308 48.267 9.31192 48.3376 9.31897C48.4152 9.32603 48.4858 9.36131 48.5493 9.42481C48.7398 9.67175 48.9691 9.87283 49.2372 10.0281C49.5123 10.1762 49.8369 10.2503 50.2108 10.2503C50.4084 10.2503 50.6024 10.2186 50.7929 10.1551C50.9905 10.0845 51.1527 9.98219 51.2797 9.84814C51.4067 9.70703 51.4702 9.53064 51.4702 9.31897C51.4702 9.10025 51.4067 8.92386 51.2797 8.78981C51.1527 8.65575 50.9869 8.54992 50.7823 8.47231C50.5848 8.3947 50.3731 8.32767 50.1473 8.27123C49.9074 8.20773 49.6746 8.13717 49.4488 8.05956C49.2231 7.97489 49.022 7.87259 48.8456 7.75265C48.6763 7.62565 48.5387 7.47395 48.4328 7.29756C48.327 7.12117 48.2741 6.90598 48.2741 6.65198C48.2741 6.35565 48.3552 6.09459 48.5175 5.86882C48.6798 5.64304 48.8985 5.46665 49.1737 5.33965C49.4559 5.21265 49.7734 5.14915 50.1262 5.14915C50.3026 5.14915 50.4931 5.17385 50.6977 5.22324C50.9023 5.26557 51.1034 5.33965 51.3009 5.44549C51.4985 5.55132 51.6749 5.69596 51.8301 5.8794C51.8936 5.9429 51.9253 6.01698 51.9253 6.10165C51.9253 6.17926 51.8901 6.24982 51.8195 6.31332C51.7631 6.35565 51.696 6.37682 51.6184 6.37682C51.5479 6.37682 51.4879 6.34859 51.4385 6.29215C51.2692 6.10165 51.0681 5.95701 50.8352 5.85823C50.6024 5.75946 50.3519 5.71007 50.0838 5.71007C49.8792 5.71007 49.6852 5.74535 49.5018 5.8159C49.3254 5.8794 49.1772 5.97818 49.0573 6.11223C48.9373 6.24629 48.8773 6.42268 48.8773 6.6414C48.8914 6.84601 48.962 7.01181 49.089 7.13881C49.2231 7.26581 49.3959 7.37165 49.6076 7.45631C49.8263 7.54098 50.0697 7.61859 50.3378 7.68915C50.5636 7.74559 50.7788 7.81262 50.9834 7.89023C51.1951 7.96784 51.3785 8.06662 51.5337 8.18656C51.696 8.29945 51.823 8.44409 51.9147 8.62048C52.0135 8.79686 52.0629 9.01911 52.0629 9.28722C52.0629 9.59767 51.9747 9.86578 51.7983 10.0916C51.629 10.3173 51.3997 10.4902 51.1104 10.6101C50.8211 10.7301 50.5001 10.7901 50.1473 10.7901C49.7663 10.7901 49.3959 10.716 49.0361 10.5678C48.6833 10.4196 48.3693 10.1727 48.0942 9.82697Z" fill="black"/>
<path d="M1.08309 12.0244C0.970188 11.9688 0.779561 11.8145 0.659491 11.6816C0.243413 11.221 0.244138 11.2297 0.244532 6.75371C0.244751 4.21095 0.268631 2.64524 0.309498 2.49815C0.410297 2.13524 0.753634 1.67857 1.03521 1.53288C1.28677 1.40272 1.32577 1.40204 7.30029 1.42119C11.0615 1.43324 13.3873 1.46402 13.5128 1.50358C13.8107 1.59725 14.2038 2.05867 14.3205 2.45162C14.4645 2.93622 14.4698 10.6086 14.3271 11.0887C14.2129 11.4714 13.9194 11.8378 13.5939 12.0038C13.3557 12.1254 13.1965 12.1285 7.31916 12.1271C1.92245 12.126 1.2673 12.1151 1.08359 12.0244L1.08309 12.0244ZM13.2522 10.8332C13.3287 10.6503 13.3439 10.0131 13.3439 7.00455C13.3439 5.01949 13.3206 3.39534 13.292 3.39534C13.2634 3.39534 12.9846 3.63029 12.6725 3.91743C12.3604 4.20458 11.3089 5.16571 10.3358 6.05326C9.36282 6.94081 8.4358 7.7877 8.2758 7.93521C7.77782 8.39436 7.20732 8.49933 6.68312 8.22826C6.57109 8.1703 5.33554 7.01651 3.93745 5.66422C2.53935 4.31192 1.37847 3.20551 1.35774 3.20551C1.33703 3.20551 1.32005 4.88708 1.32005 6.94236C1.32005 10.1682 1.33321 10.7048 1.41658 10.866L1.5131 11.0527H7.3368H13.1605L13.2522 10.8332ZM8.86948 5.91293C9.67712 5.17443 10.834 4.11363 11.4402 3.55562L12.5425 2.54102L7.42171 2.50935C4.60526 2.49193 2.28723 2.48667 2.27053 2.49752C2.25387 2.50847 2.78021 3.03527 3.44029 3.66828C4.10036 4.30128 5.2094 5.3674 5.90481 6.03741C6.60904 6.71593 7.22054 7.25562 7.28511 7.25562C7.34887 7.25562 8.06183 6.6514 8.86948 5.9129V5.91293Z" fill="#D5D421"/>
</svg>
