<svg width="110" height="63" viewBox="0 0 110 63" fill="none" xmlns="http://www.w3.org/2000/svg">
<path d="M10.2798 15.3026C10.2803 15.2949 10.5523 14.4911 10.8839 13.516L11.4866 11.7431L11.3458 11.4868C9.85977 8.78342 10.4508 5.37859 12.761 3.33368C13.7133 2.49074 14.8615 1.94796 16.1964 1.70977C16.6336 1.63176 17.9133 1.64414 18.3918 1.73092C19.3215 1.89971 20.4182 2.35751 21.1407 2.87841C23.318 4.44822 24.3371 7.03766 23.8088 9.65735C23.5406 10.9872 22.7252 12.3823 21.6934 13.2768C19.6484 15.0495 16.7824 15.4559 14.3737 14.3147L13.9827 14.1295L12.1913 14.6995C11.206 15.0131 10.3726 15.2801 10.3392 15.2929C10.3058 15.3057 10.2791 15.3101 10.2798 15.3027L10.2798 15.3026ZM18.3992 13.7853C18.9127 13.6719 19.293 13.5375 19.7662 13.3024C21.3115 12.5346 22.4274 11.0822 22.7867 9.37103C22.8884 8.88621 22.8887 7.68103 22.7871 7.21385C22.457 5.69652 21.5861 4.42054 20.3246 3.60595C18.4092 2.36919 15.9916 2.38678 14.0803 3.65141C13.5879 3.97717 12.8618 4.69518 12.5555 5.15908C12.1164 5.82427 11.8028 6.59015 11.6673 7.32839C11.5671 7.87463 11.5765 8.8282 11.6874 9.35193C11.8461 10.1023 12.0976 10.7217 12.4856 11.3182L12.6594 11.5855L12.31 12.6141C12.1177 13.1799 11.9648 13.6471 11.97 13.6523C11.9755 13.6578 12.4642 13.5079 13.0565 13.3196L14.1334 12.9772L14.2797 13.0696C14.7666 13.3769 15.4586 13.6508 16.0674 13.777C16.6137 13.8902 16.6101 13.8899 17.361 13.8758C17.8721 13.8659 18.1382 13.8429 18.3992 13.7853L18.3992 13.7853ZM18.7163 11.3926C18.3644 11.3173 17.6134 11.0532 17.2002 10.8594C16.2918 10.4335 15.4264 9.64406 14.6564 8.53884C14.131 7.78484 13.9654 7.32777 13.9885 6.69496C14.0013 6.34144 14.0142 6.28593 14.1448 6.02172C14.2231 5.86336 14.3688 5.6475 14.4686 5.54205C14.6658 5.33375 14.793 5.28081 15.1911 5.24137C15.4088 5.21978 15.4335 5.22537 15.5158 5.31412C15.6138 5.41984 16.1964 6.78616 16.1964 6.91025C16.1964 7.032 16.0684 7.25147 15.8565 7.49291C15.747 7.61768 15.6619 7.75189 15.6619 7.79977C15.6619 8.03874 16.4078 8.92886 16.9388 9.32351C17.3001 9.59209 17.9909 9.93431 18.1373 9.91733C18.2127 9.90857 18.3237 9.80331 18.5724 9.5047C18.9795 9.01594 18.9875 9.01369 19.4855 9.24963C20.7732 9.85971 20.6924 9.7911 20.6245 10.2159C20.566 10.5819 20.4857 10.7457 20.2694 10.9402C20.0102 11.1733 19.6961 11.3265 19.3364 11.3953C18.9941 11.4608 19.0353 11.4609 18.7163 11.3931V11.3926Z" fill="#D5D421"/>
<path d="M2.16864 30.6768C1.98312 30.6768 1.82851 30.6149 1.70482 30.4912C1.58114 30.3676 1.5193 30.213 1.5193 30.0274C1.5193 29.8419 1.58114 29.6912 1.70482 29.5752C1.82851 29.4592 1.98312 29.4013 2.16864 29.4013H6.88798C7.07351 29.4013 7.22811 29.4631 7.3518 29.5868C7.47548 29.7028 7.53732 29.8535 7.53732 30.039C7.53732 30.2245 7.47548 30.3792 7.3518 30.5028C7.22811 30.6188 7.07351 30.6768 6.88798 30.6768H2.16864ZM4.51092 32.9379C4.29447 32.9379 4.11281 32.8683 3.96593 32.7292C3.82679 32.59 3.75722 32.4122 3.75722 32.1958V27.6736C3.75722 27.4571 3.83065 27.2793 3.97753 27.1402C4.1244 27.001 4.30607 26.9314 4.52251 26.9314C4.74669 26.9314 4.92449 27.001 5.0559 27.1402C5.19505 27.2793 5.26462 27.4571 5.26462 27.6736V32.1958C5.26462 32.4122 5.19505 32.59 5.0559 32.7292C4.91676 32.8683 4.7351 32.9379 4.51092 32.9379ZM11.0406 25.6096C11.458 25.6096 11.8329 25.6985 12.1653 25.8763C12.5055 26.0463 12.7915 26.2821 13.0234 26.5836C13.263 26.8851 13.4447 27.2252 13.5684 27.604C13.6998 27.975 13.7655 28.3654 13.7655 28.7751C13.7655 29.0379 13.7346 29.3588 13.6728 29.7375C13.6186 30.1163 13.5181 30.5183 13.3713 30.9435C13.2244 31.3609 13.0195 31.7706 12.7567 32.1726C12.4939 32.5668 12.1576 32.9224 11.7479 33.2394C11.3459 33.5563 10.8512 33.7959 10.2637 33.9583C10.1709 33.9815 10.082 33.9931 9.997 33.9931C9.81921 33.9931 9.65687 33.9467 9.51 33.8539C9.37085 33.7534 9.30128 33.5834 9.30128 33.3437C9.30128 33.1659 9.35539 33.0152 9.46361 32.8915C9.57957 32.7678 9.73031 32.6789 9.91584 32.6248C10.2714 32.5166 10.6154 32.3388 10.9478 32.0914C11.288 31.8363 11.5817 31.531 11.8291 31.1754C12.0765 30.812 12.2427 30.4178 12.3277 29.9926L12.6408 30.0042C12.5403 30.1279 12.4089 30.2671 12.2465 30.4217C12.0919 30.5763 11.8987 30.7116 11.6667 30.8275C11.4426 30.9357 11.172 30.9898 10.8551 30.9898C10.3449 30.9898 9.90038 30.8816 9.52159 30.6652C9.15054 30.441 8.86065 30.1279 8.65193 29.7259C8.44322 29.3162 8.33886 28.8408 8.33886 28.2997C8.33886 27.8127 8.45868 27.3643 8.69832 26.9546C8.94569 26.5449 9.27422 26.2203 9.68393 25.9806C10.0936 25.7333 10.5459 25.6096 11.0406 25.6096ZM11.0406 26.8851C10.7932 26.8851 10.569 26.9508 10.3681 27.0822C10.1748 27.2059 10.0202 27.3759 9.90424 27.5924C9.78829 27.8011 9.73031 28.0369 9.73031 28.2997C9.73031 28.5857 9.78442 28.837 9.89265 29.0534C10.0009 29.2621 10.1516 29.4245 10.3449 29.5404C10.5459 29.6564 10.7778 29.7143 11.0406 29.7143C11.288 29.7143 11.5083 29.6525 11.7015 29.5288C11.9025 29.4051 12.061 29.2351 12.1769 29.0186C12.2929 28.8022 12.3509 28.5625 12.3509 28.2997C12.3509 28.0291 12.2929 27.7895 12.1769 27.5808C12.061 27.3643 11.9025 27.1943 11.7015 27.0706C11.5083 26.9469 11.288 26.8851 11.0406 26.8851ZM17.1092 33.8771C16.8927 33.8771 16.7149 33.8114 16.5758 33.68C16.4366 33.5408 16.3671 33.3708 16.3671 33.1698V27.3257L16.5294 27.5808L15.6829 28.2069C15.5747 28.292 15.4394 28.3345 15.2771 28.3345C15.0916 28.3345 14.9292 28.2649 14.7901 28.1258C14.6509 27.9866 14.5814 27.8204 14.5814 27.6272C14.5814 27.3798 14.7012 27.1788 14.9408 27.0242L16.6106 25.911C16.6879 25.8569 16.7729 25.8183 16.8657 25.7951C16.9662 25.7719 17.0589 25.7603 17.144 25.7603C17.3681 25.7603 17.5459 25.8299 17.6773 25.969C17.8088 26.1004 17.8745 26.2666 17.8745 26.4676V33.1698C17.8745 33.3708 17.801 33.5408 17.6542 33.68C17.515 33.8114 17.3333 33.8771 17.1092 33.8771ZM20.1434 31.013C19.9424 31.013 19.7723 30.9473 19.6332 30.8159C19.5018 30.6845 19.436 30.5183 19.436 30.3173C19.436 30.1163 19.5018 29.954 19.6332 29.8303C19.7723 29.6989 19.9424 29.6332 20.1434 29.6332H22.161C22.362 29.6332 22.5282 29.7028 22.6596 29.8419C22.7987 29.9733 22.8683 30.1395 22.8683 30.3405C22.8683 30.5338 22.7987 30.6961 22.6596 30.8275C22.5282 30.9512 22.362 31.013 22.161 31.013H20.1434ZM26.7352 25.6096C27.1526 25.6096 27.5275 25.6985 27.8599 25.8763C28.2001 26.0463 28.4861 26.2821 28.718 26.5836C28.9576 26.8851 29.1393 27.2252 29.263 27.604C29.3944 27.975 29.4601 28.3654 29.4601 28.7751C29.4601 29.0379 29.4292 29.3588 29.3673 29.7375C29.3132 30.1163 29.2127 30.5183 29.0659 30.9435C28.919 31.3609 28.7141 31.7706 28.4513 32.1726C28.1885 32.5668 27.8522 32.9224 27.4425 33.2394C27.0405 33.5563 26.5458 33.7959 25.9583 33.9583C25.8655 33.9815 25.7766 33.9931 25.6916 33.9931C25.5138 33.9931 25.3515 33.9467 25.2046 33.8539C25.0654 33.7534 24.9959 33.5834 24.9959 33.3437C24.9959 33.1659 25.05 33.0152 25.1582 32.8915C25.2742 32.7678 25.4249 32.6789 25.6104 32.6248C25.966 32.5166 26.31 32.3388 26.6424 32.0914C26.9826 31.8363 27.2763 31.531 27.5237 31.1754C27.771 30.812 27.9372 30.4178 28.0223 29.9926L28.3354 30.0042C28.2349 30.1279 28.1034 30.2671 27.9411 30.4217C27.7865 30.5763 27.5932 30.7116 27.3613 30.8275C27.1372 30.9357 26.8666 30.9898 26.5497 30.9898C26.0395 30.9898 25.595 30.8816 25.2162 30.6652C24.8451 30.441 24.5552 30.1279 24.3465 29.7259C24.1378 29.3162 24.0334 28.8408 24.0334 28.2997C24.0334 27.8127 24.1533 27.3643 24.3929 26.9546C24.6403 26.5449 24.9688 26.2203 25.3785 25.9806C25.7882 25.7333 26.2404 25.6096 26.7352 25.6096ZM26.7352 26.8851C26.4878 26.8851 26.2636 26.9508 26.0626 27.0822C25.8694 27.2059 25.7148 27.3759 25.5988 27.5924C25.4829 27.8011 25.4249 28.0369 25.4249 28.2997C25.4249 28.5857 25.479 28.837 25.5872 29.0534C25.6955 29.2621 25.8462 29.4245 26.0395 29.5404C26.2404 29.6564 26.4724 29.7143 26.7352 29.7143C26.9826 29.7143 27.2029 29.6525 27.3961 29.5288C27.5971 29.4051 27.7556 29.2351 27.8715 29.0186C27.9875 28.8022 28.0455 28.5625 28.0455 28.2997C28.0455 28.0291 27.9875 27.7895 27.8715 27.5808C27.7556 27.3643 27.5971 27.1943 27.3961 27.0706C27.2029 26.9469 26.9826 26.8851 26.7352 26.8851ZM34.5199 29.7607L34.4967 29.494C34.7904 29.6254 35.0455 29.7955 35.262 30.0042C35.4784 30.213 35.6446 30.441 35.7606 30.6884C35.8765 30.9357 35.9345 31.1908 35.9345 31.4537C35.9345 31.8943 35.8108 32.3001 35.5635 32.6712C35.3238 33.0345 34.9992 33.3283 34.5895 33.5524C34.1797 33.7689 33.7237 33.8771 33.2212 33.8771C32.7187 33.8771 32.2626 33.7689 31.8529 33.5524C31.4432 33.3283 31.1147 33.0345 30.8673 32.6712C30.6277 32.3001 30.5079 31.8943 30.5079 31.4537C30.5079 31.0981 30.5813 30.7927 30.7282 30.5376C30.8828 30.2748 31.0722 30.0545 31.2964 29.8767C31.5283 29.6989 31.7563 29.552 31.9805 29.4361L31.8877 29.7607C31.6945 29.6834 31.5051 29.5752 31.3195 29.4361C31.1417 29.2892 30.9949 29.1037 30.8789 28.8795C30.763 28.6553 30.705 28.3925 30.705 28.091C30.705 27.6581 30.8171 27.2677 31.0413 26.9199C31.2654 26.5643 31.5669 26.2821 31.9457 26.0734C32.3322 25.8647 32.7574 25.7603 33.2212 25.7603C33.6927 25.7603 34.114 25.8647 34.4851 26.0734C34.8639 26.2821 35.1654 26.5643 35.3895 26.9199C35.6137 27.2677 35.7258 27.6581 35.7258 28.091C35.7258 28.4234 35.6601 28.7017 35.5287 28.9259C35.3973 29.15 35.2388 29.3278 35.0533 29.4592C34.8677 29.5907 34.6899 29.6912 34.5199 29.7607ZM32.0964 28.1142C32.0964 28.3229 32.1428 28.5084 32.2356 28.6708C32.3361 28.8331 32.4714 28.9645 32.6414 29.065C32.8115 29.1578 33.0047 29.2041 33.2212 29.2041C33.4376 29.2041 33.627 29.1578 33.7894 29.065C33.9594 28.9645 34.0908 28.8331 34.1836 28.6708C34.2841 28.5084 34.3344 28.3229 34.3344 28.1142C34.3344 27.805 34.2261 27.5499 34.0097 27.3489C33.801 27.1402 33.5381 27.0358 33.2212 27.0358C32.8965 27.0358 32.626 27.1402 32.4095 27.3489C32.2008 27.5499 32.0964 27.805 32.0964 28.1142ZM33.2212 32.6016C33.5922 32.6016 33.9053 32.4895 34.1604 32.2653C34.4155 32.0334 34.5431 31.7551 34.5431 31.4305C34.5431 31.2063 34.4851 31.0053 34.3691 30.8275C34.2532 30.6497 34.0947 30.5106 33.8937 30.4101C33.6927 30.3018 33.4686 30.2477 33.2212 30.2477C32.9738 30.2477 32.7496 30.3018 32.5487 30.4101C32.3477 30.5106 32.1892 30.6497 32.0732 30.8275C31.9573 31.0053 31.8993 31.2063 31.8993 31.4305C31.8993 31.7551 32.0269 32.0334 32.282 32.2653C32.5371 32.4895 32.8501 32.6016 33.2212 32.6016ZM38.7157 33.9351C38.5224 33.9351 38.3524 33.8732 38.2055 33.7496C38.0664 33.6181 37.9968 33.4558 37.9968 33.2625C37.9968 33.1543 38.02 33.05 38.0664 32.9495L40.9072 26.7923L41.0348 27.1054H37.6837C37.4982 27.1054 37.3436 27.0435 37.2199 26.9199C37.0962 26.7962 37.0344 26.6416 37.0344 26.456C37.0344 26.2782 37.0962 26.1314 37.2199 26.0154C37.3436 25.8917 37.4982 25.8299 37.6837 25.8299H41.7189C41.9199 25.8299 42.0938 25.8956 42.2407 26.027C42.3953 26.1507 42.4726 26.313 42.4726 26.514C42.4726 26.6145 42.4494 26.7189 42.403 26.8271L39.3535 33.4945C39.2993 33.6336 39.2104 33.7418 39.0868 33.8191C38.9708 33.8964 38.8471 33.9351 38.7157 33.9351ZM45.7142 33.9931C45.2967 33.9931 44.918 33.908 44.5778 33.738C44.2454 33.5602 43.9594 33.3205 43.7198 33.019C43.4879 32.7176 43.3062 32.3774 43.1748 31.9986C43.0511 31.6199 42.9892 31.2295 42.9892 30.8275C42.9892 30.5647 43.0163 30.2477 43.0704 29.8767C43.1323 29.5056 43.2366 29.1153 43.3835 28.7055C43.5304 28.2958 43.7352 27.8977 43.9981 27.5112C44.2609 27.1247 44.5933 26.7768 44.9953 26.4676C45.405 26.1584 45.9036 25.9226 46.4911 25.7603C46.5838 25.7371 46.6727 25.7255 46.7578 25.7255C46.9356 25.7255 47.094 25.7719 47.2332 25.8647C47.38 25.9574 47.4535 26.1275 47.4535 26.3749C47.4535 26.5449 47.3955 26.6957 47.2796 26.8271C47.1713 26.9508 47.0245 27.0397 46.8389 27.0938C46.5761 27.1711 46.3133 27.287 46.0504 27.4416C45.7953 27.5885 45.5557 27.7702 45.3315 27.9866C45.1151 28.2031 44.9257 28.4504 44.7633 28.7287C44.6087 28.9993 44.4967 29.293 44.4271 29.61L44.114 29.5984C44.2222 29.467 44.3536 29.3278 44.5082 29.181C44.6706 29.0264 44.8638 28.8949 45.088 28.7867C45.3199 28.6708 45.5905 28.6128 45.8997 28.6128C46.2012 28.6128 46.4988 28.6824 46.7925 28.8215C47.094 28.9606 47.3646 29.1539 47.6042 29.4013C47.8516 29.6409 48.0487 29.9269 48.1956 30.2593C48.3425 30.584 48.4159 30.9319 48.4159 31.3029C48.4159 31.7977 48.2922 32.2499 48.0449 32.6596C47.8052 33.0693 47.4805 33.394 47.0708 33.6336C46.6689 33.8732 46.2166 33.9931 45.7142 33.9931ZM45.7142 32.7176C45.9615 32.7176 46.1819 32.6557 46.3751 32.532C46.5761 32.4084 46.7346 32.2383 46.8505 32.0218C46.9665 31.8054 47.0245 31.5658 47.0245 31.3029C47.0245 31.0324 46.9665 30.7927 46.8505 30.584C46.7346 30.3676 46.5761 30.1975 46.3751 30.0738C46.1819 29.9501 45.9615 29.8883 45.7142 29.8883C45.4668 29.8883 45.2426 29.9501 45.0416 30.0738C44.8484 30.1975 44.6938 30.3676 44.5778 30.584C44.4619 30.7927 44.4039 31.0324 44.4039 31.3029C44.4039 31.5658 44.4619 31.8054 44.5778 32.0218C44.6938 32.2383 44.8484 32.4084 45.0416 32.532C45.2426 32.6557 45.4668 32.7176 45.7142 32.7176ZM51.6132 33.9931C51.3271 33.9931 51.0218 33.9505 50.6971 33.8655C50.3725 33.7727 50.1058 33.6413 49.897 33.4713C49.7965 33.3862 49.7154 33.278 49.6535 33.1466C49.5994 33.0074 49.5724 32.876 49.5724 32.7523C49.5724 32.6209 49.6265 32.4972 49.7347 32.3813C49.8507 32.2653 50.013 32.2074 50.2217 32.2074C50.3609 32.2074 50.5348 32.2808 50.7435 32.4277C50.8672 32.505 51.0025 32.5746 51.1493 32.6364C51.2962 32.6982 51.447 32.7292 51.6016 32.7292C51.9726 32.7292 52.2934 32.6635 52.564 32.532C52.8346 32.3929 53.0433 32.2035 53.1901 31.9639C53.337 31.7242 53.4105 31.4421 53.4105 31.1174C53.4105 30.8236 53.3409 30.5724 53.2017 30.3637C53.0703 30.155 52.8925 29.9926 52.6683 29.8767C52.4519 29.7607 52.2161 29.7028 51.961 29.7028C51.7214 29.7028 51.5127 29.7414 51.3349 29.8187C51.1571 29.896 50.9947 29.9772 50.8479 30.0622C50.701 30.1395 50.5541 30.1782 50.4072 30.1782C50.1521 30.1782 49.9628 30.1241 49.8391 30.0158C49.7154 29.8999 49.6381 29.7646 49.6072 29.61C49.5762 29.4554 49.5685 29.3162 49.584 29.1926L49.9434 26.3749C49.9743 26.2125 50.0516 26.0811 50.1753 25.9806C50.3067 25.8724 50.4614 25.8183 50.6392 25.8183H53.9902C54.1758 25.8183 54.3304 25.8801 54.454 26.0038C54.5777 26.1275 54.6396 26.2821 54.6396 26.4676C54.6396 26.6454 54.5777 26.7962 54.454 26.9199C54.3304 27.0358 54.1758 27.0938 53.9902 27.0938H50.9986L51.1262 26.9894L50.8131 29.3433L50.6623 28.9027C50.7087 28.8254 50.8092 28.7519 50.9638 28.6824C51.1184 28.6128 51.2962 28.5548 51.4972 28.5084C51.6982 28.4543 51.8953 28.4273 52.0886 28.4273C52.6065 28.4273 53.0703 28.5471 53.48 28.7867C53.8897 29.0186 54.2105 29.3394 54.4424 29.7491C54.6821 30.1511 54.8019 30.6072 54.8019 31.1174C54.8019 31.6972 54.6705 32.2035 54.4077 32.6364C54.1448 33.0693 53.7738 33.4056 53.2945 33.6452C52.823 33.8771 52.2625 33.9931 51.6132 33.9931ZM60.0102 33.8771C59.817 33.8771 59.6547 33.8114 59.5232 33.68C59.3918 33.5408 59.3261 33.3708 59.3261 33.1698V27.7199L59.5696 27.7779L57.3317 30.5492L57.2737 30.3985H61.3785C61.564 30.3985 61.7186 30.4603 61.8423 30.584C61.966 30.7077 62.0279 30.8623 62.0279 31.0478C62.0279 31.2256 61.966 31.3764 61.8423 31.5C61.7186 31.616 61.564 31.674 61.3785 31.674H56.3113C56.149 31.674 55.9905 31.6083 55.8359 31.4769C55.689 31.3454 55.6156 31.1831 55.6156 30.9898C55.6156 30.8198 55.6736 30.6652 55.7895 30.526L59.4537 26.0386C59.5155 25.9536 59.5967 25.8879 59.6972 25.8415C59.7977 25.7874 59.9098 25.7603 60.0334 25.7603C60.2344 25.7603 60.3968 25.8299 60.5204 25.969C60.6519 26.1004 60.7176 26.2666 60.7176 26.4676V33.1698C60.7176 33.3708 60.648 33.5408 60.5089 33.68C60.3774 33.8114 60.2112 33.8771 60.0102 33.8771ZM63.6152 32.2422C63.6847 32.2422 63.7582 32.2537 63.8355 32.2769C63.9205 32.3001 64.0133 32.3465 64.1138 32.4161C64.2452 32.5166 64.3998 32.6055 64.5776 32.6828C64.7631 32.7601 64.9757 32.7987 65.2153 32.7987C65.455 32.7987 65.6791 32.7408 65.8879 32.6248C66.1043 32.5011 66.2821 32.331 66.4213 32.1146C66.5604 31.8904 66.63 31.6237 66.63 31.3145C66.63 31.0208 66.5681 30.7773 66.4444 30.584C66.3285 30.3907 66.17 30.2439 65.969 30.1434C65.7758 30.0429 65.5671 29.9926 65.3429 29.9926C65.1728 29.9926 65.0298 30.0081 64.9138 30.039C64.8056 30.0699 64.6974 30.1047 64.5892 30.1434C64.4887 30.1743 64.3689 30.1898 64.2297 30.1898C64.0519 30.1898 63.9128 30.1279 63.8123 30.0042C63.7195 29.8805 63.6731 29.7337 63.6731 29.5636C63.6731 29.4554 63.6925 29.3588 63.7311 29.2737C63.7775 29.1887 63.8432 29.0959 63.9282 28.9954L65.969 26.8271L66.2821 27.0938H63.4296C63.2441 27.0938 63.0895 27.0319 62.9658 26.9083C62.8421 26.7846 62.7803 26.63 62.7803 26.4444C62.7803 26.2666 62.8421 26.1198 62.9658 26.0038C63.0895 25.8801 63.2441 25.8183 63.4296 25.8183H66.9778C67.2175 25.8183 67.3953 25.884 67.5112 26.0154C67.6349 26.1468 67.6967 26.313 67.6967 26.514C67.6967 26.6145 67.6697 26.715 67.6156 26.8155C67.5615 26.9083 67.4958 26.9933 67.4185 27.0706L65.3661 29.2737L65.053 28.8795C65.138 28.8408 65.254 28.806 65.4009 28.7751C65.5555 28.7442 65.683 28.7287 65.7835 28.7287C66.2396 28.7287 66.6338 28.8486 66.9662 29.0882C67.3064 29.3201 67.5653 29.6254 67.7431 30.0042C67.9287 30.3753 68.0214 30.7773 68.0214 31.2102C68.0214 31.7822 67.8939 32.2769 67.6388 32.6944C67.3837 33.1118 67.0242 33.4326 66.5604 33.6568C66.0966 33.881 65.5555 33.9931 64.937 33.9931C64.651 33.9931 64.3689 33.9583 64.0906 33.8887C63.8123 33.8191 63.5726 33.7264 63.3717 33.6104C63.2016 33.5176 63.0856 33.4172 63.0238 33.3089C62.9697 33.193 62.9426 33.0848 62.9426 32.9843C62.9426 32.8065 63.0045 32.6403 63.1282 32.4857C63.2596 32.3233 63.4219 32.2422 63.6152 32.2422ZM73.8552 32.6016C74.0407 32.6016 74.1953 32.6635 74.319 32.7871C74.4427 32.9108 74.5045 33.0654 74.5045 33.251C74.5045 33.4287 74.4427 33.5795 74.319 33.7032C74.1953 33.8191 74.0407 33.8771 73.8552 33.8771H69.9127C69.7118 33.8771 69.5533 33.8153 69.4373 33.6916C69.3214 33.5679 69.2634 33.4094 69.2634 33.2162C69.2634 33.0229 69.333 32.8528 69.4721 32.706L71.9999 30.0042C72.2859 29.695 72.5101 29.3781 72.6725 29.0534C72.8425 28.7287 72.9276 28.4466 72.9276 28.2069C72.9276 27.8204 72.8155 27.5112 72.5913 27.2793C72.3671 27.0397 72.0695 26.9199 71.6984 26.9199C71.5516 26.9199 71.4008 26.9546 71.2462 27.0242C71.0916 27.0938 70.9409 27.1904 70.794 27.3141C70.6548 27.4378 70.5234 27.5808 70.3997 27.7431C70.307 27.8668 70.2142 27.9441 70.1215 27.975C70.0287 28.006 69.9437 28.0214 69.8664 28.0214C69.6963 28.0214 69.5378 27.9596 69.3909 27.8359C69.2518 27.7045 69.1822 27.5537 69.1822 27.3837C69.1822 27.2523 69.2247 27.1247 69.3098 27.001C69.4025 26.8773 69.5146 26.7498 69.646 26.6184C69.8393 26.4251 70.0557 26.255 70.2954 26.1082C70.535 25.9613 70.7824 25.8492 71.0375 25.7719C71.2926 25.6869 71.54 25.6444 71.7796 25.6444C72.2975 25.6444 72.7459 25.7487 73.1247 25.9574C73.5112 26.1584 73.8088 26.4483 74.0175 26.8271C74.2262 27.1981 74.3306 27.6388 74.3306 28.149C74.3306 28.5741 74.203 29.0495 73.9479 29.5752C73.7006 30.0931 73.3643 30.5801 72.9391 31.0362L71.3738 32.706L71.2462 32.6016H73.8552ZM77.9059 33.8771C77.6894 33.8771 77.5116 33.8114 77.3725 33.68C77.2333 33.5408 77.1638 33.3708 77.1638 33.1698V27.3257L77.3261 27.5808L76.4796 28.2069C76.3714 28.292 76.2361 28.3345 76.0738 28.3345C75.8883 28.3345 75.7259 28.2649 75.5868 28.1258C75.4477 27.9866 75.3781 27.8204 75.3781 27.6272C75.3781 27.3798 75.4979 27.1788 75.7375 27.0242L77.4073 25.911C77.4846 25.8569 77.5696 25.8183 77.6624 25.7951C77.7629 25.7719 77.8556 25.7603 77.9407 25.7603C78.1648 25.7603 78.3426 25.8299 78.4741 25.969C78.6055 26.1004 78.6712 26.2666 78.6712 26.4676V33.1698C78.6712 33.3708 78.5977 33.5408 78.4509 33.68C78.3117 33.8114 78.1301 33.8771 77.9059 33.8771ZM83.2128 33.9931C82.548 33.9931 81.9837 33.8191 81.5199 33.4713C81.0638 33.1157 80.7159 32.6248 80.4763 31.9986C80.2366 31.3648 80.1168 30.6381 80.1168 29.8187C80.1168 28.9916 80.2366 28.2649 80.4763 27.6388C80.7159 27.0126 81.0638 26.5256 81.5199 26.1777C81.9837 25.8221 82.548 25.6444 83.2128 25.6444C83.8776 25.6444 84.438 25.8221 84.8941 26.1777C85.3579 26.5256 85.7097 27.0126 85.9493 27.6388C86.1889 28.2649 86.3088 28.9916 86.3088 29.8187C86.3088 30.6381 86.1889 31.3648 85.9493 31.9986C85.7097 32.6248 85.3579 33.1157 84.8941 33.4713C84.438 33.8191 83.8776 33.9931 83.2128 33.9931ZM83.2128 32.6016C83.5375 32.6016 83.8158 32.5011 84.0477 32.3001C84.2873 32.0914 84.4728 31.7822 84.6042 31.3725C84.7357 30.9551 84.8014 30.4371 84.8014 29.8187C84.8014 29.1926 84.7357 28.6746 84.6042 28.2649C84.4728 27.8552 84.2873 27.5499 84.0477 27.3489C83.8158 27.1402 83.5375 27.0358 83.2128 27.0358C82.8958 27.0358 82.6176 27.1402 82.3779 27.3489C82.1383 27.5499 81.9528 27.8552 81.8213 28.2649C81.6899 28.6746 81.6242 29.1926 81.6242 29.8187C81.6242 30.4371 81.6899 30.9551 81.8213 31.3725C81.9528 31.7822 82.1383 32.0914 82.3779 32.3001C82.6176 32.5011 82.8958 32.6016 83.2128 32.6016ZM2.16864 44.6768C1.98312 44.6768 1.82851 44.6149 1.70482 44.4912C1.58114 44.3676 1.5193 44.213 1.5193 44.0274C1.5193 43.8419 1.58114 43.6912 1.70482 43.5752C1.82851 43.4592 1.98312 43.4013 2.16864 43.4013H6.88798C7.07351 43.4013 7.22811 43.4631 7.3518 43.5868C7.47548 43.7028 7.53732 43.8535 7.53732 44.039C7.53732 44.2245 7.47548 44.3792 7.3518 44.5028C7.22811 44.6188 7.07351 44.6768 6.88798 44.6768H2.16864ZM4.51092 46.9379C4.29447 46.9379 4.11281 46.8683 3.96593 46.7292C3.82679 46.59 3.75722 46.4122 3.75722 46.1958V41.6736C3.75722 41.4571 3.83065 41.2793 3.97753 41.1402C4.1244 41.001 4.30607 40.9314 4.52251 40.9314C4.74669 40.9314 4.92449 41.001 5.0559 41.1402C5.19505 41.2793 5.26462 41.4571 5.26462 41.6736V46.1958C5.26462 46.4122 5.19505 46.59 5.0559 46.7292C4.91676 46.8683 4.7351 46.9379 4.51092 46.9379ZM11.0406 39.6096C11.458 39.6096 11.8329 39.6985 12.1653 39.8763C12.5055 40.0463 12.7915 40.2821 13.0234 40.5836C13.263 40.8851 13.4447 41.2252 13.5684 41.604C13.6998 41.975 13.7655 42.3654 13.7655 42.7751C13.7655 43.0379 13.7346 43.3588 13.6728 43.7375C13.6186 44.1163 13.5181 44.5183 13.3713 44.9435C13.2244 45.3609 13.0195 45.7706 12.7567 46.1726C12.4939 46.5668 12.1576 46.9224 11.7479 47.2394C11.3459 47.5563 10.8512 47.7959 10.2637 47.9583C10.1709 47.9815 10.082 47.9931 9.997 47.9931C9.81921 47.9931 9.65687 47.9467 9.51 47.8539C9.37085 47.7534 9.30128 47.5834 9.30128 47.3437C9.30128 47.1659 9.35539 47.0152 9.46361 46.8915C9.57957 46.7678 9.73031 46.6789 9.91584 46.6248C10.2714 46.5166 10.6154 46.3388 10.9478 46.0914C11.288 45.8363 11.5817 45.531 11.8291 45.1754C12.0765 44.812 12.2427 44.4178 12.3277 43.9926L12.6408 44.0042C12.5403 44.1279 12.4089 44.2671 12.2465 44.4217C12.0919 44.5763 11.8987 44.7116 11.6667 44.8275C11.4426 44.9357 11.172 44.9898 10.8551 44.9898C10.3449 44.9898 9.90038 44.8816 9.52159 44.6652C9.15054 44.441 8.86065 44.1279 8.65193 43.7259C8.44322 43.3162 8.33886 42.8408 8.33886 42.2997C8.33886 41.8127 8.45868 41.3643 8.69832 40.9546C8.94569 40.5449 9.27422 40.2203 9.68393 39.9806C10.0936 39.7333 10.5459 39.6096 11.0406 39.6096ZM11.0406 40.8851C10.7932 40.8851 10.569 40.9508 10.3681 41.0822C10.1748 41.2059 10.0202 41.3759 9.90424 41.5924C9.78829 41.8011 9.73031 42.0369 9.73031 42.2997C9.73031 42.5857 9.78442 42.837 9.89265 43.0534C10.0009 43.2621 10.1516 43.4245 10.3449 43.5404C10.5459 43.6564 10.7778 43.7143 11.0406 43.7143C11.288 43.7143 11.5083 43.6525 11.7015 43.5288C11.9025 43.4051 12.061 43.2351 12.1769 43.0186C12.2929 42.8022 12.3509 42.5625 12.3509 42.2997C12.3509 42.0291 12.2929 41.7895 12.1769 41.5808C12.061 41.3643 11.9025 41.1943 11.7015 41.0706C11.5083 40.9469 11.288 40.8851 11.0406 40.8851ZM17.1092 47.8771C16.8927 47.8771 16.7149 47.8114 16.5758 47.68C16.4366 47.5408 16.3671 47.3708 16.3671 47.1698V41.3257L16.5294 41.5808L15.6829 42.2069C15.5747 42.292 15.4394 42.3345 15.2771 42.3345C15.0916 42.3345 14.9292 42.2649 14.7901 42.1258C14.6509 41.9866 14.5814 41.8204 14.5814 41.6272C14.5814 41.3798 14.7012 41.1788 14.9408 41.0242L16.6106 39.911C16.6879 39.8569 16.7729 39.8183 16.8657 39.7951C16.9662 39.7719 17.0589 39.7603 17.144 39.7603C17.3681 39.7603 17.5459 39.8299 17.6773 39.969C17.8088 40.1004 17.8745 40.2666 17.8745 40.4676V47.1698C17.8745 47.3708 17.801 47.5408 17.6542 47.68C17.515 47.8114 17.3333 47.8771 17.1092 47.8771ZM20.1434 45.013C19.9424 45.013 19.7723 44.9473 19.6332 44.8159C19.5018 44.6845 19.436 44.5183 19.436 44.3173C19.436 44.1163 19.5018 43.954 19.6332 43.8303C19.7723 43.6989 19.9424 43.6332 20.1434 43.6332H22.161C22.362 43.6332 22.5282 43.7028 22.6596 43.8419C22.7987 43.9733 22.8683 44.1395 22.8683 44.3405C22.8683 44.5338 22.7987 44.6961 22.6596 44.8275C22.5282 44.9512 22.362 45.013 22.161 45.013H20.1434ZM26.7352 39.6096C27.1526 39.6096 27.5275 39.6985 27.8599 39.8763C28.2001 40.0463 28.4861 40.2821 28.718 40.5836C28.9576 40.8851 29.1393 41.2252 29.263 41.604C29.3944 41.975 29.4601 42.3654 29.4601 42.7751C29.4601 43.0379 29.4292 43.3588 29.3673 43.7375C29.3132 44.1163 29.2127 44.5183 29.0659 44.9435C28.919 45.3609 28.7141 45.7706 28.4513 46.1726C28.1885 46.5668 27.8522 46.9224 27.4425 47.2394C27.0405 47.5563 26.5458 47.7959 25.9583 47.9583C25.8655 47.9815 25.7766 47.9931 25.6916 47.9931C25.5138 47.9931 25.3515 47.9467 25.2046 47.8539C25.0654 47.7534 24.9959 47.5834 24.9959 47.3437C24.9959 47.1659 25.05 47.0152 25.1582 46.8915C25.2742 46.7678 25.4249 46.6789 25.6104 46.6248C25.966 46.5166 26.31 46.3388 26.6424 46.0914C26.9826 45.8363 27.2763 45.531 27.5237 45.1754C27.771 44.812 27.9372 44.4178 28.0223 43.9926L28.3354 44.0042C28.2349 44.1279 28.1034 44.2671 27.9411 44.4217C27.7865 44.5763 27.5932 44.7116 27.3613 44.8275C27.1372 44.9357 26.8666 44.9898 26.5497 44.9898C26.0395 44.9898 25.595 44.8816 25.2162 44.6652C24.8451 44.441 24.5552 44.1279 24.3465 43.7259C24.1378 43.3162 24.0334 42.8408 24.0334 42.2997C24.0334 41.8127 24.1533 41.3643 24.3929 40.9546C24.6403 40.5449 24.9688 40.2203 25.3785 39.9806C25.7882 39.7333 26.2404 39.6096 26.7352 39.6096ZM26.7352 40.8851C26.4878 40.8851 26.2636 40.9508 26.0626 41.0822C25.8694 41.2059 25.7148 41.3759 25.5988 41.5924C25.4829 41.8011 25.4249 42.0369 25.4249 42.2997C25.4249 42.5857 25.479 42.837 25.5872 43.0534C25.6955 43.2621 25.8462 43.4245 26.0395 43.5404C26.2404 43.6564 26.4724 43.7143 26.7352 43.7143C26.9826 43.7143 27.2029 43.6525 27.3961 43.5288C27.5971 43.4051 27.7556 43.2351 27.8715 43.0186C27.9875 42.8022 28.0455 42.5625 28.0455 42.2997C28.0455 42.0291 27.9875 41.7895 27.8715 41.5808C27.7556 41.3643 27.5971 41.1943 27.3961 41.0706C27.2029 40.9469 26.9826 40.8851 26.7352 40.8851ZM34.5199 43.7607L34.4967 43.494C34.7904 43.6254 35.0455 43.7955 35.262 44.0042C35.4784 44.213 35.6446 44.441 35.7606 44.6884C35.8765 44.9357 35.9345 45.1908 35.9345 45.4537C35.9345 45.8943 35.8108 46.3001 35.5635 46.6712C35.3238 47.0345 34.9992 47.3283 34.5895 47.5524C34.1797 47.7689 33.7237 47.8771 33.2212 47.8771C32.7187 47.8771 32.2626 47.7689 31.8529 47.5524C31.4432 47.3283 31.1147 47.0345 30.8673 46.6712C30.6277 46.3001 30.5079 45.8943 30.5079 45.4537C30.5079 45.0981 30.5813 44.7927 30.7282 44.5376C30.8828 44.2748 31.0722 44.0545 31.2964 43.8767C31.5283 43.6989 31.7563 43.552 31.9805 43.4361L31.8877 43.7607C31.6945 43.6834 31.5051 43.5752 31.3195 43.4361C31.1417 43.2892 30.9949 43.1037 30.8789 42.8795C30.763 42.6553 30.705 42.3925 30.705 42.091C30.705 41.6581 30.8171 41.2677 31.0413 40.9199C31.2654 40.5643 31.5669 40.2821 31.9457 40.0734C32.3322 39.8647 32.7574 39.7603 33.2212 39.7603C33.6927 39.7603 34.114 39.8647 34.4851 40.0734C34.8639 40.2821 35.1654 40.5643 35.3895 40.9199C35.6137 41.2677 35.7258 41.6581 35.7258 42.091C35.7258 42.4234 35.6601 42.7017 35.5287 42.9259C35.3973 43.15 35.2388 43.3278 35.0533 43.4592C34.8677 43.5907 34.6899 43.6912 34.5199 43.7607ZM32.0964 42.1142C32.0964 42.3229 32.1428 42.5084 32.2356 42.6708C32.3361 42.8331 32.4714 42.9645 32.6414 43.065C32.8115 43.1578 33.0047 43.2041 33.2212 43.2041C33.4376 43.2041 33.627 43.1578 33.7894 43.065C33.9594 42.9645 34.0908 42.8331 34.1836 42.6708C34.2841 42.5084 34.3344 42.3229 34.3344 42.1142C34.3344 41.805 34.2261 41.5499 34.0097 41.3489C33.801 41.1402 33.5381 41.0358 33.2212 41.0358C32.8965 41.0358 32.626 41.1402 32.4095 41.3489C32.2008 41.5499 32.0964 41.805 32.0964 42.1142ZM33.2212 46.6016C33.5922 46.6016 33.9053 46.4895 34.1604 46.2653C34.4155 46.0334 34.5431 45.7551 34.5431 45.4305C34.5431 45.2063 34.4851 45.0053 34.3691 44.8275C34.2532 44.6497 34.0947 44.5106 33.8937 44.4101C33.6927 44.3018 33.4686 44.2477 33.2212 44.2477C32.9738 44.2477 32.7496 44.3018 32.5487 44.4101C32.3477 44.5106 32.1892 44.6497 32.0732 44.8275C31.9573 45.0053 31.8993 45.2063 31.8993 45.4305C31.8993 45.7551 32.0269 46.0334 32.282 46.2653C32.5371 46.4895 32.8501 46.6016 33.2212 46.6016ZM38.7157 47.9351C38.5224 47.9351 38.3524 47.8732 38.2055 47.7496C38.0664 47.6181 37.9968 47.4558 37.9968 47.2625C37.9968 47.1543 38.02 47.05 38.0664 46.9495L40.9072 40.7923L41.0348 41.1054H37.6837C37.4982 41.1054 37.3436 41.0435 37.2199 40.9199C37.0962 40.7962 37.0344 40.6416 37.0344 40.456C37.0344 40.2782 37.0962 40.1314 37.2199 40.0154C37.3436 39.8917 37.4982 39.8299 37.6837 39.8299H41.7189C41.9199 39.8299 42.0938 39.8956 42.2407 40.027C42.3953 40.1507 42.4726 40.313 42.4726 40.514C42.4726 40.6145 42.4494 40.7189 42.403 40.8271L39.3535 47.4945C39.2993 47.6336 39.2104 47.7418 39.0868 47.8191C38.9708 47.8964 38.8471 47.9351 38.7157 47.9351ZM45.7142 47.9931C45.2967 47.9931 44.918 47.908 44.5778 47.738C44.2454 47.5602 43.9594 47.3205 43.7198 47.019C43.4879 46.7176 43.3062 46.3774 43.1748 45.9986C43.0511 45.6199 42.9892 45.2295 42.9892 44.8275C42.9892 44.5647 43.0163 44.2477 43.0704 43.8767C43.1323 43.5056 43.2366 43.1153 43.3835 42.7055C43.5304 42.2958 43.7352 41.8977 43.9981 41.5112C44.2609 41.1247 44.5933 40.7768 44.9953 40.4676C45.405 40.1584 45.9036 39.9226 46.4911 39.7603C46.5838 39.7371 46.6727 39.7255 46.7578 39.7255C46.9356 39.7255 47.094 39.7719 47.2332 39.8647C47.38 39.9574 47.4535 40.1275 47.4535 40.3749C47.4535 40.5449 47.3955 40.6957 47.2796 40.8271C47.1713 40.9508 47.0245 41.0397 46.8389 41.0938C46.5761 41.1711 46.3133 41.287 46.0504 41.4416C45.7953 41.5885 45.5557 41.7702 45.3315 41.9866C45.1151 42.2031 44.9257 42.4504 44.7633 42.7287C44.6087 42.9993 44.4967 43.293 44.4271 43.61L44.114 43.5984C44.2222 43.467 44.3536 43.3278 44.5082 43.181C44.6706 43.0264 44.8638 42.8949 45.088 42.7867C45.3199 42.6708 45.5905 42.6128 45.8997 42.6128C46.2012 42.6128 46.4988 42.6824 46.7925 42.8215C47.094 42.9606 47.3646 43.1539 47.6042 43.4013C47.8516 43.6409 48.0487 43.9269 48.1956 44.2593C48.3425 44.584 48.4159 44.9319 48.4159 45.3029C48.4159 45.7977 48.2922 46.2499 48.0449 46.6596C47.8052 47.0693 47.4805 47.394 47.0708 47.6336C46.6689 47.8732 46.2166 47.9931 45.7142 47.9931ZM45.7142 46.7176C45.9615 46.7176 46.1819 46.6557 46.3751 46.532C46.5761 46.4084 46.7346 46.2383 46.8505 46.0218C46.9665 45.8054 47.0245 45.5658 47.0245 45.3029C47.0245 45.0324 46.9665 44.7927 46.8505 44.584C46.7346 44.3676 46.5761 44.1975 46.3751 44.0738C46.1819 43.9501 45.9615 43.8883 45.7142 43.8883C45.4668 43.8883 45.2426 43.9501 45.0416 44.0738C44.8484 44.1975 44.6938 44.3676 44.5778 44.584C44.4619 44.7927 44.4039 45.0324 44.4039 45.3029C44.4039 45.5658 44.4619 45.8054 44.5778 46.0218C44.6938 46.2383 44.8484 46.4084 45.0416 46.532C45.2426 46.6557 45.4668 46.7176 45.7142 46.7176ZM51.6132 47.9931C51.3271 47.9931 51.0218 47.9505 50.6971 47.8655C50.3725 47.7727 50.1058 47.6413 49.897 47.4713C49.7965 47.3862 49.7154 47.278 49.6535 47.1466C49.5994 47.0074 49.5724 46.876 49.5724 46.7523C49.5724 46.6209 49.6265 46.4972 49.7347 46.3813C49.8507 46.2653 50.013 46.2074 50.2217 46.2074C50.3609 46.2074 50.5348 46.2808 50.7435 46.4277C50.8672 46.505 51.0025 46.5746 51.1493 46.6364C51.2962 46.6982 51.447 46.7292 51.6016 46.7292C51.9726 46.7292 52.2934 46.6635 52.564 46.532C52.8346 46.3929 53.0433 46.2035 53.1901 45.9639C53.337 45.7242 53.4105 45.4421 53.4105 45.1174C53.4105 44.8236 53.3409 44.5724 53.2017 44.3637C53.0703 44.155 52.8925 43.9926 52.6683 43.8767C52.4519 43.7607 52.2161 43.7028 51.961 43.7028C51.7214 43.7028 51.5127 43.7414 51.3349 43.8187C51.1571 43.896 50.9947 43.9772 50.8479 44.0622C50.701 44.1395 50.5541 44.1782 50.4072 44.1782C50.1521 44.1782 49.9628 44.1241 49.8391 44.0158C49.7154 43.8999 49.6381 43.7646 49.6072 43.61C49.5762 43.4554 49.5685 43.3162 49.584 43.1926L49.9434 40.3749C49.9743 40.2125 50.0516 40.0811 50.1753 39.9806C50.3067 39.8724 50.4614 39.8183 50.6392 39.8183H53.9902C54.1758 39.8183 54.3304 39.8801 54.454 40.0038C54.5777 40.1275 54.6396 40.2821 54.6396 40.4676C54.6396 40.6454 54.5777 40.7962 54.454 40.9199C54.3304 41.0358 54.1758 41.0938 53.9902 41.0938H50.9986L51.1262 40.9894L50.8131 43.3433L50.6623 42.9027C50.7087 42.8254 50.8092 42.7519 50.9638 42.6824C51.1184 42.6128 51.2962 42.5548 51.4972 42.5084C51.6982 42.4543 51.8953 42.4273 52.0886 42.4273C52.6065 42.4273 53.0703 42.5471 53.48 42.7867C53.8897 43.0186 54.2105 43.3394 54.4424 43.7491C54.6821 44.1511 54.8019 44.6072 54.8019 45.1174C54.8019 45.6972 54.6705 46.2035 54.4077 46.6364C54.1448 47.0693 53.7738 47.4056 53.2945 47.6452C52.823 47.8771 52.2625 47.9931 51.6132 47.9931ZM60.0102 47.8771C59.817 47.8771 59.6547 47.8114 59.5232 47.68C59.3918 47.5408 59.3261 47.3708 59.3261 47.1698V41.7199L59.5696 41.7779L57.3317 44.5492L57.2737 44.3985H61.3785C61.564 44.3985 61.7186 44.4603 61.8423 44.584C61.966 44.7077 62.0279 44.8623 62.0279 45.0478C62.0279 45.2256 61.966 45.3764 61.8423 45.5C61.7186 45.616 61.564 45.674 61.3785 45.674H56.3113C56.149 45.674 55.9905 45.6083 55.8359 45.4769C55.689 45.3454 55.6156 45.1831 55.6156 44.9898C55.6156 44.8198 55.6736 44.6652 55.7895 44.526L59.4537 40.0386C59.5155 39.9536 59.5967 39.8879 59.6972 39.8415C59.7977 39.7874 59.9098 39.7603 60.0334 39.7603C60.2344 39.7603 60.3968 39.8299 60.5204 39.969C60.6519 40.1004 60.7176 40.2666 60.7176 40.4676V47.1698C60.7176 47.3708 60.648 47.5408 60.5089 47.68C60.3774 47.8114 60.2112 47.8771 60.0102 47.8771ZM63.6152 46.2422C63.6847 46.2422 63.7582 46.2537 63.8355 46.2769C63.9205 46.3001 64.0133 46.3465 64.1138 46.4161C64.2452 46.5166 64.3998 46.6055 64.5776 46.6828C64.7631 46.7601 64.9757 46.7987 65.2153 46.7987C65.455 46.7987 65.6791 46.7408 65.8879 46.6248C66.1043 46.5011 66.2821 46.331 66.4213 46.1146C66.5604 45.8904 66.63 45.6237 66.63 45.3145C66.63 45.0208 66.5681 44.7773 66.4444 44.584C66.3285 44.3907 66.17 44.2439 65.969 44.1434C65.7758 44.0429 65.5671 43.9926 65.3429 43.9926C65.1728 43.9926 65.0298 44.0081 64.9138 44.039C64.8056 44.0699 64.6974 44.1047 64.5892 44.1434C64.4887 44.1743 64.3689 44.1898 64.2297 44.1898C64.0519 44.1898 63.9128 44.1279 63.8123 44.0042C63.7195 43.8805 63.6731 43.7337 63.6731 43.5636C63.6731 43.4554 63.6925 43.3588 63.7311 43.2737C63.7775 43.1887 63.8432 43.0959 63.9282 42.9954L65.969 40.8271L66.2821 41.0938H63.4296C63.2441 41.0938 63.0895 41.0319 62.9658 40.9083C62.8421 40.7846 62.7803 40.63 62.7803 40.4444C62.7803 40.2666 62.8421 40.1198 62.9658 40.0038C63.0895 39.8801 63.2441 39.8183 63.4296 39.8183H66.9778C67.2175 39.8183 67.3953 39.884 67.5112 40.0154C67.6349 40.1468 67.6967 40.313 67.6967 40.514C67.6967 40.6145 67.6697 40.715 67.6156 40.8155C67.5615 40.9083 67.4958 40.9933 67.4185 41.0706L65.3661 43.2737L65.053 42.8795C65.138 42.8408 65.254 42.806 65.4009 42.7751C65.5555 42.7442 65.683 42.7287 65.7835 42.7287C66.2396 42.7287 66.6338 42.8486 66.9662 43.0882C67.3064 43.3201 67.5653 43.6254 67.7431 44.0042C67.9287 44.3753 68.0214 44.7773 68.0214 45.2102C68.0214 45.7822 67.8939 46.2769 67.6388 46.6944C67.3837 47.1118 67.0242 47.4326 66.5604 47.6568C66.0966 47.881 65.5555 47.9931 64.937 47.9931C64.651 47.9931 64.3689 47.9583 64.0906 47.8887C63.8123 47.8191 63.5726 47.7264 63.3717 47.6104C63.2016 47.5176 63.0856 47.4172 63.0238 47.3089C62.9697 47.193 62.9426 47.0848 62.9426 46.9843C62.9426 46.8065 63.0045 46.6403 63.1282 46.4857C63.2596 46.3233 63.4219 46.2422 63.6152 46.2422ZM73.8552 46.6016C74.0407 46.6016 74.1953 46.6635 74.319 46.7871C74.4427 46.9108 74.5045 47.0654 74.5045 47.251C74.5045 47.4287 74.4427 47.5795 74.319 47.7032C74.1953 47.8191 74.0407 47.8771 73.8552 47.8771H69.9127C69.7118 47.8771 69.5533 47.8153 69.4373 47.6916C69.3214 47.5679 69.2634 47.4094 69.2634 47.2162C69.2634 47.0229 69.333 46.8528 69.4721 46.706L71.9999 44.0042C72.2859 43.695 72.5101 43.3781 72.6725 43.0534C72.8425 42.7287 72.9276 42.4466 72.9276 42.2069C72.9276 41.8204 72.8155 41.5112 72.5913 41.2793C72.3671 41.0397 72.0695 40.9199 71.6984 40.9199C71.5516 40.9199 71.4008 40.9546 71.2462 41.0242C71.0916 41.0938 70.9409 41.1904 70.794 41.3141C70.6548 41.4378 70.5234 41.5808 70.3997 41.7431C70.307 41.8668 70.2142 41.9441 70.1215 41.975C70.0287 42.006 69.9437 42.0214 69.8664 42.0214C69.6963 42.0214 69.5378 41.9596 69.3909 41.8359C69.2518 41.7045 69.1822 41.5537 69.1822 41.3837C69.1822 41.2523 69.2247 41.1247 69.3098 41.001C69.4025 40.8773 69.5146 40.7498 69.646 40.6184C69.8393 40.4251 70.0557 40.255 70.2954 40.1082C70.535 39.9613 70.7824 39.8492 71.0375 39.7719C71.2926 39.6869 71.54 39.6444 71.7796 39.6444C72.2975 39.6444 72.7459 39.7487 73.1247 39.9574C73.5112 40.1584 73.8088 40.4483 74.0175 40.8271C74.2262 41.1981 74.3306 41.6388 74.3306 42.149C74.3306 42.5741 74.203 43.0495 73.9479 43.5752C73.7006 44.0931 73.3643 44.5801 72.9391 45.0362L71.3738 46.706L71.2462 46.6016H73.8552ZM77.9059 47.8771C77.6894 47.8771 77.5116 47.8114 77.3725 47.68C77.2333 47.5408 77.1638 47.3708 77.1638 47.1698V41.3257L77.3261 41.5808L76.4796 42.2069C76.3714 42.292 76.2361 42.3345 76.0738 42.3345C75.8883 42.3345 75.7259 42.2649 75.5868 42.1258C75.4477 41.9866 75.3781 41.8204 75.3781 41.6272C75.3781 41.3798 75.4979 41.1788 75.7375 41.0242L77.4073 39.911C77.4846 39.8569 77.5696 39.8183 77.6624 39.7951C77.7629 39.7719 77.8556 39.7603 77.9407 39.7603C78.1648 39.7603 78.3426 39.8299 78.4741 39.969C78.6055 40.1004 78.6712 40.2666 78.6712 40.4676V47.1698C78.6712 47.3708 78.5977 47.5408 78.4509 47.68C78.3117 47.8114 78.1301 47.8771 77.9059 47.8771ZM83.2128 47.9931C82.548 47.9931 81.9837 47.8191 81.5199 47.4713C81.0638 47.1157 80.7159 46.6248 80.4763 45.9986C80.2366 45.3648 80.1168 44.6381 80.1168 43.8187C80.1168 42.9916 80.2366 42.2649 80.4763 41.6388C80.7159 41.0126 81.0638 40.5256 81.5199 40.1777C81.9837 39.8221 82.548 39.6444 83.2128 39.6444C83.8776 39.6444 84.438 39.8221 84.8941 40.1777C85.3579 40.5256 85.7097 41.0126 85.9493 41.6388C86.1889 42.2649 86.3088 42.9916 86.3088 43.8187C86.3088 44.6381 86.1889 45.3648 85.9493 45.9986C85.7097 46.6248 85.3579 47.1157 84.8941 47.4713C84.438 47.8191 83.8776 47.9931 83.2128 47.9931ZM83.2128 46.6016C83.5375 46.6016 83.8158 46.5011 84.0477 46.3001C84.2873 46.0914 84.4728 45.7822 84.6042 45.3725C84.7357 44.9551 84.8014 44.4371 84.8014 43.8187C84.8014 43.1926 84.7357 42.6746 84.6042 42.2649C84.4728 41.8552 84.2873 41.5499 84.0477 41.3489C83.8158 41.1402 83.5375 41.0358 83.2128 41.0358C82.8958 41.0358 82.6176 41.1402 82.3779 41.3489C82.1383 41.5499 81.9528 41.8552 81.8213 42.2649C81.6899 42.6746 81.6242 43.1926 81.6242 43.8187C81.6242 44.4371 81.6899 44.9551 81.8213 45.3725C81.9528 45.7822 82.1383 46.0914 82.3779 46.3001C82.6176 46.5011 82.8958 46.6016 83.2128 46.6016Z" fill="black"/>
<path d="M67.3839 7.51944L109.006 7.41887L108.94 62.6553L19.4426 54.0056" stroke="#37C837" stroke-width="0.289887"/>
<path d="M19.1476 24.0533L19 15.6666" stroke="#37C837" stroke-width="0.289887"/>
<path d="M35.2066 4.07067C35.2994 4.13251 35.3535 4.21368 35.3689 4.31417C35.3844 4.40693 35.3612 4.4997 35.2994 4.59246C35.2453 4.66203 35.1757 4.70068 35.0906 4.70842C35.0056 4.71615 34.9244 4.70069 34.8471 4.66203C34.5534 4.46878 34.2365 4.31804 33.8963 4.20981C33.5639 4.10159 33.2045 4.04748 32.8179 4.04748C32.3464 4.04748 31.9058 4.13251 31.4961 4.30258C31.0941 4.46491 30.7424 4.70455 30.4409 5.02149C30.1394 5.3307 29.9036 5.69789 29.7336 6.12306C29.5712 6.54822 29.4901 7.01591 29.4901 7.5261C29.4901 8.05176 29.5751 8.53104 29.7452 8.96394C29.9152 9.3891 30.151 9.75629 30.4525 10.0655C30.7617 10.3747 31.1173 10.6105 31.5193 10.7728C31.9212 10.9352 32.3541 11.0163 32.8179 11.0163C33.1967 11.0163 33.5523 10.9622 33.8847 10.854C34.2249 10.7458 34.5418 10.5989 34.8355 10.4134C34.9129 10.367 34.994 10.3515 35.0791 10.367C35.1718 10.3747 35.2453 10.4172 35.2994 10.4945C35.3689 10.5796 35.3921 10.6723 35.3689 10.7728C35.3535 10.8656 35.3032 10.939 35.2182 10.9931C35.0249 11.1168 34.7969 11.2328 34.5341 11.341C34.2712 11.4492 33.9929 11.5343 33.6992 11.5961C33.4054 11.6657 33.1117 11.7005 32.8179 11.7005C32.2614 11.7005 31.7396 11.6 31.2526 11.399C30.7656 11.198 30.3327 10.9158 29.9539 10.5525C29.5751 10.1815 29.2775 9.74083 29.061 9.23063C28.8523 8.72043 28.748 8.15226 28.748 7.5261C28.748 6.92314 28.8523 6.37043 29.061 5.86796C29.2697 5.35776 29.5596 4.91713 29.9307 4.54608C30.3017 4.17503 30.7346 3.88514 31.2294 3.67642C31.7241 3.4677 32.2536 3.36335 32.8179 3.36335C33.2586 3.36335 33.6837 3.42519 34.0934 3.54887C34.5031 3.67256 34.8742 3.84649 35.2066 4.07067ZM41.5414 5.65924C41.6419 5.65924 41.7231 5.69403 41.7849 5.7636C41.8545 5.83317 41.8893 5.9182 41.8893 6.0187V11.2366C41.8893 11.3294 41.8545 11.4106 41.7849 11.4801C41.7154 11.5497 41.6342 11.5845 41.5414 11.5845C41.4409 11.5845 41.3559 11.5497 41.2863 11.4801C41.2245 11.4106 41.1936 11.3294 41.1936 11.2366V9.85678L41.3907 9.76402C41.3907 9.98047 41.3288 10.2008 41.2052 10.425C41.0892 10.6491 40.9269 10.8579 40.7181 11.0511C40.5094 11.2444 40.2621 11.4028 39.976 11.5265C39.6977 11.6425 39.3963 11.7005 39.0716 11.7005C38.5459 11.7005 38.0744 11.5652 37.657 11.2946C37.2472 11.0241 36.9226 10.653 36.6829 10.1815C36.451 9.70991 36.3351 9.18038 36.3351 8.59288C36.3351 7.98992 36.4549 7.4604 36.6945 7.00431C36.9342 6.54049 37.2588 6.17717 37.6685 5.91434C38.0783 5.65151 38.5421 5.5201 39.06 5.5201C39.3924 5.5201 39.7016 5.57807 39.9876 5.69403C40.2814 5.80998 40.5365 5.96845 40.7529 6.16944C40.9694 6.37043 41.1356 6.60234 41.2515 6.86516C41.3752 7.12026 41.4371 7.38696 41.4371 7.66525L41.1936 7.49132V6.0187C41.1936 5.9182 41.2245 5.83317 41.2863 5.7636C41.3559 5.69403 41.4409 5.65924 41.5414 5.65924ZM39.1296 11.0511C39.5393 11.0511 39.9026 10.9468 40.2195 10.738C40.5365 10.5216 40.7839 10.2278 40.9616 9.85678C41.1472 9.478 41.2399 9.0567 41.2399 8.59288C41.2399 8.1368 41.1472 7.72709 40.9616 7.36377C40.7839 7.00044 40.5365 6.71056 40.2195 6.49411C39.9026 6.27766 39.5393 6.16944 39.1296 6.16944C38.7276 6.16944 38.3643 6.2738 38.0396 6.48252C37.7227 6.69123 37.4714 6.97725 37.2859 7.34058C37.1081 7.7039 37.0192 8.12134 37.0192 8.59288C37.0192 9.0567 37.1081 9.478 37.2859 9.85678C37.4714 10.2278 37.7227 10.5216 38.0396 10.738C38.3565 10.9468 38.7199 11.0511 39.1296 11.0511ZM44.4802 11.2366C44.4802 11.3294 44.4454 11.4106 44.3759 11.4801C44.3063 11.5497 44.2251 11.5845 44.1324 11.5845C44.0319 11.5845 43.9468 11.5497 43.8773 11.4801C43.8154 11.4106 43.7845 11.3294 43.7845 11.2366V3.35175C43.7845 3.25899 43.8193 3.17782 43.8889 3.10825C43.9584 3.03867 44.0396 3.00389 44.1324 3.00389C44.2329 3.00389 44.314 3.03867 44.3759 3.10825C44.4454 3.17782 44.4802 3.25899 44.4802 3.35175V11.2366ZM47.1526 11.2366C47.1526 11.3294 47.1178 11.4106 47.0482 11.4801C46.9787 11.5497 46.8975 11.5845 46.8047 11.5845C46.7043 11.5845 46.6192 11.5497 46.5496 11.4801C46.4878 11.4106 46.4569 11.3294 46.4569 11.2366V3.35175C46.4569 3.25899 46.4917 3.17782 46.5612 3.10825C46.6308 3.03867 46.712 3.00389 46.8047 3.00389C46.9052 3.00389 46.9864 3.03867 47.0482 3.10825C47.1178 3.17782 47.1526 3.25899 47.1526 3.35175V11.2366ZM58.144 3.4677C58.2522 3.4677 58.3372 3.50249 58.3991 3.57206C58.4609 3.63391 58.4918 3.71507 58.4918 3.81557V8.61607C58.4918 9.18812 58.3566 9.70604 58.086 10.1699C57.8154 10.6337 57.4521 11.0047 56.996 11.283C56.54 11.5536 56.0259 11.6889 55.4538 11.6889C54.8818 11.6889 54.3639 11.5536 53.9001 11.283C53.444 11.0047 53.0806 10.6337 52.8101 10.1699C52.5395 9.70604 52.4042 9.18812 52.4042 8.61607V3.81557C52.4042 3.71507 52.4352 3.63391 52.497 3.57206C52.5666 3.50249 52.6593 3.4677 52.7753 3.4677C52.8681 3.4677 52.9492 3.50249 53.0188 3.57206C53.0884 3.63391 53.1232 3.71507 53.1232 3.81557V8.61607C53.1232 9.06443 53.2275 9.46641 53.4362 9.822C53.6527 10.1776 53.9387 10.4636 54.2943 10.6801C54.6499 10.8888 55.0364 10.9931 55.4538 10.9931C55.8867 10.9931 56.281 10.8888 56.6366 10.6801C56.9922 10.4636 57.2743 10.1776 57.483 9.822C57.6995 9.46641 57.8077 9.06443 57.8077 8.61607V3.81557C57.8077 3.71507 57.8386 3.63391 57.9005 3.57206C57.9623 3.50249 58.0435 3.4677 58.144 3.4677ZM60.1603 10.6453C60.0985 10.5525 60.0676 10.4636 60.0676 10.3786C60.0753 10.2858 60.1255 10.2124 60.2183 10.1583C60.2801 10.1042 60.3497 10.081 60.427 10.0887C60.512 10.0964 60.5894 10.1351 60.6589 10.2046C60.8676 10.4752 61.1189 10.6955 61.4126 10.8656C61.7141 11.0279 62.0697 11.1091 62.4794 11.1091C62.6959 11.1091 62.9084 11.0743 63.1172 11.0047C63.3336 10.9274 63.5114 10.8153 63.6505 10.6685C63.7897 10.5139 63.8593 10.3206 63.8593 10.0887C63.8593 9.84905 63.7897 9.6558 63.6505 9.50892C63.5114 9.36205 63.3297 9.24609 63.1056 9.16106C62.8891 9.07603 62.6572 9.00259 62.4098 8.94075C62.147 8.87117 61.8919 8.79387 61.6445 8.70884C61.3972 8.61607 61.1769 8.50398 60.9836 8.37257C60.7981 8.23343 60.6473 8.06722 60.5314 7.87397C60.4154 7.68071 60.3574 7.44494 60.3574 7.16665C60.3574 6.84197 60.4463 6.55595 60.6241 6.30858C60.8019 6.06122 61.0416 5.86796 61.3431 5.72881C61.6523 5.58967 62.0001 5.5201 62.3866 5.5201C62.5799 5.5201 62.7886 5.54715 63.0128 5.60126C63.237 5.64764 63.4573 5.72881 63.6737 5.84477C63.8902 5.96072 64.0834 6.11919 64.2535 6.32018C64.3231 6.38975 64.3579 6.47092 64.3579 6.56368C64.3579 6.64872 64.3192 6.72602 64.2419 6.79559C64.1801 6.84197 64.1066 6.86516 64.0216 6.86516C63.9443 6.86516 63.8786 6.83424 63.8245 6.7724C63.6389 6.56368 63.4186 6.40521 63.1635 6.29699C62.9084 6.18876 62.634 6.13465 62.3403 6.13465C62.1161 6.13465 61.9035 6.1733 61.7025 6.25061C61.5093 6.32018 61.3469 6.4284 61.2155 6.57528C61.0841 6.72215 61.0184 6.91541 61.0184 7.15505C61.0338 7.37923 61.1111 7.56089 61.2503 7.70004C61.3972 7.83918 61.5866 7.95513 61.8185 8.0479C62.0581 8.14066 62.3248 8.22569 62.6186 8.303C62.8659 8.36484 63.1017 8.43828 63.3259 8.52331C63.5578 8.60834 63.7588 8.71657 63.9288 8.84798C64.1066 8.97167 64.2458 9.13014 64.3463 9.3234C64.4545 9.51665 64.5086 9.76016 64.5086 10.0539C64.5086 10.394 64.412 10.6878 64.2187 10.9352C64.0332 11.1825 63.782 11.3719 63.465 11.5033C63.1481 11.6348 62.7963 11.7005 62.4098 11.7005C61.9924 11.7005 61.5866 11.6193 61.1923 11.457C60.8058 11.2946 60.4618 11.0241 60.1603 10.6453Z" fill="black"/>
</svg>
