<svg width="250" height="250" viewBox="0 0 250 250" fill="none" xmlns="http://www.w3.org/2000/svg">
<path d="M169.594 111.656C170.321 112.382 170.899 113.244 171.292 114.193C171.686 115.142 171.889 116.16 171.889 117.188C171.889 118.215 171.686 119.233 171.292 120.182C170.899 121.131 170.321 121.993 169.594 122.719L122.719 169.594C121.993 170.321 121.131 170.899 120.182 171.292C119.233 171.686 118.215 171.889 117.187 171.889C116.16 171.889 115.142 171.686 114.193 171.292C113.244 170.899 112.382 170.321 111.656 169.594L88.2187 146.156C87.4924 145.43 86.9162 144.568 86.5231 143.619C86.1299 142.669 85.9276 141.652 85.9276 140.625C85.9276 139.598 86.1299 138.581 86.5231 137.632C86.9162 136.682 87.4924 135.82 88.2187 135.094C89.6857 133.627 91.6754 132.803 93.75 132.803C94.7772 132.803 95.7944 133.005 96.7435 133.398C97.6925 133.791 98.5549 134.367 99.2812 135.094L117.187 153.016L158.531 111.656C159.257 110.929 160.119 110.352 161.068 109.958C162.017 109.564 163.035 109.361 164.062 109.361C165.09 109.361 166.108 109.564 167.057 109.958C168.006 110.352 168.868 110.929 169.594 111.656V111.656Z" fill="black"/>
<path d="M54.6875 0C56.7595 0 58.7466 0.8231 60.2118 2.28823C61.6769 3.75336 62.5 5.7405 62.5 7.8125V15.625H187.5V7.8125C187.5 5.7405 188.323 3.75336 189.788 2.28823C191.253 0.8231 193.24 0 195.312 0C197.385 0 199.372 0.8231 200.837 2.28823C202.302 3.75336 203.125 5.7405 203.125 7.8125V15.625H218.75C227.038 15.625 234.987 18.9174 240.847 24.7779C246.708 30.6384 250 38.587 250 46.875V218.75C250 227.038 246.708 234.987 240.847 240.847C234.987 246.708 227.038 250 218.75 250H31.25C22.962 250 15.0134 246.708 9.15291 240.847C3.2924 234.987 0 227.038 0 218.75V46.875C0 38.587 3.2924 30.6384 9.15291 24.7779C15.0134 18.9174 22.962 15.625 31.25 15.625H46.875V7.8125C46.875 5.7405 47.6981 3.75336 49.1632 2.28823C50.6284 0.8231 52.6155 0 54.6875 0V0ZM15.625 62.5V218.75C15.625 222.894 17.2712 226.868 20.2015 229.799C23.1317 232.729 27.106 234.375 31.25 234.375H218.75C222.894 234.375 226.868 232.729 229.799 229.799C232.729 226.868 234.375 222.894 234.375 218.75V62.5H15.625Z" fill="black"/>
</svg>
