<svg width="250" height="250" viewBox="0 0 250 250" fill="none" xmlns="http://www.w3.org/2000/svg">
<path d="M20.8333 250C20.8333 250 0 250 0 229.167C0 208.333 20.8333 145.833 125 145.833C229.167 145.833 250 208.333 250 229.167C250 250 229.167 250 229.167 250H20.8333ZM125 125C141.576 125 157.473 118.415 169.194 106.694C180.915 94.9732 187.5 79.076 187.5 62.5C187.5 45.924 180.915 30.0269 169.194 18.3058C157.473 6.5848 141.576 0 125 0C108.424 0 92.5269 6.5848 80.8058 18.3058C69.0848 30.0269 62.5 45.924 62.5 62.5C62.5 79.076 69.0848 94.9732 80.8058 106.694C92.5269 118.415 108.424 125 125 125V125Z" fill="black"/>
</svg>
