<svg width="22" height="20" viewBox="0 0 22 20" fill="none" xmlns="http://www.w3.org/2000/svg">
<path d="M14.0826 2.86214e-06C9.05368 -0.00299714 4.1959 2.35261 1.7712 5.96759C1.10159 6.96588 0.547925 8.18448 0.276196 9.25937C0.000807494 10.3485 -0.0819804 12.1216 0.0886125 13.2705C0.578201 16.5678 3.1323 18.9405 6.69958 19.4122C7.4644 19.5133 7.72954 19.5159 8.62711 19.4376C10.8759 19.2391 13.1635 18.0213 14.3864 16.3716C14.8926 15.6889 14.82 15.6285 13.9911 16.0441C13.4355 16.3227 11.9839 16.8332 11.4171 16.9494C8.9104 17.4635 6.77769 17.0934 5.27693 15.8833C5.02748 15.6822 4.76553 15.4384 4.69505 15.3418C4.33026 14.841 4.11353 14.5111 3.98915 14.2674C3.7622 13.8228 3.44958 12.8235 3.37265 12.297C3.29058 11.7358 3.32446 10.2037 3.42433 9.96689C3.45999 9.88229 3.55001 9.6193 3.62432 9.38242C3.80472 8.80719 4.22715 8.03635 4.66146 7.49054C5.87114 5.9703 7.66552 4.93037 9.41414 4.73569C11.5252 4.50066 13.5558 5.42198 14.3281 6.965C14.6385 7.58534 14.7205 8.00244 14.682 8.76645C14.6238 9.92194 14.0726 10.961 13.11 11.727C12.1312 12.506 10.7863 12.8277 9.51491 12.5874C8.77506 12.4475 8.19649 12.2613 8.15324 12.1487C8.10828 12.0316 8.14141 12.021 8.82245 11.9373C9.90807 11.8039 10.6893 11.5206 11.3494 11.0216C12.5103 10.1442 12.7285 8.58967 11.8109 7.73139C11.6513 7.58211 11.3844 7.39444 11.2177 7.31488C10.946 7.18523 10.8282 7.1701 10.0839 7.16965C9.13771 7.16965 8.88923 7.23433 7.89951 7.74378C7.14143 8.13398 6.34781 8.9143 5.97508 9.63617C5.50359 10.5492 5.39919 11.4583 5.65107 12.4536C5.83212 13.169 5.9474 13.4255 6.29134 13.8814C6.80553 14.5629 7.68058 15.0903 8.61988 15.2839C9.22185 15.408 10.3931 15.4114 11.0869 15.2899C13.0286 14.9513 14.9258 13.6924 16.0375 12.0048C17.5195 9.75523 17.7852 6.54447 16.7506 3.38416C16.5037 2.6298 15.7592 1.08582 15.3337 0.446353L15.0371 0.000887872L14.0826 2.86214e-06ZM21.7286 18.4356C21.727 18.4386 21.7258 18.4405 21.7239 18.4435L21.7296 18.4406C21.7294 18.4376 21.7286 18.4356 21.7286 18.4356Z" fill="#D5D421"/>
</svg>
